solid Exported from Blender-2.80 (sub 75)
facet normal -0.866007 0.001713 -0.500030
outer loop
vertex 0.034568 0.000736 0.020127
vertex 0.034604 0.000746 0.020064
vertex 0.034641 0.000750 0.020000
endloop
endfacet
facet normal -0.866067 0.000000 -0.499929
outer loop
vertex 0.034641 0.000750 0.020000
vertex 0.034678 0.000746 0.019936
vertex 0.034714 0.000736 0.019873
endloop
endfacet
facet normal -0.866130 -0.000856 -0.499818
outer loop
vertex 0.034714 0.000736 0.019873
vertex 0.034750 0.000718 0.019811
vertex 0.034785 0.000693 0.019751
endloop
endfacet
facet normal -0.866091 -0.000428 -0.499886
outer loop
vertex 0.034785 0.000693 0.019751
vertex 0.034818 0.000661 0.019694
vertex 0.034849 0.000624 0.019639
endloop
endfacet
facet normal -0.866189 0.000428 -0.499716
outer loop
vertex 0.034849 0.000624 0.019639
vertex 0.034879 0.000580 0.019588
vertex 0.034906 0.000530 0.019541
endloop
endfacet
facet normal -0.866339 -0.000428 -0.499457
outer loop
vertex 0.034906 0.000530 0.019541
vertex 0.034931 0.000476 0.019498
vertex 0.034953 0.000417 0.019460
endloop
endfacet
facet normal -0.865961 -0.000214 -0.500111
outer loop
vertex 0.034953 0.000417 0.019460
vertex 0.034972 0.000354 0.019427
vertex 0.034987 0.000287 0.019400
endloop
endfacet
facet normal -0.866027 0.000000 -0.499998
outer loop
vertex 0.034987 0.000287 0.019400
vertex 0.035000 0.000218 0.019378
vertex 0.035009 0.000146 0.019363
endloop
endfacet
facet normal -0.865711 0.000080 -0.500544
outer loop
vertex 0.035009 0.000146 0.019363
vertex 0.035014 0.000074 0.019354
vertex 0.035016 0.000000 0.019350
endloop
endfacet
facet normal -0.865711 -0.000107 -0.500544
outer loop
vertex 0.035016 0.000000 0.019350
vertex 0.035014 -0.000074 0.019354
vertex 0.035009 -0.000146 0.019363
endloop
endfacet
facet normal -0.866027 0.000000 -0.499998
outer loop
vertex 0.035009 -0.000146 0.019363
vertex 0.035000 -0.000218 0.019378
vertex 0.034987 -0.000287 0.019400
endloop
endfacet
facet normal -0.865961 0.000000 -0.500111
outer loop
vertex 0.034987 -0.000287 0.019400
vertex 0.034972 -0.000354 0.019427
vertex 0.034953 -0.000417 0.019460
endloop
endfacet
facet normal -0.866339 0.000428 -0.499457
outer loop
vertex 0.034953 -0.000417 0.019460
vertex 0.034931 -0.000476 0.019498
vertex 0.034906 -0.000530 0.019541
endloop
endfacet
facet normal -0.866136 -0.000428 -0.499808
outer loop
vertex 0.034906 -0.000530 0.019541
vertex 0.034879 -0.000580 0.019588
vertex 0.034849 -0.000624 0.019639
endloop
endfacet
facet normal -0.866091 0.000856 -0.499886
outer loop
vertex 0.034849 -0.000624 0.019639
vertex 0.034818 -0.000661 0.019694
vertex 0.034785 -0.000693 0.019751
endloop
endfacet
facet normal -0.866130 0.000856 -0.499818
outer loop
vertex 0.034785 -0.000693 0.019751
vertex 0.034750 -0.000718 0.019811
vertex 0.034714 -0.000736 0.019873
endloop
endfacet
facet normal -0.866060 0.000000 -0.499940
outer loop
vertex 0.034714 -0.000736 0.019873
vertex 0.034678 -0.000746 0.019936
vertex 0.034641 -0.000750 0.020000
endloop
endfacet
facet normal -0.866007 -0.001713 -0.500030
outer loop
vertex 0.034641 -0.000750 0.020000
vertex 0.034604 -0.000746 0.020064
vertex 0.034568 -0.000736 0.020127
endloop
endfacet
facet normal -0.866019 0.002570 -0.500005
outer loop
vertex 0.034568 -0.000736 0.020127
vertex 0.034532 -0.000718 0.020189
vertex 0.034498 -0.000693 0.020249
endloop
endfacet
facet normal -0.866187 0.000000 -0.499721
outer loop
vertex 0.034498 -0.000693 0.020249
vertex 0.034464 -0.000661 0.020306
vertex 0.034433 -0.000624 0.020361
endloop
endfacet
facet normal -0.866126 -0.000428 -0.499826
outer loop
vertex 0.034433 -0.000624 0.020361
vertex 0.034403 -0.000580 0.020412
vertex 0.034376 -0.000530 0.020459
endloop
endfacet
facet normal -0.865994 0.000428 -0.500054
outer loop
vertex 0.034376 -0.000530 0.020459
vertex 0.034351 -0.000476 0.020502
vertex 0.034329 -0.000417 0.020540
endloop
endfacet
facet normal -0.865494 0.000642 -0.500919
outer loop
vertex 0.034329 -0.000417 0.020540
vertex 0.034310 -0.000354 0.020573
vertex 0.034295 -0.000287 0.020600
endloop
endfacet
facet normal -0.866131 0.000214 -0.499818
outer loop
vertex 0.034295 -0.000287 0.020600
vertex 0.034282 -0.000218 0.020622
vertex 0.034273 -0.000146 0.020637
endloop
endfacet
facet normal -0.865932 0.000054 -0.500162
outer loop
vertex 0.034273 -0.000146 0.020637
vertex 0.034268 -0.000074 0.020646
vertex 0.034266 -0.000000 0.020650
endloop
endfacet
facet normal -0.865932 -0.000107 -0.500162
outer loop
vertex 0.034266 -0.000000 0.020650
vertex 0.034268 0.000074 0.020646
vertex 0.034273 0.000146 0.020637
endloop
endfacet
facet normal -0.866131 -0.000214 -0.499817
outer loop
vertex 0.034273 0.000146 0.020637
vertex 0.034282 0.000218 0.020622
vertex 0.034295 0.000287 0.020600
endloop
endfacet
facet normal -0.865494 -0.000428 -0.500919
outer loop
vertex 0.034295 0.000287 0.020600
vertex 0.034310 0.000354 0.020573
vertex 0.034329 0.000417 0.020540
endloop
endfacet
facet normal -0.865994 -0.000428 -0.500054
outer loop
vertex 0.034329 0.000417 0.020540
vertex 0.034351 0.000476 0.020502
vertex 0.034376 0.000530 0.020459
endloop
endfacet
facet normal -0.866126 0.000428 -0.499826
outer loop
vertex 0.034376 0.000530 0.020459
vertex 0.034403 0.000580 0.020412
vertex 0.034433 0.000624 0.020361
endloop
endfacet
facet normal -0.866187 0.000000 -0.499721
outer loop
vertex 0.034433 0.000624 0.020361
vertex 0.034464 0.000661 0.020306
vertex 0.034498 0.000693 0.020249
endloop
endfacet
facet normal -0.866019 -0.002570 -0.500005
outer loop
vertex 0.034498 0.000693 0.020249
vertex 0.034532 0.000718 0.020189
vertex 0.034568 0.000736 0.020127
endloop
endfacet
facet normal -0.866028 -0.000647 -0.499995
outer loop
vertex 0.034568 0.000736 0.020127
vertex 0.034641 0.000750 0.020000
vertex 0.034714 0.000736 0.019873
endloop
endfacet
facet normal -0.865979 0.000000 -0.500081
outer loop
vertex 0.034714 0.000736 0.019873
vertex 0.034785 0.000693 0.019751
vertex 0.034849 0.000624 0.019639
endloop
endfacet
facet normal -0.865955 -0.000323 -0.500122
outer loop
vertex 0.034849 0.000624 0.019639
vertex 0.034906 0.000530 0.019541
vertex 0.034953 0.000417 0.019460
endloop
endfacet
facet normal -0.866046 0.000000 -0.499965
outer loop
vertex 0.034953 0.000417 0.019460
vertex 0.034987 0.000287 0.019400
vertex 0.035009 0.000146 0.019363
endloop
endfacet
facet normal -0.866016 0.000000 -0.500016
outer loop
vertex 0.035009 0.000146 0.019363
vertex 0.035016 0.000000 0.019350
vertex 0.035009 -0.000146 0.019363
endloop
endfacet
facet normal -0.866046 0.000000 -0.499965
outer loop
vertex 0.035009 -0.000146 0.019363
vertex 0.034987 -0.000287 0.019400
vertex 0.034953 -0.000417 0.019460
endloop
endfacet
facet normal -0.865968 0.000323 -0.500099
outer loop
vertex 0.034953 -0.000417 0.019460
vertex 0.034906 -0.000530 0.019541
vertex 0.034849 -0.000624 0.019639
endloop
endfacet
facet normal -0.865985 0.000000 -0.500069
outer loop
vertex 0.034849 -0.000624 0.019639
vertex 0.034785 -0.000693 0.019751
vertex 0.034714 -0.000736 0.019873
endloop
endfacet
facet normal -0.866028 0.000647 -0.499995
outer loop
vertex 0.034714 -0.000736 0.019873
vertex 0.034641 -0.000750 0.020000
vertex 0.034568 -0.000736 0.020127
endloop
endfacet
facet normal -0.866035 -0.000216 -0.499983
outer loop
vertex 0.034568 -0.000736 0.020127
vertex 0.034498 -0.000693 0.020249
vertex 0.034433 -0.000624 0.020361
endloop
endfacet
facet normal -0.866025 0.000000 -0.500001
outer loop
vertex 0.034433 -0.000624 0.020361
vertex 0.034376 -0.000530 0.020459
vertex 0.034329 -0.000417 0.020540
endloop
endfacet
facet normal -0.866203 -0.000216 -0.499692
outer loop
vertex 0.034329 -0.000417 0.020540
vertex 0.034295 -0.000287 0.020600
vertex 0.034273 -0.000146 0.020637
endloop
endfacet
facet normal -0.865850 0.000000 -0.500303
outer loop
vertex 0.034273 -0.000146 0.020637
vertex 0.034266 -0.000000 0.020650
vertex 0.034273 0.000146 0.020637
endloop
endfacet
facet normal -0.866203 0.000216 -0.499693
outer loop
vertex 0.034273 0.000146 0.020637
vertex 0.034295 0.000287 0.020600
vertex 0.034329 0.000417 0.020540
endloop
endfacet
facet normal -0.866011 0.000000 -0.500025
outer loop
vertex 0.034329 0.000417 0.020540
vertex 0.034376 0.000530 0.020459
vertex 0.034433 0.000624 0.020361
endloop
endfacet
facet normal -0.866042 0.000216 -0.499971
outer loop
vertex 0.034433 0.000624 0.020361
vertex 0.034498 0.000693 0.020249
vertex 0.034568 0.000736 0.020127
endloop
endfacet
facet normal -0.866032 0.000056 -0.499989
outer loop
vertex 0.034568 0.000736 0.020127
vertex 0.034714 0.000736 0.019873
vertex 0.034849 0.000624 0.019639
endloop
endfacet
facet normal -0.866012 0.000097 -0.500024
outer loop
vertex 0.034849 0.000624 0.019639
vertex 0.034953 0.000417 0.019460
vertex 0.035009 0.000146 0.019363
endloop
endfacet
facet normal -0.866055 0.000000 -0.499949
outer loop
vertex 0.035009 0.000146 0.019363
vertex 0.035009 -0.000146 0.019363
vertex 0.034953 -0.000417 0.019460
endloop
endfacet
facet normal -0.866023 -0.000056 -0.500003
outer loop
vertex 0.034953 -0.000417 0.019460
vertex 0.034849 -0.000624 0.019639
vertex 0.034714 -0.000736 0.019873
endloop
endfacet
facet normal -0.866028 -0.000056 -0.499995
outer loop
vertex 0.034714 -0.000736 0.019873
vertex 0.034568 -0.000736 0.020127
vertex 0.034433 -0.000624 0.020361
endloop
endfacet
facet normal -0.866042 -0.000028 -0.499971
outer loop
vertex 0.034433 -0.000624 0.020361
vertex 0.034329 -0.000417 0.020540
vertex 0.034273 -0.000146 0.020637
endloop
endfacet
facet normal -0.866020 0.000000 -0.500010
outer loop
vertex 0.034273 -0.000146 0.020637
vertex 0.034273 0.000146 0.020637
vertex 0.034329 0.000417 0.020540
endloop
endfacet
facet normal -0.866018 -0.000056 -0.500013
outer loop
vertex 0.034329 0.000417 0.020540
vertex 0.034433 0.000624 0.020361
vertex 0.034568 0.000736 0.020127
endloop
endfacet
facet normal -0.866024 0.000008 -0.500003
outer loop
vertex 0.034568 0.000736 0.020127
vertex 0.034849 0.000624 0.019639
vertex 0.035009 0.000146 0.019363
endloop
endfacet
facet normal -0.866025 -0.000008 -0.500001
outer loop
vertex 0.035009 0.000146 0.019363
vertex 0.034953 -0.000417 0.019460
vertex 0.034714 -0.000736 0.019873
endloop
endfacet
facet normal -0.866022 -0.000008 -0.500006
outer loop
vertex 0.034714 -0.000736 0.019873
vertex 0.034433 -0.000624 0.020361
vertex 0.034273 -0.000146 0.020637
endloop
endfacet
facet normal -0.866025 0.000016 -0.500000
outer loop
vertex 0.034273 -0.000146 0.020637
vertex 0.034329 0.000417 0.020540
vertex 0.034568 0.000736 0.020127
endloop
endfacet
facet normal -0.866028 -0.000003 -0.499996
outer loop
vertex 0.034568 0.000736 0.020127
vertex 0.035009 0.000146 0.019363
vertex 0.034714 -0.000736 0.019873
endloop
endfacet
facet normal -0.866026 0.000003 -0.499999
outer loop
vertex 0.034714 -0.000736 0.019873
vertex 0.034273 -0.000146 0.020637
vertex 0.034568 0.000736 0.020127
endloop
endfacet
endsolid Exported from Blender-2.80 (sub 75)
