solid Exported from Blender-2.80 (sub 75)
facet normal 0.000855 0.000000 1.000000
outer loop
vertex 0.000074 0.000746 0.150000
vertex 0.000037 0.000749 0.150000
vertex 0.000000 0.000750 0.150000
endloop
endfacet
facet normal 0.000855 0.000000 1.000000
outer loop
vertex 0.000000 0.000750 0.150000
vertex -0.000037 0.000749 0.150000
vertex -0.000074 0.000746 0.150000
endloop
endfacet
facet normal 0.000000 0.000000 1.000000
outer loop
vertex -0.000074 0.000746 0.150000
vertex -0.000110 0.000742 0.150000
vertex -0.000146 0.000736 0.150000
endloop
endfacet
facet normal 0.000000 0.000000 1.000000
outer loop
vertex -0.000146 0.000736 0.150000
vertex -0.000182 0.000728 0.150000
vertex -0.000218 0.000718 0.150000
endloop
endfacet
facet normal 0.006839 0.000000 0.999977
outer loop
vertex -0.000218 0.000718 0.150000
vertex -0.000253 0.000706 0.150000
vertex -0.000287 0.000693 0.150000
endloop
endfacet
facet normal 0.000000 0.000000 1.000000
outer loop
vertex -0.000287 0.000693 0.150000
vertex -0.000321 0.000678 0.150000
vertex -0.000354 0.000661 0.150000
endloop
endfacet
facet normal 0.006839 0.000000 0.999977
outer loop
vertex -0.000354 0.000661 0.150000
vertex -0.000386 0.000643 0.150000
vertex -0.000417 0.000624 0.150000
endloop
endfacet
facet normal 0.000000 0.000000 1.000000
outer loop
vertex -0.000417 0.000624 0.150000
vertex -0.000447 0.000602 0.150000
vertex -0.000476 0.000580 0.150000
endloop
endfacet
facet normal 0.000000 0.000000 1.000000
outer loop
vertex -0.000476 0.000580 0.150000
vertex -0.000504 0.000556 0.150000
vertex -0.000530 0.000530 0.150000
endloop
endfacet
facet normal 0.000000 0.000000 1.000000
outer loop
vertex -0.000530 0.000530 0.150000
vertex -0.000556 0.000504 0.150000
vertex -0.000580 0.000476 0.150000
endloop
endfacet
facet normal 0.000000 0.000000 1.000000
outer loop
vertex -0.000580 0.000476 0.150000
vertex -0.000602 0.000447 0.150000
vertex -0.000624 0.000417 0.150000
endloop
endfacet
facet normal 0.000000 0.000000 1.000000
outer loop
vertex -0.000624 0.000417 0.150000
vertex -0.000643 0.000386 0.150000
vertex -0.000661 0.000354 0.150000
endloop
endfacet
facet normal 0.000000 0.000000 1.000000
outer loop
vertex -0.000661 0.000354 0.150000
vertex -0.000678 0.000321 0.150000
vertex -0.000693 0.000287 0.150000
endloop
endfacet
facet normal 0.000000 0.000000 1.000000
outer loop
vertex -0.000693 0.000287 0.150000
vertex -0.000706 0.000253 0.150000
vertex -0.000718 0.000218 0.150000
endloop
endfacet
facet normal 0.000000 0.000000 1.000000
outer loop
vertex -0.000718 0.000218 0.150000
vertex -0.000728 0.000182 0.150000
vertex -0.000736 0.000146 0.150000
endloop
endfacet
facet normal 0.000000 0.000000 1.000000
outer loop
vertex -0.000736 0.000146 0.150000
vertex -0.000742 0.000110 0.150000
vertex -0.000746 0.000074 0.150000
endloop
endfacet
facet normal 0.000000 0.000000 1.000000
outer loop
vertex -0.000746 0.000074 0.150000
vertex -0.000749 0.000037 0.150000
vertex -0.000750 -0.000000 0.150000
endloop
endfacet
facet normal 0.000000 0.000000 1.000000
outer loop
vertex -0.000750 -0.000000 0.150000
vertex -0.000749 -0.000037 0.150000
vertex -0.000746 -0.000074 0.150000
endloop
endfacet
facet normal 0.000000 0.000000 1.000000
outer loop
vertex -0.000746 -0.000074 0.150000
vertex -0.000742 -0.000110 0.150000
vertex -0.000736 -0.000146 0.150000
endloop
endfacet
facet normal -0.013678 0.000000 0.999906
outer loop
vertex -0.000736 -0.000146 0.150000
vertex -0.000728 -0.000182 0.150000
vertex -0.000718 -0.000218 0.150000
endloop
endfacet
facet normal 0.013678 0.000000 0.999906
outer loop
vertex -0.000718 -0.000218 0.150000
vertex -0.000706 -0.000253 0.150000
vertex -0.000693 -0.000287 0.150000
endloop
endfacet
facet normal 0.000000 0.000000 1.000000
outer loop
vertex -0.000693 -0.000287 0.150000
vertex -0.000678 -0.000321 0.150000
vertex -0.000661 -0.000354 0.150000
endloop
endfacet
facet normal 0.000000 0.000000 1.000000
outer loop
vertex -0.000661 -0.000354 0.150000
vertex -0.000643 -0.000386 0.150000
vertex -0.000624 -0.000417 0.150000
endloop
endfacet
facet normal 0.013677 0.000000 0.999906
outer loop
vertex -0.000624 -0.000417 0.150000
vertex -0.000602 -0.000447 0.150000
vertex -0.000580 -0.000476 0.150000
endloop
endfacet
facet normal 0.000000 0.000000 1.000000
outer loop
vertex -0.000580 -0.000476 0.150000
vertex -0.000556 -0.000504 0.150000
vertex -0.000530 -0.000530 0.150000
endloop
endfacet
facet normal 0.000000 0.000000 1.000000
outer loop
vertex -0.000530 -0.000530 0.150000
vertex -0.000504 -0.000556 0.150000
vertex -0.000476 -0.000580 0.150000
endloop
endfacet
facet normal -0.006839 0.000000 0.999977
outer loop
vertex -0.000476 -0.000580 0.150000
vertex -0.000447 -0.000602 0.150000
vertex -0.000417 -0.000624 0.150000
endloop
endfacet
facet normal -0.006840 0.000000 0.999977
outer loop
vertex -0.000417 -0.000624 0.150000
vertex -0.000386 -0.000643 0.150000
vertex -0.000354 -0.000661 0.150000
endloop
endfacet
facet normal 0.000000 0.000000 1.000000
outer loop
vertex -0.000354 -0.000661 0.150000
vertex -0.000321 -0.000678 0.150000
vertex -0.000287 -0.000693 0.150000
endloop
endfacet
facet normal 0.000000 0.000000 1.000000
outer loop
vertex -0.000287 -0.000693 0.150000
vertex -0.000253 -0.000706 0.150000
vertex -0.000218 -0.000718 0.150000
endloop
endfacet
facet normal 0.003420 0.000000 0.999994
outer loop
vertex -0.000218 -0.000718 0.150000
vertex -0.000182 -0.000728 0.150000
vertex -0.000146 -0.000736 0.150000
endloop
endfacet
facet normal 0.000000 0.000000 1.000000
outer loop
vertex -0.000146 -0.000736 0.150000
vertex -0.000110 -0.000742 0.150000
vertex -0.000074 -0.000746 0.150000
endloop
endfacet
facet normal -0.000855 0.000000 1.000000
outer loop
vertex -0.000074 -0.000746 0.150000
vertex -0.000037 -0.000749 0.150000
vertex 0.000000 -0.000750 0.150000
endloop
endfacet
facet normal 0.000000 0.000000 1.000000
outer loop
vertex 0.000000 -0.000750 0.150000
vertex 0.000037 -0.000749 0.150000
vertex 0.000074 -0.000746 0.150000
endloop
endfacet
facet normal -0.001710 0.000000 0.999999
outer loop
vertex 0.000074 -0.000746 0.150000
vertex 0.000110 -0.000742 0.150000
vertex 0.000146 -0.000736 0.150000
endloop
endfacet
facet normal 0.000000 0.000000 1.000000
outer loop
vertex 0.000146 -0.000736 0.150000
vertex 0.000182 -0.000728 0.150000
vertex 0.000218 -0.000718 0.150000
endloop
endfacet
facet normal -0.006839 0.000000 0.999977
outer loop
vertex 0.000218 -0.000718 0.150000
vertex 0.000253 -0.000706 0.150000
vertex 0.000287 -0.000693 0.150000
endloop
endfacet
facet normal 0.000000 0.000000 1.000000
outer loop
vertex 0.000287 -0.000693 0.150000
vertex 0.000321 -0.000678 0.150000
vertex 0.000354 -0.000661 0.150000
endloop
endfacet
facet normal -0.006839 0.000000 0.999977
outer loop
vertex 0.000354 -0.000661 0.150000
vertex 0.000386 -0.000643 0.150000
vertex 0.000417 -0.000624 0.150000
endloop
endfacet
facet normal -0.006840 0.000000 0.999977
outer loop
vertex 0.000417 -0.000624 0.150000
vertex 0.000447 -0.000602 0.150000
vertex 0.000476 -0.000580 0.150000
endloop
endfacet
facet normal 0.000000 0.000000 1.000000
outer loop
vertex 0.000476 -0.000580 0.150000
vertex 0.000504 -0.000556 0.150000
vertex 0.000530 -0.000530 0.150000
endloop
endfacet
facet normal 0.000000 0.000000 1.000000
outer loop
vertex 0.000530 -0.000530 0.150000
vertex 0.000556 -0.000504 0.150000
vertex 0.000580 -0.000476 0.150000
endloop
endfacet
facet normal -0.013677 0.000000 0.999906
outer loop
vertex 0.000580 -0.000476 0.150000
vertex 0.000602 -0.000447 0.150000
vertex 0.000624 -0.000417 0.150000
endloop
endfacet
facet normal -0.013677 0.000000 0.999906
outer loop
vertex 0.000624 -0.000417 0.150000
vertex 0.000643 -0.000386 0.150000
vertex 0.000661 -0.000354 0.150000
endloop
endfacet
facet normal 0.013678 0.000000 0.999907
outer loop
vertex 0.000661 -0.000354 0.150000
vertex 0.000678 -0.000321 0.150000
vertex 0.000693 -0.000287 0.150000
endloop
endfacet
facet normal -0.013677 0.000000 0.999906
outer loop
vertex 0.000693 -0.000287 0.150000
vertex 0.000706 -0.000253 0.150000
vertex 0.000718 -0.000218 0.150000
endloop
endfacet
facet normal 0.000000 0.000000 1.000000
outer loop
vertex 0.000718 -0.000218 0.150000
vertex 0.000728 -0.000182 0.150000
vertex 0.000736 -0.000146 0.150000
endloop
endfacet
facet normal 0.013677 0.000000 0.999906
outer loop
vertex 0.000736 -0.000146 0.150000
vertex 0.000742 -0.000110 0.150000
vertex 0.000746 -0.000074 0.150000
endloop
endfacet
facet normal 0.013676 0.000000 0.999907
outer loop
vertex 0.000746 -0.000074 0.150000
vertex 0.000749 -0.000037 0.150000
vertex 0.000750 -0.000000 0.150000
endloop
endfacet
facet normal -0.013677 0.000000 0.999906
outer loop
vertex 0.000750 -0.000000 0.150000
vertex 0.000749 0.000037 0.150000
vertex 0.000746 0.000074 0.150000
endloop
endfacet
facet normal 0.013677 0.000000 0.999906
outer loop
vertex 0.000746 0.000074 0.150000
vertex 0.000742 0.000110 0.150000
vertex 0.000736 0.000146 0.150000
endloop
endfacet
facet normal 0.013677 0.000000 0.999906
outer loop
vertex 0.000736 0.000146 0.150000
vertex 0.000728 0.000182 0.150000
vertex 0.000718 0.000218 0.150000
endloop
endfacet
facet normal 0.000000 0.000000 1.000000
outer loop
vertex 0.000718 0.000218 0.150000
vertex 0.000706 0.000253 0.150000
vertex 0.000693 0.000287 0.150000
endloop
endfacet
facet normal 0.000000 0.000000 1.000000
outer loop
vertex 0.000693 0.000287 0.150000
vertex 0.000678 0.000321 0.150000
vertex 0.000661 0.000354 0.150000
endloop
endfacet
facet normal 0.000000 0.000000 1.000000
outer loop
vertex 0.000661 0.000354 0.150000
vertex 0.000643 0.000386 0.150000
vertex 0.000624 0.000417 0.150000
endloop
endfacet
facet normal -0.013677 0.000000 0.999906
outer loop
vertex 0.000624 0.000417 0.150000
vertex 0.000602 0.000447 0.150000
vertex 0.000580 0.000476 0.150000
endloop
endfacet
facet normal 0.000000 0.000000 1.000000
outer loop
vertex 0.000580 0.000476 0.150000
vertex 0.000556 0.000504 0.150000
vertex 0.000530 0.000530 0.150000
endloop
endfacet
facet normal 0.000000 0.000000 1.000000
outer loop
vertex 0.000530 0.000530 0.150000
vertex 0.000504 0.000556 0.150000
vertex 0.000476 0.000580 0.150000
endloop
endfacet
facet normal 0.006839 0.000000 0.999977
outer loop
vertex 0.000476 0.000580 0.150000
vertex 0.000447 0.000602 0.150000
vertex 0.000417 0.000624 0.150000
endloop
endfacet
facet normal -0.006839 0.000000 0.999977
outer loop
vertex 0.000417 0.000624 0.150000
vertex 0.000386 0.000643 0.150000
vertex 0.000354 0.000661 0.150000
endloop
endfacet
facet normal 0.000000 0.000000 1.000000
outer loop
vertex 0.000354 0.000661 0.150000
vertex 0.000321 0.000678 0.150000
vertex 0.000287 0.000693 0.150000
endloop
endfacet
facet normal 0.003420 0.000000 0.999994
outer loop
vertex 0.000287 0.000693 0.150000
vertex 0.000253 0.000706 0.150000
vertex 0.000218 0.000718 0.150000
endloop
endfacet
facet normal -0.003419 0.000000 0.999994
outer loop
vertex 0.000218 0.000718 0.150000
vertex 0.000182 0.000728 0.150000
vertex 0.000146 0.000736 0.150000
endloop
endfacet
facet normal 0.001710 0.000000 0.999999
outer loop
vertex 0.000146 0.000736 0.150000
vertex 0.000110 0.000742 0.150000
vertex 0.000074 0.000746 0.150000
endloop
endfacet
facet normal -0.000214 0.000000 1.000000
outer loop
vertex 0.000074 0.000746 0.150000
vertex 0.000000 0.000750 0.150000
vertex -0.000074 0.000746 0.150000
endloop
endfacet
facet normal 0.000000 0.000000 1.000000
outer loop
vertex -0.000074 0.000746 0.150000
vertex -0.000146 0.000736 0.150000
vertex -0.000218 0.000718 0.150000
endloop
endfacet
facet normal 0.000000 0.000000 1.000000
outer loop
vertex -0.000218 0.000718 0.150000
vertex -0.000287 0.000693 0.150000
vertex -0.000354 0.000661 0.150000
endloop
endfacet
facet normal -0.001713 0.000000 0.999999
outer loop
vertex -0.000354 0.000661 0.150000
vertex -0.000417 0.000624 0.150000
vertex -0.000476 0.000580 0.150000
endloop
endfacet
facet normal -0.003426 0.000000 0.999994
outer loop
vertex -0.000476 0.000580 0.150000
vertex -0.000530 0.000530 0.150000
vertex -0.000580 0.000476 0.150000
endloop
endfacet
facet normal 0.003426 0.000000 0.999994
outer loop
vertex -0.000580 0.000476 0.150000
vertex -0.000624 0.000417 0.150000
vertex -0.000661 0.000354 0.150000
endloop
endfacet
facet normal 0.000000 0.000000 1.000000
outer loop
vertex -0.000661 0.000354 0.150000
vertex -0.000693 0.000287 0.150000
vertex -0.000718 0.000218 0.150000
endloop
endfacet
facet normal 0.003426 0.000000 0.999994
outer loop
vertex -0.000718 0.000218 0.150000
vertex -0.000736 0.000146 0.150000
vertex -0.000746 0.000074 0.150000
endloop
endfacet
facet normal 0.003426 0.000000 0.999994
outer loop
vertex -0.000746 0.000074 0.150000
vertex -0.000750 -0.000000 0.150000
vertex -0.000746 -0.000074 0.150000
endloop
endfacet
facet normal 0.000000 0.000000 1.000000
outer loop
vertex -0.000746 -0.000074 0.150000
vertex -0.000736 -0.000146 0.150000
vertex -0.000718 -0.000218 0.150000
endloop
endfacet
facet normal -0.003426 0.000000 0.999994
outer loop
vertex -0.000718 -0.000218 0.150000
vertex -0.000693 -0.000287 0.150000
vertex -0.000661 -0.000354 0.150000
endloop
endfacet
facet normal 0.000000 0.000000 1.000000
outer loop
vertex -0.000661 -0.000354 0.150000
vertex -0.000624 -0.000417 0.150000
vertex -0.000580 -0.000476 0.150000
endloop
endfacet
facet normal -0.003426 0.000000 0.999994
outer loop
vertex -0.000580 -0.000476 0.150000
vertex -0.000530 -0.000530 0.150000
vertex -0.000476 -0.000580 0.150000
endloop
endfacet
facet normal 0.001713 0.000000 0.999999
outer loop
vertex -0.000476 -0.000580 0.150000
vertex -0.000417 -0.000624 0.150000
vertex -0.000354 -0.000661 0.150000
endloop
endfacet
facet normal 0.000856 0.000000 1.000000
outer loop
vertex -0.000354 -0.000661 0.150000
vertex -0.000287 -0.000693 0.150000
vertex -0.000218 -0.000718 0.150000
endloop
endfacet
facet normal -0.000428 0.000000 1.000000
outer loop
vertex -0.000218 -0.000718 0.150000
vertex -0.000146 -0.000736 0.150000
vertex -0.000074 -0.000746 0.150000
endloop
endfacet
facet normal 0.000000 0.000000 1.000000
outer loop
vertex -0.000074 -0.000746 0.150000
vertex 0.000000 -0.000750 0.150000
vertex 0.000074 -0.000746 0.150000
endloop
endfacet
facet normal 0.000856 0.000000 1.000000
outer loop
vertex 0.000074 -0.000746 0.150000
vertex 0.000146 -0.000736 0.150000
vertex 0.000218 -0.000718 0.150000
endloop
endfacet
facet normal 0.000000 0.000000 1.000000
outer loop
vertex 0.000218 -0.000718 0.150000
vertex 0.000287 -0.000693 0.150000
vertex 0.000354 -0.000661 0.150000
endloop
endfacet
facet normal 0.001713 0.000000 0.999999
outer loop
vertex 0.000354 -0.000661 0.150000
vertex 0.000417 -0.000624 0.150000
vertex 0.000476 -0.000580 0.150000
endloop
endfacet
facet normal 0.000000 0.000000 1.000000
outer loop
vertex 0.000476 -0.000580 0.150000
vertex 0.000530 -0.000530 0.150000
vertex 0.000580 -0.000476 0.150000
endloop
endfacet
facet normal 0.000000 0.000000 1.000000
outer loop
vertex 0.000580 -0.000476 0.150000
vertex 0.000624 -0.000417 0.150000
vertex 0.000661 -0.000354 0.150000
endloop
endfacet
facet normal -0.003426 0.000000 0.999994
outer loop
vertex 0.000661 -0.000354 0.150000
vertex 0.000693 -0.000287 0.150000
vertex 0.000718 -0.000218 0.150000
endloop
endfacet
facet normal 0.006851 0.000000 0.999977
outer loop
vertex 0.000718 -0.000218 0.150000
vertex 0.000736 -0.000146 0.150000
vertex 0.000746 -0.000074 0.150000
endloop
endfacet
facet normal 0.000000 0.000000 1.000000
outer loop
vertex 0.000746 -0.000074 0.150000
vertex 0.000750 -0.000000 0.150000
vertex 0.000746 0.000074 0.150000
endloop
endfacet
facet normal -0.003426 0.000000 0.999994
outer loop
vertex 0.000746 0.000074 0.150000
vertex 0.000736 0.000146 0.150000
vertex 0.000718 0.000218 0.150000
endloop
endfacet
facet normal 0.003426 0.000000 0.999994
outer loop
vertex 0.000718 0.000218 0.150000
vertex 0.000693 0.000287 0.150000
vertex 0.000661 0.000354 0.150000
endloop
endfacet
facet normal 0.003426 0.000000 0.999994
outer loop
vertex 0.000661 0.000354 0.150000
vertex 0.000624 0.000417 0.150000
vertex 0.000580 0.000476 0.150000
endloop
endfacet
facet normal 0.003426 0.000000 0.999994
outer loop
vertex 0.000580 0.000476 0.150000
vertex 0.000530 0.000530 0.150000
vertex 0.000476 0.000580 0.150000
endloop
endfacet
facet normal 0.000000 0.000000 1.000000
outer loop
vertex 0.000476 0.000580 0.150000
vertex 0.000417 0.000624 0.150000
vertex 0.000354 0.000661 0.150000
endloop
endfacet
facet normal -0.000856 0.000000 1.000000
outer loop
vertex 0.000354 0.000661 0.150000
vertex 0.000287 0.000693 0.150000
vertex 0.000218 0.000718 0.150000
endloop
endfacet
facet normal -0.000428 0.000000 1.000000
outer loop
vertex 0.000218 0.000718 0.150000
vertex 0.000146 0.000736 0.150000
vertex 0.000074 0.000746 0.150000
endloop
endfacet
facet normal 0.000000 0.000000 1.000000
outer loop
vertex 0.000074 0.000746 0.150000
vertex -0.000074 0.000746 0.150000
vertex -0.000218 0.000718 0.150000
endloop
endfacet
facet normal 0.000000 0.000000 1.000000
outer loop
vertex -0.000218 0.000718 0.150000
vertex -0.000354 0.000661 0.150000
vertex -0.000476 0.000580 0.150000
endloop
endfacet
facet normal 0.000000 0.000000 1.000000
outer loop
vertex -0.000476 0.000580 0.150000
vertex -0.000580 0.000476 0.150000
vertex -0.000661 0.000354 0.150000
endloop
endfacet
facet normal -0.000863 0.000000 1.000000
outer loop
vertex -0.000661 0.000354 0.150000
vertex -0.000718 0.000218 0.150000
vertex -0.000746 0.000074 0.150000
endloop
endfacet
facet normal -0.000863 0.000000 1.000000
outer loop
vertex -0.000746 0.000074 0.150000
vertex -0.000746 -0.000074 0.150000
vertex -0.000718 -0.000218 0.150000
endloop
endfacet
facet normal 0.000863 0.000000 1.000000
outer loop
vertex -0.000718 -0.000218 0.150000
vertex -0.000661 -0.000354 0.150000
vertex -0.000580 -0.000476 0.150000
endloop
endfacet
facet normal 0.000000 0.000000 1.000000
outer loop
vertex -0.000580 -0.000476 0.150000
vertex -0.000476 -0.000580 0.150000
vertex -0.000354 -0.000661 0.150000
endloop
endfacet
facet normal 0.000000 0.000000 1.000000
outer loop
vertex -0.000354 -0.000661 0.150000
vertex -0.000218 -0.000718 0.150000
vertex -0.000074 -0.000746 0.150000
endloop
endfacet
facet normal 0.000000 0.000000 1.000000
outer loop
vertex -0.000074 -0.000746 0.150000
vertex 0.000074 -0.000746 0.150000
vertex 0.000218 -0.000718 0.150000
endloop
endfacet
facet normal 0.000000 0.000000 1.000000
outer loop
vertex 0.000218 -0.000718 0.150000
vertex 0.000354 -0.000661 0.150000
vertex 0.000476 -0.000580 0.150000
endloop
endfacet
facet normal 0.000863 0.000000 1.000000
outer loop
vertex 0.000476 -0.000580 0.150000
vertex 0.000580 -0.000476 0.150000
vertex 0.000661 -0.000354 0.150000
endloop
endfacet
facet normal -0.001725 0.000000 0.999999
outer loop
vertex 0.000661 -0.000354 0.150000
vertex 0.000718 -0.000218 0.150000
vertex 0.000746 -0.000074 0.150000
endloop
endfacet
facet normal -0.000863 0.000000 1.000000
outer loop
vertex 0.000746 -0.000074 0.150000
vertex 0.000746 0.000074 0.150000
vertex 0.000718 0.000218 0.150000
endloop
endfacet
facet normal -0.000863 0.000000 1.000000
outer loop
vertex 0.000718 0.000218 0.150000
vertex 0.000661 0.000354 0.150000
vertex 0.000580 0.000476 0.150000
endloop
endfacet
facet normal 0.000000 0.000000 1.000000
outer loop
vertex 0.000580 0.000476 0.150000
vertex 0.000476 0.000580 0.150000
vertex 0.000354 0.000661 0.150000
endloop
endfacet
facet normal 0.000000 0.000000 1.000000
outer loop
vertex 0.000354 0.000661 0.150000
vertex 0.000218 0.000718 0.150000
vertex 0.000074 0.000746 0.150000
endloop
endfacet
facet normal 0.000000 0.000000 1.000000
outer loop
vertex 0.000074 0.000746 0.150000
vertex -0.000218 0.000718 0.150000
vertex -0.000476 0.000580 0.150000
endloop
endfacet
facet normal 0.000444 0.000000 1.000000
outer loop
vertex -0.000476 0.000580 0.150000
vertex -0.000661 0.000354 0.150000
vertex -0.000746 0.000074 0.150000
endloop
endfacet
facet normal 0.000222 0.000000 1.000000
outer loop
vertex -0.000746 0.000074 0.150000
vertex -0.000718 -0.000218 0.150000
vertex -0.000580 -0.000476 0.150000
endloop
endfacet
facet normal -0.000056 0.000000 1.000000
outer loop
vertex -0.000580 -0.000476 0.150000
vertex -0.000354 -0.000661 0.150000
vertex -0.000074 -0.000746 0.150000
endloop
endfacet
facet normal 0.000000 0.000000 1.000000
outer loop
vertex -0.000074 -0.000746 0.150000
vertex 0.000218 -0.000718 0.150000
vertex 0.000476 -0.000580 0.150000
endloop
endfacet
facet normal 0.000000 0.000000 1.000000
outer loop
vertex 0.000476 -0.000580 0.150000
vertex 0.000661 -0.000354 0.150000
vertex 0.000746 -0.000074 0.150000
endloop
endfacet
facet normal 0.000444 0.000000 1.000000
outer loop
vertex 0.000746 -0.000074 0.150000
vertex 0.000718 0.000218 0.150000
vertex 0.000580 0.000476 0.150000
endloop
endfacet
facet normal 0.000056 0.000000 1.000000
outer loop
vertex 0.000580 0.000476 0.150000
vertex 0.000354 0.000661 0.150000
vertex 0.000074 0.000746 0.150000
endloop
endfacet
facet normal -0.000062 0.000000 1.000000
outer loop
vertex 0.000074 0.000746 0.150000
vertex -0.000476 0.000580 0.150000
vertex -0.000746 0.000074 0.150000
endloop
endfacet
facet normal -0.000062 0.000000 1.000000
outer loop
vertex -0.000746 0.000074 0.150000
vertex -0.000580 -0.000476 0.150000
vertex -0.000074 -0.000746 0.150000
endloop
endfacet
facet normal 0.000000 0.000000 1.000000
outer loop
vertex -0.000074 -0.000746 0.150000
vertex 0.000476 -0.000580 0.150000
vertex 0.000746 -0.000074 0.150000
endloop
endfacet
facet normal 0.000000 0.000000 1.000000
outer loop
vertex 0.000746 -0.000074 0.150000
vertex 0.000580 0.000476 0.150000
vertex 0.000074 0.000746 0.150000
endloop
endfacet
facet normal 0.000000 0.000000 1.000000
outer loop
vertex 0.000074 0.000746 0.150000
vertex -0.000746 0.000074 0.150000
vertex -0.000074 -0.000746 0.150000
endloop
endfacet
facet normal -0.000026 0.000000 1.000000
outer loop
vertex -0.000074 -0.000746 0.150000
vertex 0.000746 -0.000074 0.150000
vertex 0.000074 0.000746 0.150000
endloop
endfacet
endsolid Exported from Blender-2.80 (sub 75)
