solid outletPatch
facet normal 0.000107 0.001027 -0.999999
outer loop
vertex -0.000146 0.000736 0.050000
vertex -0.000074 0.000746 0.050000
vertex 0.000000 0.000750 0.050000
endloop
endfacet
facet normal -0.000214 -0.000516 -1.000000
outer loop
vertex 0.000000 0.000750 0.050000
vertex 0.000074 0.000746 0.050000
vertex 0.000146 0.000736 0.050000
endloop
endfacet
facet normal 0.000000 0.000000 -1.000000
outer loop
vertex 0.000146 0.000736 0.050000
vertex 0.000218 0.000718 0.050000
vertex 0.000287 0.000693 0.050000
endloop
endfacet
facet normal 0.000856 0.000467 -1.000000
outer loop
vertex 0.000287 0.000693 0.050000
vertex 0.000354 0.000661 0.050000
vertex 0.000417 0.000624 0.050000
endloop
endfacet
facet normal 0.000856 0.000383 -1.000000
outer loop
vertex 0.000417 0.000624 0.050000
vertex 0.000476 0.000580 0.050000
vertex 0.000530 0.000530 0.050000
endloop
endfacet
facet normal -0.000857 -0.000308 -1.000000
outer loop
vertex 0.000530 0.000530 0.050000
vertex 0.000580 0.000476 0.050000
vertex 0.000624 0.000417 0.050000
endloop
endfacet
facet normal 0.000856 0.000221 -1.000000
outer loop
vertex 0.000624 0.000417 0.050000
vertex 0.000661 0.000354 0.050000
vertex 0.000693 0.000287 0.050000
endloop
endfacet
facet normal -0.000857 -0.000174 -1.000000
outer loop
vertex 0.000693 0.000287 0.050000
vertex 0.000718 0.000218 0.050000
vertex 0.000736 0.000146 0.050000
endloop
endfacet
facet normal -0.000856 0.000050 -1.000000
outer loop
vertex 0.000736 0.000146 0.050000
vertex 0.000746 0.000074 0.050000
vertex 0.000750 0.000000 0.050000
endloop
endfacet
facet normal -0.000856 -0.000050 -1.000000
outer loop
vertex 0.000750 0.000000 0.050000
vertex 0.000746 -0.000074 0.050000
vertex 0.000736 -0.000146 0.050000
endloop
endfacet
facet normal -0.000857 0.000174 -1.000000
outer loop
vertex 0.000736 -0.000146 0.050000
vertex 0.000718 -0.000218 0.050000
vertex 0.000693 -0.000287 0.050000
endloop
endfacet
facet normal 0.000856 -0.000221 -1.000000
outer loop
vertex 0.000693 -0.000287 0.050000
vertex 0.000661 -0.000354 0.050000
vertex 0.000624 -0.000417 0.050000
endloop
endfacet
facet normal -0.000857 0.000308 -1.000000
outer loop
vertex 0.000624 -0.000417 0.050000
vertex 0.000580 -0.000476 0.050000
vertex 0.000530 -0.000530 0.050000
endloop
endfacet
facet normal 0.000856 -0.000383 -1.000000
outer loop
vertex 0.000530 -0.000530 0.050000
vertex 0.000476 -0.000580 0.050000
vertex 0.000417 -0.000624 0.050000
endloop
endfacet
facet normal 0.000856 -0.000467 -1.000000
outer loop
vertex 0.000417 -0.000624 0.050000
vertex 0.000354 -0.000661 0.050000
vertex 0.000287 -0.000693 0.050000
endloop
endfacet
facet normal 0.000000 0.000000 -1.000000
outer loop
vertex 0.000287 -0.000693 0.050000
vertex 0.000218 -0.000718 0.050000
vertex 0.000146 -0.000736 0.050000
endloop
endfacet
facet normal -0.000107 0.000516 -1.000000
outer loop
vertex 0.000146 -0.000736 0.050000
vertex 0.000074 -0.000746 0.050000
vertex 0.000000 -0.000750 0.050000
endloop
endfacet
facet normal 0.000214 -0.001027 -0.999999
outer loop
vertex 0.000000 -0.000750 0.050000
vertex -0.000074 -0.000746 0.050000
vertex -0.000146 -0.000736 0.050000
endloop
endfacet
facet normal -0.000428 0.000000 -1.000000
outer loop
vertex -0.000146 -0.000736 0.050000
vertex -0.000218 -0.000718 0.050000
vertex -0.000287 -0.000693 0.050000
endloop
endfacet
facet normal -0.000428 0.000467 -1.000000
outer loop
vertex -0.000287 -0.000693 0.050000
vertex -0.000354 -0.000661 0.050000
vertex -0.000417 -0.000624 0.050000
endloop
endfacet
facet normal 0.001713 0.000797 -0.999998
outer loop
vertex -0.000417 -0.000624 0.050000
vertex -0.000476 -0.000580 0.050000
vertex -0.000530 -0.000530 0.050000
endloop
endfacet
facet normal 0.002570 0.000654 -0.999996
outer loop
vertex -0.000530 -0.000530 0.050000
vertex -0.000580 -0.000476 0.050000
vertex -0.000624 -0.000417 0.050000
endloop
endfacet
facet normal 0.000000 0.000221 -1.000000
outer loop
vertex -0.000624 -0.000417 0.050000
vertex -0.000661 -0.000354 0.050000
vertex -0.000693 -0.000287 0.050000
endloop
endfacet
facet normal 0.000000 0.000000 -1.000000
outer loop
vertex -0.000693 -0.000287 0.050000
vertex -0.000718 -0.000218 0.050000
vertex -0.000736 -0.000146 0.050000
endloop
endfacet
facet normal -0.002570 -0.000202 -0.999997
outer loop
vertex -0.000736 -0.000146 0.050000
vertex -0.000746 -0.000074 0.050000
vertex -0.000750 -0.000000 0.050000
endloop
endfacet
facet normal -0.002570 0.000202 -0.999997
outer loop
vertex -0.000750 -0.000000 0.050000
vertex -0.000746 0.000074 0.050000
vertex -0.000736 0.000146 0.050000
endloop
endfacet
facet normal 0.000000 0.000000 -1.000000
outer loop
vertex -0.000736 0.000146 0.050000
vertex -0.000718 0.000218 0.050000
vertex -0.000693 0.000287 0.050000
endloop
endfacet
facet normal 0.000000 -0.000221 -1.000000
outer loop
vertex -0.000693 0.000287 0.050000
vertex -0.000661 0.000354 0.050000
vertex -0.000624 0.000417 0.050000
endloop
endfacet
facet normal 0.002570 -0.000654 -0.999996
outer loop
vertex -0.000624 0.000417 0.050000
vertex -0.000580 0.000476 0.050000
vertex -0.000530 0.000530 0.050000
endloop
endfacet
facet normal 0.001713 -0.000797 -0.999998
outer loop
vertex -0.000530 0.000530 0.050000
vertex -0.000476 0.000580 0.050000
vertex -0.000417 0.000624 0.050000
endloop
endfacet
facet normal -0.000428 -0.000467 -1.000000
outer loop
vertex -0.000417 0.000624 0.050000
vertex -0.000354 0.000661 0.050000
vertex -0.000287 0.000693 0.050000
endloop
endfacet
facet normal -0.000214 0.000000 -1.000000
outer loop
vertex -0.000287 0.000693 0.050000
vertex -0.000218 0.000718 0.050000
vertex -0.000146 0.000736 0.050000
endloop
endfacet
facet normal 0.000000 -0.000129 -1.000000
outer loop
vertex -0.000146 0.000736 0.050000
vertex 0.000000 0.000750 0.050000
vertex 0.000146 0.000736 0.050000
endloop
endfacet
facet normal 0.000108 0.000124 -1.000000
outer loop
vertex 0.000146 0.000736 0.050000
vertex 0.000287 0.000693 0.050000
vertex 0.000417 0.000624 0.050000
endloop
endfacet
facet normal -0.000216 0.000183 -1.000000
outer loop
vertex 0.000417 0.000624 0.050000
vertex 0.000530 0.000530 0.050000
vertex 0.000624 0.000417 0.050000
endloop
endfacet
facet normal 0.000216 -0.000024 -1.000000
outer loop
vertex 0.000624 0.000417 0.050000
vertex 0.000693 0.000287 0.050000
vertex 0.000736 0.000146 0.050000
endloop
endfacet
facet normal -0.000431 0.000000 -1.000000
outer loop
vertex 0.000736 0.000146 0.050000
vertex 0.000750 0.000000 0.050000
vertex 0.000736 -0.000146 0.050000
endloop
endfacet
facet normal 0.000216 0.000024 -1.000000
outer loop
vertex 0.000736 -0.000146 0.050000
vertex 0.000693 -0.000287 0.050000
vertex 0.000624 -0.000417 0.050000
endloop
endfacet
facet normal -0.000216 -0.000183 -1.000000
outer loop
vertex 0.000624 -0.000417 0.050000
vertex 0.000530 -0.000530 0.050000
vertex 0.000417 -0.000624 0.050000
endloop
endfacet
facet normal 0.000108 -0.000124 -1.000000
outer loop
vertex 0.000417 -0.000624 0.050000
vertex 0.000287 -0.000693 0.050000
vertex 0.000146 -0.000736 0.050000
endloop
endfacet
facet normal 0.000000 0.000129 -1.000000
outer loop
vertex 0.000146 -0.000736 0.050000
vertex 0.000000 -0.000750 0.050000
vertex -0.000146 -0.000736 0.050000
endloop
endfacet
facet normal 0.000000 0.000124 -1.000000
outer loop
vertex -0.000146 -0.000736 0.050000
vertex -0.000287 -0.000693 0.050000
vertex -0.000417 -0.000624 0.050000
endloop
endfacet
facet normal -0.000216 0.000000 -1.000000
outer loop
vertex -0.000417 -0.000624 0.050000
vertex -0.000530 -0.000530 0.050000
vertex -0.000624 -0.000417 0.050000
endloop
endfacet
facet normal -0.000216 0.000038 -1.000000
outer loop
vertex -0.000624 -0.000417 0.050000
vertex -0.000693 -0.000287 0.050000
vertex -0.000736 -0.000146 0.050000
endloop
endfacet
facet normal 0.000000 0.000000 -1.000000
outer loop
vertex -0.000736 -0.000146 0.050000
vertex -0.000750 -0.000000 0.050000
vertex -0.000736 0.000146 0.050000
endloop
endfacet
facet normal -0.000216 -0.000038 -1.000000
outer loop
vertex -0.000736 0.000146 0.050000
vertex -0.000693 0.000287 0.050000
vertex -0.000624 0.000417 0.050000
endloop
endfacet
facet normal -0.000216 0.000000 -1.000000
outer loop
vertex -0.000624 0.000417 0.050000
vertex -0.000530 0.000530 0.050000
vertex -0.000417 0.000624 0.050000
endloop
endfacet
facet normal 0.000000 -0.000124 -1.000000
outer loop
vertex -0.000417 0.000624 0.050000
vertex -0.000287 0.000693 0.050000
vertex -0.000146 0.000736 0.050000
endloop
endfacet
facet normal 0.000000 0.000064 -1.000000
outer loop
vertex -0.000146 0.000736 0.050000
vertex 0.000146 0.000736 0.050000
vertex 0.000417 0.000624 0.050000
endloop
endfacet
facet normal -0.000056 -0.000047 -1.000000
outer loop
vertex 0.000417 0.000624 0.050000
vertex 0.000624 0.000417 0.050000
vertex 0.000736 0.000146 0.050000
endloop
endfacet
facet normal 0.000000 0.000000 -1.000000
outer loop
vertex 0.000736 0.000146 0.050000
vertex 0.000736 -0.000146 0.050000
vertex 0.000624 -0.000417 0.050000
endloop
endfacet
facet normal 0.000000 0.000024 -1.000000
outer loop
vertex 0.000624 -0.000417 0.050000
vertex 0.000417 -0.000624 0.050000
vertex 0.000146 -0.000736 0.050000
endloop
endfacet
facet normal 0.000028 0.000064 -1.000000
outer loop
vertex 0.000146 -0.000736 0.050000
vertex -0.000146 -0.000736 0.050000
vertex -0.000417 -0.000624 0.050000
endloop
endfacet
facet normal 0.000000 -0.000024 -1.000000
outer loop
vertex -0.000417 -0.000624 0.050000
vertex -0.000624 -0.000417 0.050000
vertex -0.000736 -0.000146 0.050000
endloop
endfacet
facet normal 0.000111 0.000000 -1.000000
outer loop
vertex -0.000736 -0.000146 0.050000
vertex -0.000736 0.000146 0.050000
vertex -0.000624 0.000417 0.050000
endloop
endfacet
facet normal 0.000000 0.000024 -1.000000
outer loop
vertex -0.000624 0.000417 0.050000
vertex -0.000417 0.000624 0.050000
vertex -0.000146 0.000736 0.050000
endloop
endfacet
facet normal 0.000016 -0.000018 -1.000000
outer loop
vertex -0.000146 0.000736 0.050000
vertex 0.000417 0.000624 0.050000
vertex 0.000736 0.000146 0.050000
endloop
endfacet
facet normal -0.000047 0.000017 -1.000000
outer loop
vertex 0.000736 0.000146 0.050000
vertex 0.000624 -0.000417 0.050000
vertex 0.000146 -0.000736 0.050000
endloop
endfacet
facet normal -0.000016 -0.000009 -1.000000
outer loop
vertex 0.000146 -0.000736 0.050000
vertex -0.000417 -0.000624 0.050000
vertex -0.000736 -0.000146 0.050000
endloop
endfacet
facet normal 0.000000 0.000009 -1.000000
outer loop
vertex -0.000736 -0.000146 0.050000
vertex -0.000624 0.000417 0.050000
vertex -0.000146 0.000736 0.050000
endloop
endfacet
facet normal 0.000019 -0.000001 -1.000000
outer loop
vertex -0.000146 0.000736 0.050000
vertex 0.000736 0.000146 0.050000
vertex 0.000146 -0.000736 0.050000
endloop
endfacet
facet normal 0.000000 -0.000002 -1.000000
outer loop
vertex 0.000146 -0.000736 0.050000
vertex -0.000736 -0.000146 0.050000
vertex -0.000146 0.000736 0.050000
endloop
endfacet
endsolid outletPatch
