solid Exported from Blender-2.80 (sub 75)
facet normal 0.000000 0.000000 -1.000000
outer loop
vertex -0.000037 0.000749 0.000000
vertex 0.000000 0.000750 0.000000
vertex 0.000037 0.000749 0.000000
endloop
endfacet
facet normal 0.000000 0.000000 -1.000000
outer loop
vertex 0.000037 0.000749 0.000000
vertex 0.000074 0.000746 0.000000
vertex 0.000110 0.000742 0.000000
endloop
endfacet
facet normal 0.000000 0.000000 -1.000000
outer loop
vertex 0.000110 0.000742 0.000000
vertex 0.000146 0.000736 0.000000
vertex 0.000182 0.000728 0.000000
endloop
endfacet
facet normal 0.000000 0.000000 -1.000000
outer loop
vertex 0.000182 0.000728 0.000000
vertex 0.000218 0.000718 0.000000
vertex 0.000253 0.000706 0.000000
endloop
endfacet
facet normal 0.000000 0.000000 -1.000000
outer loop
vertex 0.000253 0.000706 0.000000
vertex 0.000287 0.000693 0.000000
vertex 0.000321 0.000678 0.000000
endloop
endfacet
facet normal 0.000000 0.000000 -1.000000
outer loop
vertex 0.000321 0.000678 0.000000
vertex 0.000354 0.000661 0.000000
vertex 0.000386 0.000643 0.000000
endloop
endfacet
facet normal 0.000000 0.000000 -1.000000
outer loop
vertex 0.000386 0.000643 0.000000
vertex 0.000417 0.000624 0.000000
vertex 0.000447 0.000602 0.000000
endloop
endfacet
facet normal 0.000000 0.000000 -1.000000
outer loop
vertex 0.000447 0.000602 0.000000
vertex 0.000476 0.000580 0.000000
vertex 0.000504 0.000556 0.000000
endloop
endfacet
facet normal 0.000000 0.000000 -1.000000
outer loop
vertex 0.000504 0.000556 0.000000
vertex 0.000530 0.000530 0.000000
vertex 0.000556 0.000504 0.000000
endloop
endfacet
facet normal 0.000000 0.000000 -1.000000
outer loop
vertex 0.000556 0.000504 0.000000
vertex 0.000580 0.000476 0.000000
vertex 0.000602 0.000447 0.000000
endloop
endfacet
facet normal 0.000000 0.000000 -1.000000
outer loop
vertex 0.000602 0.000447 0.000000
vertex 0.000624 0.000417 0.000000
vertex 0.000643 0.000386 0.000000
endloop
endfacet
facet normal 0.000000 0.000000 -1.000000
outer loop
vertex 0.000643 0.000386 0.000000
vertex 0.000661 0.000354 0.000000
vertex 0.000678 0.000321 0.000000
endloop
endfacet
facet normal 0.000000 0.000000 -1.000000
outer loop
vertex 0.000678 0.000321 0.000000
vertex 0.000693 0.000287 0.000000
vertex 0.000706 0.000253 0.000000
endloop
endfacet
facet normal 0.000000 0.000000 -1.000000
outer loop
vertex 0.000706 0.000253 0.000000
vertex 0.000718 0.000218 0.000000
vertex 0.000728 0.000182 0.000000
endloop
endfacet
facet normal 0.000000 0.000000 -1.000000
outer loop
vertex 0.000728 0.000182 0.000000
vertex 0.000736 0.000146 0.000000
vertex 0.000742 0.000110 0.000000
endloop
endfacet
facet normal 0.000000 0.000000 -1.000000
outer loop
vertex 0.000742 0.000110 0.000000
vertex 0.000746 0.000074 0.000000
vertex 0.000749 0.000037 0.000000
endloop
endfacet
facet normal 0.000000 0.000000 -1.000000
outer loop
vertex 0.000749 0.000037 0.000000
vertex 0.000750 -0.000000 0.000000
vertex 0.000749 -0.000037 0.000000
endloop
endfacet
facet normal 0.000000 0.000000 -1.000000
outer loop
vertex 0.000749 -0.000037 0.000000
vertex 0.000746 -0.000074 0.000000
vertex 0.000742 -0.000110 0.000000
endloop
endfacet
facet normal 0.000000 0.000000 -1.000000
outer loop
vertex 0.000742 -0.000110 0.000000
vertex 0.000736 -0.000146 0.000000
vertex 0.000728 -0.000182 0.000000
endloop
endfacet
facet normal 0.000000 0.000000 -1.000000
outer loop
vertex 0.000728 -0.000182 0.000000
vertex 0.000718 -0.000218 0.000000
vertex 0.000706 -0.000253 0.000000
endloop
endfacet
facet normal 0.000000 0.000000 -1.000000
outer loop
vertex 0.000706 -0.000253 0.000000
vertex 0.000693 -0.000287 0.000000
vertex 0.000678 -0.000321 0.000000
endloop
endfacet
facet normal 0.000000 0.000000 -1.000000
outer loop
vertex 0.000678 -0.000321 0.000000
vertex 0.000661 -0.000354 0.000000
vertex 0.000643 -0.000386 0.000000
endloop
endfacet
facet normal 0.000000 0.000000 -1.000000
outer loop
vertex 0.000643 -0.000386 0.000000
vertex 0.000624 -0.000417 0.000000
vertex 0.000602 -0.000447 0.000000
endloop
endfacet
facet normal 0.000000 0.000000 -1.000000
outer loop
vertex 0.000602 -0.000447 0.000000
vertex 0.000580 -0.000476 0.000000
vertex 0.000556 -0.000504 0.000000
endloop
endfacet
facet normal 0.000000 0.000000 -1.000000
outer loop
vertex 0.000556 -0.000504 0.000000
vertex 0.000530 -0.000530 0.000000
vertex 0.000504 -0.000556 0.000000
endloop
endfacet
facet normal 0.000000 0.000000 -1.000000
outer loop
vertex 0.000504 -0.000556 0.000000
vertex 0.000476 -0.000580 0.000000
vertex 0.000447 -0.000602 0.000000
endloop
endfacet
facet normal 0.000000 0.000000 -1.000000
outer loop
vertex 0.000447 -0.000602 0.000000
vertex 0.000417 -0.000624 0.000000
vertex 0.000386 -0.000643 0.000000
endloop
endfacet
facet normal 0.000000 0.000000 -1.000000
outer loop
vertex 0.000386 -0.000643 0.000000
vertex 0.000354 -0.000661 0.000000
vertex 0.000321 -0.000678 0.000000
endloop
endfacet
facet normal 0.000000 0.000000 -1.000000
outer loop
vertex 0.000321 -0.000678 0.000000
vertex 0.000287 -0.000693 0.000000
vertex 0.000253 -0.000706 0.000000
endloop
endfacet
facet normal 0.000000 0.000000 -1.000000
outer loop
vertex 0.000253 -0.000706 0.000000
vertex 0.000218 -0.000718 0.000000
vertex 0.000182 -0.000728 0.000000
endloop
endfacet
facet normal 0.000000 0.000000 -1.000000
outer loop
vertex 0.000182 -0.000728 0.000000
vertex 0.000146 -0.000736 0.000000
vertex 0.000110 -0.000742 0.000000
endloop
endfacet
facet normal 0.000000 0.000000 -1.000000
outer loop
vertex 0.000110 -0.000742 0.000000
vertex 0.000074 -0.000746 0.000000
vertex 0.000037 -0.000749 0.000000
endloop
endfacet
facet normal 0.000000 0.000000 -1.000000
outer loop
vertex 0.000037 -0.000749 0.000000
vertex 0.000000 -0.000750 0.000000
vertex -0.000037 -0.000749 0.000000
endloop
endfacet
facet normal 0.000000 0.000000 -1.000000
outer loop
vertex -0.000037 -0.000749 0.000000
vertex -0.000074 -0.000746 0.000000
vertex -0.000110 -0.000742 0.000000
endloop
endfacet
facet normal 0.000000 0.000000 -1.000000
outer loop
vertex -0.000110 -0.000742 0.000000
vertex -0.000146 -0.000736 0.000000
vertex -0.000182 -0.000728 0.000000
endloop
endfacet
facet normal 0.000000 0.000000 -1.000000
outer loop
vertex -0.000182 -0.000728 0.000000
vertex -0.000218 -0.000718 0.000000
vertex -0.000253 -0.000706 0.000000
endloop
endfacet
facet normal 0.000000 0.000000 -1.000000
outer loop
vertex -0.000253 -0.000706 0.000000
vertex -0.000287 -0.000693 0.000000
vertex -0.000321 -0.000678 0.000000
endloop
endfacet
facet normal 0.000000 0.000000 -1.000000
outer loop
vertex -0.000321 -0.000678 0.000000
vertex -0.000354 -0.000661 0.000000
vertex -0.000386 -0.000643 0.000000
endloop
endfacet
facet normal 0.000000 0.000000 -1.000000
outer loop
vertex -0.000386 -0.000643 0.000000
vertex -0.000417 -0.000624 0.000000
vertex -0.000447 -0.000602 0.000000
endloop
endfacet
facet normal 0.000000 0.000000 -1.000000
outer loop
vertex -0.000447 -0.000602 0.000000
vertex -0.000476 -0.000580 0.000000
vertex -0.000504 -0.000556 0.000000
endloop
endfacet
facet normal 0.000000 0.000000 -1.000000
outer loop
vertex -0.000504 -0.000556 0.000000
vertex -0.000530 -0.000530 0.000000
vertex -0.000556 -0.000504 0.000000
endloop
endfacet
facet normal 0.000000 0.000000 -1.000000
outer loop
vertex -0.000556 -0.000504 0.000000
vertex -0.000580 -0.000476 0.000000
vertex -0.000602 -0.000447 0.000000
endloop
endfacet
facet normal 0.000000 0.000000 -1.000000
outer loop
vertex -0.000602 -0.000447 0.000000
vertex -0.000624 -0.000417 0.000000
vertex -0.000643 -0.000386 0.000000
endloop
endfacet
facet normal 0.000000 0.000000 -1.000000
outer loop
vertex -0.000643 -0.000386 0.000000
vertex -0.000661 -0.000354 0.000000
vertex -0.000678 -0.000321 0.000000
endloop
endfacet
facet normal 0.000000 0.000000 -1.000000
outer loop
vertex -0.000678 -0.000321 0.000000
vertex -0.000693 -0.000287 0.000000
vertex -0.000706 -0.000253 0.000000
endloop
endfacet
facet normal 0.000000 0.000000 -1.000000
outer loop
vertex -0.000706 -0.000253 0.000000
vertex -0.000718 -0.000218 0.000000
vertex -0.000728 -0.000182 0.000000
endloop
endfacet
facet normal 0.000000 0.000000 -1.000000
outer loop
vertex -0.000728 -0.000182 0.000000
vertex -0.000736 -0.000146 0.000000
vertex -0.000742 -0.000110 0.000000
endloop
endfacet
facet normal 0.000000 0.000000 -1.000000
outer loop
vertex -0.000742 -0.000110 0.000000
vertex -0.000746 -0.000074 0.000000
vertex -0.000749 -0.000037 0.000000
endloop
endfacet
facet normal 0.000000 0.000000 -1.000000
outer loop
vertex -0.000749 -0.000037 0.000000
vertex -0.000750 -0.000000 0.000000
vertex -0.000749 0.000037 0.000000
endloop
endfacet
facet normal 0.000000 0.000000 -1.000000
outer loop
vertex -0.000749 0.000037 0.000000
vertex -0.000746 0.000074 0.000000
vertex -0.000742 0.000110 0.000000
endloop
endfacet
facet normal 0.000000 0.000000 -1.000000
outer loop
vertex -0.000742 0.000110 0.000000
vertex -0.000736 0.000146 0.000000
vertex -0.000728 0.000182 0.000000
endloop
endfacet
facet normal 0.000000 0.000000 -1.000000
outer loop
vertex -0.000728 0.000182 0.000000
vertex -0.000718 0.000218 0.000000
vertex -0.000706 0.000253 0.000000
endloop
endfacet
facet normal 0.000000 0.000000 -1.000000
outer loop
vertex -0.000706 0.000253 0.000000
vertex -0.000693 0.000287 0.000000
vertex -0.000678 0.000321 0.000000
endloop
endfacet
facet normal 0.000000 0.000000 -1.000000
outer loop
vertex -0.000678 0.000321 0.000000
vertex -0.000661 0.000354 0.000000
vertex -0.000643 0.000386 0.000000
endloop
endfacet
facet normal 0.000000 0.000000 -1.000000
outer loop
vertex -0.000643 0.000386 0.000000
vertex -0.000624 0.000417 0.000000
vertex -0.000602 0.000447 0.000000
endloop
endfacet
facet normal 0.000000 0.000000 -1.000000
outer loop
vertex -0.000602 0.000447 0.000000
vertex -0.000580 0.000476 0.000000
vertex -0.000556 0.000504 0.000000
endloop
endfacet
facet normal 0.000000 0.000000 -1.000000
outer loop
vertex -0.000556 0.000504 0.000000
vertex -0.000530 0.000530 0.000000
vertex -0.000504 0.000556 0.000000
endloop
endfacet
facet normal 0.000000 0.000000 -1.000000
outer loop
vertex -0.000504 0.000556 0.000000
vertex -0.000476 0.000580 0.000000
vertex -0.000447 0.000602 0.000000
endloop
endfacet
facet normal 0.000000 0.000000 -1.000000
outer loop
vertex -0.000447 0.000602 0.000000
vertex -0.000417 0.000624 0.000000
vertex -0.000386 0.000643 0.000000
endloop
endfacet
facet normal 0.000000 0.000000 -1.000000
outer loop
vertex -0.000386 0.000643 0.000000
vertex -0.000354 0.000661 0.000000
vertex -0.000321 0.000678 0.000000
endloop
endfacet
facet normal 0.000000 0.000000 -1.000000
outer loop
vertex -0.000321 0.000678 0.000000
vertex -0.000287 0.000693 0.000000
vertex -0.000253 0.000706 0.000000
endloop
endfacet
facet normal 0.000000 0.000000 -1.000000
outer loop
vertex -0.000253 0.000706 0.000000
vertex -0.000218 0.000718 0.000000
vertex -0.000182 0.000728 0.000000
endloop
endfacet
facet normal 0.000000 0.000000 -1.000000
outer loop
vertex -0.000182 0.000728 0.000000
vertex -0.000146 0.000736 0.000000
vertex -0.000110 0.000742 0.000000
endloop
endfacet
facet normal 0.000000 0.000000 -1.000000
outer loop
vertex -0.000110 0.000742 0.000000
vertex -0.000074 0.000746 0.000000
vertex -0.000037 0.000749 0.000000
endloop
endfacet
facet normal 0.000000 0.000000 -1.000000
outer loop
vertex -0.000037 0.000749 0.000000
vertex 0.000037 0.000749 0.000000
vertex 0.000110 0.000742 0.000000
endloop
endfacet
facet normal 0.000000 0.000000 -1.000000
outer loop
vertex 0.000110 0.000742 0.000000
vertex 0.000182 0.000728 0.000000
vertex 0.000253 0.000706 0.000000
endloop
endfacet
facet normal 0.000000 0.000000 -1.000000
outer loop
vertex 0.000253 0.000706 0.000000
vertex 0.000321 0.000678 0.000000
vertex 0.000386 0.000643 0.000000
endloop
endfacet
facet normal 0.000000 0.000000 -1.000000
outer loop
vertex 0.000386 0.000643 0.000000
vertex 0.000447 0.000602 0.000000
vertex 0.000504 0.000556 0.000000
endloop
endfacet
facet normal 0.000000 0.000000 -1.000000
outer loop
vertex 0.000504 0.000556 0.000000
vertex 0.000556 0.000504 0.000000
vertex 0.000602 0.000447 0.000000
endloop
endfacet
facet normal 0.000000 0.000000 -1.000000
outer loop
vertex 0.000602 0.000447 0.000000
vertex 0.000643 0.000386 0.000000
vertex 0.000678 0.000321 0.000000
endloop
endfacet
facet normal 0.000000 0.000000 -1.000000
outer loop
vertex 0.000678 0.000321 0.000000
vertex 0.000706 0.000253 0.000000
vertex 0.000728 0.000182 0.000000
endloop
endfacet
facet normal 0.000000 0.000000 -1.000000
outer loop
vertex 0.000728 0.000182 0.000000
vertex 0.000742 0.000110 0.000000
vertex 0.000749 0.000037 0.000000
endloop
endfacet
facet normal 0.000000 0.000000 -1.000000
outer loop
vertex 0.000749 0.000037 0.000000
vertex 0.000749 -0.000037 0.000000
vertex 0.000742 -0.000110 0.000000
endloop
endfacet
facet normal 0.000000 0.000000 -1.000000
outer loop
vertex 0.000742 -0.000110 0.000000
vertex 0.000728 -0.000182 0.000000
vertex 0.000706 -0.000253 0.000000
endloop
endfacet
facet normal 0.000000 0.000000 -1.000000
outer loop
vertex 0.000706 -0.000253 0.000000
vertex 0.000678 -0.000321 0.000000
vertex 0.000643 -0.000386 0.000000
endloop
endfacet
facet normal 0.000000 0.000000 -1.000000
outer loop
vertex 0.000643 -0.000386 0.000000
vertex 0.000602 -0.000447 0.000000
vertex 0.000556 -0.000504 0.000000
endloop
endfacet
facet normal 0.000000 0.000000 -1.000000
outer loop
vertex 0.000556 -0.000504 0.000000
vertex 0.000504 -0.000556 0.000000
vertex 0.000447 -0.000602 0.000000
endloop
endfacet
facet normal 0.000000 0.000000 -1.000000
outer loop
vertex 0.000447 -0.000602 0.000000
vertex 0.000386 -0.000643 0.000000
vertex 0.000321 -0.000678 0.000000
endloop
endfacet
facet normal 0.000000 0.000000 -1.000000
outer loop
vertex 0.000321 -0.000678 0.000000
vertex 0.000253 -0.000706 0.000000
vertex 0.000182 -0.000728 0.000000
endloop
endfacet
facet normal 0.000000 0.000000 -1.000000
outer loop
vertex 0.000182 -0.000728 0.000000
vertex 0.000110 -0.000742 0.000000
vertex 0.000037 -0.000749 0.000000
endloop
endfacet
facet normal 0.000000 0.000000 -1.000000
outer loop
vertex 0.000037 -0.000749 0.000000
vertex -0.000037 -0.000749 0.000000
vertex -0.000110 -0.000742 0.000000
endloop
endfacet
facet normal 0.000000 0.000000 -1.000000
outer loop
vertex -0.000110 -0.000742 0.000000
vertex -0.000182 -0.000728 0.000000
vertex -0.000253 -0.000706 0.000000
endloop
endfacet
facet normal 0.000000 0.000000 -1.000000
outer loop
vertex -0.000253 -0.000706 0.000000
vertex -0.000321 -0.000678 0.000000
vertex -0.000386 -0.000643 0.000000
endloop
endfacet
facet normal 0.000000 0.000000 -1.000000
outer loop
vertex -0.000386 -0.000643 0.000000
vertex -0.000447 -0.000602 0.000000
vertex -0.000504 -0.000556 0.000000
endloop
endfacet
facet normal 0.000000 0.000000 -1.000000
outer loop
vertex -0.000504 -0.000556 0.000000
vertex -0.000556 -0.000504 0.000000
vertex -0.000602 -0.000447 0.000000
endloop
endfacet
facet normal 0.000000 0.000000 -1.000000
outer loop
vertex -0.000602 -0.000447 0.000000
vertex -0.000643 -0.000386 0.000000
vertex -0.000678 -0.000321 0.000000
endloop
endfacet
facet normal 0.000000 0.000000 -1.000000
outer loop
vertex -0.000678 -0.000321 0.000000
vertex -0.000706 -0.000253 0.000000
vertex -0.000728 -0.000182 0.000000
endloop
endfacet
facet normal 0.000000 0.000000 -1.000000
outer loop
vertex -0.000728 -0.000182 0.000000
vertex -0.000742 -0.000110 0.000000
vertex -0.000749 -0.000037 0.000000
endloop
endfacet
facet normal 0.000000 0.000000 -1.000000
outer loop
vertex -0.000749 -0.000037 0.000000
vertex -0.000749 0.000037 0.000000
vertex -0.000742 0.000110 0.000000
endloop
endfacet
facet normal 0.000000 0.000000 -1.000000
outer loop
vertex -0.000742 0.000110 0.000000
vertex -0.000728 0.000182 0.000000
vertex -0.000706 0.000253 0.000000
endloop
endfacet
facet normal 0.000000 0.000000 -1.000000
outer loop
vertex -0.000706 0.000253 0.000000
vertex -0.000678 0.000321 0.000000
vertex -0.000643 0.000386 0.000000
endloop
endfacet
facet normal 0.000000 0.000000 -1.000000
outer loop
vertex -0.000643 0.000386 0.000000
vertex -0.000602 0.000447 0.000000
vertex -0.000556 0.000504 0.000000
endloop
endfacet
facet normal 0.000000 0.000000 -1.000000
outer loop
vertex -0.000556 0.000504 0.000000
vertex -0.000504 0.000556 0.000000
vertex -0.000447 0.000602 0.000000
endloop
endfacet
facet normal 0.000000 0.000000 -1.000000
outer loop
vertex -0.000447 0.000602 0.000000
vertex -0.000386 0.000643 0.000000
vertex -0.000321 0.000678 0.000000
endloop
endfacet
facet normal 0.000000 0.000000 -1.000000
outer loop
vertex -0.000321 0.000678 0.000000
vertex -0.000253 0.000706 0.000000
vertex -0.000182 0.000728 0.000000
endloop
endfacet
facet normal 0.000000 0.000000 -1.000000
outer loop
vertex -0.000182 0.000728 0.000000
vertex -0.000110 0.000742 0.000000
vertex -0.000037 0.000749 0.000000
endloop
endfacet
facet normal 0.000000 0.000000 -1.000000
outer loop
vertex -0.000037 0.000749 0.000000
vertex 0.000110 0.000742 0.000000
vertex 0.000253 0.000706 0.000000
endloop
endfacet
facet normal 0.000000 0.000000 -1.000000
outer loop
vertex 0.000253 0.000706 0.000000
vertex 0.000386 0.000643 0.000000
vertex 0.000504 0.000556 0.000000
endloop
endfacet
facet normal 0.000000 0.000000 -1.000000
outer loop
vertex 0.000504 0.000556 0.000000
vertex 0.000602 0.000447 0.000000
vertex 0.000678 0.000321 0.000000
endloop
endfacet
facet normal 0.000000 0.000000 -1.000000
outer loop
vertex 0.000678 0.000321 0.000000
vertex 0.000728 0.000182 0.000000
vertex 0.000749 0.000037 0.000000
endloop
endfacet
facet normal 0.000000 0.000000 -1.000000
outer loop
vertex 0.000749 0.000037 0.000000
vertex 0.000742 -0.000110 0.000000
vertex 0.000706 -0.000253 0.000000
endloop
endfacet
facet normal 0.000000 0.000000 -1.000000
outer loop
vertex 0.000706 -0.000253 0.000000
vertex 0.000643 -0.000386 0.000000
vertex 0.000556 -0.000504 0.000000
endloop
endfacet
facet normal 0.000000 0.000000 -1.000000
outer loop
vertex 0.000556 -0.000504 0.000000
vertex 0.000447 -0.000602 0.000000
vertex 0.000321 -0.000678 0.000000
endloop
endfacet
facet normal 0.000000 0.000000 -1.000000
outer loop
vertex 0.000321 -0.000678 0.000000
vertex 0.000182 -0.000728 0.000000
vertex 0.000037 -0.000749 0.000000
endloop
endfacet
facet normal 0.000000 0.000000 -1.000000
outer loop
vertex 0.000037 -0.000749 0.000000
vertex -0.000110 -0.000742 0.000000
vertex -0.000253 -0.000706 0.000000
endloop
endfacet
facet normal 0.000000 0.000000 -1.000000
outer loop
vertex -0.000253 -0.000706 0.000000
vertex -0.000386 -0.000643 0.000000
vertex -0.000504 -0.000556 0.000000
endloop
endfacet
facet normal 0.000000 0.000000 -1.000000
outer loop
vertex -0.000504 -0.000556 0.000000
vertex -0.000602 -0.000447 0.000000
vertex -0.000678 -0.000321 0.000000
endloop
endfacet
facet normal 0.000000 0.000000 -1.000000
outer loop
vertex -0.000678 -0.000321 0.000000
vertex -0.000728 -0.000182 0.000000
vertex -0.000749 -0.000037 0.000000
endloop
endfacet
facet normal 0.000000 0.000000 -1.000000
outer loop
vertex -0.000749 -0.000037 0.000000
vertex -0.000742 0.000110 0.000000
vertex -0.000706 0.000253 0.000000
endloop
endfacet
facet normal 0.000000 0.000000 -1.000000
outer loop
vertex -0.000706 0.000253 0.000000
vertex -0.000643 0.000386 0.000000
vertex -0.000556 0.000504 0.000000
endloop
endfacet
facet normal 0.000000 0.000000 -1.000000
outer loop
vertex -0.000556 0.000504 0.000000
vertex -0.000447 0.000602 0.000000
vertex -0.000321 0.000678 0.000000
endloop
endfacet
facet normal 0.000000 0.000000 -1.000000
outer loop
vertex -0.000321 0.000678 0.000000
vertex -0.000182 0.000728 0.000000
vertex -0.000037 0.000749 0.000000
endloop
endfacet
facet normal 0.000000 0.000000 -1.000000
outer loop
vertex -0.000037 0.000749 0.000000
vertex 0.000253 0.000706 0.000000
vertex 0.000504 0.000556 0.000000
endloop
endfacet
facet normal 0.000000 0.000000 -1.000000
outer loop
vertex 0.000504 0.000556 0.000000
vertex 0.000678 0.000321 0.000000
vertex 0.000749 0.000037 0.000000
endloop
endfacet
facet normal 0.000000 0.000000 -1.000000
outer loop
vertex 0.000749 0.000037 0.000000
vertex 0.000706 -0.000253 0.000000
vertex 0.000556 -0.000504 0.000000
endloop
endfacet
facet normal 0.000000 0.000000 -1.000000
outer loop
vertex 0.000556 -0.000504 0.000000
vertex 0.000321 -0.000678 0.000000
vertex 0.000037 -0.000749 0.000000
endloop
endfacet
facet normal 0.000000 0.000000 -1.000000
outer loop
vertex 0.000037 -0.000749 0.000000
vertex -0.000253 -0.000706 0.000000
vertex -0.000504 -0.000556 0.000000
endloop
endfacet
facet normal 0.000000 0.000000 -1.000000
outer loop
vertex -0.000504 -0.000556 0.000000
vertex -0.000678 -0.000321 0.000000
vertex -0.000749 -0.000037 0.000000
endloop
endfacet
facet normal 0.000000 0.000000 -1.000000
outer loop
vertex -0.000749 -0.000037 0.000000
vertex -0.000706 0.000253 0.000000
vertex -0.000556 0.000504 0.000000
endloop
endfacet
facet normal 0.000000 0.000000 -1.000000
outer loop
vertex -0.000556 0.000504 0.000000
vertex -0.000321 0.000678 0.000000
vertex -0.000037 0.000749 0.000000
endloop
endfacet
facet normal 0.000000 0.000000 -1.000000
outer loop
vertex -0.000037 0.000749 0.000000
vertex 0.000504 0.000556 0.000000
vertex 0.000749 0.000037 0.000000
endloop
endfacet
facet normal 0.000000 0.000000 -1.000000
outer loop
vertex 0.000749 0.000037 0.000000
vertex 0.000556 -0.000504 0.000000
vertex 0.000037 -0.000749 0.000000
endloop
endfacet
facet normal 0.000000 0.000000 -1.000000
outer loop
vertex 0.000037 -0.000749 0.000000
vertex -0.000504 -0.000556 0.000000
vertex -0.000749 -0.000037 0.000000
endloop
endfacet
facet normal 0.000000 0.000000 -1.000000
outer loop
vertex -0.000749 -0.000037 0.000000
vertex -0.000556 0.000504 0.000000
vertex -0.000037 0.000749 0.000000
endloop
endfacet
facet normal 0.000000 0.000000 -1.000000
outer loop
vertex -0.000037 0.000749 0.000000
vertex 0.000749 0.000037 0.000000
vertex 0.000037 -0.000749 0.000000
endloop
endfacet
facet normal 0.000000 0.000000 -1.000000
outer loop
vertex 0.000037 -0.000749 0.000000
vertex -0.000749 -0.000037 0.000000
vertex -0.000037 0.000749 0.000000
endloop
endfacet
endsolid Exported from Blender-2.80 (sub 75)
