solid Exported from Blender-2.80 (sub 75)
facet normal 0.024541 0.999699 0.000000
outer loop
vertex 0.000000 0.000750 0.000000
vertex 0.000000 0.000750 0.150000
vertex 0.000037 0.000749 0.150000
endloop
endfacet
facet normal 0.024541 0.999699 0.000000
outer loop
vertex 0.000000 0.000750 0.000000
vertex 0.000037 0.000749 0.150000
vertex 0.000037 0.000749 0.000000
endloop
endfacet
facet normal 0.073565 0.997290 0.000000
outer loop
vertex 0.000037 0.000749 0.000000
vertex 0.000037 0.000749 0.150000
vertex 0.000074 0.000746 0.150000
endloop
endfacet
facet normal 0.073565 0.997291 0.000000
outer loop
vertex 0.000037 0.000749 0.000000
vertex 0.000074 0.000746 0.150000
vertex 0.000074 0.000746 0.000000
endloop
endfacet
facet normal 0.122410 0.992480 0.000000
outer loop
vertex 0.000074 0.000746 0.000000
vertex 0.000074 0.000746 0.150000
vertex 0.000110 0.000742 0.150000
endloop
endfacet
facet normal 0.122410 0.992480 0.000000
outer loop
vertex 0.000074 0.000746 0.000000
vertex 0.000110 0.000742 0.150000
vertex 0.000110 0.000742 0.000000
endloop
endfacet
facet normal 0.170962 0.985278 0.000000
outer loop
vertex 0.000110 0.000742 0.000000
vertex 0.000110 0.000742 0.150000
vertex 0.000146 0.000736 0.150000
endloop
endfacet
facet normal 0.170962 0.985278 0.000000
outer loop
vertex 0.000110 0.000742 0.000000
vertex 0.000146 0.000736 0.150000
vertex 0.000146 0.000736 0.000000
endloop
endfacet
facet normal 0.219102 0.975702 0.000000
outer loop
vertex 0.000146 0.000736 0.000000
vertex 0.000146 0.000736 0.150000
vertex 0.000182 0.000728 0.150000
endloop
endfacet
facet normal 0.219102 0.975702 0.000000
outer loop
vertex 0.000146 0.000736 0.000000
vertex 0.000182 0.000728 0.150000
vertex 0.000182 0.000728 0.000000
endloop
endfacet
facet normal 0.266712 0.963776 0.000000
outer loop
vertex 0.000182 0.000728 0.000000
vertex 0.000182 0.000728 0.150000
vertex 0.000218 0.000718 0.150000
endloop
endfacet
facet normal 0.266713 0.963776 0.000000
outer loop
vertex 0.000182 0.000728 0.000000
vertex 0.000218 0.000718 0.150000
vertex 0.000218 0.000718 0.000000
endloop
endfacet
facet normal 0.313683 0.949528 0.000000
outer loop
vertex 0.000218 0.000718 0.000000
vertex 0.000218 0.000718 0.150000
vertex 0.000253 0.000706 0.150000
endloop
endfacet
facet normal 0.313683 0.949528 0.000000
outer loop
vertex 0.000218 0.000718 0.000000
vertex 0.000253 0.000706 0.150000
vertex 0.000253 0.000706 0.000000
endloop
endfacet
facet normal 0.359893 0.932993 0.000000
outer loop
vertex 0.000253 0.000706 0.000000
vertex 0.000253 0.000706 0.150000
vertex 0.000287 0.000693 0.150000
endloop
endfacet
facet normal 0.359894 0.932993 0.000000
outer loop
vertex 0.000253 0.000706 0.000000
vertex 0.000287 0.000693 0.150000
vertex 0.000287 0.000693 0.000000
endloop
endfacet
facet normal 0.405242 0.914209 0.000000
outer loop
vertex 0.000287 0.000693 0.000000
vertex 0.000287 0.000693 0.150000
vertex 0.000321 0.000678 0.150000
endloop
endfacet
facet normal 0.405242 0.914209 0.000000
outer loop
vertex 0.000287 0.000693 0.000000
vertex 0.000321 0.000678 0.150000
vertex 0.000321 0.000678 0.000000
endloop
endfacet
facet normal 0.449610 0.893225 0.000000
outer loop
vertex 0.000321 0.000678 0.000000
vertex 0.000321 0.000678 0.150000
vertex 0.000354 0.000661 0.150000
endloop
endfacet
facet normal 0.449611 0.893225 0.000000
outer loop
vertex 0.000321 0.000678 0.000000
vertex 0.000354 0.000661 0.150000
vertex 0.000354 0.000661 0.000000
endloop
endfacet
facet normal 0.492899 0.870087 0.000000
outer loop
vertex 0.000354 0.000661 0.000000
vertex 0.000354 0.000661 0.150000
vertex 0.000386 0.000643 0.150000
endloop
endfacet
facet normal 0.492898 0.870087 0.000000
outer loop
vertex 0.000354 0.000661 0.000000
vertex 0.000386 0.000643 0.150000
vertex 0.000386 0.000643 0.000000
endloop
endfacet
facet normal 0.534998 0.844853 0.000000
outer loop
vertex 0.000386 0.000643 0.000000
vertex 0.000386 0.000643 0.150000
vertex 0.000417 0.000624 0.150000
endloop
endfacet
facet normal 0.534997 0.844854 0.000000
outer loop
vertex 0.000386 0.000643 0.000000
vertex 0.000417 0.000624 0.150000
vertex 0.000417 0.000624 0.000000
endloop
endfacet
facet normal 0.575809 0.817584 0.000000
outer loop
vertex 0.000417 0.000624 0.000000
vertex 0.000417 0.000624 0.150000
vertex 0.000447 0.000602 0.150000
endloop
endfacet
facet normal 0.575807 0.817585 0.000000
outer loop
vertex 0.000417 0.000624 0.000000
vertex 0.000447 0.000602 0.150000
vertex 0.000447 0.000602 0.000000
endloop
endfacet
facet normal 0.615232 0.788346 0.000000
outer loop
vertex 0.000447 0.000602 0.000000
vertex 0.000447 0.000602 0.150000
vertex 0.000476 0.000580 0.150000
endloop
endfacet
facet normal 0.615232 0.788346 0.000000
outer loop
vertex 0.000447 0.000602 0.000000
vertex 0.000476 0.000580 0.150000
vertex 0.000476 0.000580 0.000000
endloop
endfacet
facet normal 0.653174 0.757208 0.000000
outer loop
vertex 0.000476 0.000580 0.000000
vertex 0.000476 0.000580 0.150000
vertex 0.000504 0.000556 0.150000
endloop
endfacet
facet normal 0.653173 0.757209 0.000000
outer loop
vertex 0.000476 0.000580 0.000000
vertex 0.000504 0.000556 0.150000
vertex 0.000504 0.000556 0.000000
endloop
endfacet
facet normal 0.689541 0.724247 0.000000
outer loop
vertex 0.000504 0.000556 0.000000
vertex 0.000504 0.000556 0.150000
vertex 0.000530 0.000530 0.150000
endloop
endfacet
facet normal 0.689539 0.724248 0.000000
outer loop
vertex 0.000504 0.000556 0.000000
vertex 0.000530 0.000530 0.150000
vertex 0.000530 0.000530 0.000000
endloop
endfacet
facet normal 0.724249 0.689539 0.000000
outer loop
vertex 0.000530 0.000530 0.000000
vertex 0.000530 0.000530 0.150000
vertex 0.000556 0.000504 0.150000
endloop
endfacet
facet normal 0.724247 0.689540 0.000000
outer loop
vertex 0.000530 0.000530 0.000000
vertex 0.000556 0.000504 0.150000
vertex 0.000556 0.000504 0.000000
endloop
endfacet
facet normal 0.757208 0.653174 0.000000
outer loop
vertex 0.000556 0.000504 0.000000
vertex 0.000556 0.000504 0.150000
vertex 0.000580 0.000476 0.150000
endloop
endfacet
facet normal 0.757208 0.653174 0.000000
outer loop
vertex 0.000556 0.000504 0.000000
vertex 0.000580 0.000476 0.150000
vertex 0.000580 0.000476 0.000000
endloop
endfacet
facet normal 0.788346 0.615232 0.000000
outer loop
vertex 0.000580 0.000476 0.000000
vertex 0.000580 0.000476 0.150000
vertex 0.000602 0.000447 0.150000
endloop
endfacet
facet normal 0.788346 0.615232 0.000000
outer loop
vertex 0.000580 0.000476 0.000000
vertex 0.000602 0.000447 0.150000
vertex 0.000602 0.000447 0.000000
endloop
endfacet
facet normal 0.817585 0.575807 0.000000
outer loop
vertex 0.000602 0.000447 0.000000
vertex 0.000602 0.000447 0.150000
vertex 0.000624 0.000417 0.150000
endloop
endfacet
facet normal 0.817584 0.575809 0.000000
outer loop
vertex 0.000602 0.000447 0.000000
vertex 0.000624 0.000417 0.150000
vertex 0.000624 0.000417 0.000000
endloop
endfacet
facet normal 0.844854 0.534997 0.000000
outer loop
vertex 0.000624 0.000417 0.000000
vertex 0.000624 0.000417 0.150000
vertex 0.000643 0.000386 0.150000
endloop
endfacet
facet normal 0.844854 0.534997 0.000000
outer loop
vertex 0.000624 0.000417 0.000000
vertex 0.000643 0.000386 0.150000
vertex 0.000643 0.000386 0.000000
endloop
endfacet
facet normal 0.870087 0.492898 0.000000
outer loop
vertex 0.000643 0.000386 0.000000
vertex 0.000643 0.000386 0.150000
vertex 0.000661 0.000354 0.150000
endloop
endfacet
facet normal 0.870087 0.492898 0.000000
outer loop
vertex 0.000643 0.000386 0.000000
vertex 0.000661 0.000354 0.150000
vertex 0.000661 0.000354 0.000000
endloop
endfacet
facet normal 0.893225 0.449610 0.000000
outer loop
vertex 0.000661 0.000354 0.000000
vertex 0.000661 0.000354 0.150000
vertex 0.000678 0.000321 0.150000
endloop
endfacet
facet normal 0.893225 0.449610 0.000000
outer loop
vertex 0.000661 0.000354 0.000000
vertex 0.000678 0.000321 0.150000
vertex 0.000678 0.000321 0.000000
endloop
endfacet
facet normal 0.914209 0.405243 0.000000
outer loop
vertex 0.000678 0.000321 0.000000
vertex 0.000678 0.000321 0.150000
vertex 0.000693 0.000287 0.150000
endloop
endfacet
facet normal 0.914210 0.405240 0.000000
outer loop
vertex 0.000678 0.000321 0.000000
vertex 0.000693 0.000287 0.150000
vertex 0.000693 0.000287 0.000000
endloop
endfacet
facet normal 0.932992 0.359896 0.000000
outer loop
vertex 0.000693 0.000287 0.000000
vertex 0.000693 0.000287 0.150000
vertex 0.000706 0.000253 0.150000
endloop
endfacet
facet normal 0.932993 0.359894 0.000000
outer loop
vertex 0.000693 0.000287 0.000000
vertex 0.000706 0.000253 0.150000
vertex 0.000706 0.000253 0.000000
endloop
endfacet
facet normal 0.949528 0.313682 0.000000
outer loop
vertex 0.000706 0.000253 0.000000
vertex 0.000706 0.000253 0.150000
vertex 0.000718 0.000218 0.150000
endloop
endfacet
facet normal 0.949529 0.313680 0.000000
outer loop
vertex 0.000706 0.000253 0.000000
vertex 0.000718 0.000218 0.150000
vertex 0.000718 0.000218 0.000000
endloop
endfacet
facet normal 0.963776 0.266712 0.000000
outer loop
vertex 0.000718 0.000218 0.000000
vertex 0.000718 0.000218 0.150000
vertex 0.000728 0.000182 0.150000
endloop
endfacet
facet normal 0.963776 0.266712 0.000000
outer loop
vertex 0.000718 0.000218 0.000000
vertex 0.000728 0.000182 0.150000
vertex 0.000728 0.000182 0.000000
endloop
endfacet
facet normal 0.975702 0.219102 0.000000
outer loop
vertex 0.000728 0.000182 0.000000
vertex 0.000728 0.000182 0.150000
vertex 0.000736 0.000146 0.150000
endloop
endfacet
facet normal 0.975702 0.219102 0.000000
outer loop
vertex 0.000728 0.000182 0.000000
vertex 0.000736 0.000146 0.150000
vertex 0.000736 0.000146 0.000000
endloop
endfacet
facet normal 0.985278 0.170962 0.000000
outer loop
vertex 0.000736 0.000146 0.000000
vertex 0.000736 0.000146 0.150000
vertex 0.000742 0.000110 0.150000
endloop
endfacet
facet normal 0.985278 0.170962 0.000000
outer loop
vertex 0.000736 0.000146 0.000000
vertex 0.000742 0.000110 0.150000
vertex 0.000742 0.000110 0.000000
endloop
endfacet
facet normal 0.992480 0.122410 0.000000
outer loop
vertex 0.000742 0.000110 0.000000
vertex 0.000742 0.000110 0.150000
vertex 0.000746 0.000074 0.150000
endloop
endfacet
facet normal 0.992480 0.122410 0.000000
outer loop
vertex 0.000742 0.000110 0.000000
vertex 0.000746 0.000074 0.150000
vertex 0.000746 0.000074 0.000000
endloop
endfacet
facet normal 0.997290 0.073566 0.000000
outer loop
vertex 0.000746 0.000074 0.000000
vertex 0.000746 0.000074 0.150000
vertex 0.000749 0.000037 0.150000
endloop
endfacet
facet normal 0.997291 0.073561 0.000000
outer loop
vertex 0.000746 0.000074 0.000000
vertex 0.000749 0.000037 0.150000
vertex 0.000749 0.000037 0.000000
endloop
endfacet
facet normal 0.999699 0.024541 0.000000
outer loop
vertex 0.000749 0.000037 0.000000
vertex 0.000749 0.000037 0.150000
vertex 0.000750 -0.000000 0.150000
endloop
endfacet
facet normal 0.999699 0.024541 0.000000
outer loop
vertex 0.000749 0.000037 0.000000
vertex 0.000750 -0.000000 0.150000
vertex 0.000750 -0.000000 0.000000
endloop
endfacet
facet normal 0.999699 -0.024541 0.000000
outer loop
vertex 0.000750 -0.000000 0.000000
vertex 0.000750 -0.000000 0.150000
vertex 0.000749 -0.000037 0.150000
endloop
endfacet
facet normal 0.999699 -0.024541 0.000000
outer loop
vertex 0.000750 -0.000000 0.000000
vertex 0.000749 -0.000037 0.150000
vertex 0.000749 -0.000037 0.000000
endloop
endfacet
facet normal 0.997290 -0.073569 0.000000
outer loop
vertex 0.000749 -0.000037 0.000000
vertex 0.000749 -0.000037 0.150000
vertex 0.000746 -0.000074 0.150000
endloop
endfacet
facet normal 0.997291 -0.073564 0.000000
outer loop
vertex 0.000749 -0.000037 0.000000
vertex 0.000746 -0.000074 0.150000
vertex 0.000746 -0.000074 0.000000
endloop
endfacet
facet normal 0.992479 -0.122413 0.000000
outer loop
vertex 0.000746 -0.000074 0.000000
vertex 0.000746 -0.000074 0.150000
vertex 0.000742 -0.000110 0.150000
endloop
endfacet
facet normal 0.992480 -0.122408 0.000000
outer loop
vertex 0.000746 -0.000074 0.000000
vertex 0.000742 -0.000110 0.150000
vertex 0.000742 -0.000110 0.000000
endloop
endfacet
facet normal 0.985278 -0.170962 0.000000
outer loop
vertex 0.000742 -0.000110 0.000000
vertex 0.000742 -0.000110 0.150000
vertex 0.000736 -0.000146 0.150000
endloop
endfacet
facet normal 0.985278 -0.170962 0.000000
outer loop
vertex 0.000742 -0.000110 0.000000
vertex 0.000736 -0.000146 0.150000
vertex 0.000736 -0.000146 0.000000
endloop
endfacet
facet normal 0.975701 -0.219104 0.000000
outer loop
vertex 0.000736 -0.000146 0.000000
vertex 0.000736 -0.000146 0.150000
vertex 0.000728 -0.000182 0.150000
endloop
endfacet
facet normal 0.975703 -0.219099 0.000000
outer loop
vertex 0.000736 -0.000146 0.000000
vertex 0.000728 -0.000182 0.150000
vertex 0.000728 -0.000182 0.000000
endloop
endfacet
facet normal 0.963775 -0.266715 0.000000
outer loop
vertex 0.000728 -0.000182 0.000000
vertex 0.000728 -0.000182 0.150000
vertex 0.000718 -0.000218 0.150000
endloop
endfacet
facet normal 0.963776 -0.266713 0.000000
outer loop
vertex 0.000728 -0.000182 0.000000
vertex 0.000718 -0.000218 0.150000
vertex 0.000718 -0.000218 0.000000
endloop
endfacet
facet normal 0.949528 -0.313682 0.000000
outer loop
vertex 0.000718 -0.000218 0.000000
vertex 0.000718 -0.000218 0.150000
vertex 0.000706 -0.000253 0.150000
endloop
endfacet
facet normal 0.949528 -0.313682 0.000000
outer loop
vertex 0.000718 -0.000218 0.000000
vertex 0.000706 -0.000253 0.150000
vertex 0.000706 -0.000253 0.000000
endloop
endfacet
facet normal 0.932992 -0.359896 0.000000
outer loop
vertex 0.000706 -0.000253 0.000000
vertex 0.000706 -0.000253 0.150000
vertex 0.000693 -0.000287 0.150000
endloop
endfacet
facet normal 0.932992 -0.359896 0.000000
outer loop
vertex 0.000706 -0.000253 0.000000
vertex 0.000693 -0.000287 0.150000
vertex 0.000693 -0.000287 0.000000
endloop
endfacet
facet normal 0.914210 -0.405242 0.000000
outer loop
vertex 0.000693 -0.000287 0.000000
vertex 0.000693 -0.000287 0.150000
vertex 0.000678 -0.000321 0.150000
endloop
endfacet
facet normal 0.914210 -0.405242 0.000000
outer loop
vertex 0.000693 -0.000287 0.000000
vertex 0.000678 -0.000321 0.150000
vertex 0.000678 -0.000321 0.000000
endloop
endfacet
facet normal 0.893223 -0.449613 0.000000
outer loop
vertex 0.000678 -0.000321 0.000000
vertex 0.000678 -0.000321 0.150000
vertex 0.000661 -0.000354 0.150000
endloop
endfacet
facet normal 0.893226 -0.449609 0.000000
outer loop
vertex 0.000678 -0.000321 0.000000
vertex 0.000661 -0.000354 0.150000
vertex 0.000661 -0.000354 0.000000
endloop
endfacet
facet normal 0.870086 -0.492899 0.000000
outer loop
vertex 0.000661 -0.000354 0.000000
vertex 0.000661 -0.000354 0.150000
vertex 0.000643 -0.000386 0.150000
endloop
endfacet
facet normal 0.870086 -0.492899 0.000000
outer loop
vertex 0.000661 -0.000354 0.000000
vertex 0.000643 -0.000386 0.150000
vertex 0.000643 -0.000386 0.000000
endloop
endfacet
facet normal 0.844854 -0.534997 0.000000
outer loop
vertex 0.000643 -0.000386 0.000000
vertex 0.000643 -0.000386 0.150000
vertex 0.000624 -0.000417 0.150000
endloop
endfacet
facet normal 0.844853 -0.534999 0.000000
outer loop
vertex 0.000643 -0.000386 0.000000
vertex 0.000624 -0.000417 0.150000
vertex 0.000624 -0.000417 0.000000
endloop
endfacet
facet normal 0.817585 -0.575808 0.000000
outer loop
vertex 0.000624 -0.000417 0.000000
vertex 0.000624 -0.000417 0.150000
vertex 0.000602 -0.000447 0.150000
endloop
endfacet
facet normal 0.817585 -0.575808 0.000000
outer loop
vertex 0.000624 -0.000417 0.000000
vertex 0.000602 -0.000447 0.150000
vertex 0.000602 -0.000447 0.000000
endloop
endfacet
facet normal 0.788347 -0.615231 0.000000
outer loop
vertex 0.000602 -0.000447 0.000000
vertex 0.000602 -0.000447 0.150000
vertex 0.000580 -0.000476 0.150000
endloop
endfacet
facet normal 0.788346 -0.615233 0.000000
outer loop
vertex 0.000602 -0.000447 0.000000
vertex 0.000580 -0.000476 0.150000
vertex 0.000580 -0.000476 0.000000
endloop
endfacet
facet normal 0.757209 -0.653173 0.000000
outer loop
vertex 0.000580 -0.000476 0.000000
vertex 0.000580 -0.000476 0.150000
vertex 0.000556 -0.000504 0.150000
endloop
endfacet
facet normal 0.757209 -0.653173 0.000000
outer loop
vertex 0.000580 -0.000476 0.000000
vertex 0.000556 -0.000504 0.150000
vertex 0.000556 -0.000504 0.000000
endloop
endfacet
facet normal 0.724247 -0.689541 0.000000
outer loop
vertex 0.000556 -0.000504 0.000000
vertex 0.000556 -0.000504 0.150000
vertex 0.000530 -0.000530 0.150000
endloop
endfacet
facet normal 0.724247 -0.689541 0.000000
outer loop
vertex 0.000556 -0.000504 0.000000
vertex 0.000530 -0.000530 0.150000
vertex 0.000530 -0.000530 0.000000
endloop
endfacet
facet normal 0.689541 -0.724247 0.000000
outer loop
vertex 0.000530 -0.000530 0.000000
vertex 0.000530 -0.000530 0.150000
vertex 0.000504 -0.000556 0.150000
endloop
endfacet
facet normal 0.689541 -0.724247 0.000000
outer loop
vertex 0.000530 -0.000530 0.000000
vertex 0.000504 -0.000556 0.150000
vertex 0.000504 -0.000556 0.000000
endloop
endfacet
facet normal 0.653175 -0.757207 0.000000
outer loop
vertex 0.000504 -0.000556 0.000000
vertex 0.000504 -0.000556 0.150000
vertex 0.000476 -0.000580 0.150000
endloop
endfacet
facet normal 0.653173 -0.757208 0.000000
outer loop
vertex 0.000504 -0.000556 0.000000
vertex 0.000476 -0.000580 0.150000
vertex 0.000476 -0.000580 0.000000
endloop
endfacet
facet normal 0.615232 -0.788346 0.000000
outer loop
vertex 0.000476 -0.000580 0.000000
vertex 0.000476 -0.000580 0.150000
vertex 0.000447 -0.000602 0.150000
endloop
endfacet
facet normal 0.615231 -0.788347 0.000000
outer loop
vertex 0.000476 -0.000580 0.000000
vertex 0.000447 -0.000602 0.150000
vertex 0.000447 -0.000602 0.000000
endloop
endfacet
facet normal 0.575808 -0.817585 0.000000
outer loop
vertex 0.000447 -0.000602 0.000000
vertex 0.000447 -0.000602 0.150000
vertex 0.000417 -0.000624 0.150000
endloop
endfacet
facet normal 0.575809 -0.817584 0.000000
outer loop
vertex 0.000447 -0.000602 0.000000
vertex 0.000417 -0.000624 0.150000
vertex 0.000417 -0.000624 0.000000
endloop
endfacet
facet normal 0.534999 -0.844853 0.000000
outer loop
vertex 0.000417 -0.000624 0.000000
vertex 0.000417 -0.000624 0.150000
vertex 0.000386 -0.000643 0.150000
endloop
endfacet
facet normal 0.534998 -0.844853 0.000000
outer loop
vertex 0.000417 -0.000624 0.000000
vertex 0.000386 -0.000643 0.150000
vertex 0.000386 -0.000643 0.000000
endloop
endfacet
facet normal 0.492899 -0.870086 0.000000
outer loop
vertex 0.000386 -0.000643 0.000000
vertex 0.000386 -0.000643 0.150000
vertex 0.000354 -0.000661 0.150000
endloop
endfacet
facet normal 0.492899 -0.870086 0.000000
outer loop
vertex 0.000386 -0.000643 0.000000
vertex 0.000354 -0.000661 0.150000
vertex 0.000354 -0.000661 0.000000
endloop
endfacet
facet normal 0.449612 -0.893224 0.000000
outer loop
vertex 0.000354 -0.000661 0.000000
vertex 0.000354 -0.000661 0.150000
vertex 0.000321 -0.000678 0.150000
endloop
endfacet
facet normal 0.449612 -0.893224 0.000000
outer loop
vertex 0.000354 -0.000661 0.000000
vertex 0.000321 -0.000678 0.150000
vertex 0.000321 -0.000678 0.000000
endloop
endfacet
facet normal 0.405242 -0.914209 0.000000
outer loop
vertex 0.000321 -0.000678 0.000000
vertex 0.000321 -0.000678 0.150000
vertex 0.000287 -0.000693 0.150000
endloop
endfacet
facet normal 0.405243 -0.914209 0.000000
outer loop
vertex 0.000321 -0.000678 0.000000
vertex 0.000287 -0.000693 0.150000
vertex 0.000287 -0.000693 0.000000
endloop
endfacet
facet normal 0.359896 -0.932992 0.000000
outer loop
vertex 0.000287 -0.000693 0.000000
vertex 0.000287 -0.000693 0.150000
vertex 0.000253 -0.000706 0.150000
endloop
endfacet
facet normal 0.359896 -0.932992 0.000000
outer loop
vertex 0.000287 -0.000693 0.000000
vertex 0.000253 -0.000706 0.150000
vertex 0.000253 -0.000706 0.000000
endloop
endfacet
facet normal 0.313683 -0.949528 0.000000
outer loop
vertex 0.000253 -0.000706 0.000000
vertex 0.000253 -0.000706 0.150000
vertex 0.000218 -0.000718 0.150000
endloop
endfacet
facet normal 0.313683 -0.949528 0.000000
outer loop
vertex 0.000253 -0.000706 0.000000
vertex 0.000218 -0.000718 0.150000
vertex 0.000218 -0.000718 0.000000
endloop
endfacet
facet normal 0.266713 -0.963776 0.000000
outer loop
vertex 0.000218 -0.000718 0.000000
vertex 0.000218 -0.000718 0.150000
vertex 0.000182 -0.000728 0.150000
endloop
endfacet
facet normal 0.266713 -0.963776 0.000000
outer loop
vertex 0.000218 -0.000718 0.000000
vertex 0.000182 -0.000728 0.150000
vertex 0.000182 -0.000728 0.000000
endloop
endfacet
facet normal 0.219104 -0.975702 0.000000
outer loop
vertex 0.000182 -0.000728 0.000000
vertex 0.000182 -0.000728 0.150000
vertex 0.000146 -0.000736 0.150000
endloop
endfacet
facet normal 0.219104 -0.975702 0.000000
outer loop
vertex 0.000182 -0.000728 0.000000
vertex 0.000146 -0.000736 0.150000
vertex 0.000146 -0.000736 0.000000
endloop
endfacet
facet normal 0.170962 -0.985278 0.000000
outer loop
vertex 0.000146 -0.000736 0.000000
vertex 0.000146 -0.000736 0.150000
vertex 0.000110 -0.000742 0.150000
endloop
endfacet
facet normal 0.170962 -0.985278 0.000000
outer loop
vertex 0.000146 -0.000736 0.000000
vertex 0.000110 -0.000742 0.150000
vertex 0.000110 -0.000742 0.000000
endloop
endfacet
facet normal 0.122412 -0.992479 0.000000
outer loop
vertex 0.000110 -0.000742 0.000000
vertex 0.000110 -0.000742 0.150000
vertex 0.000074 -0.000746 0.150000
endloop
endfacet
facet normal 0.122412 -0.992479 0.000000
outer loop
vertex 0.000110 -0.000742 0.000000
vertex 0.000074 -0.000746 0.150000
vertex 0.000074 -0.000746 0.000000
endloop
endfacet
facet normal 0.073568 -0.997290 0.000000
outer loop
vertex 0.000074 -0.000746 0.000000
vertex 0.000074 -0.000746 0.150000
vertex 0.000037 -0.000749 0.150000
endloop
endfacet
facet normal 0.073568 -0.997290 0.000000
outer loop
vertex 0.000074 -0.000746 0.000000
vertex 0.000037 -0.000749 0.150000
vertex 0.000037 -0.000749 0.000000
endloop
endfacet
facet normal 0.024541 -0.999699 0.000000
outer loop
vertex 0.000037 -0.000749 0.000000
vertex 0.000037 -0.000749 0.150000
vertex 0.000000 -0.000750 0.150000
endloop
endfacet
facet normal 0.024541 -0.999699 0.000000
outer loop
vertex 0.000037 -0.000749 0.000000
vertex 0.000000 -0.000750 0.150000
vertex 0.000000 -0.000750 0.000000
endloop
endfacet
facet normal -0.024537 -0.999699 0.000000
outer loop
vertex 0.000000 -0.000750 0.000000
vertex 0.000000 -0.000750 0.150000
vertex -0.000037 -0.000749 0.150000
endloop
endfacet
facet normal -0.024537 -0.999699 0.000000
outer loop
vertex 0.000000 -0.000750 0.000000
vertex -0.000037 -0.000749 0.150000
vertex -0.000037 -0.000749 0.000000
endloop
endfacet
facet normal -0.073565 -0.997291 0.000000
outer loop
vertex -0.000037 -0.000749 0.000000
vertex -0.000037 -0.000749 0.150000
vertex -0.000074 -0.000746 0.150000
endloop
endfacet
facet normal -0.073565 -0.997290 0.000000
outer loop
vertex -0.000037 -0.000749 0.000000
vertex -0.000074 -0.000746 0.150000
vertex -0.000074 -0.000746 0.000000
endloop
endfacet
facet normal -0.122407 -0.992480 0.000000
outer loop
vertex -0.000074 -0.000746 0.000000
vertex -0.000074 -0.000746 0.150000
vertex -0.000110 -0.000742 0.150000
endloop
endfacet
facet normal -0.122407 -0.992480 0.000000
outer loop
vertex -0.000074 -0.000746 0.000000
vertex -0.000110 -0.000742 0.150000
vertex -0.000110 -0.000742 0.000000
endloop
endfacet
facet normal -0.170959 -0.985278 0.000000
outer loop
vertex -0.000110 -0.000742 0.000000
vertex -0.000110 -0.000742 0.150000
vertex -0.000146 -0.000736 0.150000
endloop
endfacet
facet normal -0.170959 -0.985278 0.000000
outer loop
vertex -0.000110 -0.000742 0.000000
vertex -0.000146 -0.000736 0.150000
vertex -0.000146 -0.000736 0.000000
endloop
endfacet
facet normal -0.219101 -0.975702 0.000000
outer loop
vertex -0.000146 -0.000736 0.000000
vertex -0.000146 -0.000736 0.150000
vertex -0.000182 -0.000728 0.150000
endloop
endfacet
facet normal -0.219101 -0.975702 0.000000
outer loop
vertex -0.000146 -0.000736 0.000000
vertex -0.000182 -0.000728 0.150000
vertex -0.000182 -0.000728 0.000000
endloop
endfacet
facet normal -0.266710 -0.963777 0.000000
outer loop
vertex -0.000182 -0.000728 0.000000
vertex -0.000182 -0.000728 0.150000
vertex -0.000218 -0.000718 0.150000
endloop
endfacet
facet normal -0.266710 -0.963777 0.000000
outer loop
vertex -0.000182 -0.000728 0.000000
vertex -0.000218 -0.000718 0.150000
vertex -0.000218 -0.000718 0.000000
endloop
endfacet
facet normal -0.313679 -0.949529 0.000000
outer loop
vertex -0.000218 -0.000718 0.000000
vertex -0.000218 -0.000718 0.150000
vertex -0.000253 -0.000706 0.150000
endloop
endfacet
facet normal -0.313679 -0.949529 0.000000
outer loop
vertex -0.000218 -0.000718 0.000000
vertex -0.000253 -0.000706 0.150000
vertex -0.000253 -0.000706 0.000000
endloop
endfacet
facet normal -0.359894 -0.932993 0.000000
outer loop
vertex -0.000253 -0.000706 0.000000
vertex -0.000253 -0.000706 0.150000
vertex -0.000287 -0.000693 0.150000
endloop
endfacet
facet normal -0.359894 -0.932993 0.000000
outer loop
vertex -0.000253 -0.000706 0.000000
vertex -0.000287 -0.000693 0.150000
vertex -0.000287 -0.000693 0.000000
endloop
endfacet
facet normal -0.405239 -0.914211 0.000000
outer loop
vertex -0.000287 -0.000693 0.000000
vertex -0.000287 -0.000693 0.150000
vertex -0.000321 -0.000678 0.150000
endloop
endfacet
facet normal -0.405239 -0.914211 0.000000
outer loop
vertex -0.000287 -0.000693 0.000000
vertex -0.000321 -0.000678 0.150000
vertex -0.000321 -0.000678 0.000000
endloop
endfacet
facet normal -0.449608 -0.893226 0.000000
outer loop
vertex -0.000321 -0.000678 0.000000
vertex -0.000321 -0.000678 0.150000
vertex -0.000354 -0.000661 0.150000
endloop
endfacet
facet normal -0.449607 -0.893226 0.000000
outer loop
vertex -0.000321 -0.000678 0.000000
vertex -0.000354 -0.000661 0.150000
vertex -0.000354 -0.000661 0.000000
endloop
endfacet
facet normal -0.492897 -0.870088 0.000000
outer loop
vertex -0.000354 -0.000661 0.000000
vertex -0.000354 -0.000661 0.150000
vertex -0.000386 -0.000643 0.150000
endloop
endfacet
facet normal -0.492898 -0.870087 0.000000
outer loop
vertex -0.000354 -0.000661 0.000000
vertex -0.000386 -0.000643 0.150000
vertex -0.000386 -0.000643 0.000000
endloop
endfacet
facet normal -0.534995 -0.844855 0.000000
outer loop
vertex -0.000386 -0.000643 0.000000
vertex -0.000386 -0.000643 0.150000
vertex -0.000417 -0.000624 0.150000
endloop
endfacet
facet normal -0.534994 -0.844856 0.000000
outer loop
vertex -0.000386 -0.000643 0.000000
vertex -0.000417 -0.000624 0.150000
vertex -0.000417 -0.000624 0.000000
endloop
endfacet
facet normal -0.575805 -0.817587 0.000000
outer loop
vertex -0.000417 -0.000624 0.000000
vertex -0.000417 -0.000624 0.150000
vertex -0.000447 -0.000602 0.150000
endloop
endfacet
facet normal -0.575804 -0.817588 0.000000
outer loop
vertex -0.000417 -0.000624 0.000000
vertex -0.000447 -0.000602 0.150000
vertex -0.000447 -0.000602 0.000000
endloop
endfacet
facet normal -0.615229 -0.788348 0.000000
outer loop
vertex -0.000447 -0.000602 0.000000
vertex -0.000447 -0.000602 0.150000
vertex -0.000476 -0.000580 0.150000
endloop
endfacet
facet normal -0.615228 -0.788349 0.000000
outer loop
vertex -0.000447 -0.000602 0.000000
vertex -0.000476 -0.000580 0.150000
vertex -0.000476 -0.000580 0.000000
endloop
endfacet
facet normal -0.653170 -0.757211 0.000000
outer loop
vertex -0.000476 -0.000580 0.000000
vertex -0.000476 -0.000580 0.150000
vertex -0.000504 -0.000556 0.150000
endloop
endfacet
facet normal -0.653172 -0.757210 0.000000
outer loop
vertex -0.000476 -0.000580 0.000000
vertex -0.000504 -0.000556 0.150000
vertex -0.000504 -0.000556 0.000000
endloop
endfacet
facet normal -0.689536 -0.724251 0.000000
outer loop
vertex -0.000504 -0.000556 0.000000
vertex -0.000504 -0.000556 0.150000
vertex -0.000530 -0.000530 0.150000
endloop
endfacet
facet normal -0.689539 -0.724248 0.000000
outer loop
vertex -0.000504 -0.000556 0.000000
vertex -0.000530 -0.000530 0.150000
vertex -0.000530 -0.000530 0.000000
endloop
endfacet
facet normal -0.724245 -0.689543 0.000000
outer loop
vertex -0.000530 -0.000530 0.000000
vertex -0.000530 -0.000530 0.150000
vertex -0.000556 -0.000504 0.150000
endloop
endfacet
facet normal -0.724246 -0.689541 0.000000
outer loop
vertex -0.000530 -0.000530 0.000000
vertex -0.000556 -0.000504 0.150000
vertex -0.000556 -0.000504 0.000000
endloop
endfacet
facet normal -0.757207 -0.653175 0.000000
outer loop
vertex -0.000556 -0.000504 0.000000
vertex -0.000556 -0.000504 0.150000
vertex -0.000580 -0.000476 0.150000
endloop
endfacet
facet normal -0.757206 -0.653177 0.000000
outer loop
vertex -0.000556 -0.000504 0.000000
vertex -0.000580 -0.000476 0.150000
vertex -0.000580 -0.000476 0.000000
endloop
endfacet
facet normal -0.788346 -0.615232 0.000000
outer loop
vertex -0.000580 -0.000476 0.000000
vertex -0.000580 -0.000476 0.150000
vertex -0.000602 -0.000447 0.150000
endloop
endfacet
facet normal -0.788344 -0.615235 0.000000
outer loop
vertex -0.000580 -0.000476 0.000000
vertex -0.000602 -0.000447 0.150000
vertex -0.000602 -0.000447 0.000000
endloop
endfacet
facet normal -0.817583 -0.575811 0.000000
outer loop
vertex -0.000602 -0.000447 0.000000
vertex -0.000602 -0.000447 0.150000
vertex -0.000624 -0.000417 0.150000
endloop
endfacet
facet normal -0.817583 -0.575811 0.000000
outer loop
vertex -0.000602 -0.000447 0.000000
vertex -0.000624 -0.000417 0.150000
vertex -0.000624 -0.000417 0.000000
endloop
endfacet
facet normal -0.844851 -0.535001 0.000000
outer loop
vertex -0.000624 -0.000417 0.000000
vertex -0.000624 -0.000417 0.150000
vertex -0.000643 -0.000386 0.150000
endloop
endfacet
facet normal -0.844852 -0.535000 0.000000
outer loop
vertex -0.000624 -0.000417 0.000000
vertex -0.000643 -0.000386 0.150000
vertex -0.000643 -0.000386 0.000000
endloop
endfacet
facet normal -0.870085 -0.492902 0.000000
outer loop
vertex -0.000643 -0.000386 0.000000
vertex -0.000643 -0.000386 0.150000
vertex -0.000661 -0.000354 0.150000
endloop
endfacet
facet normal -0.870086 -0.492900 0.000000
outer loop
vertex -0.000643 -0.000386 0.000000
vertex -0.000661 -0.000354 0.150000
vertex -0.000661 -0.000354 0.000000
endloop
endfacet
facet normal -0.893224 -0.449612 0.000000
outer loop
vertex -0.000661 -0.000354 0.000000
vertex -0.000661 -0.000354 0.150000
vertex -0.000678 -0.000321 0.150000
endloop
endfacet
facet normal -0.893222 -0.449616 0.000000
outer loop
vertex -0.000661 -0.000354 0.000000
vertex -0.000678 -0.000321 0.150000
vertex -0.000678 -0.000321 0.000000
endloop
endfacet
facet normal -0.914207 -0.405247 0.000000
outer loop
vertex -0.000678 -0.000321 0.000000
vertex -0.000678 -0.000321 0.150000
vertex -0.000693 -0.000287 0.150000
endloop
endfacet
facet normal -0.914208 -0.405244 0.000000
outer loop
vertex -0.000678 -0.000321 0.000000
vertex -0.000693 -0.000287 0.150000
vertex -0.000693 -0.000287 0.000000
endloop
endfacet
facet normal -0.932993 -0.359893 0.000000
outer loop
vertex -0.000693 -0.000287 0.000000
vertex -0.000693 -0.000287 0.150000
vertex -0.000706 -0.000253 0.150000
endloop
endfacet
facet normal -0.932992 -0.359898 0.000000
outer loop
vertex -0.000693 -0.000287 0.000000
vertex -0.000706 -0.000253 0.150000
vertex -0.000706 -0.000253 0.000000
endloop
endfacet
facet normal -0.949527 -0.313684 0.000000
outer loop
vertex -0.000706 -0.000253 0.000000
vertex -0.000706 -0.000253 0.150000
vertex -0.000718 -0.000218 0.150000
endloop
endfacet
facet normal -0.949527 -0.313684 0.000000
outer loop
vertex -0.000706 -0.000253 0.000000
vertex -0.000718 -0.000218 0.150000
vertex -0.000718 -0.000218 0.000000
endloop
endfacet
facet normal -0.963776 -0.266714 0.000000
outer loop
vertex -0.000718 -0.000218 0.000000
vertex -0.000718 -0.000218 0.150000
vertex -0.000728 -0.000182 0.150000
endloop
endfacet
facet normal -0.963776 -0.266714 0.000000
outer loop
vertex -0.000718 -0.000218 0.000000
vertex -0.000728 -0.000182 0.150000
vertex -0.000728 -0.000182 0.000000
endloop
endfacet
facet normal -0.975702 -0.219104 0.000000
outer loop
vertex -0.000728 -0.000182 0.000000
vertex -0.000728 -0.000182 0.150000
vertex -0.000736 -0.000146 0.150000
endloop
endfacet
facet normal -0.975702 -0.219104 0.000000
outer loop
vertex -0.000728 -0.000182 0.000000
vertex -0.000736 -0.000146 0.150000
vertex -0.000736 -0.000146 0.000000
endloop
endfacet
facet normal -0.985277 -0.170964 0.000000
outer loop
vertex -0.000736 -0.000146 0.000000
vertex -0.000736 -0.000146 0.150000
vertex -0.000742 -0.000110 0.150000
endloop
endfacet
facet normal -0.985278 -0.170961 0.000000
outer loop
vertex -0.000736 -0.000146 0.000000
vertex -0.000742 -0.000110 0.150000
vertex -0.000742 -0.000110 0.000000
endloop
endfacet
facet normal -0.992479 -0.122413 0.000000
outer loop
vertex -0.000742 -0.000110 0.000000
vertex -0.000742 -0.000110 0.150000
vertex -0.000746 -0.000074 0.150000
endloop
endfacet
facet normal -0.992479 -0.122415 0.000000
outer loop
vertex -0.000742 -0.000110 0.000000
vertex -0.000746 -0.000074 0.150000
vertex -0.000746 -0.000074 0.000000
endloop
endfacet
facet normal -0.997290 -0.073566 0.000000
outer loop
vertex -0.000746 -0.000074 0.000000
vertex -0.000746 -0.000074 0.150000
vertex -0.000749 -0.000037 0.150000
endloop
endfacet
facet normal -0.997290 -0.073569 0.000000
outer loop
vertex -0.000746 -0.000074 0.000000
vertex -0.000749 -0.000037 0.150000
vertex -0.000749 -0.000037 0.000000
endloop
endfacet
facet normal -0.999699 -0.024540 0.000000
outer loop
vertex -0.000749 -0.000037 0.000000
vertex -0.000749 -0.000037 0.150000
vertex -0.000750 -0.000000 0.150000
endloop
endfacet
facet normal -0.999699 -0.024540 0.000000
outer loop
vertex -0.000749 -0.000037 0.000000
vertex -0.000750 -0.000000 0.150000
vertex -0.000750 -0.000000 0.000000
endloop
endfacet
facet normal -0.999699 0.024538 0.000000
outer loop
vertex -0.000750 -0.000000 0.000000
vertex -0.000750 -0.000000 0.150000
vertex -0.000749 0.000037 0.150000
endloop
endfacet
facet normal -0.999699 0.024540 0.000000
outer loop
vertex -0.000750 -0.000000 0.000000
vertex -0.000749 0.000037 0.150000
vertex -0.000749 0.000037 0.000000
endloop
endfacet
facet normal -0.997290 0.073563 0.000000
outer loop
vertex -0.000749 0.000037 0.000000
vertex -0.000749 0.000037 0.150000
vertex -0.000746 0.000074 0.150000
endloop
endfacet
facet normal -0.997290 0.073566 0.000000
outer loop
vertex -0.000749 0.000037 0.000000
vertex -0.000746 0.000074 0.150000
vertex -0.000746 0.000074 0.000000
endloop
endfacet
facet normal -0.992480 0.122407 0.000000
outer loop
vertex -0.000746 0.000074 0.000000
vertex -0.000746 0.000074 0.150000
vertex -0.000742 0.000110 0.150000
endloop
endfacet
facet normal -0.992480 0.122410 0.000000
outer loop
vertex -0.000746 0.000074 0.000000
vertex -0.000742 0.000110 0.150000
vertex -0.000742 0.000110 0.000000
endloop
endfacet
facet normal -0.985278 0.170961 0.000000
outer loop
vertex -0.000742 0.000110 0.000000
vertex -0.000742 0.000110 0.150000
vertex -0.000736 0.000146 0.150000
endloop
endfacet
facet normal -0.985278 0.170961 0.000000
outer loop
vertex -0.000742 0.000110 0.000000
vertex -0.000736 0.000146 0.150000
vertex -0.000736 0.000146 0.000000
endloop
endfacet
facet normal -0.975703 0.219099 0.000000
outer loop
vertex -0.000736 0.000146 0.000000
vertex -0.000736 0.000146 0.150000
vertex -0.000728 0.000182 0.150000
endloop
endfacet
facet normal -0.975702 0.219104 0.000000
outer loop
vertex -0.000736 0.000146 0.000000
vertex -0.000728 0.000182 0.150000
vertex -0.000728 0.000182 0.000000
endloop
endfacet
facet normal -0.963777 0.266709 0.000000
outer loop
vertex -0.000728 0.000182 0.000000
vertex -0.000728 0.000182 0.150000
vertex -0.000718 0.000218 0.150000
endloop
endfacet
facet normal -0.963777 0.266709 0.000000
outer loop
vertex -0.000728 0.000182 0.000000
vertex -0.000718 0.000218 0.150000
vertex -0.000718 0.000218 0.000000
endloop
endfacet
facet normal -0.949527 0.313686 0.000000
outer loop
vertex -0.000718 0.000218 0.000000
vertex -0.000718 0.000218 0.150000
vertex -0.000706 0.000253 0.150000
endloop
endfacet
facet normal -0.949528 0.313682 0.000000
outer loop
vertex -0.000718 0.000218 0.000000
vertex -0.000706 0.000253 0.150000
vertex -0.000706 0.000253 0.000000
endloop
endfacet
facet normal -0.932993 0.359893 0.000000
outer loop
vertex -0.000706 0.000253 0.000000
vertex -0.000706 0.000253 0.150000
vertex -0.000693 0.000287 0.150000
endloop
endfacet
facet normal -0.932993 0.359896 0.000000
outer loop
vertex -0.000706 0.000253 0.000000
vertex -0.000693 0.000287 0.150000
vertex -0.000693 0.000287 0.000000
endloop
endfacet
facet normal -0.914210 0.405240 0.000000
outer loop
vertex -0.000693 0.000287 0.000000
vertex -0.000693 0.000287 0.150000
vertex -0.000678 0.000321 0.150000
endloop
endfacet
facet normal -0.914209 0.405242 0.000000
outer loop
vertex -0.000693 0.000287 0.000000
vertex -0.000678 0.000321 0.150000
vertex -0.000678 0.000321 0.000000
endloop
endfacet
facet normal -0.893226 0.449609 0.000000
outer loop
vertex -0.000678 0.000321 0.000000
vertex -0.000678 0.000321 0.150000
vertex -0.000661 0.000354 0.150000
endloop
endfacet
facet normal -0.893224 0.449613 0.000000
outer loop
vertex -0.000678 0.000321 0.000000
vertex -0.000661 0.000354 0.150000
vertex -0.000661 0.000354 0.000000
endloop
endfacet
facet normal -0.870086 0.492900 0.000000
outer loop
vertex -0.000661 0.000354 0.000000
vertex -0.000661 0.000354 0.150000
vertex -0.000643 0.000386 0.150000
endloop
endfacet
facet normal -0.870087 0.492898 0.000000
outer loop
vertex -0.000661 0.000354 0.000000
vertex -0.000643 0.000386 0.150000
vertex -0.000643 0.000386 0.000000
endloop
endfacet
facet normal -0.844854 0.534997 0.000000
outer loop
vertex -0.000643 0.000386 0.000000
vertex -0.000643 0.000386 0.150000
vertex -0.000624 0.000417 0.150000
endloop
endfacet
facet normal -0.844853 0.534999 0.000000
outer loop
vertex -0.000643 0.000386 0.000000
vertex -0.000624 0.000417 0.150000
vertex -0.000624 0.000417 0.000000
endloop
endfacet
facet normal -0.817584 0.575810 0.000000
outer loop
vertex -0.000624 0.000417 0.000000
vertex -0.000624 0.000417 0.150000
vertex -0.000602 0.000447 0.150000
endloop
endfacet
facet normal -0.817586 0.575806 0.000000
outer loop
vertex -0.000624 0.000417 0.000000
vertex -0.000602 0.000447 0.150000
vertex -0.000602 0.000447 0.000000
endloop
endfacet
facet normal -0.788347 0.615230 0.000000
outer loop
vertex -0.000602 0.000447 0.000000
vertex -0.000602 0.000447 0.150000
vertex -0.000580 0.000476 0.150000
endloop
endfacet
facet normal -0.788346 0.615232 0.000000
outer loop
vertex -0.000602 0.000447 0.000000
vertex -0.000580 0.000476 0.150000
vertex -0.000580 0.000476 0.000000
endloop
endfacet
facet normal -0.757208 0.653174 0.000000
outer loop
vertex -0.000580 0.000476 0.000000
vertex -0.000580 0.000476 0.150000
vertex -0.000556 0.000504 0.150000
endloop
endfacet
facet normal -0.757210 0.653172 0.000000
outer loop
vertex -0.000580 0.000476 0.000000
vertex -0.000556 0.000504 0.150000
vertex -0.000556 0.000504 0.000000
endloop
endfacet
facet normal -0.724247 0.689540 0.000000
outer loop
vertex -0.000556 0.000504 0.000000
vertex -0.000556 0.000504 0.150000
vertex -0.000530 0.000530 0.150000
endloop
endfacet
facet normal -0.724245 0.689543 0.000000
outer loop
vertex -0.000556 0.000504 0.000000
vertex -0.000530 0.000530 0.150000
vertex -0.000530 0.000530 0.000000
endloop
endfacet
facet normal -0.689539 0.724248 0.000000
outer loop
vertex -0.000530 0.000530 0.000000
vertex -0.000530 0.000530 0.150000
vertex -0.000504 0.000556 0.150000
endloop
endfacet
facet normal -0.689539 0.724248 0.000000
outer loop
vertex -0.000530 0.000530 0.000000
vertex -0.000504 0.000556 0.150000
vertex -0.000504 0.000556 0.000000
endloop
endfacet
facet normal -0.653172 0.757210 0.000000
outer loop
vertex -0.000504 0.000556 0.000000
vertex -0.000504 0.000556 0.150000
vertex -0.000476 0.000580 0.150000
endloop
endfacet
facet normal -0.653172 0.757210 0.000000
outer loop
vertex -0.000504 0.000556 0.000000
vertex -0.000476 0.000580 0.150000
vertex -0.000476 0.000580 0.000000
endloop
endfacet
facet normal -0.615231 0.788347 0.000000
outer loop
vertex -0.000476 0.000580 0.000000
vertex -0.000476 0.000580 0.150000
vertex -0.000447 0.000602 0.150000
endloop
endfacet
facet normal -0.615231 0.788347 0.000000
outer loop
vertex -0.000476 0.000580 0.000000
vertex -0.000447 0.000602 0.150000
vertex -0.000447 0.000602 0.000000
endloop
endfacet
facet normal -0.575807 0.817585 0.000000
outer loop
vertex -0.000447 0.000602 0.000000
vertex -0.000447 0.000602 0.150000
vertex -0.000417 0.000624 0.150000
endloop
endfacet
facet normal -0.575809 0.817585 0.000000
outer loop
vertex -0.000447 0.000602 0.000000
vertex -0.000417 0.000624 0.150000
vertex -0.000417 0.000624 0.000000
endloop
endfacet
facet normal -0.534995 0.844855 0.000000
outer loop
vertex -0.000417 0.000624 0.000000
vertex -0.000417 0.000624 0.150000
vertex -0.000386 0.000643 0.150000
endloop
endfacet
facet normal -0.534995 0.844855 0.000000
outer loop
vertex -0.000417 0.000624 0.000000
vertex -0.000386 0.000643 0.150000
vertex -0.000386 0.000643 0.000000
endloop
endfacet
facet normal -0.492898 0.870087 0.000000
outer loop
vertex -0.000386 0.000643 0.000000
vertex -0.000386 0.000643 0.150000
vertex -0.000354 0.000661 0.150000
endloop
endfacet
facet normal -0.492898 0.870087 0.000000
outer loop
vertex -0.000386 0.000643 0.000000
vertex -0.000354 0.000661 0.150000
vertex -0.000354 0.000661 0.000000
endloop
endfacet
facet normal -0.449608 0.893226 0.000000
outer loop
vertex -0.000354 0.000661 0.000000
vertex -0.000354 0.000661 0.150000
vertex -0.000321 0.000678 0.150000
endloop
endfacet
facet normal -0.449608 0.893226 0.000000
outer loop
vertex -0.000354 0.000661 0.000000
vertex -0.000321 0.000678 0.150000
vertex -0.000321 0.000678 0.000000
endloop
endfacet
facet normal -0.405240 0.914210 0.000000
outer loop
vertex -0.000321 0.000678 0.000000
vertex -0.000321 0.000678 0.150000
vertex -0.000287 0.000693 0.150000
endloop
endfacet
facet normal -0.405241 0.914210 0.000000
outer loop
vertex -0.000321 0.000678 0.000000
vertex -0.000287 0.000693 0.150000
vertex -0.000287 0.000693 0.000000
endloop
endfacet
facet normal -0.359894 0.932993 0.000000
outer loop
vertex -0.000287 0.000693 0.000000
vertex -0.000287 0.000693 0.150000
vertex -0.000253 0.000706 0.150000
endloop
endfacet
facet normal -0.359894 0.932993 0.000000
outer loop
vertex -0.000287 0.000693 0.000000
vertex -0.000253 0.000706 0.150000
vertex -0.000253 0.000706 0.000000
endloop
endfacet
facet normal -0.313678 0.949529 0.000000
outer loop
vertex -0.000253 0.000706 0.000000
vertex -0.000253 0.000706 0.150000
vertex -0.000218 0.000718 0.150000
endloop
endfacet
facet normal -0.313679 0.949529 0.000000
outer loop
vertex -0.000253 0.000706 0.000000
vertex -0.000218 0.000718 0.150000
vertex -0.000218 0.000718 0.000000
endloop
endfacet
facet normal -0.266710 0.963777 0.000000
outer loop
vertex -0.000218 0.000718 0.000000
vertex -0.000218 0.000718 0.150000
vertex -0.000182 0.000728 0.150000
endloop
endfacet
facet normal -0.266710 0.963777 0.000000
outer loop
vertex -0.000218 0.000718 0.000000
vertex -0.000182 0.000728 0.150000
vertex -0.000182 0.000728 0.000000
endloop
endfacet
facet normal -0.219100 0.975702 0.000000
outer loop
vertex -0.000182 0.000728 0.000000
vertex -0.000182 0.000728 0.150000
vertex -0.000146 0.000736 0.150000
endloop
endfacet
facet normal -0.219100 0.975703 0.000000
outer loop
vertex -0.000182 0.000728 0.000000
vertex -0.000146 0.000736 0.150000
vertex -0.000146 0.000736 0.000000
endloop
endfacet
facet normal -0.170959 0.985278 0.000000
outer loop
vertex -0.000146 0.000736 0.000000
vertex -0.000146 0.000736 0.150000
vertex -0.000110 0.000742 0.150000
endloop
endfacet
facet normal -0.170960 0.985278 0.000000
outer loop
vertex -0.000146 0.000736 0.000000
vertex -0.000110 0.000742 0.150000
vertex -0.000110 0.000742 0.000000
endloop
endfacet
facet normal -0.122408 0.992480 0.000000
outer loop
vertex -0.000110 0.000742 0.000000
vertex -0.000110 0.000742 0.150000
vertex -0.000074 0.000746 0.150000
endloop
endfacet
facet normal -0.122408 0.992480 0.000000
outer loop
vertex -0.000110 0.000742 0.000000
vertex -0.000074 0.000746 0.150000
vertex -0.000074 0.000746 0.000000
endloop
endfacet
facet normal -0.073561 0.997291 0.000000
outer loop
vertex -0.000074 0.000746 0.000000
vertex -0.000074 0.000746 0.150000
vertex -0.000037 0.000749 0.150000
endloop
endfacet
facet normal -0.073561 0.997291 0.000000
outer loop
vertex -0.000074 0.000746 0.000000
vertex -0.000037 0.000749 0.150000
vertex -0.000037 0.000749 0.000000
endloop
endfacet
facet normal -0.024539 0.999699 0.000000
outer loop
vertex -0.000037 0.000749 0.000000
vertex -0.000037 0.000749 0.150000
vertex 0.000000 0.000750 0.150000
endloop
endfacet
facet normal -0.024539 0.999699 0.000000
outer loop
vertex -0.000037 0.000749 0.000000
vertex 0.000000 0.000750 0.150000
vertex 0.000000 0.000750 0.000000
endloop
endfacet
endsolid Exported from Blender-2.80 (sub 75)
