solid propagation_tube_patch
facet normal 0.024542 0.000000 0.999699
outer loop
vertex 0.000000 -0.000000 0.000750
vertex 0.000000 -0.060000 0.000750
vertex 0.000037 -0.060000 0.000749
endloop
endfacet
facet normal 0.024539 0.000000 0.999699
outer loop
vertex 0.000000 -0.000000 0.000750
vertex 0.000037 -0.060000 0.000749
vertex 0.000037 -0.000000 0.000749
endloop
endfacet
facet normal 0.073563 0.000000 0.997291
outer loop
vertex 0.000037 -0.000000 0.000749
vertex 0.000037 -0.060000 0.000749
vertex 0.000074 -0.060000 0.000746
endloop
endfacet
facet normal 0.073566 0.000000 0.997290
outer loop
vertex 0.000037 -0.000000 0.000749
vertex 0.000074 -0.060000 0.000746
vertex 0.000074 -0.000000 0.000746
endloop
endfacet
facet normal 0.122410 0.000000 0.992480
outer loop
vertex 0.000074 -0.000000 0.000746
vertex 0.000074 -0.060000 0.000746
vertex 0.000110 -0.060000 0.000742
endloop
endfacet
facet normal 0.122406 0.000000 0.992480
outer loop
vertex 0.000074 -0.000000 0.000746
vertex 0.000110 -0.060000 0.000742
vertex 0.000110 -0.000000 0.000742
endloop
endfacet
facet normal 0.170966 0.000000 0.985277
outer loop
vertex 0.000110 -0.000000 0.000742
vertex 0.000110 -0.060000 0.000742
vertex 0.000146 -0.060000 0.000736
endloop
endfacet
facet normal 0.170963 0.000000 0.985277
outer loop
vertex 0.000110 -0.000000 0.000742
vertex 0.000146 -0.060000 0.000736
vertex 0.000146 -0.000000 0.000736
endloop
endfacet
facet normal 0.219101 0.000000 0.975702
outer loop
vertex 0.000146 -0.000000 0.000736
vertex 0.000146 -0.060000 0.000736
vertex 0.000182 -0.060000 0.000728
endloop
endfacet
facet normal 0.219098 0.000000 0.975703
outer loop
vertex 0.000146 -0.000000 0.000736
vertex 0.000182 -0.060000 0.000728
vertex 0.000182 -0.000000 0.000728
endloop
endfacet
facet normal 0.266713 0.000000 0.963776
outer loop
vertex 0.000182 -0.000000 0.000728
vertex 0.000182 -0.060000 0.000728
vertex 0.000218 -0.060000 0.000718
endloop
endfacet
facet normal 0.266710 0.000000 0.963777
outer loop
vertex 0.000182 -0.000000 0.000728
vertex 0.000218 -0.060000 0.000718
vertex 0.000218 -0.000000 0.000718
endloop
endfacet
facet normal 0.313685 0.000000 0.949527
outer loop
vertex 0.000218 -0.000000 0.000718
vertex 0.000218 -0.060000 0.000718
vertex 0.000253 -0.060000 0.000706
endloop
endfacet
facet normal 0.313682 0.000000 0.949528
outer loop
vertex 0.000218 -0.000000 0.000718
vertex 0.000253 -0.060000 0.000706
vertex 0.000253 -0.000000 0.000706
endloop
endfacet
facet normal 0.359898 0.000000 0.932992
outer loop
vertex 0.000253 -0.000000 0.000706
vertex 0.000253 -0.060000 0.000706
vertex 0.000287 -0.060000 0.000693
endloop
endfacet
facet normal 0.359890 0.000000 0.932995
outer loop
vertex 0.000253 -0.000000 0.000706
vertex 0.000287 -0.060000 0.000693
vertex 0.000287 -0.000000 0.000693
endloop
endfacet
facet normal 0.405244 0.000000 0.914209
outer loop
vertex 0.000287 -0.000000 0.000693
vertex 0.000287 -0.060000 0.000693
vertex 0.000321 -0.060000 0.000678
endloop
endfacet
facet normal 0.405241 0.000000 0.914210
outer loop
vertex 0.000287 -0.000000 0.000693
vertex 0.000321 -0.060000 0.000678
vertex 0.000321 -0.000000 0.000678
endloop
endfacet
facet normal 0.449611 0.000000 0.893225
outer loop
vertex 0.000321 -0.000000 0.000678
vertex 0.000321 -0.060000 0.000678
vertex 0.000354 -0.060000 0.000661
endloop
endfacet
facet normal 0.449611 0.000000 0.893224
outer loop
vertex 0.000321 -0.000000 0.000678
vertex 0.000354 -0.060000 0.000661
vertex 0.000354 -0.000000 0.000661
endloop
endfacet
facet normal 0.492897 0.000000 0.870088
outer loop
vertex 0.000354 -0.000000 0.000661
vertex 0.000354 -0.060000 0.000661
vertex 0.000386 -0.060000 0.000643
endloop
endfacet
facet normal 0.492899 0.000000 0.870086
outer loop
vertex 0.000354 -0.000000 0.000661
vertex 0.000386 -0.060000 0.000643
vertex 0.000386 -0.000000 0.000643
endloop
endfacet
facet normal 0.534996 0.000000 0.844854
outer loop
vertex 0.000386 -0.000000 0.000643
vertex 0.000386 -0.060000 0.000643
vertex 0.000417 -0.060000 0.000624
endloop
endfacet
facet normal 0.535001 0.000000 0.844851
outer loop
vertex 0.000386 -0.000000 0.000643
vertex 0.000417 -0.060000 0.000624
vertex 0.000417 -0.000000 0.000624
endloop
endfacet
facet normal 0.575807 0.000000 0.817585
outer loop
vertex 0.000417 -0.000000 0.000624
vertex 0.000417 -0.060000 0.000624
vertex 0.000447 -0.060000 0.000602
endloop
endfacet
facet normal 0.575809 0.000000 0.817584
outer loop
vertex 0.000417 -0.000000 0.000624
vertex 0.000447 -0.060000 0.000602
vertex 0.000447 -0.000000 0.000602
endloop
endfacet
facet normal 0.615230 0.000000 0.788348
outer loop
vertex 0.000447 -0.000000 0.000602
vertex 0.000447 -0.060000 0.000602
vertex 0.000476 -0.060000 0.000580
endloop
endfacet
facet normal 0.615232 0.000000 0.788346
outer loop
vertex 0.000447 -0.000000 0.000602
vertex 0.000476 -0.060000 0.000580
vertex 0.000476 -0.000000 0.000580
endloop
endfacet
facet normal 0.653173 0.000000 0.757209
outer loop
vertex 0.000476 -0.000000 0.000580
vertex 0.000476 -0.060000 0.000580
vertex 0.000504 -0.060000 0.000556
endloop
endfacet
facet normal 0.653175 0.000000 0.757207
outer loop
vertex 0.000476 -0.000000 0.000580
vertex 0.000504 -0.060000 0.000556
vertex 0.000504 -0.000000 0.000556
endloop
endfacet
facet normal 0.689540 0.000000 0.724248
outer loop
vertex 0.000504 -0.000000 0.000556
vertex 0.000504 -0.060000 0.000556
vertex 0.000530 -0.060000 0.000530
endloop
endfacet
facet normal 0.689540 0.000000 0.724248
outer loop
vertex 0.000504 -0.000000 0.000556
vertex 0.000530 -0.060000 0.000530
vertex 0.000530 -0.000000 0.000530
endloop
endfacet
facet normal 0.724248 0.000000 0.689539
outer loop
vertex 0.000530 -0.000000 0.000530
vertex 0.000530 -0.060000 0.000530
vertex 0.000556 -0.060000 0.000504
endloop
endfacet
facet normal 0.724248 0.000000 0.689539
outer loop
vertex 0.000530 -0.000000 0.000530
vertex 0.000556 -0.060000 0.000504
vertex 0.000556 -0.000000 0.000504
endloop
endfacet
facet normal 0.757209 0.000000 0.653173
outer loop
vertex 0.000556 -0.000000 0.000504
vertex 0.000556 -0.060000 0.000504
vertex 0.000580 -0.060000 0.000476
endloop
endfacet
facet normal 0.757209 0.000000 0.653172
outer loop
vertex 0.000556 -0.000000 0.000504
vertex 0.000580 -0.060000 0.000476
vertex 0.000580 -0.000000 0.000476
endloop
endfacet
facet normal 0.788346 0.000000 0.615232
outer loop
vertex 0.000580 -0.000000 0.000476
vertex 0.000580 -0.060000 0.000476
vertex 0.000602 -0.060000 0.000447
endloop
endfacet
facet normal 0.788345 0.000000 0.615233
outer loop
vertex 0.000580 -0.000000 0.000476
vertex 0.000602 -0.060000 0.000447
vertex 0.000602 -0.000000 0.000447
endloop
endfacet
facet normal 0.817586 0.000000 0.575807
outer loop
vertex 0.000602 -0.000000 0.000447
vertex 0.000602 -0.060000 0.000447
vertex 0.000624 -0.060000 0.000417
endloop
endfacet
facet normal 0.817585 0.000000 0.575808
outer loop
vertex 0.000602 -0.000000 0.000447
vertex 0.000624 -0.060000 0.000417
vertex 0.000624 -0.000000 0.000417
endloop
endfacet
facet normal 0.844854 0.000000 0.534997
outer loop
vertex 0.000624 -0.000000 0.000417
vertex 0.000624 -0.060000 0.000417
vertex 0.000643 -0.060000 0.000386
endloop
endfacet
facet normal 0.844854 0.000000 0.534996
outer loop
vertex 0.000624 -0.000000 0.000417
vertex 0.000643 -0.060000 0.000386
vertex 0.000643 -0.000000 0.000386
endloop
endfacet
facet normal 0.870086 0.000000 0.492899
outer loop
vertex 0.000643 -0.000000 0.000386
vertex 0.000643 -0.060000 0.000386
vertex 0.000661 -0.060000 0.000354
endloop
endfacet
facet normal 0.870086 0.000000 0.492899
outer loop
vertex 0.000643 -0.000000 0.000386
vertex 0.000661 -0.060000 0.000354
vertex 0.000661 -0.000000 0.000354
endloop
endfacet
facet normal 0.893225 0.000000 0.449610
outer loop
vertex 0.000661 -0.000000 0.000354
vertex 0.000661 -0.060000 0.000354
vertex 0.000678 -0.060000 0.000321
endloop
endfacet
facet normal 0.893225 0.000000 0.449610
outer loop
vertex 0.000661 -0.000000 0.000354
vertex 0.000678 -0.060000 0.000321
vertex 0.000678 -0.000000 0.000321
endloop
endfacet
facet normal 0.914210 0.000000 0.405241
outer loop
vertex 0.000678 -0.000000 0.000321
vertex 0.000678 -0.060000 0.000321
vertex 0.000693 -0.060000 0.000287
endloop
endfacet
facet normal 0.914209 0.000000 0.405242
outer loop
vertex 0.000678 -0.000000 0.000321
vertex 0.000693 -0.060000 0.000287
vertex 0.000693 -0.000000 0.000287
endloop
endfacet
facet normal 0.932994 0.000000 0.359892
outer loop
vertex 0.000693 -0.000000 0.000287
vertex 0.000693 -0.060000 0.000287
vertex 0.000706 -0.060000 0.000253
endloop
endfacet
facet normal 0.932994 0.000000 0.359892
outer loop
vertex 0.000693 -0.000000 0.000287
vertex 0.000706 -0.060000 0.000253
vertex 0.000706 -0.000000 0.000253
endloop
endfacet
facet normal 0.949527 0.000000 0.313684
outer loop
vertex 0.000706 -0.000000 0.000253
vertex 0.000706 -0.060000 0.000253
vertex 0.000718 -0.060000 0.000218
endloop
endfacet
facet normal 0.949528 0.000000 0.313683
outer loop
vertex 0.000706 -0.000000 0.000253
vertex 0.000718 -0.060000 0.000218
vertex 0.000718 -0.000000 0.000218
endloop
endfacet
facet normal 0.963776 0.000000 0.266712
outer loop
vertex 0.000718 -0.000000 0.000218
vertex 0.000718 -0.060000 0.000218
vertex 0.000728 -0.060000 0.000182
endloop
endfacet
facet normal 0.963776 0.000000 0.266712
outer loop
vertex 0.000718 -0.000000 0.000218
vertex 0.000728 -0.060000 0.000182
vertex 0.000728 -0.000000 0.000182
endloop
endfacet
facet normal 0.975702 0.000000 0.219102
outer loop
vertex 0.000728 -0.000000 0.000182
vertex 0.000728 -0.060000 0.000182
vertex 0.000736 -0.060000 0.000146
endloop
endfacet
facet normal 0.975702 0.000000 0.219102
outer loop
vertex 0.000728 -0.000000 0.000182
vertex 0.000736 -0.060000 0.000146
vertex 0.000736 -0.000000 0.000146
endloop
endfacet
facet normal 0.985277 0.000000 0.170963
outer loop
vertex 0.000736 -0.000000 0.000146
vertex 0.000736 -0.060000 0.000146
vertex 0.000742 -0.060000 0.000110
endloop
endfacet
facet normal 0.985277 0.000000 0.170963
outer loop
vertex 0.000736 -0.000000 0.000146
vertex 0.000742 -0.060000 0.000110
vertex 0.000742 -0.000000 0.000110
endloop
endfacet
facet normal 0.992480 0.000000 0.122406
outer loop
vertex 0.000742 -0.000000 0.000110
vertex 0.000742 -0.060000 0.000110
vertex 0.000746 -0.060000 0.000074
endloop
endfacet
facet normal 0.992480 0.000000 0.122405
outer loop
vertex 0.000742 -0.000000 0.000110
vertex 0.000746 -0.060000 0.000074
vertex 0.000746 -0.000000 0.000074
endloop
endfacet
facet normal 0.997290 0.000000 0.073565
outer loop
vertex 0.000746 -0.000000 0.000074
vertex 0.000746 -0.060000 0.000074
vertex 0.000749 -0.060000 0.000037
endloop
endfacet
facet normal 0.997290 -0.000000 0.073565
outer loop
vertex 0.000746 -0.000000 0.000074
vertex 0.000749 -0.060000 0.000037
vertex 0.000749 -0.000000 0.000037
endloop
endfacet
facet normal 0.999699 0.000000 0.024544
outer loop
vertex 0.000749 -0.000000 0.000037
vertex 0.000749 -0.060000 0.000037
vertex 0.000750 -0.060000 -0.000000
endloop
endfacet
facet normal 0.999699 0.000000 0.024544
outer loop
vertex 0.000749 -0.000000 0.000037
vertex 0.000750 -0.060000 -0.000000
vertex 0.000750 -0.000000 -0.000000
endloop
endfacet
facet normal 0.999699 -0.000000 -0.024544
outer loop
vertex 0.000750 -0.000000 -0.000000
vertex 0.000750 -0.060000 -0.000000
vertex 0.000749 -0.060000 -0.000037
endloop
endfacet
facet normal 0.999699 0.000000 -0.024544
outer loop
vertex 0.000750 -0.000000 -0.000000
vertex 0.000749 -0.060000 -0.000037
vertex 0.000749 -0.000000 -0.000037
endloop
endfacet
facet normal 0.997290 0.000000 -0.073565
outer loop
vertex 0.000749 -0.000000 -0.000037
vertex 0.000749 -0.060000 -0.000037
vertex 0.000746 -0.060000 -0.000074
endloop
endfacet
facet normal 0.997290 -0.000000 -0.073565
outer loop
vertex 0.000749 -0.000000 -0.000037
vertex 0.000746 -0.060000 -0.000074
vertex 0.000746 -0.000000 -0.000074
endloop
endfacet
facet normal 0.992479 0.000000 -0.122412
outer loop
vertex 0.000746 -0.000000 -0.000074
vertex 0.000746 -0.060000 -0.000074
vertex 0.000742 -0.060000 -0.000110
endloop
endfacet
facet normal 0.992479 -0.000000 -0.122412
outer loop
vertex 0.000746 -0.000000 -0.000074
vertex 0.000742 -0.060000 -0.000110
vertex 0.000742 -0.000000 -0.000110
endloop
endfacet
facet normal 0.985278 0.000000 -0.170960
outer loop
vertex 0.000742 -0.000000 -0.000110
vertex 0.000742 -0.060000 -0.000110
vertex 0.000736 -0.060000 -0.000146
endloop
endfacet
facet normal 0.985278 -0.000000 -0.170960
outer loop
vertex 0.000742 -0.000000 -0.000110
vertex 0.000736 -0.060000 -0.000146
vertex 0.000736 -0.000000 -0.000146
endloop
endfacet
facet normal 0.975702 -0.000000 -0.219100
outer loop
vertex 0.000736 -0.000000 -0.000146
vertex 0.000736 -0.060000 -0.000146
vertex 0.000728 -0.060000 -0.000182
endloop
endfacet
facet normal 0.975702 -0.000000 -0.219100
outer loop
vertex 0.000736 -0.000000 -0.000146
vertex 0.000728 -0.060000 -0.000182
vertex 0.000728 -0.000000 -0.000182
endloop
endfacet
facet normal 0.963776 -0.000000 -0.266714
outer loop
vertex 0.000728 -0.000000 -0.000182
vertex 0.000728 -0.060000 -0.000182
vertex 0.000718 -0.060000 -0.000218
endloop
endfacet
facet normal 0.963776 -0.000000 -0.266714
outer loop
vertex 0.000728 -0.000000 -0.000182
vertex 0.000718 -0.060000 -0.000218
vertex 0.000718 -0.000000 -0.000218
endloop
endfacet
facet normal 0.949528 -0.000000 -0.313683
outer loop
vertex 0.000718 -0.000000 -0.000218
vertex 0.000718 -0.060000 -0.000218
vertex 0.000706 -0.060000 -0.000253
endloop
endfacet
facet normal 0.949527 -0.000000 -0.313684
outer loop
vertex 0.000718 -0.000000 -0.000218
vertex 0.000706 -0.060000 -0.000253
vertex 0.000706 -0.000000 -0.000253
endloop
endfacet
facet normal 0.932993 -0.000000 -0.359894
outer loop
vertex 0.000706 -0.000000 -0.000253
vertex 0.000706 -0.060000 -0.000253
vertex 0.000693 -0.060000 -0.000287
endloop
endfacet
facet normal 0.932993 -0.000000 -0.359894
outer loop
vertex 0.000706 -0.000000 -0.000253
vertex 0.000693 -0.060000 -0.000287
vertex 0.000693 -0.000000 -0.000287
endloop
endfacet
facet normal 0.914208 -0.000000 -0.405245
outer loop
vertex 0.000693 -0.000000 -0.000287
vertex 0.000693 -0.060000 -0.000287
vertex 0.000678 -0.060000 -0.000321
endloop
endfacet
facet normal 0.914208 -0.000000 -0.405246
outer loop
vertex 0.000693 -0.000000 -0.000287
vertex 0.000678 -0.060000 -0.000321
vertex 0.000678 -0.000000 -0.000321
endloop
endfacet
facet normal 0.893225 -0.000000 -0.449609
outer loop
vertex 0.000678 -0.000000 -0.000321
vertex 0.000678 -0.060000 -0.000321
vertex 0.000661 -0.060000 -0.000354
endloop
endfacet
facet normal 0.893225 -0.000000 -0.449609
outer loop
vertex 0.000678 -0.000000 -0.000321
vertex 0.000661 -0.060000 -0.000354
vertex 0.000661 -0.000000 -0.000354
endloop
endfacet
facet normal 0.870087 -0.000000 -0.492899
outer loop
vertex 0.000661 -0.000000 -0.000354
vertex 0.000661 -0.060000 -0.000354
vertex 0.000643 -0.060000 -0.000386
endloop
endfacet
facet normal 0.870087 -0.000000 -0.492899
outer loop
vertex 0.000661 -0.000000 -0.000354
vertex 0.000643 -0.060000 -0.000386
vertex 0.000643 -0.000000 -0.000386
endloop
endfacet
facet normal 0.844853 -0.000000 -0.534998
outer loop
vertex 0.000643 -0.000000 -0.000386
vertex 0.000643 -0.060000 -0.000386
vertex 0.000624 -0.060000 -0.000417
endloop
endfacet
facet normal 0.844853 -0.000000 -0.534998
outer loop
vertex 0.000643 -0.000000 -0.000386
vertex 0.000624 -0.060000 -0.000417
vertex 0.000624 -0.000000 -0.000417
endloop
endfacet
facet normal 0.817585 -0.000000 -0.575808
outer loop
vertex 0.000624 -0.000000 -0.000417
vertex 0.000624 -0.060000 -0.000417
vertex 0.000602 -0.060000 -0.000447
endloop
endfacet
facet normal 0.817584 -0.000000 -0.575809
outer loop
vertex 0.000624 -0.000000 -0.000417
vertex 0.000602 -0.060000 -0.000447
vertex 0.000602 -0.000000 -0.000447
endloop
endfacet
facet normal 0.788347 -0.000000 -0.615231
outer loop
vertex 0.000602 -0.000000 -0.000447
vertex 0.000602 -0.060000 -0.000447
vertex 0.000580 -0.060000 -0.000476
endloop
endfacet
facet normal 0.788346 -0.000000 -0.615232
outer loop
vertex 0.000602 -0.000000 -0.000447
vertex 0.000580 -0.060000 -0.000476
vertex 0.000580 -0.000000 -0.000476
endloop
endfacet
facet normal 0.757208 -0.000000 -0.653174
outer loop
vertex 0.000580 -0.000000 -0.000476
vertex 0.000580 -0.060000 -0.000476
vertex 0.000556 -0.060000 -0.000504
endloop
endfacet
facet normal 0.757209 -0.000000 -0.653173
outer loop
vertex 0.000580 -0.000000 -0.000476
vertex 0.000556 -0.060000 -0.000504
vertex 0.000556 -0.000000 -0.000504
endloop
endfacet
facet normal 0.724247 -0.000000 -0.689540
outer loop
vertex 0.000556 -0.000000 -0.000504
vertex 0.000556 -0.060000 -0.000504
vertex 0.000530 -0.060000 -0.000530
endloop
endfacet
facet normal 0.724247 -0.000000 -0.689541
outer loop
vertex 0.000556 -0.000000 -0.000504
vertex 0.000530 -0.060000 -0.000530
vertex 0.000530 -0.000000 -0.000530
endloop
endfacet
facet normal 0.689541 -0.000000 -0.724247
outer loop
vertex 0.000530 -0.000000 -0.000530
vertex 0.000530 -0.060000 -0.000530
vertex 0.000504 -0.060000 -0.000556
endloop
endfacet
facet normal 0.689541 -0.000000 -0.724247
outer loop
vertex 0.000530 -0.000000 -0.000530
vertex 0.000504 -0.060000 -0.000556
vertex 0.000504 -0.000000 -0.000556
endloop
endfacet
facet normal 0.653172 -0.000000 -0.757209
outer loop
vertex 0.000504 -0.000000 -0.000556
vertex 0.000504 -0.060000 -0.000556
vertex 0.000476 -0.060000 -0.000580
endloop
endfacet
facet normal 0.653176 -0.000000 -0.757206
outer loop
vertex 0.000504 -0.000000 -0.000556
vertex 0.000476 -0.060000 -0.000580
vertex 0.000476 -0.000000 -0.000580
endloop
endfacet
facet normal 0.615231 -0.000000 -0.788347
outer loop
vertex 0.000476 -0.000000 -0.000580
vertex 0.000476 -0.060000 -0.000580
vertex 0.000447 -0.060000 -0.000602
endloop
endfacet
facet normal 0.615229 -0.000000 -0.788348
outer loop
vertex 0.000476 -0.000000 -0.000580
vertex 0.000447 -0.060000 -0.000602
vertex 0.000447 -0.000000 -0.000602
endloop
endfacet
facet normal 0.575809 -0.000000 -0.817584
outer loop
vertex 0.000447 -0.000000 -0.000602
vertex 0.000447 -0.060000 -0.000602
vertex 0.000417 -0.060000 -0.000624
endloop
endfacet
facet normal 0.575807 -0.000000 -0.817585
outer loop
vertex 0.000447 -0.000000 -0.000602
vertex 0.000417 -0.060000 -0.000624
vertex 0.000417 -0.000000 -0.000624
endloop
endfacet
facet normal 0.534998 -0.000000 -0.844853
outer loop
vertex 0.000417 -0.000000 -0.000624
vertex 0.000417 -0.060000 -0.000624
vertex 0.000386 -0.060000 -0.000643
endloop
endfacet
facet normal 0.534998 -0.000000 -0.844853
outer loop
vertex 0.000417 -0.000000 -0.000624
vertex 0.000386 -0.060000 -0.000643
vertex 0.000386 -0.000000 -0.000643
endloop
endfacet
facet normal 0.492904 -0.000000 -0.870084
outer loop
vertex 0.000386 -0.000000 -0.000643
vertex 0.000386 -0.060000 -0.000643
vertex 0.000354 -0.060000 -0.000661
endloop
endfacet
facet normal 0.492901 -0.000000 -0.870085
outer loop
vertex 0.000386 -0.000000 -0.000643
vertex 0.000354 -0.060000 -0.000661
vertex 0.000354 -0.000000 -0.000661
endloop
endfacet
facet normal 0.449611 -0.000000 -0.893224
outer loop
vertex 0.000354 -0.000000 -0.000661
vertex 0.000354 -0.060000 -0.000661
vertex 0.000321 -0.060000 -0.000678
endloop
endfacet
facet normal 0.449611 -0.000000 -0.893224
outer loop
vertex 0.000354 -0.000000 -0.000661
vertex 0.000321 -0.060000 -0.000678
vertex 0.000321 -0.000000 -0.000678
endloop
endfacet
facet normal 0.405242 -0.000000 -0.914210
outer loop
vertex 0.000321 -0.000000 -0.000678
vertex 0.000321 -0.060000 -0.000678
vertex 0.000287 -0.060000 -0.000693
endloop
endfacet
facet normal 0.405239 -0.000000 -0.914211
outer loop
vertex 0.000321 -0.000000 -0.000678
vertex 0.000287 -0.060000 -0.000693
vertex 0.000287 -0.000000 -0.000693
endloop
endfacet
facet normal 0.359897 -0.000000 -0.932992
outer loop
vertex 0.000287 -0.000000 -0.000693
vertex 0.000287 -0.060000 -0.000693
vertex 0.000253 -0.060000 -0.000706
endloop
endfacet
facet normal 0.359894 -0.000000 -0.932993
outer loop
vertex 0.000287 -0.000000 -0.000693
vertex 0.000253 -0.060000 -0.000706
vertex 0.000253 -0.000000 -0.000706
endloop
endfacet
facet normal 0.313682 -0.000000 -0.949528
outer loop
vertex 0.000253 -0.000000 -0.000706
vertex 0.000253 -0.060000 -0.000706
vertex 0.000218 -0.060000 -0.000718
endloop
endfacet
facet normal 0.313685 -0.000000 -0.949527
outer loop
vertex 0.000253 -0.000000 -0.000706
vertex 0.000218 -0.060000 -0.000718
vertex 0.000218 -0.000000 -0.000718
endloop
endfacet
facet normal 0.266713 -0.000000 -0.963776
outer loop
vertex 0.000218 -0.000000 -0.000718
vertex 0.000218 -0.060000 -0.000718
vertex 0.000182 -0.060000 -0.000728
endloop
endfacet
facet normal 0.266713 -0.000000 -0.963776
outer loop
vertex 0.000218 -0.000000 -0.000718
vertex 0.000182 -0.060000 -0.000728
vertex 0.000182 -0.000000 -0.000728
endloop
endfacet
facet normal 0.219102 -0.000000 -0.975702
outer loop
vertex 0.000182 -0.000000 -0.000728
vertex 0.000182 -0.060000 -0.000728
vertex 0.000146 -0.060000 -0.000736
endloop
endfacet
facet normal 0.219102 -0.000000 -0.975702
outer loop
vertex 0.000182 -0.000000 -0.000728
vertex 0.000146 -0.060000 -0.000736
vertex 0.000146 -0.000000 -0.000736
endloop
endfacet
facet normal 0.170967 -0.000000 -0.985277
outer loop
vertex 0.000146 -0.000000 -0.000736
vertex 0.000146 -0.060000 -0.000736
vertex 0.000110 -0.060000 -0.000742
endloop
endfacet
facet normal 0.170970 -0.000000 -0.985276
outer loop
vertex 0.000146 -0.000000 -0.000736
vertex 0.000110 -0.060000 -0.000742
vertex 0.000110 -0.000000 -0.000742
endloop
endfacet
facet normal 0.122403 -0.000000 -0.992480
outer loop
vertex 0.000110 -0.000000 -0.000742
vertex 0.000110 -0.060000 -0.000742
vertex 0.000074 -0.060000 -0.000746
endloop
endfacet
facet normal 0.122413 -0.000000 -0.992479
outer loop
vertex 0.000110 -0.000000 -0.000742
vertex 0.000074 -0.060000 -0.000746
vertex 0.000074 -0.000000 -0.000746
endloop
endfacet
facet normal 0.073567 -0.000000 -0.997290
outer loop
vertex 0.000074 -0.000000 -0.000746
vertex 0.000074 -0.060000 -0.000746
vertex 0.000037 -0.060000 -0.000749
endloop
endfacet
facet normal 0.073567 -0.000000 -0.997290
outer loop
vertex 0.000074 -0.000000 -0.000746
vertex 0.000037 -0.060000 -0.000749
vertex 0.000037 -0.000000 -0.000749
endloop
endfacet
facet normal 0.024545 -0.000000 -0.999699
outer loop
vertex 0.000037 -0.000000 -0.000749
vertex 0.000037 -0.060000 -0.000749
vertex 0.000000 -0.060000 -0.000750
endloop
endfacet
facet normal 0.024542 -0.000000 -0.999699
outer loop
vertex 0.000037 -0.000000 -0.000749
vertex 0.000000 -0.060000 -0.000750
vertex 0.000000 -0.000000 -0.000750
endloop
endfacet
facet normal -0.024539 -0.000000 -0.999699
outer loop
vertex 0.000000 -0.000000 -0.000750
vertex 0.000000 -0.060000 -0.000750
vertex -0.000037 -0.060000 -0.000749
endloop
endfacet
facet normal -0.024542 -0.000000 -0.999699
outer loop
vertex 0.000000 -0.000000 -0.000750
vertex -0.000037 -0.060000 -0.000749
vertex -0.000037 -0.000000 -0.000749
endloop
endfacet
facet normal -0.073563 -0.000000 -0.997290
outer loop
vertex -0.000037 -0.000000 -0.000749
vertex -0.000037 -0.060000 -0.000749
vertex -0.000074 -0.060000 -0.000746
endloop
endfacet
facet normal -0.073563 -0.000000 -0.997290
outer loop
vertex -0.000037 -0.000000 -0.000749
vertex -0.000074 -0.060000 -0.000746
vertex -0.000074 -0.000000 -0.000746
endloop
endfacet
facet normal -0.122407 -0.000000 -0.992480
outer loop
vertex -0.000074 -0.000000 -0.000746
vertex -0.000074 -0.060000 -0.000746
vertex -0.000110 -0.060000 -0.000742
endloop
endfacet
facet normal -0.122407 -0.000000 -0.992480
outer loop
vertex -0.000074 -0.000000 -0.000746
vertex -0.000110 -0.060000 -0.000742
vertex -0.000110 -0.000000 -0.000742
endloop
endfacet
facet normal -0.170957 -0.000000 -0.985279
outer loop
vertex -0.000110 -0.000000 -0.000742
vertex -0.000110 -0.060000 -0.000742
vertex -0.000146 -0.060000 -0.000736
endloop
endfacet
facet normal -0.170960 -0.000000 -0.985278
outer loop
vertex -0.000110 -0.000000 -0.000742
vertex -0.000146 -0.060000 -0.000736
vertex -0.000146 -0.000000 -0.000736
endloop
endfacet
facet normal -0.219098 -0.000000 -0.975703
outer loop
vertex -0.000146 -0.000000 -0.000736
vertex -0.000146 -0.060000 -0.000736
vertex -0.000182 -0.060000 -0.000728
endloop
endfacet
facet normal -0.219102 -0.000000 -0.975702
outer loop
vertex -0.000146 -0.000000 -0.000736
vertex -0.000182 -0.060000 -0.000728
vertex -0.000182 -0.000000 -0.000728
endloop
endfacet
facet normal -0.266713 -0.000000 -0.963776
outer loop
vertex -0.000182 -0.000000 -0.000728
vertex -0.000182 -0.060000 -0.000728
vertex -0.000218 -0.060000 -0.000718
endloop
endfacet
facet normal -0.266710 -0.000000 -0.963777
outer loop
vertex -0.000182 -0.000000 -0.000728
vertex -0.000218 -0.060000 -0.000718
vertex -0.000218 -0.000000 -0.000718
endloop
endfacet
facet normal -0.313682 -0.000000 -0.949528
outer loop
vertex -0.000218 -0.000000 -0.000718
vertex -0.000218 -0.060000 -0.000718
vertex -0.000253 -0.060000 -0.000706
endloop
endfacet
facet normal -0.313682 -0.000000 -0.949528
outer loop
vertex -0.000218 -0.000000 -0.000718
vertex -0.000253 -0.060000 -0.000706
vertex -0.000253 -0.000000 -0.000706
endloop
endfacet
facet normal -0.359888 -0.000000 -0.932996
outer loop
vertex -0.000253 -0.000000 -0.000706
vertex -0.000253 -0.060000 -0.000706
vertex -0.000287 -0.060000 -0.000693
endloop
endfacet
facet normal -0.359894 -0.000000 -0.932993
outer loop
vertex -0.000253 -0.000000 -0.000706
vertex -0.000287 -0.060000 -0.000693
vertex -0.000287 -0.000000 -0.000693
endloop
endfacet
facet normal -0.405238 -0.000000 -0.914211
outer loop
vertex -0.000287 -0.000000 -0.000693
vertex -0.000287 -0.060000 -0.000693
vertex -0.000321 -0.060000 -0.000678
endloop
endfacet
facet normal -0.405238 -0.000000 -0.914211
outer loop
vertex -0.000287 -0.000000 -0.000693
vertex -0.000321 -0.060000 -0.000678
vertex -0.000321 -0.000000 -0.000678
endloop
endfacet
facet normal -0.449609 -0.000000 -0.893226
outer loop
vertex -0.000321 -0.000000 -0.000678
vertex -0.000321 -0.060000 -0.000678
vertex -0.000354 -0.060000 -0.000661
endloop
endfacet
facet normal -0.449611 -0.000000 -0.893224
outer loop
vertex -0.000321 -0.000000 -0.000678
vertex -0.000354 -0.060000 -0.000661
vertex -0.000354 -0.000000 -0.000661
endloop
endfacet
facet normal -0.492892 -0.000000 -0.870091
outer loop
vertex -0.000354 -0.000000 -0.000661
vertex -0.000354 -0.060000 -0.000661
vertex -0.000386 -0.060000 -0.000643
endloop
endfacet
facet normal -0.492899 -0.000000 -0.870086
outer loop
vertex -0.000354 -0.000000 -0.000661
vertex -0.000386 -0.060000 -0.000643
vertex -0.000386 -0.000000 -0.000643
endloop
endfacet
facet normal -0.534993 -0.000000 -0.844857
outer loop
vertex -0.000386 -0.000000 -0.000643
vertex -0.000386 -0.060000 -0.000643
vertex -0.000417 -0.060000 -0.000624
endloop
endfacet
facet normal -0.534995 -0.000000 -0.844855
outer loop
vertex -0.000386 -0.000000 -0.000643
vertex -0.000417 -0.060000 -0.000624
vertex -0.000417 -0.000000 -0.000624
endloop
endfacet
facet normal -0.575806 -0.000000 -0.817586
outer loop
vertex -0.000417 -0.000000 -0.000624
vertex -0.000417 -0.060000 -0.000624
vertex -0.000447 -0.060000 -0.000602
endloop
endfacet
facet normal -0.575804 -0.000000 -0.817588
outer loop
vertex -0.000417 -0.000000 -0.000624
vertex -0.000447 -0.060000 -0.000602
vertex -0.000447 -0.000000 -0.000602
endloop
endfacet
facet normal -0.615230 -0.000000 -0.788348
outer loop
vertex -0.000447 -0.000000 -0.000602
vertex -0.000447 -0.060000 -0.000602
vertex -0.000476 -0.060000 -0.000580
endloop
endfacet
facet normal -0.615230 -0.000000 -0.788348
outer loop
vertex -0.000447 -0.000000 -0.000602
vertex -0.000476 -0.060000 -0.000580
vertex -0.000476 -0.000000 -0.000580
endloop
endfacet
facet normal -0.653167 -0.000000 -0.757214
outer loop
vertex -0.000476 -0.000000 -0.000580
vertex -0.000476 -0.060000 -0.000580
vertex -0.000504 -0.060000 -0.000556
endloop
endfacet
facet normal -0.653171 -0.000000 -0.757211
outer loop
vertex -0.000476 -0.000000 -0.000580
vertex -0.000504 -0.060000 -0.000556
vertex -0.000504 -0.000000 -0.000556
endloop
endfacet
facet normal -0.689538 -0.000000 -0.724250
outer loop
vertex -0.000504 -0.000000 -0.000556
vertex -0.000504 -0.060000 -0.000556
vertex -0.000530 -0.060000 -0.000530
endloop
endfacet
facet normal -0.689540 -0.000000 -0.724248
outer loop
vertex -0.000504 -0.000000 -0.000556
vertex -0.000530 -0.060000 -0.000530
vertex -0.000530 -0.000000 -0.000530
endloop
endfacet
facet normal -0.724245 -0.000000 -0.689543
outer loop
vertex -0.000530 -0.000000 -0.000530
vertex -0.000530 -0.060000 -0.000530
vertex -0.000556 -0.060000 -0.000504
endloop
endfacet
facet normal -0.724245 -0.000000 -0.689543
outer loop
vertex -0.000530 -0.000000 -0.000530
vertex -0.000556 -0.060000 -0.000504
vertex -0.000556 -0.000000 -0.000504
endloop
endfacet
facet normal -0.757206 -0.000000 -0.653176
outer loop
vertex -0.000556 -0.000000 -0.000504
vertex -0.000556 -0.060000 -0.000504
vertex -0.000580 -0.060000 -0.000476
endloop
endfacet
facet normal -0.757207 -0.000000 -0.653175
outer loop
vertex -0.000556 -0.000000 -0.000504
vertex -0.000580 -0.060000 -0.000476
vertex -0.000580 -0.000000 -0.000476
endloop
endfacet
facet normal -0.788344 -0.000000 -0.615234
outer loop
vertex -0.000580 -0.000000 -0.000476
vertex -0.000580 -0.060000 -0.000476
vertex -0.000602 -0.060000 -0.000447
endloop
endfacet
facet normal -0.788345 -0.000000 -0.615234
outer loop
vertex -0.000580 -0.000000 -0.000476
vertex -0.000602 -0.060000 -0.000447
vertex -0.000602 -0.000000 -0.000447
endloop
endfacet
facet normal -0.817583 -0.000000 -0.575811
outer loop
vertex -0.000602 -0.000000 -0.000447
vertex -0.000602 -0.060000 -0.000447
vertex -0.000624 -0.060000 -0.000417
endloop
endfacet
facet normal -0.817584 -0.000000 -0.575810
outer loop
vertex -0.000602 -0.000000 -0.000447
vertex -0.000624 -0.060000 -0.000417
vertex -0.000624 -0.000000 -0.000417
endloop
endfacet
facet normal -0.844850 -0.000000 -0.535002
outer loop
vertex -0.000624 -0.000000 -0.000417
vertex -0.000624 -0.060000 -0.000417
vertex -0.000643 -0.060000 -0.000386
endloop
endfacet
facet normal -0.844851 -0.000000 -0.535002
outer loop
vertex -0.000624 -0.000000 -0.000417
vertex -0.000643 -0.060000 -0.000386
vertex -0.000643 -0.000000 -0.000386
endloop
endfacet
facet normal -0.870087 -0.000000 -0.492898
outer loop
vertex -0.000643 -0.000000 -0.000386
vertex -0.000643 -0.060000 -0.000386
vertex -0.000661 -0.060000 -0.000354
endloop
endfacet
facet normal -0.870086 -0.000000 -0.492899
outer loop
vertex -0.000643 -0.000000 -0.000386
vertex -0.000661 -0.060000 -0.000354
vertex -0.000661 -0.000000 -0.000354
endloop
endfacet
facet normal -0.893223 -0.000000 -0.449615
outer loop
vertex -0.000661 -0.000000 -0.000354
vertex -0.000661 -0.060000 -0.000354
vertex -0.000678 -0.060000 -0.000321
endloop
endfacet
facet normal -0.893223 -0.000000 -0.449615
outer loop
vertex -0.000661 -0.000000 -0.000354
vertex -0.000678 -0.060000 -0.000321
vertex -0.000678 -0.000000 -0.000321
endloop
endfacet
facet normal -0.914207 -0.000000 -0.405247
outer loop
vertex -0.000678 -0.000000 -0.000321
vertex -0.000678 -0.060000 -0.000321
vertex -0.000693 -0.060000 -0.000287
endloop
endfacet
facet normal -0.914208 -0.000000 -0.405246
outer loop
vertex -0.000678 -0.000000 -0.000321
vertex -0.000693 -0.060000 -0.000287
vertex -0.000693 -0.000000 -0.000287
endloop
endfacet
facet normal -0.932993 -0.000000 -0.359895
outer loop
vertex -0.000693 -0.000000 -0.000287
vertex -0.000693 -0.060000 -0.000287
vertex -0.000706 -0.060000 -0.000253
endloop
endfacet
facet normal -0.932993 -0.000000 -0.359895
outer loop
vertex -0.000693 -0.000000 -0.000287
vertex -0.000706 -0.060000 -0.000253
vertex -0.000706 -0.000000 -0.000253
endloop
endfacet
facet normal -0.949527 -0.000000 -0.313684
outer loop
vertex -0.000706 -0.000000 -0.000253
vertex -0.000706 -0.060000 -0.000253
vertex -0.000718 -0.060000 -0.000218
endloop
endfacet
facet normal -0.949527 -0.000000 -0.313684
outer loop
vertex -0.000706 -0.000000 -0.000253
vertex -0.000718 -0.060000 -0.000218
vertex -0.000718 -0.000000 -0.000218
endloop
endfacet
facet normal -0.963776 -0.000000 -0.266713
outer loop
vertex -0.000718 -0.000000 -0.000218
vertex -0.000718 -0.060000 -0.000218
vertex -0.000728 -0.060000 -0.000182
endloop
endfacet
facet normal -0.963776 -0.000000 -0.266713
outer loop
vertex -0.000718 -0.000000 -0.000218
vertex -0.000728 -0.060000 -0.000182
vertex -0.000728 -0.000000 -0.000182
endloop
endfacet
facet normal -0.975701 -0.000000 -0.219106
outer loop
vertex -0.000728 -0.000000 -0.000182
vertex -0.000728 -0.060000 -0.000182
vertex -0.000736 -0.060000 -0.000146
endloop
endfacet
facet normal -0.975701 -0.000000 -0.219106
outer loop
vertex -0.000728 -0.000000 -0.000182
vertex -0.000736 -0.060000 -0.000146
vertex -0.000736 -0.000000 -0.000146
endloop
endfacet
facet normal -0.985277 -0.000000 -0.170963
outer loop
vertex -0.000736 -0.000000 -0.000146
vertex -0.000736 -0.060000 -0.000146
vertex -0.000742 -0.060000 -0.000110
endloop
endfacet
facet normal -0.985278 -0.000000 -0.170963
outer loop
vertex -0.000736 -0.000000 -0.000146
vertex -0.000742 -0.060000 -0.000110
vertex -0.000742 -0.000000 -0.000110
endloop
endfacet
facet normal -0.992479 -0.000000 -0.122412
outer loop
vertex -0.000742 -0.000000 -0.000110
vertex -0.000742 -0.060000 -0.000110
vertex -0.000746 -0.060000 -0.000074
endloop
endfacet
facet normal -0.992479 -0.000000 -0.122412
outer loop
vertex -0.000742 -0.000000 -0.000110
vertex -0.000746 -0.060000 -0.000074
vertex -0.000746 -0.000000 -0.000074
endloop
endfacet
facet normal -0.997290 0.000000 -0.073568
outer loop
vertex -0.000746 -0.000000 -0.000074
vertex -0.000746 -0.060000 -0.000074
vertex -0.000749 -0.060000 -0.000037
endloop
endfacet
facet normal -0.997290 -0.000000 -0.073568
outer loop
vertex -0.000746 -0.000000 -0.000074
vertex -0.000749 -0.060000 -0.000037
vertex -0.000749 -0.000000 -0.000037
endloop
endfacet
facet normal -0.999699 -0.000000 -0.024540
outer loop
vertex -0.000749 -0.000000 -0.000037
vertex -0.000749 -0.060000 -0.000037
vertex -0.000750 -0.060000 -0.000000
endloop
endfacet
facet normal -0.999699 -0.000000 -0.024540
outer loop
vertex -0.000749 -0.000000 -0.000037
vertex -0.000750 -0.060000 -0.000000
vertex -0.000750 -0.000000 -0.000000
endloop
endfacet
facet normal -0.999699 0.000000 0.024540
outer loop
vertex -0.000750 -0.000000 -0.000000
vertex -0.000750 -0.060000 -0.000000
vertex -0.000749 -0.060000 0.000037
endloop
endfacet
facet normal -0.999699 -0.000000 0.024540
outer loop
vertex -0.000750 -0.000000 -0.000000
vertex -0.000749 -0.060000 0.000037
vertex -0.000749 -0.000000 0.000037
endloop
endfacet
facet normal -0.997291 0.000000 0.073561
outer loop
vertex -0.000749 -0.000000 0.000037
vertex -0.000749 -0.060000 0.000037
vertex -0.000746 -0.060000 0.000074
endloop
endfacet
facet normal -0.997291 0.000000 0.073561
outer loop
vertex -0.000749 -0.000000 0.000037
vertex -0.000746 -0.060000 0.000074
vertex -0.000746 -0.000000 0.000074
endloop
endfacet
facet normal -0.992480 0.000000 0.122408
outer loop
vertex -0.000746 -0.000000 0.000074
vertex -0.000746 -0.060000 0.000074
vertex -0.000742 -0.060000 0.000110
endloop
endfacet
facet normal -0.992480 0.000000 0.122408
outer loop
vertex -0.000746 -0.000000 0.000074
vertex -0.000742 -0.060000 0.000110
vertex -0.000742 -0.000000 0.000110
endloop
endfacet
facet normal -0.985278 0.000000 0.170963
outer loop
vertex -0.000742 -0.000000 0.000110
vertex -0.000742 -0.060000 0.000110
vertex -0.000736 -0.060000 0.000146
endloop
endfacet
facet normal -0.985277 0.000000 0.170963
outer loop
vertex -0.000742 -0.000000 0.000110
vertex -0.000736 -0.060000 0.000146
vertex -0.000736 -0.000000 0.000146
endloop
endfacet
facet normal -0.975703 0.000000 0.219098
outer loop
vertex -0.000736 -0.000000 0.000146
vertex -0.000736 -0.060000 0.000146
vertex -0.000728 -0.060000 0.000182
endloop
endfacet
facet normal -0.975703 0.000000 0.219098
outer loop
vertex -0.000736 -0.000000 0.000146
vertex -0.000728 -0.060000 0.000182
vertex -0.000728 -0.000000 0.000182
endloop
endfacet
facet normal -0.963775 0.000000 0.266716
outer loop
vertex -0.000728 -0.000000 0.000182
vertex -0.000728 -0.060000 0.000182
vertex -0.000718 -0.060000 0.000218
endloop
endfacet
facet normal -0.963775 0.000000 0.266716
outer loop
vertex -0.000728 -0.000000 0.000182
vertex -0.000718 -0.060000 0.000218
vertex -0.000718 -0.000000 0.000218
endloop
endfacet
facet normal -0.949529 0.000000 0.313679
outer loop
vertex -0.000718 -0.000000 0.000218
vertex -0.000718 -0.060000 0.000218
vertex -0.000706 -0.060000 0.000253
endloop
endfacet
facet normal -0.949529 0.000000 0.313678
outer loop
vertex -0.000718 -0.000000 0.000218
vertex -0.000706 -0.060000 0.000253
vertex -0.000706 -0.000000 0.000253
endloop
endfacet
facet normal -0.932992 0.000000 0.359897
outer loop
vertex -0.000706 -0.000000 0.000253
vertex -0.000706 -0.060000 0.000253
vertex -0.000693 -0.060000 0.000287
endloop
endfacet
facet normal -0.932992 0.000000 0.359898
outer loop
vertex -0.000706 -0.000000 0.000253
vertex -0.000693 -0.060000 0.000287
vertex -0.000693 -0.000000 0.000287
endloop
endfacet
facet normal -0.914210 0.000000 0.405240
outer loop
vertex -0.000693 -0.000000 0.000287
vertex -0.000693 -0.060000 0.000287
vertex -0.000678 -0.060000 0.000321
endloop
endfacet
facet normal -0.914210 0.000000 0.405240
outer loop
vertex -0.000693 -0.000000 0.000287
vertex -0.000678 -0.060000 0.000321
vertex -0.000678 -0.000000 0.000321
endloop
endfacet
facet normal -0.893225 0.000000 0.449610
outer loop
vertex -0.000678 -0.000000 0.000321
vertex -0.000678 -0.060000 0.000321
vertex -0.000661 -0.060000 0.000354
endloop
endfacet
facet normal -0.893225 0.000000 0.449610
outer loop
vertex -0.000678 -0.000000 0.000321
vertex -0.000661 -0.060000 0.000354
vertex -0.000661 -0.000000 0.000354
endloop
endfacet
facet normal -0.870088 0.000000 0.492897
outer loop
vertex -0.000661 -0.000000 0.000354
vertex -0.000661 -0.060000 0.000354
vertex -0.000643 -0.060000 0.000386
endloop
endfacet
facet normal -0.870088 0.000000 0.492896
outer loop
vertex -0.000661 -0.000000 0.000354
vertex -0.000643 -0.060000 0.000386
vertex -0.000643 -0.000000 0.000386
endloop
endfacet
facet normal -0.844852 0.000000 0.535000
outer loop
vertex -0.000643 -0.000000 0.000386
vertex -0.000643 -0.060000 0.000386
vertex -0.000624 -0.060000 0.000417
endloop
endfacet
facet normal -0.844852 0.000000 0.534999
outer loop
vertex -0.000643 -0.000000 0.000386
vertex -0.000624 -0.060000 0.000417
vertex -0.000624 -0.000000 0.000417
endloop
endfacet
facet normal -0.817585 0.000000 0.575808
outer loop
vertex -0.000624 -0.000000 0.000417
vertex -0.000624 -0.060000 0.000417
vertex -0.000602 -0.060000 0.000447
endloop
endfacet
facet normal -0.817585 0.000000 0.575808
outer loop
vertex -0.000624 -0.000000 0.000417
vertex -0.000602 -0.060000 0.000447
vertex -0.000602 -0.000000 0.000447
endloop
endfacet
facet normal -0.788346 0.000000 0.615232
outer loop
vertex -0.000602 -0.000000 0.000447
vertex -0.000602 -0.060000 0.000447
vertex -0.000580 -0.060000 0.000476
endloop
endfacet
facet normal -0.788346 0.000000 0.615232
outer loop
vertex -0.000602 -0.000000 0.000447
vertex -0.000580 -0.060000 0.000476
vertex -0.000580 -0.000000 0.000476
endloop
endfacet
facet normal -0.757209 0.000000 0.653172
outer loop
vertex -0.000580 -0.000000 0.000476
vertex -0.000580 -0.060000 0.000476
vertex -0.000556 -0.060000 0.000504
endloop
endfacet
facet normal -0.757209 0.000000 0.653173
outer loop
vertex -0.000580 -0.000000 0.000476
vertex -0.000556 -0.060000 0.000504
vertex -0.000556 -0.000000 0.000504
endloop
endfacet
facet normal -0.724247 0.000000 0.689541
outer loop
vertex -0.000556 -0.000000 0.000504
vertex -0.000556 -0.060000 0.000504
vertex -0.000530 -0.060000 0.000530
endloop
endfacet
facet normal -0.724247 0.000000 0.689541
outer loop
vertex -0.000556 -0.000000 0.000504
vertex -0.000530 -0.060000 0.000530
vertex -0.000530 -0.000000 0.000530
endloop
endfacet
facet normal -0.689537 0.000000 0.724250
outer loop
vertex -0.000530 -0.000000 0.000530
vertex -0.000530 -0.060000 0.000530
vertex -0.000504 -0.060000 0.000556
endloop
endfacet
facet normal -0.689541 0.000000 0.724247
outer loop
vertex -0.000530 -0.000000 0.000530
vertex -0.000504 -0.060000 0.000556
vertex -0.000504 -0.000000 0.000556
endloop
endfacet
facet normal -0.653172 0.000000 0.757210
outer loop
vertex -0.000504 -0.000000 0.000556
vertex -0.000504 -0.060000 0.000556
vertex -0.000476 -0.060000 0.000580
endloop
endfacet
facet normal -0.653174 0.000000 0.757208
outer loop
vertex -0.000504 -0.000000 0.000556
vertex -0.000476 -0.060000 0.000580
vertex -0.000476 -0.000000 0.000580
endloop
endfacet
facet normal -0.615231 0.000000 0.788347
outer loop
vertex -0.000476 -0.000000 0.000580
vertex -0.000476 -0.060000 0.000580
vertex -0.000447 -0.060000 0.000602
endloop
endfacet
facet normal -0.615229 0.000000 0.788348
outer loop
vertex -0.000476 -0.000000 0.000580
vertex -0.000447 -0.060000 0.000602
vertex -0.000447 -0.000000 0.000602
endloop
endfacet
facet normal -0.575807 0.000000 0.817586
outer loop
vertex -0.000447 -0.000000 0.000602
vertex -0.000447 -0.060000 0.000602
vertex -0.000417 -0.060000 0.000624
endloop
endfacet
facet normal -0.575805 0.000000 0.817587
outer loop
vertex -0.000447 -0.000000 0.000602
vertex -0.000417 -0.060000 0.000624
vertex -0.000417 -0.000000 0.000624
endloop
endfacet
facet normal -0.534998 0.000000 0.844854
outer loop
vertex -0.000417 -0.000000 0.000624
vertex -0.000417 -0.060000 0.000624
vertex -0.000386 -0.060000 0.000643
endloop
endfacet
facet normal -0.534998 0.000000 0.844854
outer loop
vertex -0.000417 -0.000000 0.000624
vertex -0.000386 -0.060000 0.000643
vertex -0.000386 -0.000000 0.000643
endloop
endfacet
facet normal -0.492896 0.000000 0.870088
outer loop
vertex -0.000386 -0.000000 0.000643
vertex -0.000386 -0.060000 0.000643
vertex -0.000354 -0.060000 0.000661
endloop
endfacet
facet normal -0.492898 0.000000 0.870087
outer loop
vertex -0.000386 -0.000000 0.000643
vertex -0.000354 -0.060000 0.000661
vertex -0.000354 -0.000000 0.000661
endloop
endfacet
facet normal -0.449609 0.000000 0.893225
outer loop
vertex -0.000354 -0.000000 0.000661
vertex -0.000354 -0.060000 0.000661
vertex -0.000321 -0.060000 0.000678
endloop
endfacet
facet normal -0.449609 0.000000 0.893225
outer loop
vertex -0.000354 -0.000000 0.000661
vertex -0.000321 -0.060000 0.000678
vertex -0.000321 -0.000000 0.000678
endloop
endfacet
facet normal -0.405240 0.000000 0.914210
outer loop
vertex -0.000321 -0.000000 0.000678
vertex -0.000321 -0.060000 0.000678
vertex -0.000287 -0.060000 0.000693
endloop
endfacet
facet normal -0.405240 0.000000 0.914210
outer loop
vertex -0.000321 -0.000000 0.000678
vertex -0.000287 -0.060000 0.000693
vertex -0.000287 -0.000000 0.000693
endloop
endfacet
facet normal -0.359892 0.000000 0.932994
outer loop
vertex -0.000287 -0.000000 0.000693
vertex -0.000287 -0.060000 0.000693
vertex -0.000253 -0.060000 0.000706
endloop
endfacet
facet normal -0.359892 0.000000 0.932994
outer loop
vertex -0.000287 -0.000000 0.000693
vertex -0.000253 -0.060000 0.000706
vertex -0.000253 -0.000000 0.000706
endloop
endfacet
facet normal -0.313680 0.000000 0.949529
outer loop
vertex -0.000253 -0.000000 0.000706
vertex -0.000253 -0.060000 0.000706
vertex -0.000218 -0.060000 0.000718
endloop
endfacet
facet normal -0.313680 0.000000 0.949529
outer loop
vertex -0.000253 -0.000000 0.000706
vertex -0.000218 -0.060000 0.000718
vertex -0.000218 -0.000000 0.000718
endloop
endfacet
facet normal -0.266709 0.000000 0.963777
outer loop
vertex -0.000218 -0.000000 0.000718
vertex -0.000218 -0.060000 0.000718
vertex -0.000182 -0.060000 0.000728
endloop
endfacet
facet normal -0.266706 0.000000 0.963778
outer loop
vertex -0.000218 -0.000000 0.000718
vertex -0.000182 -0.060000 0.000728
vertex -0.000182 -0.000000 0.000728
endloop
endfacet
facet normal -0.219104 0.000000 0.975702
outer loop
vertex -0.000182 -0.000000 0.000728
vertex -0.000182 -0.060000 0.000728
vertex -0.000146 -0.060000 0.000736
endloop
endfacet
facet normal -0.219104 0.000000 0.975702
outer loop
vertex -0.000182 -0.000000 0.000728
vertex -0.000146 -0.060000 0.000736
vertex -0.000146 -0.000000 0.000736
endloop
endfacet
facet normal -0.170956 0.000000 0.985279
outer loop
vertex -0.000146 -0.000000 0.000736
vertex -0.000146 -0.060000 0.000736
vertex -0.000110 -0.060000 0.000742
endloop
endfacet
facet normal -0.170959 0.000000 0.985278
outer loop
vertex -0.000146 -0.000000 0.000736
vertex -0.000110 -0.060000 0.000742
vertex -0.000110 -0.000000 0.000742
endloop
endfacet
facet normal -0.122409 0.000000 0.992480
outer loop
vertex -0.000110 -0.000000 0.000742
vertex -0.000110 -0.060000 0.000742
vertex -0.000074 -0.060000 0.000746
endloop
endfacet
facet normal -0.122406 0.000000 0.992480
outer loop
vertex -0.000110 -0.000000 0.000742
vertex -0.000074 -0.060000 0.000746
vertex -0.000074 -0.000000 0.000746
endloop
endfacet
facet normal -0.073560 0.000000 0.997291
outer loop
vertex -0.000074 -0.000000 0.000746
vertex -0.000074 -0.060000 0.000746
vertex -0.000037 -0.060000 0.000749
endloop
endfacet
facet normal -0.073563 0.000000 0.997291
outer loop
vertex -0.000074 -0.000000 0.000746
vertex -0.000037 -0.060000 0.000749
vertex -0.000037 -0.000000 0.000749
endloop
endfacet
facet normal -0.024537 0.000000 0.999699
outer loop
vertex -0.000037 -0.000000 0.000749
vertex -0.000037 -0.060000 0.000749
vertex 0.000000 -0.060000 0.000750
endloop
endfacet
facet normal -0.024540 0.000000 0.999699
outer loop
vertex -0.000037 -0.000000 0.000749
vertex 0.000000 -0.060000 0.000750
vertex 0.000000 -0.000000 0.000750
endloop
endfacet
endsolid propagation_tube_patch
