solid Exported from Blender-2.80 (sub 75)
facet normal -0.865995 -0.001712 -0.500049
outer loop
vertex 0.077869 0.000736 0.045127
vertex 0.077906 0.000746 0.045064
vertex 0.077942 0.000750 0.045000
endloop
endfacet
facet normal -0.866060 -0.001713 -0.499938
outer loop
vertex 0.077942 0.000750 0.045000
vertex 0.077979 0.000746 0.044936
vertex 0.078015 0.000736 0.044873
endloop
endfacet
facet normal -0.866388 -0.001711 -0.499369
outer loop
vertex 0.078015 0.000736 0.044873
vertex 0.078051 0.000718 0.044811
vertex 0.078086 0.000693 0.044751
endloop
endfacet
facet normal -0.865784 0.000000 -0.500418
outer loop
vertex 0.078086 0.000693 0.044751
vertex 0.078119 0.000661 0.044694
vertex 0.078151 0.000624 0.044639
endloop
endfacet
facet normal -0.865827 -0.000856 -0.500342
outer loop
vertex 0.078151 0.000624 0.044639
vertex 0.078180 0.000580 0.044588
vertex 0.078207 0.000530 0.044541
endloop
endfacet
facet normal -0.865999 0.000000 -0.500046
outer loop
vertex 0.078207 0.000530 0.044541
vertex 0.078232 0.000476 0.044498
vertex 0.078254 0.000417 0.044460
endloop
endfacet
facet normal -0.867384 -0.003425 -0.497628
outer loop
vertex 0.078254 0.000417 0.044460
vertex 0.078273 0.000354 0.044427
vertex 0.078289 0.000287 0.044400
endloop
endfacet
facet normal -0.866780 0.000000 -0.498690
outer loop
vertex 0.078289 0.000287 0.044400
vertex 0.078301 0.000218 0.044378
vertex 0.078310 0.000146 0.044363
endloop
endfacet
facet normal -0.864400 0.000000 -0.502805
outer loop
vertex 0.078310 0.000146 0.044363
vertex 0.078315 0.000074 0.044354
vertex 0.078317 0.000000 0.044350
endloop
endfacet
facet normal -0.865264 0.000000 -0.501317
outer loop
vertex 0.078317 0.000000 0.044350
vertex 0.078315 -0.000074 0.044354
vertex 0.078310 -0.000146 0.044363
endloop
endfacet
facet normal -0.866993 0.000000 -0.498320
outer loop
vertex 0.078310 -0.000146 0.044363
vertex 0.078301 -0.000218 0.044378
vertex 0.078289 -0.000287 0.044400
endloop
endfacet
facet normal -0.867384 0.003425 -0.497628
outer loop
vertex 0.078289 -0.000287 0.044400
vertex 0.078273 -0.000354 0.044427
vertex 0.078254 -0.000417 0.044460
endloop
endfacet
facet normal -0.865999 0.000000 -0.500046
outer loop
vertex 0.078254 -0.000417 0.044460
vertex 0.078232 -0.000476 0.044498
vertex 0.078207 -0.000530 0.044541
endloop
endfacet
facet normal -0.865823 0.001713 -0.500347
outer loop
vertex 0.078207 -0.000530 0.044541
vertex 0.078180 -0.000580 0.044588
vertex 0.078151 -0.000624 0.044639
endloop
endfacet
facet normal -0.865778 0.000000 -0.500428
outer loop
vertex 0.078151 -0.000624 0.044639
vertex 0.078119 -0.000661 0.044694
vertex 0.078086 -0.000693 0.044751
endloop
endfacet
facet normal -0.866340 0.001712 -0.499452
outer loop
vertex 0.078086 -0.000693 0.044751
vertex 0.078051 -0.000718 0.044811
vertex 0.078015 -0.000736 0.044873
endloop
endfacet
facet normal -0.866073 0.001713 -0.499915
outer loop
vertex 0.078015 -0.000736 0.044873
vertex 0.077979 -0.000746 0.044936
vertex 0.077942 -0.000750 0.045000
endloop
endfacet
facet normal -0.866006 0.001712 -0.500031
outer loop
vertex 0.077942 -0.000750 0.045000
vertex 0.077906 -0.000746 0.045064
vertex 0.077869 -0.000736 0.045127
endloop
endfacet
facet normal -0.865818 0.001714 -0.500357
outer loop
vertex 0.077869 -0.000736 0.045127
vertex 0.077833 -0.000718 0.045189
vertex 0.077799 -0.000693 0.045249
endloop
endfacet
facet normal -0.865456 0.000000 -0.500985
outer loop
vertex 0.077799 -0.000693 0.045249
vertex 0.077766 -0.000661 0.045306
vertex 0.077734 -0.000624 0.045361
endloop
endfacet
facet normal -0.865395 0.000000 -0.501090
outer loop
vertex 0.077734 -0.000624 0.045361
vertex 0.077704 -0.000580 0.045412
vertex 0.077677 -0.000530 0.045459
endloop
endfacet
facet normal -0.865881 -0.001713 -0.500246
outer loop
vertex 0.077677 -0.000530 0.045459
vertex 0.077652 -0.000476 0.045502
vertex 0.077630 -0.000417 0.045540
endloop
endfacet
facet normal -0.865173 0.000857 -0.501473
outer loop
vertex 0.077630 -0.000417 0.045540
vertex 0.077612 -0.000354 0.045573
vertex 0.077596 -0.000287 0.045600
endloop
endfacet
facet normal -0.866134 -0.000428 -0.499812
outer loop
vertex 0.077596 -0.000287 0.045600
vertex 0.077583 -0.000218 0.045622
vertex 0.077574 -0.000146 0.045637
endloop
endfacet
facet normal -0.867467 -0.000642 -0.497495
outer loop
vertex 0.077574 -0.000146 0.045637
vertex 0.077569 -0.000074 0.045646
vertex 0.077567 0.000000 0.045650
endloop
endfacet
facet normal -0.868311 0.000640 -0.496020
outer loop
vertex 0.077567 0.000000 0.045650
vertex 0.077569 0.000074 0.045646
vertex 0.077574 0.000146 0.045637
endloop
endfacet
facet normal -0.866347 0.000428 -0.499442
outer loop
vertex 0.077574 0.000146 0.045637
vertex 0.077583 0.000218 0.045622
vertex 0.077596 0.000287 0.045600
endloop
endfacet
facet normal -0.865173 -0.000857 -0.501473
outer loop
vertex 0.077596 0.000287 0.045600
vertex 0.077612 0.000354 0.045573
vertex 0.077630 0.000417 0.045540
endloop
endfacet
facet normal -0.866094 0.001712 -0.499878
outer loop
vertex 0.077630 0.000417 0.045540
vertex 0.077652 0.000476 0.045502
vertex 0.077677 0.000530 0.045459
endloop
endfacet
facet normal -0.865398 0.000000 -0.501085
outer loop
vertex 0.077677 0.000530 0.045459
vertex 0.077704 0.000580 0.045412
vertex 0.077734 0.000624 0.045361
endloop
endfacet
facet normal -0.865462 0.000000 -0.500975
outer loop
vertex 0.077734 0.000624 0.045361
vertex 0.077766 0.000661 0.045306
vertex 0.077799 0.000693 0.045249
endloop
endfacet
facet normal -0.865755 -0.001714 -0.500465
outer loop
vertex 0.077799 0.000693 0.045249
vertex 0.077833 0.000718 0.045189
vertex 0.077869 0.000736 0.045127
endloop
endfacet
facet normal -0.866041 0.000000 -0.499973
outer loop
vertex 0.077869 0.000736 0.045127
vertex 0.077942 0.000750 0.045000
vertex 0.078015 0.000736 0.044873
endloop
endfacet
facet normal -0.866044 0.000431 -0.499968
outer loop
vertex 0.078015 0.000736 0.044873
vertex 0.078086 0.000693 0.044751
vertex 0.078151 0.000624 0.044639
endloop
endfacet
facet normal -0.866118 0.000000 -0.499840
outer loop
vertex 0.078151 0.000624 0.044639
vertex 0.078207 0.000530 0.044541
vertex 0.078254 0.000417 0.044460
endloop
endfacet
facet normal -0.865838 0.000324 -0.500324
outer loop
vertex 0.078254 0.000417 0.044460
vertex 0.078289 0.000287 0.044400
vertex 0.078310 0.000146 0.044363
endloop
endfacet
facet normal -0.865738 0.000000 -0.500497
outer loop
vertex 0.078310 0.000146 0.044363
vertex 0.078317 0.000000 0.044350
vertex 0.078310 -0.000146 0.044363
endloop
endfacet
facet normal -0.865784 -0.000216 -0.500417
outer loop
vertex 0.078310 -0.000146 0.044363
vertex 0.078289 -0.000287 0.044400
vertex 0.078254 -0.000417 0.044460
endloop
endfacet
facet normal -0.866118 0.000000 -0.499840
outer loop
vertex 0.078254 -0.000417 0.044460
vertex 0.078207 -0.000530 0.044541
vertex 0.078151 -0.000624 0.044639
endloop
endfacet
facet normal -0.866044 -0.000431 -0.499968
outer loop
vertex 0.078151 -0.000624 0.044639
vertex 0.078086 -0.000693 0.044751
vertex 0.078015 -0.000736 0.044873
endloop
endfacet
facet normal -0.866041 0.000000 -0.499973
outer loop
vertex 0.078015 -0.000736 0.044873
vertex 0.077942 -0.000750 0.045000
vertex 0.077869 -0.000736 0.045127
endloop
endfacet
facet normal -0.865990 0.000862 -0.500061
outer loop
vertex 0.077869 -0.000736 0.045127
vertex 0.077799 -0.000693 0.045249
vertex 0.077734 -0.000624 0.045361
endloop
endfacet
facet normal -0.865938 0.000216 -0.500151
outer loop
vertex 0.077734 -0.000624 0.045361
vertex 0.077677 -0.000530 0.045459
vertex 0.077630 -0.000417 0.045540
endloop
endfacet
facet normal -0.866261 0.000000 -0.499592
outer loop
vertex 0.077630 -0.000417 0.045540
vertex 0.077596 -0.000287 0.045600
vertex 0.077574 -0.000146 0.045637
endloop
endfacet
facet normal -0.865738 0.000000 -0.500497
outer loop
vertex 0.077574 -0.000146 0.045637
vertex 0.077567 0.000000 0.045650
vertex 0.077574 0.000146 0.045637
endloop
endfacet
facet normal -0.866099 0.000000 -0.499872
outer loop
vertex 0.077574 0.000146 0.045637
vertex 0.077596 0.000287 0.045600
vertex 0.077630 0.000417 0.045540
endloop
endfacet
facet normal -0.865938 -0.000431 -0.500151
outer loop
vertex 0.077630 0.000417 0.045540
vertex 0.077677 0.000530 0.045459
vertex 0.077734 0.000624 0.045361
endloop
endfacet
facet normal -0.865990 -0.000862 -0.500061
outer loop
vertex 0.077734 0.000624 0.045361
vertex 0.077799 0.000693 0.045249
vertex 0.077869 0.000736 0.045127
endloop
endfacet
facet normal -0.866041 -0.000222 -0.499973
outer loop
vertex 0.077869 0.000736 0.045127
vertex 0.078015 0.000736 0.044873
vertex 0.078151 0.000624 0.044639
endloop
endfacet
facet normal -0.865951 0.000111 -0.500129
outer loop
vertex 0.078151 0.000624 0.044639
vertex 0.078254 0.000417 0.044460
vertex 0.078310 0.000146 0.044363
endloop
endfacet
facet normal -0.866125 0.000000 -0.499827
outer loop
vertex 0.078310 0.000146 0.044363
vertex 0.078310 -0.000146 0.044363
vertex 0.078254 -0.000417 0.044460
endloop
endfacet
facet normal -0.866026 0.000111 -0.500000
outer loop
vertex 0.078254 -0.000417 0.044460
vertex 0.078151 -0.000624 0.044639
vertex 0.078015 -0.000736 0.044873
endloop
endfacet
facet normal -0.866048 -0.000222 -0.499960
outer loop
vertex 0.078015 -0.000736 0.044873
vertex 0.077869 -0.000736 0.045127
vertex 0.077734 -0.000624 0.045361
endloop
endfacet
facet normal -0.865957 0.000000 -0.500119
outer loop
vertex 0.077734 -0.000624 0.045361
vertex 0.077630 -0.000417 0.045540
vertex 0.077574 -0.000146 0.045637
endloop
endfacet
facet normal -0.866027 0.000000 -0.499997
outer loop
vertex 0.077574 -0.000146 0.045637
vertex 0.077574 0.000146 0.045637
vertex 0.077630 0.000417 0.045540
endloop
endfacet
facet normal -0.866029 0.000222 -0.499993
outer loop
vertex 0.077630 0.000417 0.045540
vertex 0.077734 0.000624 0.045361
vertex 0.077869 0.000736 0.045127
endloop
endfacet
facet normal -0.866036 -0.000016 -0.499982
outer loop
vertex 0.077869 0.000736 0.045127
vertex 0.078151 0.000624 0.044639
vertex 0.078310 0.000146 0.044363
endloop
endfacet
facet normal -0.866005 0.000000 -0.500035
outer loop
vertex 0.078310 0.000146 0.044363
vertex 0.078254 -0.000417 0.044460
vertex 0.078015 -0.000736 0.044873
endloop
endfacet
facet normal -0.866033 0.000031 -0.499987
outer loop
vertex 0.078015 -0.000736 0.044873
vertex 0.077734 -0.000624 0.045361
vertex 0.077574 -0.000146 0.045637
endloop
endfacet
facet normal -0.866015 -0.000031 -0.500017
outer loop
vertex 0.077574 -0.000146 0.045637
vertex 0.077630 0.000417 0.045540
vertex 0.077869 0.000736 0.045127
endloop
endfacet
facet normal -0.866032 0.000006 -0.499988
outer loop
vertex 0.077869 0.000736 0.045127
vertex 0.078310 0.000146 0.044363
vertex 0.078015 -0.000736 0.044873
endloop
endfacet
facet normal -0.866027 0.000000 -0.499998
outer loop
vertex 0.078015 -0.000736 0.044873
vertex 0.077574 -0.000146 0.045637
vertex 0.077869 0.000736 0.045127
endloop
endfacet
endsolid Exported from Blender-2.80 (sub 75)
