solid Exported from Blender-2.81 (sub 16)
facet normal 0.000000 0.000000 -1.000000
outer loop
vertex 0.000220 -0.000724 0.050000
vertex 0.000187 -0.000733 0.050000
vertex 0.000147 -0.000741 0.050000
endloop
endfacet
facet normal 0.000451 -0.004330 -0.999991
outer loop
vertex 0.000147 -0.000741 0.050000
vertex 0.000108 -0.000748 0.050000
vertex 0.000074 -0.000753 0.050000
endloop
endfacet
facet normal 0.000000 0.001953 -0.999998
outer loop
vertex 0.000074 -0.000753 0.050000
vertex 0.000074 -0.000753 0.050000
vertex 0.000040 -0.000755 0.050000
endloop
endfacet
facet normal 0.000000 0.002369 -0.999997
outer loop
vertex 0.000040 -0.000755 0.050000
vertex 0.000000 -0.000756 0.050000
vertex -0.000040 -0.000755 0.050000
endloop
endfacet
facet normal 0.535406 0.000000 -0.844595
outer loop
vertex -0.000040 -0.000755 0.050000
vertex -0.000074 -0.000753 0.050000
vertex -0.000074 -0.000753 0.050000
endloop
endfacet
facet normal 0.000901 0.000000 -1.000000
outer loop
vertex -0.000074 -0.000753 0.050000
vertex -0.000108 -0.000748 0.050000
vertex -0.000147 -0.000741 0.050000
endloop
endfacet
facet normal 0.000000 -0.004257 -0.999991
outer loop
vertex -0.000147 -0.000741 0.050000
vertex -0.000187 -0.000733 0.050000
vertex -0.000220 -0.000724 0.050000
endloop
endfacet
facet normal -0.999512 0.000000 -0.031235
outer loop
vertex -0.000220 -0.000724 0.050000
vertex -0.000220 -0.000724 0.050000
vertex -0.000252 -0.000713 0.050000
endloop
endfacet
facet normal -0.001802 0.000000 -0.999998
outer loop
vertex -0.000252 -0.000713 0.050000
vertex -0.000289 -0.000698 0.050000
vertex -0.000326 -0.000682 0.050000
endloop
endfacet
facet normal 0.000000 -0.997920 -0.064463
outer loop
vertex -0.000357 -0.000667 0.050000
vertex -0.000357 -0.000667 0.050000
vertex -0.000386 -0.000650 0.050000
endloop
endfacet
facet normal 0.000000 0.000000 -1.000000
outer loop
vertex -0.000252 -0.000713 0.050000
vertex -0.000326 -0.000682 0.050000
vertex -0.000357 -0.000667 0.050000
endloop
endfacet
facet normal 0.000000 0.000000 -1.000000
outer loop
vertex -0.000147 -0.000741 0.050000
vertex -0.000220 -0.000724 0.050000
vertex -0.000252 -0.000713 0.050000
endloop
endfacet
facet normal 0.000000 0.000000 -1.000000
outer loop
vertex -0.000040 -0.000755 0.050000
vertex -0.000074 -0.000753 0.050000
vertex -0.000147 -0.000741 0.050000
endloop
endfacet
facet normal 0.000000 -0.002370 -0.999997
outer loop
vertex 0.000074 -0.000753 0.050000
vertex 0.000040 -0.000755 0.050000
vertex -0.000040 -0.000755 0.050000
endloop
endfacet
facet normal -0.000254 0.000000 -1.000000
outer loop
vertex 0.000220 -0.000724 0.050000
vertex 0.000147 -0.000741 0.050000
vertex 0.000074 -0.000753 0.050000
endloop
endfacet
facet normal 0.736623 -0.649298 -0.189207
outer loop
vertex 0.000252 -0.000713 0.050000
vertex 0.000220 -0.000724 0.050000
vertex 0.000220 -0.000724 0.050000
endloop
endfacet
facet normal 0.000000 0.002170 -0.999998
outer loop
vertex 0.000326 -0.000682 0.050000
vertex 0.000289 -0.000698 0.050000
vertex 0.000252 -0.000713 0.050000
endloop
endfacet
facet normal 0.965825 -0.000147 -0.259195
outer loop
vertex 0.000386 -0.000650 0.050000
vertex 0.000357 -0.000667 0.050000
vertex 0.000357 -0.000667 0.050000
endloop
endfacet
facet normal -0.002533 0.002172 -0.999994
outer loop
vertex 0.000357 -0.000667 0.050000
vertex 0.000326 -0.000682 0.050000
vertex 0.000252 -0.000713 0.050000
endloop
endfacet
facet normal 0.000000 0.000823 -1.000000
outer loop
vertex 0.000252 -0.000713 0.050000
vertex 0.000220 -0.000724 0.050000
vertex 0.000074 -0.000753 0.050000
endloop
endfacet
facet normal 0.000063 0.000000 -1.000000
outer loop
vertex 0.000074 -0.000753 0.050000
vertex -0.000040 -0.000755 0.050000
vertex -0.000147 -0.000741 0.050000
endloop
endfacet
facet normal 0.000000 0.000000 -1.000000
outer loop
vertex -0.000147 -0.000741 0.050000
vertex -0.000252 -0.000713 0.050000
vertex -0.000357 -0.000667 0.050000
endloop
endfacet
facet normal 0.003603 0.000000 -0.999994
outer loop
vertex -0.000357 -0.000667 0.050000
vertex -0.000386 -0.000650 0.050000
vertex -0.000420 -0.000628 0.050000
endloop
endfacet
facet normal 0.000000 0.000000 -1.000000
outer loop
vertex -0.000420 -0.000628 0.050000
vertex -0.000453 -0.000605 0.050000
vertex -0.000480 -0.000585 0.050000
endloop
endfacet
facet normal 0.007214 0.003224 -0.999969
outer loop
vertex -0.000480 -0.000585 0.050000
vertex -0.000505 -0.000562 0.050000
vertex -0.000534 -0.000534 0.050000
endloop
endfacet
facet normal -0.614900 0.755088 -0.227466
outer loop
vertex -0.000420 -0.000628 0.050000
vertex -0.000480 -0.000585 0.050000
vertex -0.000480 -0.000585 0.050000
endloop
endfacet
facet normal -0.000134 0.000000 -1.000000
outer loop
vertex -0.000147 -0.000741 0.050000
vertex -0.000357 -0.000667 0.050000
vertex -0.000420 -0.000628 0.050000
endloop
endfacet
facet normal 0.000021 0.000076 -1.000000
outer loop
vertex 0.000252 -0.000713 0.050000
vertex 0.000074 -0.000753 0.050000
vertex -0.000147 -0.000741 0.050000
endloop
endfacet
facet normal 0.000000 -0.000903 -1.000000
outer loop
vertex 0.000386 -0.000650 0.050000
vertex 0.000357 -0.000667 0.050000
vertex 0.000252 -0.000713 0.050000
endloop
endfacet
facet normal 0.000000 0.001997 -0.999998
outer loop
vertex 0.000453 -0.000605 0.050000
vertex 0.000420 -0.000628 0.050000
vertex 0.000386 -0.000650 0.050000
endloop
endfacet
facet normal 0.905094 -0.401006 -0.141421
outer loop
vertex 0.000480 -0.000585 0.050000
vertex 0.000480 -0.000585 0.050000
vertex 0.000453 -0.000605 0.050000
endloop
endfacet
facet normal 0.000000 0.000000 -1.000000
outer loop
vertex 0.000534 -0.000534 0.050000
vertex 0.000505 -0.000562 0.050000
vertex 0.000480 -0.000585 0.050000
endloop
endfacet
facet normal 0.003608 0.000000 -0.999994
outer loop
vertex 0.000585 -0.000480 0.050000
vertex 0.000562 -0.000505 0.050000
vertex 0.000534 -0.000534 0.050000
endloop
endfacet
facet normal -0.751419 -0.638832 -0.165114
outer loop
vertex 0.000605 -0.000453 0.050000
vertex 0.000585 -0.000480 0.050000
vertex 0.000585 -0.000480 0.050000
endloop
endfacet
facet normal 0.003604 -0.002555 -0.999990
outer loop
vertex 0.000650 -0.000386 0.050000
vertex 0.000628 -0.000420 0.050000
vertex 0.000605 -0.000453 0.050000
endloop
endfacet
facet normal 0.997537 0.000000 -0.070139
outer loop
vertex 0.000667 -0.000357 0.050000
vertex 0.000667 -0.000357 0.050000
vertex 0.000650 -0.000386 0.050000
endloop
endfacet
facet normal -0.003604 0.000949 -0.999993
outer loop
vertex 0.000698 -0.000289 0.050000
vertex 0.000682 -0.000326 0.050000
vertex 0.000667 -0.000357 0.050000
endloop
endfacet
facet normal 0.000000 0.000000 -1.000000
outer loop
vertex 0.000724 -0.000220 0.050000
vertex 0.000713 -0.000252 0.050000
vertex 0.000698 -0.000289 0.050000
endloop
endfacet
facet normal 0.383524 0.000000 -0.923531
outer loop
vertex 0.000733 -0.000187 0.050000
vertex 0.000724 -0.000220 0.050000
vertex 0.000724 -0.000220 0.050000
endloop
endfacet
facet normal 0.000000 0.000507 -1.000000
outer loop
vertex 0.000748 -0.000108 0.050000
vertex 0.000741 -0.000147 0.050000
vertex 0.000733 -0.000187 0.050000
endloop
endfacet
facet normal 0.000000 0.000000 -1.000000
outer loop
vertex 0.000753 -0.000074 0.050000
vertex 0.000753 -0.000074 0.050000
vertex 0.000748 -0.000108 0.050000
endloop
endfacet
facet normal 0.007223 0.000000 -0.999974
outer loop
vertex 0.000756 -0.000000 0.050000
vertex 0.000755 -0.000040 0.050000
vertex 0.000753 -0.000074 0.050000
endloop
endfacet
facet normal -0.007223 0.000000 -0.999974
outer loop
vertex 0.000753 0.000074 0.050000
vertex 0.000755 0.000040 0.050000
vertex 0.000756 -0.000000 0.050000
endloop
endfacet
facet normal -0.002577 0.000000 -0.999997
outer loop
vertex 0.000748 0.000108 0.050000
vertex 0.000753 0.000074 0.050000
vertex 0.000753 0.000074 0.050000
endloop
endfacet
facet normal 0.007216 0.000417 -0.999974
outer loop
vertex 0.000733 0.000187 0.050000
vertex 0.000741 0.000147 0.050000
vertex 0.000748 0.000108 0.050000
endloop
endfacet
facet normal -0.901014 0.000000 -0.433789
outer loop
vertex 0.000724 0.000220 0.050000
vertex 0.000724 0.000220 0.050000
vertex 0.000733 0.000187 0.050000
endloop
endfacet
facet normal 0.003599 -0.000645 -0.999993
outer loop
vertex 0.000698 0.000289 0.050000
vertex 0.000713 0.000252 0.050000
vertex 0.000724 0.000220 0.050000
endloop
endfacet
facet normal -0.003607 -0.000891 -0.999993
outer loop
vertex 0.000667 0.000357 0.050000
vertex 0.000682 0.000326 0.050000
vertex 0.000698 0.000289 0.050000
endloop
endfacet
facet normal -0.943404 0.000000 -0.331645
outer loop
vertex 0.000650 0.000386 0.050000
vertex 0.000667 0.000357 0.050000
vertex 0.000667 0.000357 0.050000
endloop
endfacet
facet normal 0.003608 0.000000 -0.999994
outer loop
vertex 0.000605 0.000453 0.050000
vertex 0.000628 0.000420 0.050000
vertex 0.000650 0.000386 0.050000
endloop
endfacet
facet normal 0.944160 0.321126 -0.073762
outer loop
vertex 0.000585 0.000480 0.050000
vertex 0.000585 0.000480 0.050000
vertex 0.000605 0.000453 0.050000
endloop
endfacet
facet normal 0.000000 0.000000 -1.000000
outer loop
vertex 0.000534 0.000534 0.050000
vertex 0.000562 0.000505 0.050000
vertex 0.000585 0.000480 0.050000
endloop
endfacet
facet normal -0.003604 -0.003221 -0.999988
outer loop
vertex 0.000480 0.000585 0.050000
vertex 0.000505 0.000562 0.050000
vertex 0.000534 0.000534 0.050000
endloop
endfacet
facet normal 0.859904 0.476228 -0.183770
outer loop
vertex 0.000453 0.000605 0.050000
vertex 0.000480 0.000585 0.050000
vertex 0.000480 0.000585 0.050000
endloop
endfacet
facet normal 0.000000 -0.001997 -0.999998
outer loop
vertex 0.000386 0.000650 0.050000
vertex 0.000420 0.000628 0.050000
vertex 0.000453 0.000605 0.050000
endloop
endfacet
facet normal 0.000000 0.000651 -1.000000
outer loop
vertex 0.000357 0.000667 0.050000
vertex 0.000357 0.000667 0.050000
vertex 0.000386 0.000650 0.050000
endloop
endfacet
facet normal -0.003606 -0.003978 -0.999986
outer loop
vertex 0.000289 0.000698 0.050000
vertex 0.000326 0.000682 0.050000
vertex 0.000357 0.000667 0.050000
endloop
endfacet
facet normal 0.001802 0.000000 -0.999998
outer loop
vertex 0.000220 0.000724 0.050000
vertex 0.000252 0.000713 0.050000
vertex 0.000289 0.000698 0.050000
endloop
endfacet
facet normal 0.000000 0.000000 -1.000000
outer loop
vertex 0.000147 0.000741 0.050000
vertex 0.000187 0.000733 0.050000
vertex 0.000220 0.000724 0.050000
endloop
endfacet
facet normal 0.000000 0.942073 -0.335407
outer loop
vertex 0.000220 0.000724 0.050000
vertex 0.000220 0.000724 0.050000
vertex 0.000289 0.000698 0.050000
endloop
endfacet
facet normal 0.000501 0.001105 -0.999999
outer loop
vertex 0.000289 0.000698 0.050000
vertex 0.000357 0.000667 0.050000
vertex 0.000386 0.000650 0.050000
endloop
endfacet
facet normal 0.000000 0.001946 -0.999998
outer loop
vertex 0.000386 0.000650 0.050000
vertex 0.000453 0.000605 0.050000
vertex 0.000480 0.000585 0.050000
endloop
endfacet
facet normal 0.000000 0.000000 -1.000000
outer loop
vertex 0.000480 0.000585 0.050000
vertex 0.000534 0.000534 0.050000
vertex 0.000585 0.000480 0.050000
endloop
endfacet
facet normal 0.002529 0.000924 -0.999996
outer loop
vertex 0.000585 0.000480 0.050000
vertex 0.000605 0.000453 0.050000
vertex 0.000650 0.000386 0.050000
endloop
endfacet
facet normal -0.004010 -0.000792 -0.999992
outer loop
vertex 0.000650 0.000386 0.050000
vertex 0.000667 0.000357 0.050000
vertex 0.000698 0.000289 0.050000
endloop
endfacet
facet normal 0.000000 -0.000145 -1.000000
outer loop
vertex 0.000698 0.000289 0.050000
vertex 0.000724 0.000220 0.050000
vertex 0.000733 0.000187 0.050000
endloop
endfacet
facet normal 0.000000 0.000417 -1.000000
outer loop
vertex 0.000733 0.000187 0.050000
vertex 0.000748 0.000108 0.050000
vertex 0.000753 0.000074 0.050000
endloop
endfacet
facet normal -0.001014 0.000000 -1.000000
outer loop
vertex 0.000753 0.000074 0.050000
vertex 0.000756 -0.000000 0.050000
vertex 0.000753 -0.000074 0.050000
endloop
endfacet
facet normal 0.000000 -0.000417 -1.000000
outer loop
vertex 0.000753 -0.000074 0.050000
vertex 0.000748 -0.000108 0.050000
vertex 0.000733 -0.000187 0.050000
endloop
endfacet
facet normal 0.000000 0.000000 -1.000000
outer loop
vertex 0.000733 -0.000187 0.050000
vertex 0.000724 -0.000220 0.050000
vertex 0.000698 -0.000289 0.050000
endloop
endfacet
facet normal 0.000000 0.000231 -1.000000
outer loop
vertex 0.000698 -0.000289 0.050000
vertex 0.000667 -0.000357 0.050000
vertex 0.000650 -0.000386 0.050000
endloop
endfacet
facet normal 0.000000 0.000862 -1.000000
outer loop
vertex 0.000650 -0.000386 0.050000
vertex 0.000605 -0.000453 0.050000
vertex 0.000585 -0.000480 0.050000
endloop
endfacet
facet normal -0.001013 0.000000 -1.000000
outer loop
vertex 0.000585 -0.000480 0.050000
vertex 0.000534 -0.000534 0.050000
vertex 0.000480 -0.000585 0.050000
endloop
endfacet
facet normal 0.000000 -0.001946 -0.999998
outer loop
vertex 0.000480 -0.000585 0.050000
vertex 0.000453 -0.000605 0.050000
vertex 0.000386 -0.000650 0.050000
endloop
endfacet
facet normal 0.000021 -0.000093 -1.000000
outer loop
vertex 0.000386 -0.000650 0.050000
vertex 0.000252 -0.000713 0.050000
vertex -0.000147 -0.000741 0.050000
endloop
endfacet
facet normal 0.000000 0.000197 -1.000000
outer loop
vertex -0.000147 -0.000741 0.050000
vertex -0.000420 -0.000628 0.050000
vertex -0.000480 -0.000585 0.050000
endloop
endfacet
facet normal 0.001267 0.000000 -0.999999
outer loop
vertex -0.000480 -0.000585 0.050000
vertex -0.000534 -0.000534 0.050000
vertex -0.000562 -0.000505 0.050000
endloop
endfacet
facet normal 0.000000 0.000000 -1.000000
outer loop
vertex -0.000562 -0.000505 0.050000
vertex -0.000585 -0.000480 0.050000
vertex -0.000585 -0.000480 0.050000
endloop
endfacet
facet normal 0.000000 0.001355 -0.999999
outer loop
vertex -0.000585 -0.000480 0.050000
vertex -0.000605 -0.000453 0.050000
vertex -0.000628 -0.000420 0.050000
endloop
endfacet
facet normal 0.003609 0.000000 -0.999994
outer loop
vertex -0.000628 -0.000420 0.050000
vertex -0.000650 -0.000386 0.050000
vertex -0.000667 -0.000357 0.050000
endloop
endfacet
facet normal 0.000000 0.000312 -1.000000
outer loop
vertex -0.000667 -0.000357 0.050000
vertex -0.000667 -0.000357 0.050000
vertex -0.000682 -0.000326 0.050000
endloop
endfacet
facet normal -0.003604 0.000000 -0.999994
outer loop
vertex -0.000682 -0.000326 0.050000
vertex -0.000698 -0.000289 0.050000
vertex -0.000713 -0.000252 0.050000
endloop
endfacet
facet normal -0.999497 0.000000 -0.031723
outer loop
vertex -0.000713 -0.000252 0.050000
vertex -0.000724 -0.000220 0.050000
vertex -0.000724 -0.000220 0.050000
endloop
endfacet
facet normal -0.007220 -0.000508 -0.999974
outer loop
vertex -0.000724 -0.000220 0.050000
vertex -0.000733 -0.000187 0.050000
vertex -0.000741 -0.000147 0.050000
endloop
endfacet
facet normal 0.010822 0.000680 -0.999941
outer loop
vertex -0.000741 -0.000147 0.050000
vertex -0.000748 -0.000108 0.050000
vertex -0.000753 -0.000074 0.050000
endloop
endfacet
facet normal 0.878625 0.032230 -0.476423
outer loop
vertex -0.000753 -0.000074 0.050000
vertex -0.000753 -0.000074 0.050000
vertex -0.000755 -0.000040 0.050000
endloop
endfacet
facet normal 0.007176 0.000000 -0.999974
outer loop
vertex -0.000755 -0.000040 0.050000
vertex -0.000756 -0.000000 0.050000
vertex -0.000755 0.000040 0.050000
endloop
endfacet
facet normal 0.827193 -0.037927 -0.560636
outer loop
vertex -0.000755 0.000040 0.050000
vertex -0.000753 0.000074 0.050000
vertex -0.000753 0.000074 0.050000
endloop
endfacet
facet normal 0.014443 -0.000680 -0.999895
outer loop
vertex -0.000753 0.000074 0.050000
vertex -0.000748 0.000108 0.050000
vertex -0.000741 0.000147 0.050000
endloop
endfacet
facet normal 0.000000 0.000509 -1.000000
outer loop
vertex -0.000741 0.000147 0.050000
vertex -0.000733 0.000187 0.050000
vertex -0.000724 0.000220 0.050000
endloop
endfacet
facet normal 0.000000 0.000000 -1.000000
outer loop
vertex -0.000724 0.000220 0.050000
vertex -0.000724 0.000220 0.050000
vertex -0.000713 0.000252 0.050000
endloop
endfacet
facet normal -0.003604 0.000000 -0.999994
outer loop
vertex -0.000713 0.000252 0.050000
vertex -0.000698 0.000289 0.050000
vertex -0.000682 0.000326 0.050000
endloop
endfacet
facet normal 0.881630 -0.000134 -0.471942
outer loop
vertex -0.000682 0.000326 0.050000
vertex -0.000667 0.000357 0.050000
vertex -0.000667 0.000357 0.050000
endloop
endfacet
facet normal 0.000000 0.000000 -1.000000
outer loop
vertex -0.000667 0.000357 0.050000
vertex -0.000650 0.000386 0.050000
vertex -0.000628 0.000420 0.050000
endloop
endfacet
facet normal 0.000000 -0.001355 -0.999999
outer loop
vertex -0.000628 0.000420 0.050000
vertex -0.000605 0.000453 0.050000
vertex -0.000585 0.000480 0.050000
endloop
endfacet
facet normal -0.999725 0.000000 -0.023431
outer loop
vertex -0.000585 0.000480 0.050000
vertex -0.000585 0.000480 0.050000
vertex -0.000562 0.000505 0.050000
endloop
endfacet
facet normal -0.007220 0.001645 -0.999973
outer loop
vertex -0.000562 0.000505 0.050000
vertex -0.000534 0.000534 0.050000
vertex -0.000505 0.000562 0.050000
endloop
endfacet
facet normal 0.000000 -0.943057 -0.332630
outer loop
vertex -0.000480 0.000585 0.050000
vertex -0.000480 0.000585 0.050000
vertex -0.000453 0.000605 0.050000
endloop
endfacet
facet normal 0.005068 -0.001710 -0.999986
outer loop
vertex -0.000562 0.000505 0.050000
vertex -0.000505 0.000562 0.050000
vertex -0.000480 0.000585 0.050000
endloop
endfacet
facet normal 0.001001 0.000369 -0.999999
outer loop
vertex -0.000628 0.000420 0.050000
vertex -0.000585 0.000480 0.050000
vertex -0.000562 0.000505 0.050000
endloop
endfacet
facet normal 0.002002 -0.000634 -0.999998
outer loop
vertex -0.000682 0.000326 0.050000
vertex -0.000667 0.000357 0.050000
vertex -0.000628 0.000420 0.050000
endloop
endfacet
facet normal -0.002532 0.000637 -0.999997
outer loop
vertex -0.000724 0.000220 0.050000
vertex -0.000713 0.000252 0.050000
vertex -0.000682 0.000326 0.050000
endloop
endfacet
facet normal -0.002030 0.000096 -0.999998
outer loop
vertex -0.000753 0.000074 0.050000
vertex -0.000741 0.000147 0.050000
vertex -0.000724 0.000220 0.050000
endloop
endfacet
facet normal -0.002527 0.000000 -0.999997
outer loop
vertex -0.000755 -0.000040 0.050000
vertex -0.000755 0.000040 0.050000
vertex -0.000753 0.000074 0.050000
endloop
endfacet
facet normal -0.004010 -0.000189 -0.999992
outer loop
vertex -0.000741 -0.000147 0.050000
vertex -0.000753 -0.000074 0.050000
vertex -0.000755 -0.000040 0.050000
endloop
endfacet
facet normal 0.004004 0.000465 -0.999992
outer loop
vertex -0.000713 -0.000252 0.050000
vertex -0.000724 -0.000220 0.050000
vertex -0.000741 -0.000147 0.050000
endloop
endfacet
facet normal 0.000000 -0.000637 -1.000000
outer loop
vertex -0.000667 -0.000357 0.050000
vertex -0.000682 -0.000326 0.050000
vertex -0.000713 -0.000252 0.050000
endloop
endfacet
facet normal 0.000000 0.000321 -1.000000
outer loop
vertex -0.000585 -0.000480 0.050000
vertex -0.000628 -0.000420 0.050000
vertex -0.000667 -0.000357 0.050000
endloop
endfacet
facet normal -0.000685 0.000000 -1.000000
outer loop
vertex -0.000480 -0.000585 0.050000
vertex -0.000562 -0.000505 0.050000
vertex -0.000585 -0.000480 0.050000
endloop
endfacet
facet normal 0.000000 0.000017 -1.000000
outer loop
vertex 0.000386 -0.000650 0.050000
vertex -0.000147 -0.000741 0.050000
vertex -0.000480 -0.000585 0.050000
endloop
endfacet
facet normal 0.000153 0.000000 -1.000000
outer loop
vertex 0.000585 -0.000480 0.050000
vertex 0.000480 -0.000585 0.050000
vertex 0.000386 -0.000650 0.050000
endloop
endfacet
facet normal 0.001005 -0.000468 -0.999999
outer loop
vertex 0.000698 -0.000289 0.050000
vertex 0.000650 -0.000386 0.050000
vertex 0.000585 -0.000480 0.050000
endloop
endfacet
facet normal 0.000502 0.000000 -1.000000
outer loop
vertex 0.000753 -0.000074 0.050000
vertex 0.000733 -0.000187 0.050000
vertex 0.000698 -0.000289 0.050000
endloop
endfacet
facet normal -0.000305 0.000000 -1.000000
outer loop
vertex 0.000733 0.000187 0.050000
vertex 0.000753 0.000074 0.050000
vertex 0.000753 -0.000074 0.050000
endloop
endfacet
facet normal 0.000565 0.000111 -1.000000
outer loop
vertex 0.000650 0.000386 0.050000
vertex 0.000698 0.000289 0.050000
vertex 0.000733 0.000187 0.050000
endloop
endfacet
facet normal 0.000000 -0.000131 -1.000000
outer loop
vertex 0.000480 0.000585 0.050000
vertex 0.000585 0.000480 0.050000
vertex 0.000650 0.000386 0.050000
endloop
endfacet
facet normal 0.000000 -0.000193 -1.000000
outer loop
vertex 0.000289 0.000698 0.050000
vertex 0.000386 0.000650 0.050000
vertex 0.000480 0.000585 0.050000
endloop
endfacet
facet normal 0.000000 -0.000426 -1.000000
outer loop
vertex 0.000147 0.000741 0.050000
vertex 0.000220 0.000724 0.050000
vertex 0.000289 0.000698 0.050000
endloop
endfacet
facet normal 0.000000 0.004330 -0.999991
outer loop
vertex 0.000074 0.000753 0.050000
vertex 0.000108 0.000748 0.050000
vertex 0.000147 0.000741 0.050000
endloop
endfacet
facet normal -0.535997 -0.001308 -0.844219
outer loop
vertex 0.000040 0.000755 0.050000
vertex 0.000074 0.000753 0.050000
vertex 0.000074 0.000753 0.050000
endloop
endfacet
facet normal 0.000000 -0.002369 -0.999997
outer loop
vertex -0.000040 0.000755 0.050000
vertex 0.000000 0.000756 0.050000
vertex 0.000040 0.000755 0.050000
endloop
endfacet
facet normal 0.000000 0.000000 -1.000000
outer loop
vertex -0.000074 0.000753 0.050000
vertex -0.000074 0.000753 0.050000
vertex -0.000040 0.000755 0.050000
endloop
endfacet
facet normal 0.000000 0.000000 -1.000000
outer loop
vertex -0.000147 0.000741 0.050000
vertex -0.000108 0.000748 0.050000
vertex -0.000074 0.000753 0.050000
endloop
endfacet
facet normal 0.000000 0.004257 -0.999991
outer loop
vertex -0.000220 0.000724 0.050000
vertex -0.000187 0.000733 0.050000
vertex -0.000147 0.000741 0.050000
endloop
endfacet
facet normal 0.997373 0.000000 -0.072432
outer loop
vertex -0.000252 0.000713 0.050000
vertex -0.000220 0.000724 0.050000
vertex -0.000220 0.000724 0.050000
endloop
endfacet
facet normal -0.001802 0.000000 -0.999998
outer loop
vertex -0.000326 0.000682 0.050000
vertex -0.000289 0.000698 0.050000
vertex -0.000252 0.000713 0.050000
endloop
endfacet
facet normal -0.380040 0.919334 -0.101950
outer loop
vertex -0.000386 0.000650 0.050000
vertex -0.000357 0.000667 0.050000
vertex -0.000357 0.000667 0.050000
endloop
endfacet
facet normal 0.001266 0.000000 -0.999999
outer loop
vertex -0.000357 0.000667 0.050000
vertex -0.000326 0.000682 0.050000
vertex -0.000252 0.000713 0.050000
endloop
endfacet
facet normal -0.000501 0.000000 -1.000000
outer loop
vertex -0.000252 0.000713 0.050000
vertex -0.000220 0.000724 0.050000
vertex -0.000147 0.000741 0.050000
endloop
endfacet
facet normal -0.000250 0.000000 -1.000000
outer loop
vertex -0.000147 0.000741 0.050000
vertex -0.000074 0.000753 0.050000
vertex -0.000040 0.000755 0.050000
endloop
endfacet
facet normal 0.000000 0.002370 -0.999997
outer loop
vertex -0.000040 0.000755 0.050000
vertex 0.000040 0.000755 0.050000
vertex 0.000074 0.000753 0.050000
endloop
endfacet
facet normal 0.000000 -0.000179 -1.000000
outer loop
vertex 0.000074 0.000753 0.050000
vertex 0.000147 0.000741 0.050000
vertex 0.000289 0.000698 0.050000
endloop
endfacet
facet normal -0.000098 -0.000073 -1.000000
outer loop
vertex 0.000289 0.000698 0.050000
vertex 0.000480 0.000585 0.050000
vertex 0.000650 0.000386 0.050000
endloop
endfacet
facet normal 0.000104 -0.000004 -1.000000
outer loop
vertex 0.000650 0.000386 0.050000
vertex 0.000733 0.000187 0.050000
vertex 0.000753 -0.000074 0.050000
endloop
endfacet
facet normal 0.000000 0.000000 -1.000000
outer loop
vertex 0.000753 -0.000074 0.050000
vertex 0.000698 -0.000289 0.050000
vertex 0.000585 -0.000480 0.050000
endloop
endfacet
facet normal 0.000000 0.000005 -1.000000
outer loop
vertex 0.000585 -0.000480 0.050000
vertex 0.000386 -0.000650 0.050000
vertex -0.000480 -0.000585 0.050000
endloop
endfacet
facet normal -0.000212 -0.000091 -1.000000
outer loop
vertex -0.000480 -0.000585 0.050000
vertex -0.000585 -0.000480 0.050000
vertex -0.000667 -0.000357 0.050000
endloop
endfacet
facet normal -0.000502 -0.000058 -1.000000
outer loop
vertex -0.000667 -0.000357 0.050000
vertex -0.000713 -0.000252 0.050000
vertex -0.000741 -0.000147 0.050000
endloop
endfacet
facet normal 0.001005 0.000024 -0.999999
outer loop
vertex -0.000741 -0.000147 0.050000
vertex -0.000755 -0.000040 0.050000
vertex -0.000753 0.000074 0.050000
endloop
endfacet
facet normal 0.001526 -0.000088 -0.999999
outer loop
vertex -0.000753 0.000074 0.050000
vertex -0.000724 0.000220 0.050000
vertex -0.000682 0.000326 0.050000
endloop
endfacet
facet normal 0.000564 -0.000277 -1.000000
outer loop
vertex -0.000682 0.000326 0.050000
vertex -0.000628 0.000420 0.050000
vertex -0.000562 0.000505 0.050000
endloop
endfacet
facet normal -0.000527 0.000711 -1.000000
outer loop
vertex -0.000562 0.000505 0.050000
vertex -0.000480 0.000585 0.050000
vertex -0.000453 0.000605 0.050000
endloop
endfacet
facet normal 0.000000 0.000000 -1.000000
outer loop
vertex -0.000453 0.000605 0.050000
vertex -0.000420 0.000628 0.050000
vertex -0.000386 0.000650 0.050000
endloop
endfacet
facet normal 0.000000 0.000000 -1.000000
outer loop
vertex -0.000386 0.000650 0.050000
vertex -0.000357 0.000667 0.050000
vertex -0.000252 0.000713 0.050000
endloop
endfacet
facet normal -0.000071 0.000000 -1.000000
outer loop
vertex -0.000252 0.000713 0.050000
vertex -0.000147 0.000741 0.050000
vertex -0.000040 0.000755 0.050000
endloop
endfacet
facet normal 0.000000 -0.000074 -1.000000
outer loop
vertex -0.000040 0.000755 0.050000
vertex 0.000074 0.000753 0.050000
vertex 0.000289 0.000698 0.050000
endloop
endfacet
facet normal 0.000000 0.000010 -1.000000
outer loop
vertex 0.000289 0.000698 0.050000
vertex 0.000650 0.000386 0.050000
vertex 0.000753 -0.000074 0.050000
endloop
endfacet
facet normal -0.000007 0.000002 -1.000000
outer loop
vertex 0.000753 -0.000074 0.050000
vertex 0.000585 -0.000480 0.050000
vertex -0.000480 -0.000585 0.050000
endloop
endfacet
facet normal 0.000164 0.000044 -1.000000
outer loop
vertex -0.000480 -0.000585 0.050000
vertex -0.000667 -0.000357 0.050000
vertex -0.000741 -0.000147 0.050000
endloop
endfacet
facet normal 0.000000 0.000000 -1.000000
outer loop
vertex -0.000741 -0.000147 0.050000
vertex -0.000753 0.000074 0.050000
vertex -0.000682 0.000326 0.050000
endloop
endfacet
facet normal -0.000357 0.000058 -1.000000
outer loop
vertex -0.000682 0.000326 0.050000
vertex -0.000562 0.000505 0.050000
vertex -0.000453 0.000605 0.050000
endloop
endfacet
facet normal 0.000000 0.000000 -1.000000
outer loop
vertex -0.000453 0.000605 0.050000
vertex -0.000386 0.000650 0.050000
vertex -0.000252 0.000713 0.050000
endloop
endfacet
facet normal 0.000000 -0.000030 -1.000000
outer loop
vertex -0.000252 0.000713 0.050000
vertex -0.000040 0.000755 0.050000
vertex 0.000289 0.000698 0.050000
endloop
endfacet
facet normal -0.000012 0.000002 -1.000000
outer loop
vertex 0.000289 0.000698 0.050000
vertex 0.000753 -0.000074 0.050000
vertex -0.000480 -0.000585 0.050000
endloop
endfacet
facet normal -0.000049 0.000000 -1.000000
outer loop
vertex -0.000480 -0.000585 0.050000
vertex -0.000741 -0.000147 0.050000
vertex -0.000682 0.000326 0.050000
endloop
endfacet
facet normal 0.000087 -0.000024 -1.000000
outer loop
vertex -0.000682 0.000326 0.050000
vertex -0.000453 0.000605 0.050000
vertex -0.000252 0.000713 0.050000
endloop
endfacet
facet normal 0.000041 -0.000004 -1.000000
outer loop
vertex -0.000252 0.000713 0.050000
vertex 0.000289 0.000698 0.050000
vertex -0.000480 -0.000585 0.050000
endloop
endfacet
facet normal -0.000023 -0.000002 -1.000000
outer loop
vertex -0.000480 -0.000585 0.050000
vertex -0.000682 0.000326 0.050000
vertex -0.000252 0.000713 0.050000
endloop
endfacet
endsolid Exported from Blender-2.81 (sub 16)
