solid Exported from Blender-2.80 (sub 75)
facet normal 0.001488 0.000000 0.999999
outer loop
vertex -0.000220 0.000724 -0.020000
vertex -0.000240 0.000717 -0.020000
vertex -0.000264 0.000708 -0.020000
endloop
endfacet
facet normal -0.001489 0.000000 0.999999
outer loop
vertex -0.000264 0.000708 -0.020000
vertex -0.000289 0.000698 -0.020000
vertex -0.000314 0.000687 -0.020000
endloop
endfacet
facet normal -0.001489 0.000000 0.999999
outer loop
vertex -0.000314 0.000687 -0.020000
vertex -0.000337 0.000677 -0.020000
vertex -0.000357 0.000667 -0.020000
endloop
endfacet
facet normal -0.002977 0.000000 0.999996
outer loop
vertex -0.000357 0.000667 -0.020000
vertex -0.000376 0.000656 -0.020000
vertex -0.000397 0.000643 -0.020000
endloop
endfacet
facet normal 0.426458 0.000000 0.904507
outer loop
vertex -0.000314 0.000687 -0.020000
vertex -0.000357 0.000667 -0.020000
vertex -0.000357 0.000667 -0.020000
endloop
endfacet
facet normal 0.000000 0.000000 1.000000
outer loop
vertex -0.000220 0.000724 -0.020000
vertex -0.000264 0.000708 -0.020000
vertex -0.000314 0.000687 -0.020000
endloop
endfacet
facet normal 0.748578 0.000000 -0.663047
outer loop
vertex -0.000199 0.000730 -0.020000
vertex -0.000220 0.000724 -0.020000
vertex -0.000220 0.000724 -0.020000
endloop
endfacet
facet normal 0.000000 0.000000 1.000000
outer loop
vertex -0.000147 0.000741 -0.020000
vertex -0.000174 0.000736 -0.020000
vertex -0.000199 0.000730 -0.020000
endloop
endfacet
facet normal 0.000000 0.000000 1.000000
outer loop
vertex -0.000096 0.000750 -0.020000
vertex -0.000121 0.000746 -0.020000
vertex -0.000147 0.000741 -0.020000
endloop
endfacet
facet normal 0.840881 0.000000 0.541220
outer loop
vertex -0.000052 0.000754 -0.020000
vertex -0.000074 0.000753 -0.020000
vertex -0.000074 0.000753 -0.020000
endloop
endfacet
facet normal 0.000000 0.000000 1.000000
outer loop
vertex -0.000074 0.000753 -0.020000
vertex -0.000096 0.000750 -0.020000
vertex -0.000147 0.000741 -0.020000
endloop
endfacet
facet normal 0.000254 0.000000 1.000000
outer loop
vertex -0.000147 0.000741 -0.020000
vertex -0.000199 0.000730 -0.020000
vertex -0.000220 0.000724 -0.020000
endloop
endfacet
facet normal -0.000143 0.000000 1.000000
outer loop
vertex -0.000220 0.000724 -0.020000
vertex -0.000314 0.000687 -0.020000
vertex -0.000357 0.000667 -0.020000
endloop
endfacet
facet normal 0.000000 0.000000 1.000000
outer loop
vertex -0.000357 0.000667 -0.020000
vertex -0.000397 0.000643 -0.020000
vertex -0.000420 0.000628 -0.020000
endloop
endfacet
facet normal 0.000000 0.000000 1.000000
outer loop
vertex -0.000420 0.000628 -0.020000
vertex -0.000442 0.000613 -0.020000
vertex -0.000463 0.000598 -0.020000
endloop
endfacet
facet normal 0.000000 0.000000 -1.000000
outer loop
vertex -0.000480 0.000585 -0.020000
vertex -0.000480 0.000585 -0.020000
vertex -0.000496 0.000570 -0.020000
endloop
endfacet
facet normal 0.000000 0.000000 1.000000
outer loop
vertex -0.000420 0.000628 -0.020000
vertex -0.000463 0.000598 -0.020000
vertex -0.000480 0.000585 -0.020000
endloop
endfacet
facet normal 0.000133 0.000000 1.000000
outer loop
vertex -0.000220 0.000724 -0.020000
vertex -0.000357 0.000667 -0.020000
vertex -0.000420 0.000628 -0.020000
endloop
endfacet
facet normal -0.000127 0.000000 1.000000
outer loop
vertex -0.000074 0.000753 -0.020000
vertex -0.000147 0.000741 -0.020000
vertex -0.000220 0.000724 -0.020000
endloop
endfacet
facet normal -0.000372 0.000000 1.000000
outer loop
vertex -0.000027 0.000755 -0.020000
vertex -0.000052 0.000754 -0.020000
vertex -0.000074 0.000753 -0.020000
endloop
endfacet
facet normal 0.000000 0.000000 1.000000
outer loop
vertex 0.000027 0.000755 -0.020000
vertex -0.000000 0.000756 -0.020000
vertex -0.000027 0.000755 -0.020000
endloop
endfacet
facet normal -0.000186 0.000000 1.000000
outer loop
vertex 0.000074 0.000753 -0.020000
vertex 0.000052 0.000754 -0.020000
vertex 0.000027 0.000755 -0.020000
endloop
endfacet
facet normal 0.000372 0.000000 1.000000
outer loop
vertex 0.000121 0.000746 -0.020000
vertex 0.000096 0.000750 -0.020000
vertex 0.000074 0.000753 -0.020000
endloop
endfacet
facet normal 1.000000 0.000000 0.000000
outer loop
vertex 0.000074 0.000753 -0.020000
vertex 0.000074 0.000753 -0.020000
vertex 0.000027 0.000755 -0.020000
endloop
endfacet
facet normal 0.000000 0.000000 1.000000
outer loop
vertex 0.000027 0.000755 -0.020000
vertex -0.000027 0.000755 -0.020000
vertex -0.000074 0.000753 -0.020000
endloop
endfacet
facet normal 0.000000 0.000000 1.000000
outer loop
vertex -0.000074 0.000753 -0.020000
vertex -0.000220 0.000724 -0.020000
vertex -0.000420 0.000628 -0.020000
endloop
endfacet
facet normal 0.000000 0.000000 1.000000
outer loop
vertex -0.000420 0.000628 -0.020000
vertex -0.000480 0.000585 -0.020000
vertex -0.000496 0.000570 -0.020000
endloop
endfacet
facet normal 0.002976 0.000000 0.999996
outer loop
vertex -0.000496 0.000570 -0.020000
vertex -0.000515 0.000553 -0.020000
vertex -0.000534 0.000534 -0.020000
endloop
endfacet
facet normal -0.002977 0.000000 0.999996
outer loop
vertex -0.000534 0.000534 -0.020000
vertex -0.000553 0.000515 -0.020000
vertex -0.000570 0.000496 -0.020000
endloop
endfacet
facet normal 0.917538 0.000000 -0.397649
outer loop
vertex -0.000570 0.000496 -0.020000
vertex -0.000585 0.000480 -0.020000
vertex -0.000585 0.000480 -0.020000
endloop
endfacet
facet normal 0.002977 0.000000 0.999996
outer loop
vertex -0.000585 0.000480 -0.020000
vertex -0.000598 0.000463 -0.020000
vertex -0.000613 0.000442 -0.020000
endloop
endfacet
facet normal 0.000000 0.000000 1.000000
outer loop
vertex -0.000613 0.000442 -0.020000
vertex -0.000628 0.000420 -0.020000
vertex -0.000643 0.000397 -0.020000
endloop
endfacet
facet normal 0.000000 0.000000 1.000000
outer loop
vertex -0.000643 0.000397 -0.020000
vertex -0.000656 0.000376 -0.020000
vertex -0.000667 0.000357 -0.020000
endloop
endfacet
facet normal 0.000000 0.000000 1.000000
outer loop
vertex -0.000667 0.000357 -0.020000
vertex -0.000667 0.000357 -0.020000
vertex -0.000677 0.000337 -0.020000
endloop
endfacet
facet normal 0.000000 0.000000 1.000000
outer loop
vertex -0.000677 0.000337 -0.020000
vertex -0.000687 0.000314 -0.020000
vertex -0.000698 0.000289 -0.020000
endloop
endfacet
facet normal 0.000000 0.000000 1.000000
outer loop
vertex -0.000698 0.000289 -0.020000
vertex -0.000708 0.000264 -0.020000
vertex -0.000717 0.000240 -0.020000
endloop
endfacet
facet normal 0.999961 0.000000 -0.008791
outer loop
vertex -0.000717 0.000240 -0.020000
vertex -0.000724 0.000220 -0.020000
vertex -0.000724 0.000220 -0.020000
endloop
endfacet
facet normal 0.000000 0.000000 1.000000
outer loop
vertex -0.000724 0.000220 -0.020000
vertex -0.000730 0.000199 -0.020000
vertex -0.000736 0.000174 -0.020000
endloop
endfacet
facet normal -0.005953 0.000000 0.999982
outer loop
vertex -0.000736 0.000174 -0.020000
vertex -0.000741 0.000147 -0.020000
vertex -0.000746 0.000121 -0.020000
endloop
endfacet
facet normal 0.000000 0.000000 1.000000
outer loop
vertex -0.000746 0.000121 -0.020000
vertex -0.000750 0.000096 -0.020000
vertex -0.000753 0.000074 -0.020000
endloop
endfacet
facet normal 0.000000 0.000000 1.000000
outer loop
vertex -0.000753 0.000074 -0.020000
vertex -0.000753 0.000074 -0.020000
vertex -0.000754 0.000052 -0.020000
endloop
endfacet
facet normal -0.005954 0.000000 0.999982
outer loop
vertex -0.000754 0.000052 -0.020000
vertex -0.000755 0.000027 -0.020000
vertex -0.000756 0.000000 -0.020000
endloop
endfacet
facet normal 0.000000 0.000000 1.000000
outer loop
vertex -0.000756 0.000000 -0.020000
vertex -0.000755 -0.000027 -0.020000
vertex -0.000754 -0.000052 -0.020000
endloop
endfacet
facet normal -0.907434 0.000000 0.420195
outer loop
vertex -0.000754 -0.000052 -0.020000
vertex -0.000753 -0.000074 -0.020000
vertex -0.000753 -0.000074 -0.020000
endloop
endfacet
facet normal 0.000000 0.000000 1.000000
outer loop
vertex -0.000753 -0.000074 -0.020000
vertex -0.000750 -0.000096 -0.020000
vertex -0.000746 -0.000121 -0.020000
endloop
endfacet
facet normal -0.005953 0.000000 0.999982
outer loop
vertex -0.000746 -0.000121 -0.020000
vertex -0.000741 -0.000147 -0.020000
vertex -0.000736 -0.000174 -0.020000
endloop
endfacet
facet normal 0.000000 0.000000 1.000000
outer loop
vertex -0.000736 -0.000174 -0.020000
vertex -0.000730 -0.000199 -0.020000
vertex -0.000724 -0.000220 -0.020000
endloop
endfacet
facet normal -0.002977 0.000000 0.999996
outer loop
vertex -0.000724 -0.000220 -0.020000
vertex -0.000717 -0.000240 -0.020000
vertex -0.000708 -0.000264 -0.020000
endloop
endfacet
facet normal -0.985269 0.000000 0.171012
outer loop
vertex -0.000736 -0.000174 -0.020000
vertex -0.000724 -0.000220 -0.020000
vertex -0.000724 -0.000220 -0.020000
endloop
endfacet
facet normal 0.000000 0.000000 1.000000
outer loop
vertex -0.000753 -0.000074 -0.020000
vertex -0.000746 -0.000121 -0.020000
vertex -0.000736 -0.000174 -0.020000
endloop
endfacet
facet normal 0.002031 0.000000 0.999998
outer loop
vertex -0.000756 0.000000 -0.020000
vertex -0.000754 -0.000052 -0.020000
vertex -0.000753 -0.000074 -0.020000
endloop
endfacet
facet normal 0.004061 0.000000 0.999992
outer loop
vertex -0.000753 0.000074 -0.020000
vertex -0.000754 0.000052 -0.020000
vertex -0.000756 0.000000 -0.020000
endloop
endfacet
facet normal 0.001568 0.000000 0.999999
outer loop
vertex -0.000736 0.000174 -0.020000
vertex -0.000746 0.000121 -0.020000
vertex -0.000753 0.000074 -0.020000
endloop
endfacet
facet normal 0.000000 0.000000 1.000000
outer loop
vertex -0.000717 0.000240 -0.020000
vertex -0.000724 0.000220 -0.020000
vertex -0.000736 0.000174 -0.020000
endloop
endfacet
facet normal 0.000000 0.000000 1.000000
outer loop
vertex -0.000677 0.000337 -0.020000
vertex -0.000698 0.000289 -0.020000
vertex -0.000717 0.000240 -0.020000
endloop
endfacet
facet normal 0.000000 0.000000 1.000000
outer loop
vertex -0.000643 0.000397 -0.020000
vertex -0.000667 0.000357 -0.020000
vertex -0.000677 0.000337 -0.020000
endloop
endfacet
facet normal -0.000784 0.000000 1.000000
outer loop
vertex -0.000585 0.000480 -0.020000
vertex -0.000613 0.000442 -0.020000
vertex -0.000643 0.000397 -0.020000
endloop
endfacet
facet normal 0.001015 0.000000 1.000000
outer loop
vertex -0.000534 0.000534 -0.020000
vertex -0.000570 0.000496 -0.020000
vertex -0.000585 0.000480 -0.020000
endloop
endfacet
facet normal 0.000000 0.000000 1.000000
outer loop
vertex -0.000420 0.000628 -0.020000
vertex -0.000496 0.000570 -0.020000
vertex -0.000534 0.000534 -0.020000
endloop
endfacet
facet normal 0.000000 0.000000 1.000000
outer loop
vertex 0.000027 0.000755 -0.020000
vertex -0.000074 0.000753 -0.020000
vertex -0.000420 0.000628 -0.020000
endloop
endfacet
facet normal 0.000000 0.000000 1.000000
outer loop
vertex 0.000121 0.000746 -0.020000
vertex 0.000074 0.000753 -0.020000
vertex 0.000027 0.000755 -0.020000
endloop
endfacet
facet normal -0.000744 0.000000 1.000000
outer loop
vertex 0.000174 0.000736 -0.020000
vertex 0.000147 0.000741 -0.020000
vertex 0.000121 0.000746 -0.020000
endloop
endfacet
facet normal 0.000000 0.000000 1.000000
outer loop
vertex 0.000220 0.000724 -0.020000
vertex 0.000199 0.000730 -0.020000
vertex 0.000174 0.000736 -0.020000
endloop
endfacet
facet normal -0.001488 0.000000 0.999999
outer loop
vertex 0.000264 0.000708 -0.020000
vertex 0.000240 0.000717 -0.020000
vertex 0.000220 0.000724 -0.020000
endloop
endfacet
facet normal 0.000000 0.000000 1.000000
outer loop
vertex 0.000220 0.000724 -0.020000
vertex 0.000220 0.000724 -0.020000
vertex 0.000174 0.000736 -0.020000
endloop
endfacet
facet normal 0.000000 0.000000 1.000000
outer loop
vertex 0.000174 0.000736 -0.020000
vertex 0.000121 0.000746 -0.020000
vertex 0.000027 0.000755 -0.020000
endloop
endfacet
facet normal 0.000000 0.000000 1.000000
outer loop
vertex 0.000027 0.000755 -0.020000
vertex -0.000420 0.000628 -0.020000
vertex -0.000534 0.000534 -0.020000
endloop
endfacet
facet normal 0.000000 0.000000 1.000000
outer loop
vertex -0.000534 0.000534 -0.020000
vertex -0.000585 0.000480 -0.020000
vertex -0.000643 0.000397 -0.020000
endloop
endfacet
facet normal 0.000530 0.000000 1.000000
outer loop
vertex -0.000643 0.000397 -0.020000
vertex -0.000677 0.000337 -0.020000
vertex -0.000717 0.000240 -0.020000
endloop
endfacet
facet normal -0.001263 0.000000 0.999999
outer loop
vertex -0.000717 0.000240 -0.020000
vertex -0.000736 0.000174 -0.020000
vertex -0.000753 0.000074 -0.020000
endloop
endfacet
facet normal 0.000000 0.000000 1.000000
outer loop
vertex -0.000753 0.000074 -0.020000
vertex -0.000756 0.000000 -0.020000
vertex -0.000753 -0.000074 -0.020000
endloop
endfacet
facet normal 0.000574 0.000000 1.000000
outer loop
vertex -0.000753 -0.000074 -0.020000
vertex -0.000736 -0.000174 -0.020000
vertex -0.000724 -0.000220 -0.020000
endloop
endfacet
facet normal 0.000000 0.000000 1.000000
outer loop
vertex -0.000724 -0.000220 -0.020000
vertex -0.000708 -0.000264 -0.020000
vertex -0.000698 -0.000289 -0.020000
endloop
endfacet
facet normal -0.002977 0.000000 0.999996
outer loop
vertex -0.000698 -0.000289 -0.020000
vertex -0.000687 -0.000314 -0.020000
vertex -0.000677 -0.000337 -0.020000
endloop
endfacet
facet normal 0.961468 0.000000 0.274918
outer loop
vertex -0.000677 -0.000337 -0.020000
vertex -0.000667 -0.000357 -0.020000
vertex -0.000667 -0.000357 -0.020000
endloop
endfacet
facet normal 0.000000 0.000000 1.000000
outer loop
vertex -0.000667 -0.000357 -0.020000
vertex -0.000656 -0.000376 -0.020000
vertex -0.000643 -0.000397 -0.020000
endloop
endfacet
facet normal 0.000000 0.000000 1.000000
outer loop
vertex -0.000643 -0.000397 -0.020000
vertex -0.000628 -0.000420 -0.020000
vertex -0.000613 -0.000442 -0.020000
endloop
endfacet
facet normal 0.002977 0.000000 0.999996
outer loop
vertex -0.000613 -0.000442 -0.020000
vertex -0.000598 -0.000463 -0.020000
vertex -0.000585 -0.000480 -0.020000
endloop
endfacet
facet normal 1.000000 0.000000 0.000000
outer loop
vertex -0.000585 -0.000480 -0.020000
vertex -0.000585 -0.000480 -0.020000
vertex -0.000570 -0.000496 -0.020000
endloop
endfacet
facet normal 0.000000 0.000000 1.000000
outer loop
vertex -0.000570 -0.000496 -0.020000
vertex -0.000553 -0.000515 -0.020000
vertex -0.000534 -0.000534 -0.020000
endloop
endfacet
facet normal 0.000000 0.000000 1.000000
outer loop
vertex -0.000534 -0.000534 -0.020000
vertex -0.000515 -0.000553 -0.020000
vertex -0.000496 -0.000570 -0.020000
endloop
endfacet
facet normal 0.000000 0.000000 1.000000
outer loop
vertex -0.000480 -0.000585 -0.020000
vertex -0.000480 -0.000585 -0.020000
vertex -0.000463 -0.000598 -0.020000
endloop
endfacet
facet normal 0.001015 0.000000 1.000000
outer loop
vertex -0.000534 -0.000534 -0.020000
vertex -0.000496 -0.000570 -0.020000
vertex -0.000480 -0.000585 -0.020000
endloop
endfacet
facet normal 0.000000 0.000000 1.000000
outer loop
vertex -0.000585 -0.000480 -0.020000
vertex -0.000570 -0.000496 -0.020000
vertex -0.000534 -0.000534 -0.020000
endloop
endfacet
facet normal -0.000784 0.000000 1.000000
outer loop
vertex -0.000643 -0.000397 -0.020000
vertex -0.000613 -0.000442 -0.020000
vertex -0.000585 -0.000480 -0.020000
endloop
endfacet
facet normal -0.001731 0.000000 0.999999
outer loop
vertex -0.000677 -0.000337 -0.020000
vertex -0.000667 -0.000357 -0.020000
vertex -0.000643 -0.000397 -0.020000
endloop
endfacet
facet normal 0.000871 0.000000 1.000000
outer loop
vertex -0.000724 -0.000220 -0.020000
vertex -0.000698 -0.000289 -0.020000
vertex -0.000677 -0.000337 -0.020000
endloop
endfacet
facet normal -0.000212 0.000000 1.000000
outer loop
vertex -0.000753 0.000074 -0.020000
vertex -0.000753 -0.000074 -0.020000
vertex -0.000724 -0.000220 -0.020000
endloop
endfacet
facet normal 0.000068 0.000000 1.000000
outer loop
vertex -0.000643 0.000397 -0.020000
vertex -0.000717 0.000240 -0.020000
vertex -0.000753 0.000074 -0.020000
endloop
endfacet
facet normal -0.000009 0.000000 1.000000
outer loop
vertex 0.000027 0.000755 -0.020000
vertex -0.000534 0.000534 -0.020000
vertex -0.000643 0.000397 -0.020000
endloop
endfacet
facet normal 0.000000 0.000000 1.000000
outer loop
vertex 0.000220 0.000724 -0.020000
vertex 0.000174 0.000736 -0.020000
vertex 0.000027 0.000755 -0.020000
endloop
endfacet
facet normal 0.001015 0.000000 0.999999
outer loop
vertex 0.000289 0.000698 -0.020000
vertex 0.000264 0.000708 -0.020000
vertex 0.000220 0.000724 -0.020000
endloop
endfacet
facet normal 0.001488 0.000000 0.999999
outer loop
vertex 0.000337 0.000677 -0.020000
vertex 0.000314 0.000687 -0.020000
vertex 0.000289 0.000698 -0.020000
endloop
endfacet
facet normal 0.000000 0.000000 1.000000
outer loop
vertex 0.000357 0.000667 -0.020000
vertex 0.000357 0.000667 -0.020000
vertex 0.000337 0.000677 -0.020000
endloop
endfacet
facet normal 0.001489 0.000000 0.999999
outer loop
vertex 0.000397 0.000643 -0.020000
vertex 0.000376 0.000656 -0.020000
vertex 0.000357 0.000667 -0.020000
endloop
endfacet
facet normal -0.002978 0.000000 0.999996
outer loop
vertex 0.000442 0.000613 -0.020000
vertex 0.000420 0.000628 -0.020000
vertex 0.000397 0.000643 -0.020000
endloop
endfacet
facet normal 0.002977 0.000000 0.999996
outer loop
vertex 0.000480 0.000585 -0.020000
vertex 0.000463 0.000598 -0.020000
vertex 0.000442 0.000613 -0.020000
endloop
endfacet
facet normal 0.000000 0.000000 1.000000
outer loop
vertex 0.000515 0.000553 -0.020000
vertex 0.000496 0.000570 -0.020000
vertex 0.000480 0.000585 -0.020000
endloop
endfacet
facet normal -1.000000 0.000000 0.000000
outer loop
vertex 0.000480 0.000585 -0.020000
vertex 0.000480 0.000585 -0.020000
vertex 0.000442 0.000613 -0.020000
endloop
endfacet
facet normal 0.000000 0.000000 1.000000
outer loop
vertex 0.000442 0.000613 -0.020000
vertex 0.000397 0.000643 -0.020000
vertex 0.000357 0.000667 -0.020000
endloop
endfacet
facet normal 0.000000 0.000000 1.000000
outer loop
vertex 0.000357 0.000667 -0.020000
vertex 0.000337 0.000677 -0.020000
vertex 0.000289 0.000698 -0.020000
endloop
endfacet
facet normal -0.000042 0.000000 1.000000
outer loop
vertex 0.000289 0.000698 -0.020000
vertex 0.000220 0.000724 -0.020000
vertex 0.000027 0.000755 -0.020000
endloop
endfacet
facet normal 0.000005 0.000000 1.000000
outer loop
vertex 0.000027 0.000755 -0.020000
vertex -0.000643 0.000397 -0.020000
vertex -0.000753 0.000074 -0.020000
endloop
endfacet
facet normal -0.000044 0.000000 1.000000
outer loop
vertex -0.000753 0.000074 -0.020000
vertex -0.000724 -0.000220 -0.020000
vertex -0.000677 -0.000337 -0.020000
endloop
endfacet
facet normal 0.000000 0.000000 1.000000
outer loop
vertex -0.000677 -0.000337 -0.020000
vertex -0.000643 -0.000397 -0.020000
vertex -0.000585 -0.000480 -0.020000
endloop
endfacet
facet normal -0.000507 0.000000 1.000000
outer loop
vertex -0.000585 -0.000480 -0.020000
vertex -0.000534 -0.000534 -0.020000
vertex -0.000480 -0.000585 -0.020000
endloop
endfacet
facet normal 0.000000 0.000000 1.000000
outer loop
vertex -0.000480 -0.000585 -0.020000
vertex -0.000463 -0.000598 -0.020000
vertex -0.000442 -0.000613 -0.020000
endloop
endfacet
facet normal 0.002978 0.000000 0.999996
outer loop
vertex -0.000442 -0.000613 -0.020000
vertex -0.000420 -0.000628 -0.020000
vertex -0.000397 -0.000643 -0.020000
endloop
endfacet
facet normal -0.001489 0.000000 0.999999
outer loop
vertex -0.000397 -0.000643 -0.020000
vertex -0.000376 -0.000656 -0.020000
vertex -0.000357 -0.000667 -0.020000
endloop
endfacet
facet normal 0.000000 0.000000 1.000000
outer loop
vertex -0.000357 -0.000667 -0.020000
vertex -0.000357 -0.000667 -0.020000
vertex -0.000337 -0.000677 -0.020000
endloop
endfacet
facet normal -0.001488 0.000000 0.999999
outer loop
vertex -0.000337 -0.000677 -0.020000
vertex -0.000314 -0.000687 -0.020000
vertex -0.000289 -0.000698 -0.020000
endloop
endfacet
facet normal 0.001488 0.000000 0.999999
outer loop
vertex -0.000289 -0.000698 -0.020000
vertex -0.000264 -0.000708 -0.020000
vertex -0.000240 -0.000717 -0.020000
endloop
endfacet
facet normal 0.000000 0.000000 -1.000000
outer loop
vertex -0.000220 -0.000724 -0.020000
vertex -0.000220 -0.000724 -0.020000
vertex -0.000199 -0.000730 -0.020000
endloop
endfacet
facet normal -0.001015 0.000000 0.999999
outer loop
vertex -0.000289 -0.000698 -0.020000
vertex -0.000240 -0.000717 -0.020000
vertex -0.000220 -0.000724 -0.020000
endloop
endfacet
facet normal 0.000000 0.000000 1.000000
outer loop
vertex -0.000357 -0.000667 -0.020000
vertex -0.000337 -0.000677 -0.020000
vertex -0.000289 -0.000698 -0.020000
endloop
endfacet
facet normal 0.000000 0.000000 1.000000
outer loop
vertex -0.000442 -0.000613 -0.020000
vertex -0.000397 -0.000643 -0.020000
vertex -0.000357 -0.000667 -0.020000
endloop
endfacet
facet normal -0.000117 0.000000 1.000000
outer loop
vertex -0.000585 -0.000480 -0.020000
vertex -0.000480 -0.000585 -0.020000
vertex -0.000442 -0.000613 -0.020000
endloop
endfacet
facet normal 0.000101 0.000000 1.000000
outer loop
vertex -0.000753 0.000074 -0.020000
vertex -0.000677 -0.000337 -0.020000
vertex -0.000585 -0.000480 -0.020000
endloop
endfacet
facet normal 0.000000 0.000000 1.000000
outer loop
vertex 0.000289 0.000698 -0.020000
vertex 0.000027 0.000755 -0.020000
vertex -0.000753 0.000074 -0.020000
endloop
endfacet
facet normal -0.000117 0.000000 1.000000
outer loop
vertex 0.000442 0.000613 -0.020000
vertex 0.000357 0.000667 -0.020000
vertex 0.000289 0.000698 -0.020000
endloop
endfacet
facet normal 0.000000 0.000000 1.000000
outer loop
vertex 0.000515 0.000553 -0.020000
vertex 0.000480 0.000585 -0.020000
vertex 0.000442 0.000613 -0.020000
endloop
endfacet
facet normal 0.000000 0.000000 1.000000
outer loop
vertex 0.000553 0.000515 -0.020000
vertex 0.000534 0.000534 -0.020000
vertex 0.000515 0.000553 -0.020000
endloop
endfacet
facet normal 0.000000 0.000000 1.000000
outer loop
vertex 0.000585 0.000480 -0.020000
vertex 0.000570 0.000496 -0.020000
vertex 0.000553 0.000515 -0.020000
endloop
endfacet
facet normal -0.999995 0.000000 -0.003052
outer loop
vertex 0.000598 0.000463 -0.020000
vertex 0.000585 0.000480 -0.020000
vertex 0.000585 0.000480 -0.020000
endloop
endfacet
facet normal -0.002977 0.000000 0.999996
outer loop
vertex 0.000628 0.000420 -0.020000
vertex 0.000613 0.000442 -0.020000
vertex 0.000598 0.000463 -0.020000
endloop
endfacet
facet normal 0.000000 0.000000 1.000000
outer loop
vertex 0.000656 0.000376 -0.020000
vertex 0.000643 0.000397 -0.020000
vertex 0.000628 0.000420 -0.020000
endloop
endfacet
facet normal -0.961468 0.000000 0.274918
outer loop
vertex 0.000677 0.000337 -0.020000
vertex 0.000667 0.000357 -0.020000
vertex 0.000667 0.000357 -0.020000
endloop
endfacet
facet normal -0.002031 0.000000 0.999998
outer loop
vertex 0.000667 0.000357 -0.020000
vertex 0.000656 0.000376 -0.020000
vertex 0.000628 0.000420 -0.020000
endloop
endfacet
facet normal 0.000000 0.000000 1.000000
outer loop
vertex 0.000628 0.000420 -0.020000
vertex 0.000598 0.000463 -0.020000
vertex 0.000585 0.000480 -0.020000
endloop
endfacet
facet normal -0.000784 0.000000 1.000000
outer loop
vertex 0.000585 0.000480 -0.020000
vertex 0.000553 0.000515 -0.020000
vertex 0.000515 0.000553 -0.020000
endloop
endfacet
facet normal 0.000077 0.000000 1.000000
outer loop
vertex 0.000515 0.000553 -0.020000
vertex 0.000442 0.000613 -0.020000
vertex 0.000289 0.000698 -0.020000
endloop
endfacet
facet normal 0.000000 0.000000 1.000000
outer loop
vertex 0.000289 0.000698 -0.020000
vertex -0.000753 0.000074 -0.020000
vertex -0.000585 -0.000480 -0.020000
endloop
endfacet
facet normal 0.000061 0.000000 1.000000
outer loop
vertex -0.000585 -0.000480 -0.020000
vertex -0.000442 -0.000613 -0.020000
vertex -0.000357 -0.000667 -0.020000
endloop
endfacet
facet normal 0.000000 0.000000 1.000000
outer loop
vertex -0.000357 -0.000667 -0.020000
vertex -0.000289 -0.000698 -0.020000
vertex -0.000220 -0.000724 -0.020000
endloop
endfacet
facet normal 0.000000 0.000000 1.000000
outer loop
vertex -0.000220 -0.000724 -0.020000
vertex -0.000199 -0.000730 -0.020000
vertex -0.000174 -0.000736 -0.020000
endloop
endfacet
facet normal 0.000744 0.000000 1.000000
outer loop
vertex -0.000174 -0.000736 -0.020000
vertex -0.000147 -0.000741 -0.020000
vertex -0.000121 -0.000746 -0.020000
endloop
endfacet
facet normal -0.000372 0.000000 1.000000
outer loop
vertex -0.000121 -0.000746 -0.020000
vertex -0.000096 -0.000750 -0.020000
vertex -0.000074 -0.000753 -0.020000
endloop
endfacet
facet normal 0.000000 0.000000 0.000000
outer loop
vertex -0.000074 -0.000753 -0.020000
vertex -0.000074 -0.000753 -0.020000
vertex -0.000052 -0.000754 -0.020000
endloop
endfacet
facet normal -0.000093 0.000000 1.000000
outer loop
vertex -0.000052 -0.000754 -0.020000
vertex -0.000027 -0.000755 -0.020000
vertex 0.000000 -0.000756 -0.020000
endloop
endfacet
facet normal 0.000186 0.000000 1.000000
outer loop
vertex 0.000000 -0.000756 -0.020000
vertex 0.000027 -0.000755 -0.020000
vertex 0.000052 -0.000754 -0.020000
endloop
endfacet
facet normal -0.840881 0.000000 0.541220
outer loop
vertex 0.000052 -0.000754 -0.020000
vertex 0.000074 -0.000753 -0.020000
vertex 0.000074 -0.000753 -0.020000
endloop
endfacet
facet normal 0.000000 0.000000 1.000000
outer loop
vertex 0.000074 -0.000753 -0.020000
vertex 0.000096 -0.000750 -0.020000
vertex 0.000121 -0.000746 -0.020000
endloop
endfacet
facet normal -0.000744 0.000000 1.000000
outer loop
vertex 0.000121 -0.000746 -0.020000
vertex 0.000147 -0.000741 -0.020000
vertex 0.000174 -0.000736 -0.020000
endloop
endfacet
facet normal 0.000000 0.000000 1.000000
outer loop
vertex 0.000174 -0.000736 -0.020000
vertex 0.000199 -0.000730 -0.020000
vertex 0.000220 -0.000724 -0.020000
endloop
endfacet
facet normal -0.001488 0.000000 0.999999
outer loop
vertex 0.000220 -0.000724 -0.020000
vertex 0.000240 -0.000717 -0.020000
vertex 0.000264 -0.000708 -0.020000
endloop
endfacet
facet normal -0.407729 0.000000 0.913103
outer loop
vertex 0.000174 -0.000736 -0.020000
vertex 0.000220 -0.000724 -0.020000
vertex 0.000220 -0.000724 -0.020000
endloop
endfacet
facet normal 0.000196 0.000000 1.000000
outer loop
vertex 0.000074 -0.000753 -0.020000
vertex 0.000121 -0.000746 -0.020000
vertex 0.000174 -0.000736 -0.020000
endloop
endfacet
facet normal 0.000000 0.000000 1.000000
outer loop
vertex 0.000000 -0.000756 -0.020000
vertex 0.000052 -0.000754 -0.020000
vertex 0.000074 -0.000753 -0.020000
endloop
endfacet
facet normal 0.000000 0.000000 1.000000
outer loop
vertex -0.000074 -0.000753 -0.020000
vertex -0.000052 -0.000754 -0.020000
vertex 0.000000 -0.000756 -0.020000
endloop
endfacet
facet normal -0.000196 0.000000 1.000000
outer loop
vertex -0.000174 -0.000736 -0.020000
vertex -0.000121 -0.000746 -0.020000
vertex -0.000074 -0.000753 -0.020000
endloop
endfacet
facet normal 0.000146 0.000000 1.000000
outer loop
vertex -0.000357 -0.000667 -0.020000
vertex -0.000220 -0.000724 -0.020000
vertex -0.000174 -0.000736 -0.020000
endloop
endfacet
facet normal 0.000001 0.000000 1.000000
outer loop
vertex 0.000289 0.000698 -0.020000
vertex -0.000585 -0.000480 -0.020000
vertex -0.000357 -0.000667 -0.020000
endloop
endfacet
facet normal 0.000000 0.000000 1.000000
outer loop
vertex 0.000585 0.000480 -0.020000
vertex 0.000515 0.000553 -0.020000
vertex 0.000289 0.000698 -0.020000
endloop
endfacet
facet normal 0.000000 0.000000 1.000000
outer loop
vertex 0.000667 0.000357 -0.020000
vertex 0.000628 0.000420 -0.020000
vertex 0.000585 0.000480 -0.020000
endloop
endfacet
facet normal 0.000000 0.000000 1.000000
outer loop
vertex 0.000687 0.000314 -0.020000
vertex 0.000677 0.000337 -0.020000
vertex 0.000667 0.000357 -0.020000
endloop
endfacet
facet normal 0.000000 0.000000 1.000000
outer loop
vertex 0.000708 0.000264 -0.020000
vertex 0.000698 0.000289 -0.020000
vertex 0.000687 0.000314 -0.020000
endloop
endfacet
facet normal 0.002977 0.000000 0.999996
outer loop
vertex 0.000724 0.000220 -0.020000
vertex 0.000717 0.000240 -0.020000
vertex 0.000708 0.000264 -0.020000
endloop
endfacet
facet normal -0.999987 0.000000 0.005160
outer loop
vertex 0.000730 0.000199 -0.020000
vertex 0.000724 0.000220 -0.020000
vertex 0.000724 0.000220 -0.020000
endloop
endfacet
facet normal 0.005955 0.000000 0.999982
outer loop
vertex 0.000741 0.000147 -0.020000
vertex 0.000736 0.000174 -0.020000
vertex 0.000730 0.000199 -0.020000
endloop
endfacet
facet normal 0.000000 0.000000 1.000000
outer loop
vertex 0.000750 0.000096 -0.020000
vertex 0.000746 0.000121 -0.020000
vertex 0.000741 0.000147 -0.020000
endloop
endfacet
facet normal 0.907434 0.000000 0.420195
outer loop
vertex 0.000754 0.000052 -0.020000
vertex 0.000753 0.000074 -0.020000
vertex 0.000753 0.000074 -0.020000
endloop
endfacet
facet normal 0.004062 0.000000 0.999992
outer loop
vertex 0.000753 0.000074 -0.020000
vertex 0.000750 0.000096 -0.020000
vertex 0.000741 0.000147 -0.020000
endloop
endfacet
facet normal 0.001015 0.000000 0.999999
outer loop
vertex 0.000741 0.000147 -0.020000
vertex 0.000730 0.000199 -0.020000
vertex 0.000724 0.000220 -0.020000
endloop
endfacet
facet normal 0.000000 0.000000 1.000000
outer loop
vertex 0.000724 0.000220 -0.020000
vertex 0.000708 0.000264 -0.020000
vertex 0.000687 0.000314 -0.020000
endloop
endfacet
facet normal 0.000000 0.000000 1.000000
outer loop
vertex 0.000687 0.000314 -0.020000
vertex 0.000667 0.000357 -0.020000
vertex 0.000585 0.000480 -0.020000
endloop
endfacet
facet normal -0.000007 0.000000 1.000000
outer loop
vertex 0.000585 0.000480 -0.020000
vertex 0.000289 0.000698 -0.020000
vertex -0.000357 -0.000667 -0.020000
endloop
endfacet
facet normal 0.000015 0.000000 1.000000
outer loop
vertex -0.000357 -0.000667 -0.020000
vertex -0.000174 -0.000736 -0.020000
vertex -0.000074 -0.000753 -0.020000
endloop
endfacet
facet normal 0.000000 0.000000 1.000000
outer loop
vertex -0.000074 -0.000753 -0.020000
vertex 0.000000 -0.000756 -0.020000
vertex 0.000074 -0.000753 -0.020000
endloop
endfacet
facet normal 0.000072 0.000000 1.000000
outer loop
vertex 0.000074 -0.000753 -0.020000
vertex 0.000174 -0.000736 -0.020000
vertex 0.000220 -0.000724 -0.020000
endloop
endfacet
facet normal 0.001015 0.000000 0.999999
outer loop
vertex 0.000220 -0.000724 -0.020000
vertex 0.000264 -0.000708 -0.020000
vertex 0.000289 -0.000698 -0.020000
endloop
endfacet
facet normal 0.001488 0.000000 0.999999
outer loop
vertex 0.000289 -0.000698 -0.020000
vertex 0.000314 -0.000687 -0.020000
vertex 0.000337 -0.000677 -0.020000
endloop
endfacet
facet normal -0.873115 0.000000 0.487515
outer loop
vertex 0.000337 -0.000677 -0.020000
vertex 0.000357 -0.000667 -0.020000
vertex 0.000357 -0.000667 -0.020000
endloop
endfacet
facet normal 0.002977 0.000000 0.999996
outer loop
vertex 0.000357 -0.000667 -0.020000
vertex 0.000376 -0.000656 -0.020000
vertex 0.000397 -0.000643 -0.020000
endloop
endfacet
facet normal -0.002978 0.000000 0.999996
outer loop
vertex 0.000397 -0.000643 -0.020000
vertex 0.000420 -0.000628 -0.020000
vertex 0.000442 -0.000613 -0.020000
endloop
endfacet
facet normal 0.002977 0.000000 0.999996
outer loop
vertex 0.000442 -0.000613 -0.020000
vertex 0.000463 -0.000598 -0.020000
vertex 0.000480 -0.000585 -0.020000
endloop
endfacet
facet normal 0.000000 0.000000 -1.000000
outer loop
vertex 0.000480 -0.000585 -0.020000
vertex 0.000480 -0.000585 -0.020000
vertex 0.000496 -0.000570 -0.020000
endloop
endfacet
facet normal -0.002976 0.000000 0.999996
outer loop
vertex 0.000496 -0.000570 -0.020000
vertex 0.000515 -0.000553 -0.020000
vertex 0.000534 -0.000534 -0.020000
endloop
endfacet
facet normal 0.002977 0.000000 0.999996
outer loop
vertex 0.000534 -0.000534 -0.020000
vertex 0.000553 -0.000515 -0.020000
vertex 0.000570 -0.000496 -0.020000
endloop
endfacet
facet normal -0.917538 0.000000 -0.397649
outer loop
vertex 0.000570 -0.000496 -0.020000
vertex 0.000585 -0.000480 -0.020000
vertex 0.000585 -0.000480 -0.020000
endloop
endfacet
facet normal -0.002977 0.000000 0.999996
outer loop
vertex 0.000585 -0.000480 -0.020000
vertex 0.000598 -0.000463 -0.020000
vertex 0.000613 -0.000442 -0.020000
endloop
endfacet
facet normal 0.000000 0.000000 1.000000
outer loop
vertex 0.000613 -0.000442 -0.020000
vertex 0.000628 -0.000420 -0.020000
vertex 0.000643 -0.000397 -0.020000
endloop
endfacet
facet normal 0.000000 0.000000 1.000000
outer loop
vertex 0.000643 -0.000397 -0.020000
vertex 0.000656 -0.000376 -0.020000
vertex 0.000667 -0.000357 -0.020000
endloop
endfacet
facet normal 0.000000 0.000000 1.000000
outer loop
vertex 0.000667 -0.000357 -0.020000
vertex 0.000667 -0.000357 -0.020000
vertex 0.000677 -0.000337 -0.020000
endloop
endfacet
facet normal 0.000000 0.000000 1.000000
outer loop
vertex 0.000677 -0.000337 -0.020000
vertex 0.000687 -0.000314 -0.020000
vertex 0.000698 -0.000289 -0.020000
endloop
endfacet
facet normal 0.000000 0.000000 1.000000
outer loop
vertex 0.000698 -0.000289 -0.020000
vertex 0.000708 -0.000264 -0.020000
vertex 0.000717 -0.000240 -0.020000
endloop
endfacet
facet normal -0.999961 0.000000 -0.008791
outer loop
vertex 0.000717 -0.000240 -0.020000
vertex 0.000724 -0.000220 -0.020000
vertex 0.000724 -0.000220 -0.020000
endloop
endfacet
facet normal 0.000000 0.000000 1.000000
outer loop
vertex 0.000724 -0.000220 -0.020000
vertex 0.000730 -0.000199 -0.020000
vertex 0.000736 -0.000174 -0.020000
endloop
endfacet
facet normal 0.005953 0.000000 0.999982
outer loop
vertex 0.000736 -0.000174 -0.020000
vertex 0.000741 -0.000147 -0.020000
vertex 0.000746 -0.000121 -0.020000
endloop
endfacet
facet normal 0.000000 0.000000 1.000000
outer loop
vertex 0.000746 -0.000121 -0.020000
vertex 0.000750 -0.000096 -0.020000
vertex 0.000753 -0.000074 -0.020000
endloop
endfacet
facet normal 0.000000 0.000000 1.000000
outer loop
vertex 0.000753 -0.000074 -0.020000
vertex 0.000753 -0.000074 -0.020000
vertex 0.000754 -0.000052 -0.020000
endloop
endfacet
facet normal 0.005954 0.000000 0.999982
outer loop
vertex 0.000754 -0.000052 -0.020000
vertex 0.000755 -0.000027 -0.020000
vertex 0.000756 0.000000 -0.020000
endloop
endfacet
facet normal 0.000000 0.000000 1.000000
outer loop
vertex 0.000756 0.000000 -0.020000
vertex 0.000755 0.000027 -0.020000
vertex 0.000754 0.000052 -0.020000
endloop
endfacet
facet normal 0.000000 0.000000 1.000000
outer loop
vertex 0.000754 0.000052 -0.020000
vertex 0.000753 0.000074 -0.020000
vertex 0.000741 0.000147 -0.020000
endloop
endfacet
facet normal 0.000000 0.000000 1.000000
outer loop
vertex 0.000741 0.000147 -0.020000
vertex 0.000724 0.000220 -0.020000
vertex 0.000687 0.000314 -0.020000
endloop
endfacet
facet normal 0.000000 0.000000 1.000000
outer loop
vertex 0.000687 0.000314 -0.020000
vertex 0.000585 0.000480 -0.020000
vertex -0.000357 -0.000667 -0.020000
endloop
endfacet
facet normal 0.000000 0.000000 1.000000
outer loop
vertex -0.000357 -0.000667 -0.020000
vertex -0.000074 -0.000753 -0.020000
vertex 0.000074 -0.000753 -0.020000
endloop
endfacet
facet normal -0.000067 0.000000 1.000000
outer loop
vertex 0.000074 -0.000753 -0.020000
vertex 0.000220 -0.000724 -0.020000
vertex 0.000289 -0.000698 -0.020000
endloop
endfacet
facet normal 0.000508 0.000000 1.000000
outer loop
vertex 0.000289 -0.000698 -0.020000
vertex 0.000337 -0.000677 -0.020000
vertex 0.000357 -0.000667 -0.020000
endloop
endfacet
facet normal 0.000000 0.000000 1.000000
outer loop
vertex 0.000357 -0.000667 -0.020000
vertex 0.000397 -0.000643 -0.020000
vertex 0.000442 -0.000613 -0.020000
endloop
endfacet
facet normal 0.000000 0.000000 1.000000
outer loop
vertex 0.000442 -0.000613 -0.020000
vertex 0.000480 -0.000585 -0.020000
vertex 0.000496 -0.000570 -0.020000
endloop
endfacet
facet normal 0.000000 0.000000 1.000000
outer loop
vertex 0.000496 -0.000570 -0.020000
vertex 0.000534 -0.000534 -0.020000
vertex 0.000570 -0.000496 -0.020000
endloop
endfacet
facet normal 0.001731 0.000000 0.999999
outer loop
vertex 0.000570 -0.000496 -0.020000
vertex 0.000585 -0.000480 -0.020000
vertex 0.000613 -0.000442 -0.020000
endloop
endfacet
facet normal -0.000784 0.000000 1.000000
outer loop
vertex 0.000613 -0.000442 -0.020000
vertex 0.000643 -0.000397 -0.020000
vertex 0.000667 -0.000357 -0.020000
endloop
endfacet
facet normal -0.004061 0.000000 0.999992
outer loop
vertex 0.000667 -0.000357 -0.020000
vertex 0.000677 -0.000337 -0.020000
vertex 0.000698 -0.000289 -0.020000
endloop
endfacet
facet normal 0.000000 0.000000 1.000000
outer loop
vertex 0.000698 -0.000289 -0.020000
vertex 0.000717 -0.000240 -0.020000
vertex 0.000724 -0.000220 -0.020000
endloop
endfacet
facet normal 0.000000 0.000000 1.000000
outer loop
vertex 0.000724 -0.000220 -0.020000
vertex 0.000736 -0.000174 -0.020000
vertex 0.000746 -0.000121 -0.020000
endloop
endfacet
facet normal 0.000865 0.000000 1.000000
outer loop
vertex 0.000746 -0.000121 -0.020000
vertex 0.000753 -0.000074 -0.020000
vertex 0.000754 -0.000052 -0.020000
endloop
endfacet
facet normal -0.001568 0.000000 0.999999
outer loop
vertex 0.000754 -0.000052 -0.020000
vertex 0.000756 0.000000 -0.020000
vertex 0.000754 0.000052 -0.020000
endloop
endfacet
facet normal -0.000156 0.000000 1.000000
outer loop
vertex 0.000754 0.000052 -0.020000
vertex 0.000741 0.000147 -0.020000
vertex 0.000687 0.000314 -0.020000
endloop
endfacet
facet normal 0.000004 0.000000 1.000000
outer loop
vertex 0.000687 0.000314 -0.020000
vertex -0.000357 -0.000667 -0.020000
vertex 0.000074 -0.000753 -0.020000
endloop
endfacet
facet normal -0.000037 0.000000 1.000000
outer loop
vertex 0.000074 -0.000753 -0.020000
vertex 0.000289 -0.000698 -0.020000
vertex 0.000357 -0.000667 -0.020000
endloop
endfacet
facet normal -0.000316 0.000000 1.000000
outer loop
vertex 0.000357 -0.000667 -0.020000
vertex 0.000442 -0.000613 -0.020000
vertex 0.000496 -0.000570 -0.020000
endloop
endfacet
facet normal 0.000000 0.000000 1.000000
outer loop
vertex 0.000496 -0.000570 -0.020000
vertex 0.000570 -0.000496 -0.020000
vertex 0.000613 -0.000442 -0.020000
endloop
endfacet
facet normal 0.000000 0.000000 1.000000
outer loop
vertex 0.000613 -0.000442 -0.020000
vertex 0.000667 -0.000357 -0.020000
vertex 0.000698 -0.000289 -0.020000
endloop
endfacet
facet normal 0.000000 0.000000 1.000000
outer loop
vertex 0.000698 -0.000289 -0.020000
vertex 0.000724 -0.000220 -0.020000
vertex 0.000746 -0.000121 -0.020000
endloop
endfacet
facet normal 0.000000 0.000000 1.000000
outer loop
vertex 0.000746 -0.000121 -0.020000
vertex 0.000754 -0.000052 -0.020000
vertex 0.000754 0.000052 -0.020000
endloop
endfacet
facet normal 0.000000 0.000000 1.000000
outer loop
vertex 0.000754 0.000052 -0.020000
vertex 0.000687 0.000314 -0.020000
vertex 0.000074 -0.000753 -0.020000
endloop
endfacet
facet normal 0.000030 0.000000 1.000000
outer loop
vertex 0.000074 -0.000753 -0.020000
vertex 0.000357 -0.000667 -0.020000
vertex 0.000496 -0.000570 -0.020000
endloop
endfacet
facet normal 0.000066 0.000000 1.000000
outer loop
vertex 0.000496 -0.000570 -0.020000
vertex 0.000613 -0.000442 -0.020000
vertex 0.000698 -0.000289 -0.020000
endloop
endfacet
facet normal 0.000000 0.000000 1.000000
outer loop
vertex 0.000698 -0.000289 -0.020000
vertex 0.000746 -0.000121 -0.020000
vertex 0.000754 0.000052 -0.020000
endloop
endfacet
facet normal 0.000000 0.000000 1.000000
outer loop
vertex 0.000754 0.000052 -0.020000
vertex 0.000074 -0.000753 -0.020000
vertex 0.000496 -0.000570 -0.020000
endloop
endfacet
facet normal 0.000000 0.000000 1.000000
outer loop
vertex 0.000496 -0.000570 -0.020000
vertex 0.000698 -0.000289 -0.020000
vertex 0.000754 0.000052 -0.020000
endloop
endfacet
endsolid Exported from Blender-2.80 (sub 75)
