solid Exported from Blender-2.80 (sub 75)
facet normal 0.500022 0.000000 0.866013
outer loop
vertex -0.005000 0.000750 -0.008660
vertex -0.005064 0.000746 -0.008623
vertex -0.005127 0.000736 -0.008587
endloop
endfacet
facet normal 0.499922 0.000054 0.866071
outer loop
vertex -0.005127 0.000736 -0.008587
vertex -0.005189 0.000718 -0.008551
vertex -0.005249 0.000693 -0.008517
endloop
endfacet
facet normal 0.499876 0.000107 0.866097
outer loop
vertex -0.005249 0.000693 -0.008517
vertex -0.005306 0.000661 -0.008483
vertex -0.005361 0.000624 -0.008452
endloop
endfacet
facet normal 0.500191 0.000000 0.865915
outer loop
vertex -0.005361 0.000624 -0.008452
vertex -0.005412 0.000580 -0.008422
vertex -0.005459 0.000530 -0.008395
endloop
endfacet
facet normal 0.499979 0.000054 0.866037
outer loop
vertex -0.005459 0.000530 -0.008395
vertex -0.005502 0.000476 -0.008370
vertex -0.005540 0.000417 -0.008348
endloop
endfacet
facet normal 0.500253 0.000054 0.865880
outer loop
vertex -0.005540 0.000417 -0.008348
vertex -0.005573 0.000354 -0.008330
vertex -0.005600 0.000287 -0.008314
endloop
endfacet
facet normal 0.499759 0.000027 0.866164
outer loop
vertex -0.005600 0.000287 -0.008314
vertex -0.005622 0.000218 -0.008301
vertex -0.005637 0.000146 -0.008292
endloop
endfacet
facet normal 0.500260 0.000000 0.865875
outer loop
vertex -0.005637 0.000146 -0.008292
vertex -0.005646 0.000074 -0.008287
vertex -0.005650 -0.000000 -0.008285
endloop
endfacet
facet normal 0.500260 0.000000 0.865875
outer loop
vertex -0.005650 -0.000000 -0.008285
vertex -0.005646 -0.000074 -0.008287
vertex -0.005637 -0.000146 -0.008292
endloop
endfacet
facet normal 0.499759 -0.000027 0.866164
outer loop
vertex -0.005637 -0.000146 -0.008292
vertex -0.005622 -0.000218 -0.008301
vertex -0.005600 -0.000287 -0.008314
endloop
endfacet
facet normal 0.500253 -0.000054 0.865880
outer loop
vertex -0.005600 -0.000287 -0.008314
vertex -0.005573 -0.000354 -0.008330
vertex -0.005540 -0.000417 -0.008348
endloop
endfacet
facet normal 0.500060 -0.000054 0.865991
outer loop
vertex -0.005540 -0.000417 -0.008348
vertex -0.005502 -0.000476 -0.008370
vertex -0.005459 -0.000530 -0.008395
endloop
endfacet
facet normal 0.500191 0.000000 0.865915
outer loop
vertex -0.005459 -0.000530 -0.008395
vertex -0.005412 -0.000580 -0.008422
vertex -0.005361 -0.000624 -0.008452
endloop
endfacet
facet normal 0.499876 -0.000107 0.866097
outer loop
vertex -0.005361 -0.000624 -0.008452
vertex -0.005306 -0.000661 -0.008483
vertex -0.005249 -0.000693 -0.008517
endloop
endfacet
facet normal 0.499922 -0.000054 0.866071
outer loop
vertex -0.005249 -0.000693 -0.008517
vertex -0.005189 -0.000718 -0.008551
vertex -0.005127 -0.000736 -0.008587
endloop
endfacet
facet normal 0.500012 0.000000 0.866018
outer loop
vertex -0.005127 -0.000736 -0.008587
vertex -0.005064 -0.000746 -0.008623
vertex -0.005000 -0.000750 -0.008660
endloop
endfacet
facet normal 0.500002 0.000054 0.866024
outer loop
vertex -0.005000 -0.000750 -0.008660
vertex -0.004936 -0.000746 -0.008697
vertex -0.004873 -0.000736 -0.008733
endloop
endfacet
facet normal 0.499882 0.000000 0.866094
outer loop
vertex -0.004873 -0.000736 -0.008733
vertex -0.004811 -0.000718 -0.008769
vertex -0.004751 -0.000693 -0.008804
endloop
endfacet
facet normal 0.499876 0.000054 0.866097
outer loop
vertex -0.004751 -0.000693 -0.008804
vertex -0.004694 -0.000661 -0.008837
vertex -0.004639 -0.000624 -0.008869
endloop
endfacet
facet normal 0.500111 0.000054 0.865961
outer loop
vertex -0.004639 -0.000624 -0.008869
vertex -0.004588 -0.000580 -0.008898
vertex -0.004541 -0.000530 -0.008925
endloop
endfacet
facet normal 0.499979 0.000054 0.866037
outer loop
vertex -0.004541 -0.000530 -0.008925
vertex -0.004498 -0.000476 -0.008950
vertex -0.004460 -0.000417 -0.008972
endloop
endfacet
facet normal 0.500092 0.000080 0.865972
outer loop
vertex -0.004460 -0.000417 -0.008972
vertex -0.004427 -0.000354 -0.008991
vertex -0.004400 -0.000287 -0.009007
endloop
endfacet
facet normal 0.499920 0.000000 0.866072
outer loop
vertex -0.004400 -0.000287 -0.009007
vertex -0.004378 -0.000218 -0.009019
vertex -0.004363 -0.000146 -0.009028
endloop
endfacet
facet normal 0.500260 0.000007 0.865875
outer loop
vertex -0.004363 -0.000146 -0.009028
vertex -0.004354 -0.000074 -0.009033
vertex -0.004350 0.000000 -0.009035
endloop
endfacet
facet normal 0.500260 -0.000007 0.865875
outer loop
vertex -0.004350 0.000000 -0.009035
vertex -0.004354 0.000074 -0.009033
vertex -0.004363 0.000146 -0.009028
endloop
endfacet
facet normal 0.499920 0.000000 0.866072
outer loop
vertex -0.004363 0.000146 -0.009028
vertex -0.004378 0.000218 -0.009019
vertex -0.004400 0.000287 -0.009007
endloop
endfacet
facet normal 0.500092 -0.000080 0.865972
outer loop
vertex -0.004400 0.000287 -0.009007
vertex -0.004427 0.000354 -0.008991
vertex -0.004460 0.000417 -0.008972
endloop
endfacet
facet normal 0.499979 -0.000054 0.866037
outer loop
vertex -0.004460 0.000417 -0.008972
vertex -0.004498 0.000476 -0.008950
vertex -0.004541 0.000530 -0.008925
endloop
endfacet
facet normal 0.500111 -0.000054 0.865961
outer loop
vertex -0.004541 0.000530 -0.008925
vertex -0.004588 0.000580 -0.008898
vertex -0.004639 0.000624 -0.008869
endloop
endfacet
facet normal 0.499876 -0.000054 0.866097
outer loop
vertex -0.004639 0.000624 -0.008869
vertex -0.004694 0.000661 -0.008837
vertex -0.004751 0.000693 -0.008804
endloop
endfacet
facet normal 0.499882 0.000000 0.866094
outer loop
vertex -0.004751 0.000693 -0.008804
vertex -0.004811 0.000718 -0.008769
vertex -0.004873 0.000736 -0.008733
endloop
endfacet
facet normal 0.500002 -0.000054 0.866024
outer loop
vertex -0.004873 0.000736 -0.008733
vertex -0.004936 0.000746 -0.008697
vertex -0.005000 0.000750 -0.008660
endloop
endfacet
facet normal 0.500021 0.000013 0.866013
outer loop
vertex -0.005000 0.000750 -0.008660
vertex -0.005127 0.000736 -0.008587
vertex -0.005249 0.000693 -0.008517
endloop
endfacet
facet normal 0.499995 0.000027 0.866028
outer loop
vertex -0.005249 0.000693 -0.008517
vertex -0.005361 0.000624 -0.008452
vertex -0.005459 0.000530 -0.008395
endloop
endfacet
facet normal 0.499931 -0.000007 0.866065
outer loop
vertex -0.005459 0.000530 -0.008395
vertex -0.005540 0.000417 -0.008348
vertex -0.005600 0.000287 -0.008314
endloop
endfacet
facet normal 0.499970 0.000002 0.866043
outer loop
vertex -0.005600 0.000287 -0.008314
vertex -0.005637 0.000146 -0.008292
vertex -0.005650 -0.000000 -0.008285
endloop
endfacet
facet normal 0.499970 0.000000 0.866043
outer loop
vertex -0.005650 -0.000000 -0.008285
vertex -0.005637 -0.000146 -0.008292
vertex -0.005600 -0.000287 -0.008314
endloop
endfacet
facet normal 0.499932 0.000013 0.866065
outer loop
vertex -0.005600 -0.000287 -0.008314
vertex -0.005540 -0.000417 -0.008348
vertex -0.005459 -0.000530 -0.008395
endloop
endfacet
facet normal 0.499995 -0.000027 0.866028
outer loop
vertex -0.005459 -0.000530 -0.008395
vertex -0.005361 -0.000624 -0.008452
vertex -0.005249 -0.000693 -0.008517
endloop
endfacet
facet normal 0.500021 -0.000013 0.866013
outer loop
vertex -0.005249 -0.000693 -0.008517
vertex -0.005127 -0.000736 -0.008587
vertex -0.005000 -0.000750 -0.008660
endloop
endfacet
facet normal 0.500001 0.000027 0.866025
outer loop
vertex -0.005000 -0.000750 -0.008660
vertex -0.004873 -0.000736 -0.008733
vertex -0.004751 -0.000693 -0.008804
endloop
endfacet
facet normal 0.499995 0.000013 0.866028
outer loop
vertex -0.004751 -0.000693 -0.008804
vertex -0.004639 -0.000624 -0.008869
vertex -0.004541 -0.000530 -0.008925
endloop
endfacet
facet normal 0.499972 0.000007 0.866042
outer loop
vertex -0.004541 -0.000530 -0.008925
vertex -0.004460 -0.000417 -0.008972
vertex -0.004400 -0.000287 -0.009007
endloop
endfacet
facet normal 0.499970 0.000007 0.866043
outer loop
vertex -0.004400 -0.000287 -0.009007
vertex -0.004363 -0.000146 -0.009028
vertex -0.004350 0.000000 -0.009035
endloop
endfacet
facet normal 0.499970 -0.000007 0.866043
outer loop
vertex -0.004350 0.000000 -0.009035
vertex -0.004363 0.000146 -0.009028
vertex -0.004400 0.000287 -0.009007
endloop
endfacet
facet normal 0.499972 -0.000007 0.866041
outer loop
vertex -0.004400 0.000287 -0.009007
vertex -0.004460 0.000417 -0.008972
vertex -0.004541 0.000530 -0.008925
endloop
endfacet
facet normal 0.499995 -0.000013 0.866028
outer loop
vertex -0.004541 0.000530 -0.008925
vertex -0.004639 0.000624 -0.008869
vertex -0.004751 0.000693 -0.008804
endloop
endfacet
facet normal 0.500006 -0.000027 0.866022
outer loop
vertex -0.004751 0.000693 -0.008804
vertex -0.004873 0.000736 -0.008733
vertex -0.005000 0.000750 -0.008660
endloop
endfacet
facet normal 0.499991 0.000000 0.866031
outer loop
vertex -0.005000 0.000750 -0.008660
vertex -0.005249 0.000693 -0.008517
vertex -0.005459 0.000530 -0.008395
endloop
endfacet
facet normal 0.500007 -0.000001 0.866022
outer loop
vertex -0.005459 0.000530 -0.008395
vertex -0.005600 0.000287 -0.008314
vertex -0.005650 -0.000000 -0.008285
endloop
endfacet
facet normal 0.500007 0.000000 0.866022
outer loop
vertex -0.005650 -0.000000 -0.008285
vertex -0.005600 -0.000287 -0.008314
vertex -0.005459 -0.000530 -0.008395
endloop
endfacet
facet normal 0.499993 0.000000 0.866029
outer loop
vertex -0.005459 -0.000530 -0.008395
vertex -0.005249 -0.000693 -0.008517
vertex -0.005000 -0.000750 -0.008660
endloop
endfacet
facet normal 0.500001 0.000000 0.866025
outer loop
vertex -0.005000 -0.000750 -0.008660
vertex -0.004751 -0.000693 -0.008804
vertex -0.004541 -0.000530 -0.008925
endloop
endfacet
facet normal 0.499996 -0.000003 0.866028
outer loop
vertex -0.004541 -0.000530 -0.008925
vertex -0.004400 -0.000287 -0.009007
vertex -0.004350 0.000000 -0.009035
endloop
endfacet
facet normal 0.499996 0.000003 0.866028
outer loop
vertex -0.004350 0.000000 -0.009035
vertex -0.004400 0.000287 -0.009007
vertex -0.004541 0.000530 -0.008925
endloop
endfacet
facet normal 0.500001 0.000000 0.866025
outer loop
vertex -0.004541 0.000530 -0.008925
vertex -0.004751 0.000693 -0.008804
vertex -0.005000 0.000750 -0.008660
endloop
endfacet
facet normal 0.500004 0.000000 0.866023
outer loop
vertex -0.005000 0.000750 -0.008660
vertex -0.005459 0.000530 -0.008395
vertex -0.005650 -0.000000 -0.008285
endloop
endfacet
facet normal 0.500004 0.000000 0.866023
outer loop
vertex -0.005650 -0.000000 -0.008285
vertex -0.005459 -0.000530 -0.008395
vertex -0.005000 -0.000750 -0.008660
endloop
endfacet
facet normal 0.500004 -0.000000 0.866023
outer loop
vertex -0.005000 -0.000750 -0.008660
vertex -0.004541 -0.000530 -0.008925
vertex -0.004350 0.000000 -0.009035
endloop
endfacet
facet normal 0.500004 0.000000 0.866023
outer loop
vertex -0.004350 0.000000 -0.009035
vertex -0.004541 0.000530 -0.008925
vertex -0.005000 0.000750 -0.008660
endloop
endfacet
facet normal 0.499999 0.000000 0.866026
outer loop
vertex -0.005000 0.000750 -0.008660
vertex -0.005650 -0.000000 -0.008285
vertex -0.005000 -0.000750 -0.008660
endloop
endfacet
facet normal 0.499998 0.000000 0.866026
outer loop
vertex -0.005000 -0.000750 -0.008660
vertex -0.004350 0.000000 -0.009035
vertex -0.005000 0.000750 -0.008660
endloop
endfacet
endsolid Exported from Blender-2.80 (sub 75)
