solid background_inlet_patch
facet normal 0.000000 1.000000 0.000427
outer loop
vertex -0.000037 0.005000 0.000749
vertex 0.000000 0.005000 0.000750
vertex 0.000037 0.005000 0.000749
endloop
endfacet
facet normal 0.000000 1.000000 0.000427
outer loop
vertex 0.000037 0.005000 0.000749
vertex 0.000074 0.005000 0.000746
vertex 0.000110 0.005000 0.000742
endloop
endfacet
facet normal 0.000000 1.000000 0.000427
outer loop
vertex 0.000110 0.005000 0.000742
vertex 0.000146 0.005000 0.000736
vertex 0.000182 0.005000 0.000727
endloop
endfacet
facet normal 0.000000 1.000000 0.000000
outer loop
vertex 0.000182 0.005000 0.000727
vertex 0.000218 0.005000 0.000718
vertex 0.000253 0.005000 0.000706
endloop
endfacet
facet normal 0.000000 1.000000 0.000000
outer loop
vertex 0.000253 0.005000 0.000706
vertex 0.000287 0.005000 0.000693
vertex 0.000321 0.005000 0.000678
endloop
endfacet
facet normal 0.000000 1.000000 -0.000427
outer loop
vertex 0.000321 0.005000 0.000678
vertex 0.000354 0.005000 0.000661
vertex 0.000386 0.005000 0.000643
endloop
endfacet
facet normal 0.000000 1.000000 0.000000
outer loop
vertex 0.000386 0.005000 0.000643
vertex 0.000417 0.005000 0.000624
vertex 0.000447 0.005000 0.000602
endloop
endfacet
facet normal 0.000000 1.000000 0.000427
outer loop
vertex 0.000447 0.005000 0.000602
vertex 0.000476 0.005000 0.000580
vertex 0.000504 0.005000 0.000556
endloop
endfacet
facet normal 0.000000 1.000000 -0.000427
outer loop
vertex 0.000504 0.005000 0.000556
vertex 0.000530 0.005000 0.000530
vertex 0.000556 0.005000 0.000504
endloop
endfacet
facet normal 0.000000 1.000000 0.000000
outer loop
vertex 0.000556 0.005000 0.000504
vertex 0.000580 0.005000 0.000476
vertex 0.000602 0.005000 0.000447
endloop
endfacet
facet normal 0.003372 0.999992 0.002137
outer loop
vertex 0.000602 0.005000 0.000447
vertex 0.000624 0.005000 0.000417
vertex 0.000643 0.005000 0.000386
endloop
endfacet
facet normal -0.003588 0.999992 -0.001923
outer loop
vertex 0.000643 0.005000 0.000386
vertex 0.000662 0.005000 0.000354
vertex 0.000678 0.005000 0.000321
endloop
endfacet
facet normal 0.000000 1.000000 0.000000
outer loop
vertex 0.000678 0.005000 0.000321
vertex 0.000693 0.005000 0.000287
vertex 0.000706 0.005000 0.000253
endloop
endfacet
facet normal 0.000000 1.000000 0.000000
outer loop
vertex 0.000706 0.005000 0.000253
vertex 0.000718 0.005000 0.000218
vertex 0.000728 0.005000 0.000182
endloop
endfacet
facet normal 0.000000 1.000000 0.000000
outer loop
vertex 0.000728 0.005000 0.000182
vertex 0.000736 0.005000 0.000146
vertex 0.000742 0.005000 0.000110
endloop
endfacet
facet normal 0.000000 1.000000 -0.000027
outer loop
vertex 0.000742 0.005000 0.000110
vertex 0.000746 0.005000 0.000073
vertex 0.000749 0.005000 0.000037
endloop
endfacet
facet normal 0.000000 1.000000 0.000000
outer loop
vertex 0.000749 0.005000 0.000037
vertex 0.000750 0.005000 -0.000000
vertex 0.000749 0.005000 -0.000037
endloop
endfacet
facet normal 0.000000 1.000000 0.000053
outer loop
vertex 0.000749 0.005000 -0.000037
vertex 0.000746 0.005000 -0.000074
vertex 0.000742 0.005000 -0.000110
endloop
endfacet
facet normal 0.000000 1.000000 0.000000
outer loop
vertex 0.000742 0.005000 -0.000110
vertex 0.000736 0.005000 -0.000146
vertex 0.000728 0.005000 -0.000182
endloop
endfacet
facet normal 0.000000 1.000000 0.000000
outer loop
vertex 0.000728 0.005000 -0.000182
vertex 0.000718 0.005000 -0.000218
vertex 0.000706 0.005000 -0.000253
endloop
endfacet
facet normal 0.000000 1.000000 0.000214
outer loop
vertex 0.000706 0.005000 -0.000253
vertex 0.000693 0.005000 -0.000287
vertex 0.000678 0.005000 -0.000321
endloop
endfacet
facet normal 0.003813 0.999991 -0.001923
outer loop
vertex 0.000678 0.005000 -0.000321
vertex 0.000662 0.005000 -0.000354
vertex 0.000643 0.005000 -0.000386
endloop
endfacet
facet normal 0.000000 1.000000 -0.000214
outer loop
vertex 0.000643 0.005000 -0.000386
vertex 0.000624 0.005000 -0.000417
vertex 0.000602 0.005000 -0.000447
endloop
endfacet
facet normal 0.000000 1.000000 0.000000
outer loop
vertex 0.000602 0.005000 -0.000447
vertex 0.000580 0.005000 -0.000476
vertex 0.000556 0.005000 -0.000504
endloop
endfacet
facet normal 0.000000 1.000000 0.000000
outer loop
vertex 0.000556 0.005000 -0.000504
vertex 0.000530 0.005000 -0.000530
vertex 0.000504 0.005000 -0.000556
endloop
endfacet
facet normal 0.000000 1.000000 0.000427
outer loop
vertex 0.000504 0.005000 -0.000556
vertex 0.000476 0.005000 -0.000580
vertex 0.000447 0.005000 -0.000602
endloop
endfacet
facet normal 0.000000 1.000000 0.000427
outer loop
vertex 0.000447 0.005000 -0.000602
vertex 0.000417 0.005000 -0.000624
vertex 0.000386 0.005000 -0.000643
endloop
endfacet
facet normal 0.000000 1.000000 0.000427
outer loop
vertex 0.000386 0.005000 -0.000643
vertex 0.000354 0.005000 -0.000661
vertex 0.000321 0.005000 -0.000678
endloop
endfacet
facet normal 0.000000 1.000000 0.000427
outer loop
vertex 0.000321 0.005000 -0.000678
vertex 0.000287 0.005000 -0.000693
vertex 0.000253 0.005000 -0.000706
endloop
endfacet
facet normal 0.000000 1.000000 0.000000
outer loop
vertex 0.000253 0.005000 -0.000706
vertex 0.000218 0.005000 -0.000718
vertex 0.000182 0.005000 -0.000728
endloop
endfacet
facet normal 0.000000 1.000000 0.000000
outer loop
vertex 0.000182 0.005000 -0.000728
vertex 0.000146 0.005000 -0.000736
vertex 0.000110 0.005000 -0.000742
endloop
endfacet
facet normal 0.000000 1.000000 0.000427
outer loop
vertex 0.000110 0.005000 -0.000742
vertex 0.000074 0.005000 -0.000746
vertex 0.000037 0.005000 -0.000749
endloop
endfacet
facet normal 0.000000 1.000000 0.000427
outer loop
vertex 0.000037 0.005000 -0.000749
vertex 0.000000 0.005000 -0.000750
vertex -0.000037 0.005000 -0.000749
endloop
endfacet
facet normal 0.000000 1.000000 0.000000
outer loop
vertex -0.000037 0.005000 -0.000749
vertex -0.000073 0.005000 -0.000746
vertex -0.000110 0.005000 -0.000742
endloop
endfacet
facet normal 0.000000 1.000000 0.000427
outer loop
vertex -0.000110 0.005000 -0.000742
vertex -0.000146 0.005000 -0.000736
vertex -0.000182 0.005000 -0.000728
endloop
endfacet
facet normal 0.000000 1.000000 -0.000427
outer loop
vertex -0.000182 0.005000 -0.000728
vertex -0.000218 0.005000 -0.000718
vertex -0.000253 0.005000 -0.000706
endloop
endfacet
facet normal 0.000000 1.000000 -0.000427
outer loop
vertex -0.000253 0.005000 -0.000706
vertex -0.000287 0.005000 -0.000693
vertex -0.000321 0.005000 -0.000678
endloop
endfacet
facet normal 0.000000 1.000000 0.000000
outer loop
vertex -0.000321 0.005000 -0.000678
vertex -0.000353 0.005000 -0.000661
vertex -0.000386 0.005000 -0.000643
endloop
endfacet
facet normal 0.000000 1.000000 0.000000
outer loop
vertex -0.000386 0.005000 -0.000643
vertex -0.000417 0.005000 -0.000624
vertex -0.000447 0.005000 -0.000602
endloop
endfacet
facet normal 0.000000 1.000000 -0.000427
outer loop
vertex -0.000447 0.005000 -0.000602
vertex -0.000476 0.005000 -0.000580
vertex -0.000504 0.005000 -0.000556
endloop
endfacet
facet normal 0.000000 1.000000 -0.000427
outer loop
vertex -0.000504 0.005000 -0.000556
vertex -0.000530 0.005000 -0.000530
vertex -0.000556 0.005000 -0.000504
endloop
endfacet
facet normal 0.000000 1.000000 0.000214
outer loop
vertex -0.000556 0.005000 -0.000504
vertex -0.000580 0.005000 -0.000476
vertex -0.000602 0.005000 -0.000447
endloop
endfacet
facet normal 0.000000 1.000000 0.000000
outer loop
vertex -0.000602 0.005000 -0.000447
vertex -0.000624 0.005000 -0.000417
vertex -0.000643 0.005000 -0.000386
endloop
endfacet
facet normal -0.003814 0.999991 -0.001924
outer loop
vertex -0.000643 0.005000 -0.000386
vertex -0.000661 0.005000 -0.000354
vertex -0.000678 0.005000 -0.000321
endloop
endfacet
facet normal 0.000000 1.000000 -0.000214
outer loop
vertex -0.000678 0.005000 -0.000321
vertex -0.000693 0.005000 -0.000287
vertex -0.000706 0.005000 -0.000253
endloop
endfacet
facet normal 0.000000 1.000000 -0.000107
outer loop
vertex -0.000706 0.005000 -0.000253
vertex -0.000718 0.005000 -0.000218
vertex -0.000727 0.005000 -0.000182
endloop
endfacet
facet normal 0.000000 1.000000 0.000000
outer loop
vertex -0.000727 0.005000 -0.000182
vertex -0.000736 0.005000 -0.000146
vertex -0.000742 0.005000 -0.000110
endloop
endfacet
facet normal 0.000000 1.000000 0.000027
outer loop
vertex -0.000742 0.005000 -0.000110
vertex -0.000746 0.005000 -0.000074
vertex -0.000749 0.005000 -0.000037
endloop
endfacet
facet normal 0.000000 1.000000 0.000000
outer loop
vertex -0.000749 0.005000 -0.000037
vertex -0.000750 0.005000 -0.000000
vertex -0.000749 0.005000 0.000037
endloop
endfacet
facet normal 0.000000 1.000000 -0.000053
outer loop
vertex -0.000749 0.005000 0.000037
vertex -0.000746 0.005000 0.000073
vertex -0.000742 0.005000 0.000110
endloop
endfacet
facet normal 0.000000 1.000000 0.000000
outer loop
vertex -0.000742 0.005000 0.000110
vertex -0.000736 0.005000 0.000146
vertex -0.000727 0.005000 0.000182
endloop
endfacet
facet normal 0.000000 1.000000 0.000000
outer loop
vertex -0.000727 0.005000 0.000182
vertex -0.000718 0.005000 0.000218
vertex -0.000706 0.005000 0.000253
endloop
endfacet
facet normal 0.000000 1.000000 0.000000
outer loop
vertex -0.000706 0.005000 0.000253
vertex -0.000693 0.005000 0.000287
vertex -0.000678 0.005000 0.000321
endloop
endfacet
facet normal 0.003589 0.999991 -0.002137
outer loop
vertex -0.000678 0.005000 0.000321
vertex -0.000661 0.005000 0.000354
vertex -0.000643 0.005000 0.000386
endloop
endfacet
facet normal -0.003373 0.999992 0.002137
outer loop
vertex -0.000643 0.005000 0.000386
vertex -0.000624 0.005000 0.000417
vertex -0.000602 0.005000 0.000447
endloop
endfacet
facet normal 0.000000 1.000000 0.000000
outer loop
vertex -0.000602 0.005000 0.000447
vertex -0.000580 0.005000 0.000476
vertex -0.000556 0.005000 0.000504
endloop
endfacet
facet normal 0.000000 1.000000 0.000000
outer loop
vertex -0.000556 0.005000 0.000504
vertex -0.000530 0.005000 0.000530
vertex -0.000504 0.005000 0.000556
endloop
endfacet
facet normal 0.000000 1.000000 0.000000
outer loop
vertex -0.000504 0.005000 0.000556
vertex -0.000476 0.005000 0.000580
vertex -0.000447 0.005000 0.000602
endloop
endfacet
facet normal 0.000000 1.000000 0.000000
outer loop
vertex -0.000447 0.005000 0.000602
vertex -0.000417 0.005000 0.000624
vertex -0.000386 0.005000 0.000643
endloop
endfacet
facet normal 0.000000 1.000000 -0.000427
outer loop
vertex -0.000386 0.005000 0.000643
vertex -0.000353 0.005000 0.000661
vertex -0.000321 0.005000 0.000678
endloop
endfacet
facet normal 0.000000 1.000000 0.000000
outer loop
vertex -0.000321 0.005000 0.000678
vertex -0.000287 0.005000 0.000693
vertex -0.000253 0.005000 0.000706
endloop
endfacet
facet normal 0.000000 1.000000 0.000000
outer loop
vertex -0.000253 0.005000 0.000706
vertex -0.000218 0.005000 0.000718
vertex -0.000182 0.005000 0.000727
endloop
endfacet
facet normal 0.000000 1.000000 -0.000427
outer loop
vertex -0.000182 0.005000 0.000727
vertex -0.000146 0.005000 0.000736
vertex -0.000110 0.005000 0.000742
endloop
endfacet
facet normal 0.000000 1.000000 0.000000
outer loop
vertex -0.000110 0.005000 0.000742
vertex -0.000073 0.005000 0.000746
vertex -0.000037 0.005000 0.000749
endloop
endfacet
facet normal 0.000000 1.000000 -0.000107
outer loop
vertex -0.000037 0.005000 0.000749
vertex 0.000037 0.005000 0.000749
vertex 0.000110 0.005000 0.000742
endloop
endfacet
facet normal 0.000000 1.000000 0.000107
outer loop
vertex 0.000110 0.005000 0.000742
vertex 0.000182 0.005000 0.000727
vertex 0.000253 0.005000 0.000706
endloop
endfacet
facet normal 0.000000 1.000000 -0.000107
outer loop
vertex 0.000253 0.005000 0.000706
vertex 0.000321 0.005000 0.000678
vertex 0.000386 0.005000 0.000643
endloop
endfacet
facet normal 0.000000 1.000000 0.000000
outer loop
vertex 0.000386 0.005000 0.000643
vertex 0.000447 0.005000 0.000602
vertex 0.000504 0.005000 0.000556
endloop
endfacet
facet normal 0.000000 1.000000 -0.000054
outer loop
vertex 0.000504 0.005000 0.000556
vertex 0.000556 0.005000 0.000504
vertex 0.000602 0.005000 0.000447
endloop
endfacet
facet normal -0.001770 0.999998 -0.001017
outer loop
vertex 0.000602 0.005000 0.000447
vertex 0.000643 0.005000 0.000386
vertex 0.000678 0.005000 0.000321
endloop
endfacet
facet normal 0.000000 1.000000 -0.000027
outer loop
vertex 0.000678 0.005000 0.000321
vertex 0.000706 0.005000 0.000253
vertex 0.000728 0.005000 0.000182
endloop
endfacet
facet normal 0.000000 1.000000 0.000000
outer loop
vertex 0.000728 0.005000 0.000182
vertex 0.000742 0.005000 0.000110
vertex 0.000749 0.005000 0.000037
endloop
endfacet
facet normal 0.000000 1.000000 0.000000
outer loop
vertex 0.000749 0.005000 0.000037
vertex 0.000749 0.005000 -0.000037
vertex 0.000742 0.005000 -0.000110
endloop
endfacet
facet normal 0.000000 1.000000 0.000027
outer loop
vertex 0.000742 0.005000 -0.000110
vertex 0.000728 0.005000 -0.000182
vertex 0.000706 0.005000 -0.000253
endloop
endfacet
facet normal -0.001014 0.999999 0.000428
outer loop
vertex 0.000706 0.005000 -0.000253
vertex 0.000678 0.005000 -0.000321
vertex 0.000643 0.005000 -0.000386
endloop
endfacet
facet normal 0.000000 1.000000 0.000054
outer loop
vertex 0.000643 0.005000 -0.000386
vertex 0.000602 0.005000 -0.000447
vertex 0.000556 0.005000 -0.000504
endloop
endfacet
facet normal 0.000000 1.000000 -0.000107
outer loop
vertex 0.000556 0.005000 -0.000504
vertex 0.000504 0.005000 -0.000556
vertex 0.000447 0.005000 -0.000602
endloop
endfacet
facet normal 0.000000 1.000000 -0.000107
outer loop
vertex 0.000447 0.005000 -0.000602
vertex 0.000386 0.005000 -0.000643
vertex 0.000321 0.005000 -0.000678
endloop
endfacet
facet normal 0.000000 1.000000 0.000000
outer loop
vertex 0.000321 0.005000 -0.000678
vertex 0.000253 0.005000 -0.000706
vertex 0.000182 0.005000 -0.000728
endloop
endfacet
facet normal 0.000000 1.000000 -0.000107
outer loop
vertex 0.000182 0.005000 -0.000728
vertex 0.000110 0.005000 -0.000742
vertex 0.000037 0.005000 -0.000749
endloop
endfacet
facet normal 0.000000 1.000000 0.000000
outer loop
vertex 0.000037 0.005000 -0.000749
vertex -0.000037 0.005000 -0.000749
vertex -0.000110 0.005000 -0.000742
endloop
endfacet
facet normal 0.000000 1.000000 0.000000
outer loop
vertex -0.000110 0.005000 -0.000742
vertex -0.000182 0.005000 -0.000728
vertex -0.000253 0.005000 -0.000706
endloop
endfacet
facet normal 0.000000 1.000000 0.000107
outer loop
vertex -0.000253 0.005000 -0.000706
vertex -0.000321 0.005000 -0.000678
vertex -0.000386 0.005000 -0.000643
endloop
endfacet
facet normal 0.000000 1.000000 0.000107
outer loop
vertex -0.000386 0.005000 -0.000643
vertex -0.000447 0.005000 -0.000602
vertex -0.000504 0.005000 -0.000556
endloop
endfacet
facet normal 0.000000 1.000000 0.000054
outer loop
vertex -0.000504 0.005000 -0.000556
vertex -0.000556 0.005000 -0.000504
vertex -0.000602 0.005000 -0.000447
endloop
endfacet
facet normal -0.000912 0.999999 -0.000642
outer loop
vertex -0.000602 0.005000 -0.000447
vertex -0.000643 0.005000 -0.000386
vertex -0.000678 0.005000 -0.000321
endloop
endfacet
facet normal 0.000000 1.000000 0.000027
outer loop
vertex -0.000678 0.005000 -0.000321
vertex -0.000706 0.005000 -0.000253
vertex -0.000727 0.005000 -0.000182
endloop
endfacet
facet normal 0.000000 1.000000 0.000000
outer loop
vertex -0.000727 0.005000 -0.000182
vertex -0.000742 0.005000 -0.000110
vertex -0.000749 0.005000 -0.000037
endloop
endfacet
facet normal 0.000000 1.000000 0.000000
outer loop
vertex -0.000749 0.005000 -0.000037
vertex -0.000749 0.005000 0.000037
vertex -0.000742 0.005000 0.000110
endloop
endfacet
facet normal 0.000000 1.000000 -0.000027
outer loop
vertex -0.000742 0.005000 0.000110
vertex -0.000727 0.005000 0.000182
vertex -0.000706 0.005000 0.000253
endloop
endfacet
facet normal -0.000954 0.999999 0.000375
outer loop
vertex -0.000706 0.005000 0.000253
vertex -0.000678 0.005000 0.000321
vertex -0.000643 0.005000 0.000386
endloop
endfacet
facet normal -0.000798 0.999999 0.000749
outer loop
vertex -0.000643 0.005000 0.000386
vertex -0.000602 0.005000 0.000447
vertex -0.000556 0.005000 0.000504
endloop
endfacet
facet normal 0.000000 1.000000 -0.000107
outer loop
vertex -0.000556 0.005000 0.000504
vertex -0.000504 0.005000 0.000556
vertex -0.000447 0.005000 0.000602
endloop
endfacet
facet normal 0.000000 1.000000 0.000107
outer loop
vertex -0.000447 0.005000 0.000602
vertex -0.000386 0.005000 0.000643
vertex -0.000321 0.005000 0.000678
endloop
endfacet
facet normal 0.000000 1.000000 0.000000
outer loop
vertex -0.000321 0.005000 0.000678
vertex -0.000253 0.005000 0.000706
vertex -0.000182 0.005000 0.000727
endloop
endfacet
facet normal 0.000000 1.000000 0.000000
outer loop
vertex -0.000182 0.005000 0.000727
vertex -0.000110 0.005000 0.000742
vertex -0.000037 0.005000 0.000749
endloop
endfacet
facet normal 0.000000 1.000000 -0.000027
outer loop
vertex -0.000037 0.005000 0.000749
vertex 0.000110 0.005000 0.000742
vertex 0.000253 0.005000 0.000706
endloop
endfacet
facet normal 0.000000 1.000000 0.000027
outer loop
vertex 0.000253 0.005000 0.000706
vertex 0.000386 0.005000 0.000643
vertex 0.000504 0.005000 0.000556
endloop
endfacet
facet normal 0.000000 1.000000 0.000000
outer loop
vertex 0.000504 0.005000 0.000556
vertex 0.000602 0.005000 0.000447
vertex 0.000678 0.005000 0.000321
endloop
endfacet
facet normal 0.000000 1.000000 0.000000
outer loop
vertex 0.000678 0.005000 0.000321
vertex 0.000728 0.005000 0.000182
vertex 0.000749 0.005000 0.000037
endloop
endfacet
facet normal 0.000000 1.000000 0.000000
outer loop
vertex 0.000749 0.005000 0.000037
vertex 0.000742 0.005000 -0.000110
vertex 0.000706 0.005000 -0.000253
endloop
endfacet
facet normal 0.000222 1.000000 -0.000148
outer loop
vertex 0.000706 0.005000 -0.000253
vertex 0.000643 0.005000 -0.000386
vertex 0.000556 0.005000 -0.000504
endloop
endfacet
facet normal 0.000000 1.000000 0.000027
outer loop
vertex 0.000556 0.005000 -0.000504
vertex 0.000447 0.005000 -0.000602
vertex 0.000321 0.005000 -0.000678
endloop
endfacet
facet normal 0.000000 1.000000 0.000054
outer loop
vertex 0.000321 0.005000 -0.000678
vertex 0.000182 0.005000 -0.000728
vertex 0.000037 0.005000 -0.000749
endloop
endfacet
facet normal 0.000000 1.000000 -0.000027
outer loop
vertex 0.000037 0.005000 -0.000749
vertex -0.000110 0.005000 -0.000742
vertex -0.000253 0.005000 -0.000706
endloop
endfacet
facet normal 0.000000 1.000000 -0.000027
outer loop
vertex -0.000253 0.005000 -0.000706
vertex -0.000386 0.005000 -0.000643
vertex -0.000504 0.005000 -0.000556
endloop
endfacet
facet normal -0.000204 1.000000 -0.000175
outer loop
vertex -0.000504 0.005000 -0.000556
vertex -0.000602 0.005000 -0.000447
vertex -0.000678 0.005000 -0.000321
endloop
endfacet
facet normal 0.000000 1.000000 0.000003
outer loop
vertex -0.000678 0.005000 -0.000321
vertex -0.000727 0.005000 -0.000182
vertex -0.000749 0.005000 -0.000037
endloop
endfacet
facet normal 0.000000 1.000000 0.000000
outer loop
vertex -0.000749 0.005000 -0.000037
vertex -0.000742 0.005000 0.000110
vertex -0.000706 0.005000 0.000253
endloop
endfacet
facet normal 0.000443 1.000000 -0.000270
outer loop
vertex -0.000706 0.005000 0.000253
vertex -0.000643 0.005000 0.000386
vertex -0.000556 0.005000 0.000504
endloop
endfacet
facet normal 0.000000 1.000000 0.000000
outer loop
vertex -0.000556 0.005000 0.000504
vertex -0.000447 0.005000 0.000602
vertex -0.000321 0.005000 0.000678
endloop
endfacet
facet normal 0.000000 1.000000 -0.000027
outer loop
vertex -0.000321 0.005000 0.000678
vertex -0.000182 0.005000 0.000727
vertex -0.000037 0.005000 0.000749
endloop
endfacet
facet normal 0.000000 1.000000 0.000000
outer loop
vertex -0.000037 0.005000 0.000749
vertex 0.000253 0.005000 0.000706
vertex 0.000504 0.005000 0.000556
endloop
endfacet
facet normal 0.000000 1.000000 -0.000002
outer loop
vertex 0.000504 0.005000 0.000556
vertex 0.000678 0.005000 0.000321
vertex 0.000749 0.005000 0.000037
endloop
endfacet
facet normal -0.000070 1.000000 0.000010
outer loop
vertex 0.000749 0.005000 0.000037
vertex 0.000706 0.005000 -0.000253
vertex 0.000556 0.005000 -0.000504
endloop
endfacet
facet normal 0.000000 1.000000 -0.000021
outer loop
vertex 0.000556 0.005000 -0.000504
vertex 0.000321 0.005000 -0.000678
vertex 0.000037 0.005000 -0.000749
endloop
endfacet
facet normal 0.000000 1.000000 0.000007
outer loop
vertex 0.000037 0.005000 -0.000749
vertex -0.000253 0.005000 -0.000706
vertex -0.000504 0.005000 -0.000556
endloop
endfacet
facet normal 0.000069 1.000000 0.000016
outer loop
vertex -0.000504 0.005000 -0.000556
vertex -0.000678 0.005000 -0.000321
vertex -0.000749 0.005000 -0.000037
endloop
endfacet
facet normal 0.000000 1.000000 0.000000
outer loop
vertex -0.000749 0.005000 -0.000037
vertex -0.000706 0.005000 0.000253
vertex -0.000556 0.005000 0.000504
endloop
endfacet
facet normal 0.000000 1.000000 0.000007
outer loop
vertex -0.000556 0.005000 0.000504
vertex -0.000321 0.005000 0.000678
vertex -0.000037 0.005000 0.000749
endloop
endfacet
facet normal 0.000000 1.000000 0.000002
outer loop
vertex -0.000037 0.005000 0.000749
vertex 0.000504 0.005000 0.000556
vertex 0.000749 0.005000 0.000037
endloop
endfacet
facet normal 0.000008 1.000000 -0.000018
outer loop
vertex 0.000749 0.005000 0.000037
vertex 0.000556 0.005000 -0.000504
vertex 0.000037 0.005000 -0.000749
endloop
endfacet
facet normal -0.000007 1.000000 -0.000017
outer loop
vertex 0.000037 0.005000 -0.000749
vertex -0.000504 0.005000 -0.000556
vertex -0.000749 0.005000 -0.000037
endloop
endfacet
facet normal 0.000000 1.000000 0.000000
outer loop
vertex -0.000749 0.005000 -0.000037
vertex -0.000556 0.005000 0.000504
vertex -0.000037 0.005000 0.000749
endloop
endfacet
facet normal -0.000005 1.000000 -0.000006
outer loop
vertex -0.000037 0.005000 0.000749
vertex 0.000749 0.005000 0.000037
vertex 0.000037 0.005000 -0.000749
endloop
endfacet
facet normal 0.000006 1.000000 -0.000005
outer loop
vertex 0.000037 0.005000 -0.000749
vertex -0.000749 0.005000 -0.000037
vertex -0.000037 0.005000 0.000749
endloop
endfacet
endsolid background_inlet_patch
