solid outlet_patch
facet normal 0.000000 -0.999977 -0.006839
outer loop
vertex 0.000074 -0.060000 0.000746
vertex 0.000037 -0.060000 0.000749
vertex 0.000000 -0.060000 0.000750
endloop
endfacet
facet normal 0.000000 -0.999977 -0.006840
outer loop
vertex 0.000000 -0.060000 0.000750
vertex -0.000037 -0.060000 0.000749
vertex -0.000074 -0.060000 0.000746
endloop
endfacet
facet normal 0.000000 -0.999977 0.006840
outer loop
vertex -0.000074 -0.060000 0.000746
vertex -0.000110 -0.060000 0.000742
vertex -0.000146 -0.060000 0.000736
endloop
endfacet
facet normal 0.000000 -0.999977 0.006840
outer loop
vertex -0.000146 -0.060000 0.000736
vertex -0.000182 -0.060000 0.000728
vertex -0.000218 -0.060000 0.000718
endloop
endfacet
facet normal 0.000000 -0.999977 -0.006839
outer loop
vertex -0.000218 -0.060000 0.000718
vertex -0.000253 -0.060000 0.000706
vertex -0.000287 -0.060000 0.000693
endloop
endfacet
facet normal 0.000000 -1.000000 0.000000
outer loop
vertex -0.000287 -0.060000 0.000693
vertex -0.000321 -0.060000 0.000678
vertex -0.000354 -0.060000 0.000661
endloop
endfacet
facet normal 0.000000 -1.000000 0.000000
outer loop
vertex -0.000354 -0.060000 0.000661
vertex -0.000386 -0.060000 0.000643
vertex -0.000417 -0.060000 0.000624
endloop
endfacet
facet normal 0.000000 -0.999994 -0.003419
outer loop
vertex -0.000417 -0.060000 0.000624
vertex -0.000447 -0.060000 0.000602
vertex -0.000476 -0.060000 0.000580
endloop
endfacet
facet normal 0.000000 -0.999994 0.003420
outer loop
vertex -0.000476 -0.060000 0.000580
vertex -0.000504 -0.060000 0.000556
vertex -0.000530 -0.060000 0.000530
endloop
endfacet
facet normal 0.000000 -1.000000 0.000000
outer loop
vertex -0.000530 -0.060000 0.000530
vertex -0.000556 -0.060000 0.000504
vertex -0.000580 -0.060000 0.000476
endloop
endfacet
facet normal 0.000000 -1.000000 0.000000
outer loop
vertex -0.000580 -0.060000 0.000476
vertex -0.000602 -0.060000 0.000447
vertex -0.000624 -0.060000 0.000417
endloop
endfacet
facet normal 0.000000 -0.999994 0.003419
outer loop
vertex -0.000624 -0.060000 0.000417
vertex -0.000643 -0.060000 0.000386
vertex -0.000661 -0.060000 0.000354
endloop
endfacet
facet normal 0.000000 -1.000000 0.000000
outer loop
vertex -0.000661 -0.060000 0.000354
vertex -0.000678 -0.060000 0.000321
vertex -0.000693 -0.060000 0.000287
endloop
endfacet
facet normal 0.000000 -0.999999 -0.001710
outer loop
vertex -0.000693 -0.060000 0.000287
vertex -0.000706 -0.060000 0.000253
vertex -0.000718 -0.060000 0.000218
endloop
endfacet
facet normal 0.000000 -1.000000 0.000000
outer loop
vertex -0.000718 -0.060000 0.000218
vertex -0.000728 -0.060000 0.000182
vertex -0.000736 -0.060000 0.000146
endloop
endfacet
facet normal 0.000000 -1.000000 0.000000
outer loop
vertex -0.000736 -0.060000 0.000146
vertex -0.000742 -0.060000 0.000110
vertex -0.000746 -0.060000 0.000074
endloop
endfacet
facet normal 0.000000 -1.000000 0.000321
outer loop
vertex -0.000746 -0.060000 0.000074
vertex -0.000749 -0.060000 0.000037
vertex -0.000750 -0.060000 -0.000000
endloop
endfacet
facet normal 0.000000 -1.000000 -0.000427
outer loop
vertex -0.000750 -0.060000 -0.000000
vertex -0.000749 -0.060000 -0.000037
vertex -0.000746 -0.060000 -0.000074
endloop
endfacet
facet normal 0.000000 -1.000000 -0.000855
outer loop
vertex -0.000746 -0.060000 -0.000074
vertex -0.000742 -0.060000 -0.000110
vertex -0.000736 -0.060000 -0.000146
endloop
endfacet
facet normal 0.000000 -1.000000 0.000000
outer loop
vertex -0.000736 -0.060000 -0.000146
vertex -0.000728 -0.060000 -0.000182
vertex -0.000718 -0.060000 -0.000218
endloop
endfacet
facet normal 0.000000 -1.000000 0.000000
outer loop
vertex -0.000718 -0.060000 -0.000218
vertex -0.000706 -0.060000 -0.000253
vertex -0.000693 -0.060000 -0.000287
endloop
endfacet
facet normal 0.000000 -1.000000 0.000000
outer loop
vertex -0.000693 -0.060000 -0.000287
vertex -0.000678 -0.060000 -0.000321
vertex -0.000661 -0.060000 -0.000354
endloop
endfacet
facet normal 0.000000 -1.000000 0.000000
outer loop
vertex -0.000661 -0.060000 -0.000354
vertex -0.000643 -0.060000 -0.000386
vertex -0.000624 -0.060000 -0.000417
endloop
endfacet
facet normal 0.000000 -1.000000 0.000000
outer loop
vertex -0.000624 -0.060000 -0.000417
vertex -0.000602 -0.060000 -0.000447
vertex -0.000580 -0.060000 -0.000476
endloop
endfacet
facet normal 0.000000 -0.999994 0.003420
outer loop
vertex -0.000580 -0.060000 -0.000476
vertex -0.000556 -0.060000 -0.000504
vertex -0.000530 -0.060000 -0.000530
endloop
endfacet
facet normal 0.000000 -1.000000 0.000000
outer loop
vertex -0.000530 -0.060000 -0.000530
vertex -0.000504 -0.060000 -0.000556
vertex -0.000476 -0.060000 -0.000580
endloop
endfacet
facet normal 0.000000 -1.000000 0.000000
outer loop
vertex -0.000476 -0.060000 -0.000580
vertex -0.000447 -0.060000 -0.000602
vertex -0.000417 -0.060000 -0.000624
endloop
endfacet
facet normal 0.000000 -1.000000 0.000000
outer loop
vertex -0.000417 -0.060000 -0.000624
vertex -0.000386 -0.060000 -0.000643
vertex -0.000354 -0.060000 -0.000661
endloop
endfacet
facet normal 0.000000 -0.999977 -0.006839
outer loop
vertex -0.000354 -0.060000 -0.000661
vertex -0.000321 -0.060000 -0.000678
vertex -0.000287 -0.060000 -0.000693
endloop
endfacet
facet normal 0.000000 -0.999977 0.006840
outer loop
vertex -0.000287 -0.060000 -0.000693
vertex -0.000253 -0.060000 -0.000706
vertex -0.000218 -0.060000 -0.000718
endloop
endfacet
facet normal 0.000000 -1.000000 0.000000
outer loop
vertex -0.000218 -0.060000 -0.000718
vertex -0.000182 -0.060000 -0.000728
vertex -0.000146 -0.060000 -0.000736
endloop
endfacet
facet normal 0.000000 -1.000000 0.000000
outer loop
vertex -0.000146 -0.060000 -0.000736
vertex -0.000110 -0.060000 -0.000742
vertex -0.000074 -0.060000 -0.000746
endloop
endfacet
facet normal 0.000000 -0.999977 -0.006839
outer loop
vertex -0.000074 -0.060000 -0.000746
vertex -0.000037 -0.060000 -0.000749
vertex 0.000000 -0.060000 -0.000750
endloop
endfacet
facet normal 0.000000 -0.999906 0.013677
outer loop
vertex 0.000000 -0.060000 -0.000750
vertex 0.000037 -0.060000 -0.000749
vertex 0.000074 -0.060000 -0.000746
endloop
endfacet
facet normal 0.000000 -1.000000 0.000000
outer loop
vertex 0.000074 -0.060000 -0.000746
vertex 0.000110 -0.060000 -0.000742
vertex 0.000146 -0.060000 -0.000736
endloop
endfacet
facet normal 0.000000 -0.999977 -0.006838
outer loop
vertex 0.000146 -0.060000 -0.000736
vertex 0.000182 -0.060000 -0.000728
vertex 0.000218 -0.060000 -0.000718
endloop
endfacet
facet normal 0.000000 -0.999977 -0.006839
outer loop
vertex 0.000218 -0.060000 -0.000718
vertex 0.000253 -0.060000 -0.000706
vertex 0.000287 -0.060000 -0.000693
endloop
endfacet
facet normal 0.000000 -1.000000 0.000000
outer loop
vertex 0.000287 -0.060000 -0.000693
vertex 0.000321 -0.060000 -0.000678
vertex 0.000354 -0.060000 -0.000661
endloop
endfacet
facet normal 0.000000 -0.999994 0.003420
outer loop
vertex 0.000354 -0.060000 -0.000661
vertex 0.000386 -0.060000 -0.000643
vertex 0.000417 -0.060000 -0.000624
endloop
endfacet
facet normal 0.000000 -1.000000 0.000000
outer loop
vertex 0.000417 -0.060000 -0.000624
vertex 0.000447 -0.060000 -0.000602
vertex 0.000476 -0.060000 -0.000580
endloop
endfacet
facet normal 0.000000 -1.000000 0.000000
outer loop
vertex 0.000476 -0.060000 -0.000580
vertex 0.000504 -0.060000 -0.000556
vertex 0.000530 -0.060000 -0.000530
endloop
endfacet
facet normal 0.000000 -0.999994 0.003420
outer loop
vertex 0.000530 -0.060000 -0.000530
vertex 0.000556 -0.060000 -0.000504
vertex 0.000580 -0.060000 -0.000476
endloop
endfacet
facet normal 0.000000 -1.000000 0.000000
outer loop
vertex 0.000580 -0.060000 -0.000476
vertex 0.000602 -0.060000 -0.000447
vertex 0.000624 -0.060000 -0.000417
endloop
endfacet
facet normal 0.000000 -1.000000 0.000000
outer loop
vertex 0.000624 -0.060000 -0.000417
vertex 0.000643 -0.060000 -0.000386
vertex 0.000661 -0.060000 -0.000354
endloop
endfacet
facet normal 0.000000 -1.000000 0.000000
outer loop
vertex 0.000661 -0.060000 -0.000354
vertex 0.000678 -0.060000 -0.000321
vertex 0.000693 -0.060000 -0.000287
endloop
endfacet
facet normal 0.000000 -0.999999 0.001710
outer loop
vertex 0.000693 -0.060000 -0.000287
vertex 0.000706 -0.060000 -0.000253
vertex 0.000718 -0.060000 -0.000218
endloop
endfacet
facet normal 0.000000 -1.000000 0.000000
outer loop
vertex 0.000718 -0.060000 -0.000218
vertex 0.000728 -0.060000 -0.000182
vertex 0.000736 -0.060000 -0.000146
endloop
endfacet
facet normal 0.000000 -1.000000 -0.000855
outer loop
vertex 0.000736 -0.060000 -0.000146
vertex 0.000742 -0.060000 -0.000110
vertex 0.000746 -0.060000 -0.000074
endloop
endfacet
facet normal 0.000000 -1.000000 -0.000107
outer loop
vertex 0.000746 -0.060000 -0.000074
vertex 0.000749 -0.060000 -0.000037
vertex 0.000750 -0.060000 -0.000000
endloop
endfacet
facet normal 0.000000 -1.000000 0.000000
outer loop
vertex 0.000750 -0.060000 -0.000000
vertex 0.000749 -0.060000 0.000037
vertex 0.000746 -0.060000 0.000074
endloop
endfacet
facet normal 0.000000 -1.000000 0.000000
outer loop
vertex 0.000746 -0.060000 0.000074
vertex 0.000742 -0.060000 0.000110
vertex 0.000736 -0.060000 0.000146
endloop
endfacet
facet normal 0.000000 -1.000000 0.000000
outer loop
vertex 0.000736 -0.060000 0.000146
vertex 0.000728 -0.060000 0.000182
vertex 0.000718 -0.060000 0.000218
endloop
endfacet
facet normal 0.000000 -0.999999 0.001710
outer loop
vertex 0.000718 -0.060000 0.000218
vertex 0.000706 -0.060000 0.000253
vertex 0.000693 -0.060000 0.000287
endloop
endfacet
facet normal 0.000000 -1.000000 0.000000
outer loop
vertex 0.000693 -0.060000 0.000287
vertex 0.000678 -0.060000 0.000321
vertex 0.000661 -0.060000 0.000354
endloop
endfacet
facet normal 0.000000 -1.000000 0.000000
outer loop
vertex 0.000661 -0.060000 0.000354
vertex 0.000643 -0.060000 0.000386
vertex 0.000624 -0.060000 0.000417
endloop
endfacet
facet normal 0.000000 -1.000000 0.000000
outer loop
vertex 0.000624 -0.060000 0.000417
vertex 0.000602 -0.060000 0.000447
vertex 0.000580 -0.060000 0.000476
endloop
endfacet
facet normal 0.000000 -1.000000 0.000000
outer loop
vertex 0.000580 -0.060000 0.000476
vertex 0.000556 -0.060000 0.000504
vertex 0.000530 -0.060000 0.000530
endloop
endfacet
facet normal 0.000000 -0.999994 -0.003420
outer loop
vertex 0.000530 -0.060000 0.000530
vertex 0.000504 -0.060000 0.000556
vertex 0.000476 -0.060000 0.000580
endloop
endfacet
facet normal 0.000000 -1.000000 0.000000
outer loop
vertex 0.000476 -0.060000 0.000580
vertex 0.000447 -0.060000 0.000602
vertex 0.000417 -0.060000 0.000624
endloop
endfacet
facet normal 0.000000 -1.000000 0.000000
outer loop
vertex 0.000417 -0.060000 0.000624
vertex 0.000386 -0.060000 0.000643
vertex 0.000354 -0.060000 0.000661
endloop
endfacet
facet normal 0.000000 -1.000000 0.000000
outer loop
vertex 0.000354 -0.060000 0.000661
vertex 0.000321 -0.060000 0.000678
vertex 0.000287 -0.060000 0.000693
endloop
endfacet
facet normal 0.000000 -1.000000 0.000000
outer loop
vertex 0.000287 -0.060000 0.000693
vertex 0.000253 -0.060000 0.000706
vertex 0.000218 -0.060000 0.000718
endloop
endfacet
facet normal 0.000000 -0.999977 0.006839
outer loop
vertex 0.000218 -0.060000 0.000718
vertex 0.000182 -0.060000 0.000728
vertex 0.000146 -0.060000 0.000736
endloop
endfacet
facet normal 0.000000 -0.999977 -0.006839
outer loop
vertex 0.000146 -0.060000 0.000736
vertex 0.000110 -0.060000 0.000742
vertex 0.000074 -0.060000 0.000746
endloop
endfacet
facet normal 0.000000 -0.999994 0.003426
outer loop
vertex 0.000074 -0.060000 0.000746
vertex 0.000000 -0.060000 0.000750
vertex -0.000074 -0.060000 0.000746
endloop
endfacet
facet normal 0.000000 -0.999999 -0.001713
outer loop
vertex -0.000074 -0.060000 0.000746
vertex -0.000146 -0.060000 0.000736
vertex -0.000218 -0.060000 0.000718
endloop
endfacet
facet normal 0.000000 -1.000000 0.000000
outer loop
vertex -0.000218 -0.060000 0.000718
vertex -0.000287 -0.060000 0.000693
vertex -0.000354 -0.060000 0.000661
endloop
endfacet
facet normal 0.000000 -1.000000 0.000856
outer loop
vertex -0.000354 -0.060000 0.000661
vertex -0.000417 -0.060000 0.000624
vertex -0.000476 -0.060000 0.000580
endloop
endfacet
facet normal 0.000000 -1.000000 -0.000856
outer loop
vertex -0.000476 -0.060000 0.000580
vertex -0.000530 -0.060000 0.000530
vertex -0.000580 -0.060000 0.000476
endloop
endfacet
facet normal 0.000000 -1.000000 -0.000856
outer loop
vertex -0.000580 -0.060000 0.000476
vertex -0.000624 -0.060000 0.000417
vertex -0.000661 -0.060000 0.000354
endloop
endfacet
facet normal 0.000000 -1.000000 0.000428
outer loop
vertex -0.000661 -0.060000 0.000354
vertex -0.000693 -0.060000 0.000287
vertex -0.000718 -0.060000 0.000218
endloop
endfacet
facet normal 0.000000 -1.000000 -0.000214
outer loop
vertex -0.000718 -0.060000 0.000218
vertex -0.000736 -0.060000 0.000146
vertex -0.000746 -0.060000 0.000074
endloop
endfacet
facet normal 0.000000 -1.000000 0.000000
outer loop
vertex -0.000746 -0.060000 0.000074
vertex -0.000750 -0.060000 -0.000000
vertex -0.000746 -0.060000 -0.000074
endloop
endfacet
facet normal 0.000000 -1.000000 0.000000
outer loop
vertex -0.000746 -0.060000 -0.000074
vertex -0.000736 -0.060000 -0.000146
vertex -0.000718 -0.060000 -0.000218
endloop
endfacet
facet normal 0.000000 -1.000000 0.000000
outer loop
vertex -0.000718 -0.060000 -0.000218
vertex -0.000693 -0.060000 -0.000287
vertex -0.000661 -0.060000 -0.000354
endloop
endfacet
facet normal 0.000000 -1.000000 0.000000
outer loop
vertex -0.000661 -0.060000 -0.000354
vertex -0.000624 -0.060000 -0.000417
vertex -0.000580 -0.060000 -0.000476
endloop
endfacet
facet normal 0.000000 -1.000000 0.000000
outer loop
vertex -0.000580 -0.060000 -0.000476
vertex -0.000530 -0.060000 -0.000530
vertex -0.000476 -0.060000 -0.000580
endloop
endfacet
facet normal 0.000000 -1.000000 0.000000
outer loop
vertex -0.000476 -0.060000 -0.000580
vertex -0.000417 -0.060000 -0.000624
vertex -0.000354 -0.060000 -0.000661
endloop
endfacet
facet normal 0.000000 -1.000000 0.000000
outer loop
vertex -0.000354 -0.060000 -0.000661
vertex -0.000287 -0.060000 -0.000693
vertex -0.000218 -0.060000 -0.000718
endloop
endfacet
facet normal 0.000000 -0.999999 0.001713
outer loop
vertex -0.000218 -0.060000 -0.000718
vertex -0.000146 -0.060000 -0.000736
vertex -0.000074 -0.060000 -0.000746
endloop
endfacet
facet normal 0.000000 -1.000000 0.000000
outer loop
vertex -0.000074 -0.060000 -0.000746
vertex 0.000000 -0.060000 -0.000750
vertex 0.000074 -0.060000 -0.000746
endloop
endfacet
facet normal 0.000000 -0.999999 0.001713
outer loop
vertex 0.000074 -0.060000 -0.000746
vertex 0.000146 -0.060000 -0.000736
vertex 0.000218 -0.060000 -0.000718
endloop
endfacet
facet normal 0.000000 -0.999999 0.001713
outer loop
vertex 0.000218 -0.060000 -0.000718
vertex 0.000287 -0.060000 -0.000693
vertex 0.000354 -0.060000 -0.000661
endloop
endfacet
facet normal 0.000000 -1.000000 0.000000
outer loop
vertex 0.000354 -0.060000 -0.000661
vertex 0.000417 -0.060000 -0.000624
vertex 0.000476 -0.060000 -0.000580
endloop
endfacet
facet normal 0.000000 -1.000000 0.000000
outer loop
vertex 0.000476 -0.060000 -0.000580
vertex 0.000530 -0.060000 -0.000530
vertex 0.000580 -0.060000 -0.000476
endloop
endfacet
facet normal 0.000000 -1.000000 0.000856
outer loop
vertex 0.000580 -0.060000 -0.000476
vertex 0.000624 -0.060000 -0.000417
vertex 0.000661 -0.060000 -0.000354
endloop
endfacet
facet normal 0.000000 -1.000000 -0.000428
outer loop
vertex 0.000661 -0.060000 -0.000354
vertex 0.000693 -0.060000 -0.000287
vertex 0.000718 -0.060000 -0.000218
endloop
endfacet
facet normal 0.000000 -1.000000 -0.000214
outer loop
vertex 0.000718 -0.060000 -0.000218
vertex 0.000736 -0.060000 -0.000146
vertex 0.000746 -0.060000 -0.000074
endloop
endfacet
facet normal 0.000000 -1.000000 0.000000
outer loop
vertex 0.000746 -0.060000 -0.000074
vertex 0.000750 -0.060000 -0.000000
vertex 0.000746 -0.060000 0.000074
endloop
endfacet
facet normal 0.000000 -1.000000 0.000000
outer loop
vertex 0.000746 -0.060000 0.000074
vertex 0.000736 -0.060000 0.000146
vertex 0.000718 -0.060000 0.000218
endloop
endfacet
facet normal 0.000000 -1.000000 -0.000428
outer loop
vertex 0.000718 -0.060000 0.000218
vertex 0.000693 -0.060000 0.000287
vertex 0.000661 -0.060000 0.000354
endloop
endfacet
facet normal 0.000000 -1.000000 0.000856
outer loop
vertex 0.000661 -0.060000 0.000354
vertex 0.000624 -0.060000 0.000417
vertex 0.000580 -0.060000 0.000476
endloop
endfacet
facet normal 0.000000 -1.000000 0.000000
outer loop
vertex 0.000580 -0.060000 0.000476
vertex 0.000530 -0.060000 0.000530
vertex 0.000476 -0.060000 0.000580
endloop
endfacet
facet normal 0.000000 -1.000000 0.000000
outer loop
vertex 0.000476 -0.060000 0.000580
vertex 0.000417 -0.060000 0.000624
vertex 0.000354 -0.060000 0.000661
endloop
endfacet
facet normal 0.000000 -1.000000 0.000000
outer loop
vertex 0.000354 -0.060000 0.000661
vertex 0.000287 -0.060000 0.000693
vertex 0.000218 -0.060000 0.000718
endloop
endfacet
facet normal 0.000000 -0.999994 0.003426
outer loop
vertex 0.000218 -0.060000 0.000718
vertex 0.000146 -0.060000 0.000736
vertex 0.000074 -0.060000 0.000746
endloop
endfacet
facet normal 0.000000 -1.000000 -0.000431
outer loop
vertex 0.000074 -0.060000 0.000746
vertex -0.000074 -0.060000 0.000746
vertex -0.000218 -0.060000 0.000718
endloop
endfacet
facet normal 0.000000 -1.000000 -0.000431
outer loop
vertex -0.000218 -0.060000 0.000718
vertex -0.000354 -0.060000 0.000661
vertex -0.000476 -0.060000 0.000580
endloop
endfacet
facet normal 0.000000 -1.000000 0.000216
outer loop
vertex -0.000476 -0.060000 0.000580
vertex -0.000580 -0.060000 0.000476
vertex -0.000661 -0.060000 0.000354
endloop
endfacet
facet normal 0.000000 -1.000000 0.000054
outer loop
vertex -0.000661 -0.060000 0.000354
vertex -0.000718 -0.060000 0.000218
vertex -0.000746 -0.060000 0.000074
endloop
endfacet
facet normal 0.000000 -1.000000 0.000000
outer loop
vertex -0.000746 -0.060000 0.000074
vertex -0.000746 -0.060000 -0.000074
vertex -0.000718 -0.060000 -0.000218
endloop
endfacet
facet normal 0.000000 -1.000000 0.000216
outer loop
vertex -0.000718 -0.060000 -0.000218
vertex -0.000661 -0.060000 -0.000354
vertex -0.000580 -0.060000 -0.000476
endloop
endfacet
facet normal 0.000000 -1.000000 -0.000216
outer loop
vertex -0.000580 -0.060000 -0.000476
vertex -0.000476 -0.060000 -0.000580
vertex -0.000354 -0.060000 -0.000661
endloop
endfacet
facet normal 0.000000 -1.000000 0.000431
outer loop
vertex -0.000354 -0.060000 -0.000661
vertex -0.000218 -0.060000 -0.000718
vertex -0.000074 -0.060000 -0.000746
endloop
endfacet
facet normal 0.000000 -1.000000 -0.000431
outer loop
vertex -0.000074 -0.060000 -0.000746
vertex 0.000074 -0.060000 -0.000746
vertex 0.000218 -0.060000 -0.000718
endloop
endfacet
facet normal 0.000000 -1.000000 -0.000863
outer loop
vertex 0.000218 -0.060000 -0.000718
vertex 0.000354 -0.060000 -0.000661
vertex 0.000476 -0.060000 -0.000580
endloop
endfacet
facet normal 0.000000 -1.000000 -0.000216
outer loop
vertex 0.000476 -0.060000 -0.000580
vertex 0.000580 -0.060000 -0.000476
vertex 0.000661 -0.060000 -0.000354
endloop
endfacet
facet normal 0.000000 -1.000000 0.000054
outer loop
vertex 0.000661 -0.060000 -0.000354
vertex 0.000718 -0.060000 -0.000218
vertex 0.000746 -0.060000 -0.000074
endloop
endfacet
facet normal 0.000000 -1.000000 0.000000
outer loop
vertex 0.000746 -0.060000 -0.000074
vertex 0.000746 -0.060000 0.000074
vertex 0.000718 -0.060000 0.000218
endloop
endfacet
facet normal 0.000000 -1.000000 -0.000216
outer loop
vertex 0.000718 -0.060000 0.000218
vertex 0.000661 -0.060000 0.000354
vertex 0.000580 -0.060000 0.000476
endloop
endfacet
facet normal 0.000000 -1.000000 -0.000216
outer loop
vertex 0.000580 -0.060000 0.000476
vertex 0.000476 -0.060000 0.000580
vertex 0.000354 -0.060000 0.000661
endloop
endfacet
facet normal 0.000000 -1.000000 0.000000
outer loop
vertex 0.000354 -0.060000 0.000661
vertex 0.000218 -0.060000 0.000718
vertex 0.000074 -0.060000 0.000746
endloop
endfacet
facet normal 0.000000 -1.000000 0.000111
outer loop
vertex 0.000074 -0.060000 0.000746
vertex -0.000218 -0.060000 0.000718
vertex -0.000476 -0.060000 0.000580
endloop
endfacet
facet normal 0.000000 -1.000000 -0.000056
outer loop
vertex -0.000476 -0.060000 0.000580
vertex -0.000661 -0.060000 0.000354
vertex -0.000746 -0.060000 0.000074
endloop
endfacet
facet normal 0.000000 -1.000000 0.000000
outer loop
vertex -0.000746 -0.060000 0.000074
vertex -0.000718 -0.060000 -0.000218
vertex -0.000580 -0.060000 -0.000476
endloop
endfacet
facet normal 0.000000 -1.000000 0.000000
outer loop
vertex -0.000580 -0.060000 -0.000476
vertex -0.000354 -0.060000 -0.000661
vertex -0.000074 -0.060000 -0.000746
endloop
endfacet
facet normal 0.000000 -1.000000 0.000111
outer loop
vertex -0.000074 -0.060000 -0.000746
vertex 0.000218 -0.060000 -0.000718
vertex 0.000476 -0.060000 -0.000580
endloop
endfacet
facet normal 0.000000 -1.000000 0.000000
outer loop
vertex 0.000476 -0.060000 -0.000580
vertex 0.000661 -0.060000 -0.000354
vertex 0.000746 -0.060000 -0.000074
endloop
endfacet
facet normal 0.000000 -1.000000 0.000056
outer loop
vertex 0.000746 -0.060000 -0.000074
vertex 0.000718 -0.060000 0.000218
vertex 0.000580 -0.060000 0.000476
endloop
endfacet
facet normal 0.000000 -1.000000 0.000000
outer loop
vertex 0.000580 -0.060000 0.000476
vertex 0.000354 -0.060000 0.000661
vertex 0.000074 -0.060000 0.000746
endloop
endfacet
facet normal 0.000000 -1.000000 -0.000016
outer loop
vertex 0.000074 -0.060000 0.000746
vertex -0.000476 -0.060000 0.000580
vertex -0.000746 -0.060000 0.000074
endloop
endfacet
facet normal 0.000000 -1.000000 -0.000016
outer loop
vertex -0.000746 -0.060000 0.000074
vertex -0.000580 -0.060000 -0.000476
vertex -0.000074 -0.060000 -0.000746
endloop
endfacet
facet normal 0.000000 -1.000000 -0.000016
outer loop
vertex -0.000074 -0.060000 -0.000746
vertex 0.000476 -0.060000 -0.000580
vertex 0.000746 -0.060000 -0.000074
endloop
endfacet
facet normal 0.000000 -1.000000 0.000000
outer loop
vertex 0.000746 -0.060000 -0.000074
vertex 0.000580 -0.060000 0.000476
vertex 0.000074 -0.060000 0.000746
endloop
endfacet
facet normal 0.000000 -1.000000 0.000006
outer loop
vertex 0.000074 -0.060000 0.000746
vertex -0.000746 -0.060000 0.000074
vertex -0.000074 -0.060000 -0.000746
endloop
endfacet
facet normal 0.000000 -1.000000 0.000000
outer loop
vertex -0.000074 -0.060000 -0.000746
vertex 0.000746 -0.060000 -0.000074
vertex 0.000074 -0.060000 0.000746
endloop
endfacet
endsolid outlet_patch
