solid particle_inlet_patch
facet normal 0.000000 1.000000 -0.000751
outer loop
vertex -0.000020 0.005000 -0.002600
vertex 0.000000 0.005000 -0.002600
vertex 0.000020 0.005000 -0.002600
endloop
endfacet
facet normal 0.000000 0.999999 -0.001503
outer loop
vertex 0.000020 0.005000 -0.002600
vertex 0.000039 0.005000 -0.002602
vertex 0.000059 0.005000 -0.002604
endloop
endfacet
facet normal 0.000000 1.000000 0.000000
outer loop
vertex 0.000059 0.005000 -0.002604
vertex 0.000078 0.005000 -0.002608
vertex 0.000097 0.005000 -0.002612
endloop
endfacet
facet normal 0.000000 1.000000 -0.000751
outer loop
vertex 0.000097 0.005000 -0.002612
vertex 0.000116 0.005000 -0.002617
vertex 0.000135 0.005000 -0.002623
endloop
endfacet
facet normal 0.000000 1.000000 0.000000
outer loop
vertex 0.000135 0.005000 -0.002623
vertex 0.000153 0.005000 -0.002630
vertex 0.000171 0.005000 -0.002638
endloop
endfacet
facet normal 0.000000 1.000000 -0.000751
outer loop
vertex 0.000171 0.005000 -0.002638
vertex 0.000189 0.005000 -0.002647
vertex 0.000206 0.005000 -0.002657
endloop
endfacet
facet normal 0.000000 1.000000 0.000000
outer loop
vertex 0.000206 0.005000 -0.002657
vertex 0.000222 0.005000 -0.002667
vertex 0.000238 0.005000 -0.002679
endloop
endfacet
facet normal 0.000000 1.000000 -0.000752
outer loop
vertex 0.000238 0.005000 -0.002679
vertex 0.000254 0.005000 -0.002691
vertex 0.000269 0.005000 -0.002704
endloop
endfacet
facet normal 0.000000 1.000000 0.000000
outer loop
vertex 0.000269 0.005000 -0.002704
vertex 0.000283 0.005000 -0.002717
vertex 0.000296 0.005000 -0.002731
endloop
endfacet
facet normal 0.000000 1.000000 -0.000751
outer loop
vertex 0.000296 0.005000 -0.002731
vertex 0.000309 0.005000 -0.002746
vertex 0.000321 0.005000 -0.002762
endloop
endfacet
facet normal 0.000000 1.000000 0.000376
outer loop
vertex 0.000321 0.005000 -0.002762
vertex 0.000333 0.005000 -0.002778
vertex 0.000343 0.005000 -0.002794
endloop
endfacet
facet normal 0.000000 1.000000 0.000000
outer loop
vertex 0.000343 0.005000 -0.002794
vertex 0.000353 0.005000 -0.002811
vertex 0.000362 0.005000 -0.002829
endloop
endfacet
facet normal 0.000000 1.000000 0.000000
outer loop
vertex 0.000362 0.005000 -0.002829
vertex 0.000370 0.005000 -0.002847
vertex 0.000377 0.005000 -0.002865
endloop
endfacet
facet normal 0.000000 1.000000 0.000000
outer loop
vertex 0.000377 0.005000 -0.002865
vertex 0.000383 0.005000 -0.002884
vertex 0.000388 0.005000 -0.002903
endloop
endfacet
facet normal 0.000000 1.000000 -0.000188
outer loop
vertex 0.000388 0.005000 -0.002903
vertex 0.000392 0.005000 -0.002922
vertex 0.000396 0.005000 -0.002941
endloop
endfacet
facet normal 0.000000 1.000000 0.000047
outer loop
vertex 0.000396 0.005000 -0.002941
vertex 0.000398 0.005000 -0.002961
vertex 0.000400 0.005000 -0.002980
endloop
endfacet
facet normal 0.000000 1.000000 0.000000
outer loop
vertex 0.000400 0.005000 -0.002980
vertex 0.000400 0.005000 -0.003000
vertex 0.000400 0.005000 -0.003020
endloop
endfacet
facet normal 0.000000 1.000000 -0.000094
outer loop
vertex 0.000400 0.005000 -0.003020
vertex 0.000398 0.005000 -0.003039
vertex 0.000396 0.005000 -0.003059
endloop
endfacet
facet normal -0.000476 1.000000 0.000000
outer loop
vertex 0.000396 0.005000 -0.003059
vertex 0.000392 0.005000 -0.003078
vertex 0.000388 0.005000 -0.003097
endloop
endfacet
facet normal 0.000000 1.000000 -0.000376
outer loop
vertex 0.000388 0.005000 -0.003097
vertex 0.000383 0.005000 -0.003116
vertex 0.000377 0.005000 -0.003135
endloop
endfacet
facet normal 0.000000 1.000000 0.000376
outer loop
vertex 0.000377 0.005000 -0.003135
vertex 0.000370 0.005000 -0.003153
vertex 0.000362 0.005000 -0.003171
endloop
endfacet
facet normal 0.000000 1.000000 0.000000
outer loop
vertex 0.000362 0.005000 -0.003171
vertex 0.000353 0.005000 -0.003189
vertex 0.000343 0.005000 -0.003206
endloop
endfacet
facet normal 0.000000 1.000000 0.000376
outer loop
vertex 0.000343 0.005000 -0.003206
vertex 0.000333 0.005000 -0.003222
vertex 0.000321 0.005000 -0.003238
endloop
endfacet
facet normal 0.000000 1.000000 -0.000751
outer loop
vertex 0.000321 0.005000 -0.003238
vertex 0.000309 0.005000 -0.003254
vertex 0.000296 0.005000 -0.003269
endloop
endfacet
facet normal 0.000000 1.000000 -0.000751
outer loop
vertex 0.000296 0.005000 -0.003269
vertex 0.000283 0.005000 -0.003283
vertex 0.000269 0.005000 -0.003296
endloop
endfacet
facet normal 0.000000 1.000000 0.000000
outer loop
vertex 0.000269 0.005000 -0.003296
vertex 0.000254 0.005000 -0.003309
vertex 0.000238 0.005000 -0.003321
endloop
endfacet
facet normal 0.000000 1.000000 -0.000751
outer loop
vertex 0.000238 0.005000 -0.003321
vertex 0.000222 0.005000 -0.003333
vertex 0.000206 0.005000 -0.003343
endloop
endfacet
facet normal 0.000000 1.000000 0.000751
outer loop
vertex 0.000206 0.005000 -0.003343
vertex 0.000189 0.005000 -0.003353
vertex 0.000171 0.005000 -0.003362
endloop
endfacet
facet normal 0.000000 1.000000 0.000000
outer loop
vertex 0.000171 0.005000 -0.003362
vertex 0.000153 0.005000 -0.003370
vertex 0.000135 0.005000 -0.003377
endloop
endfacet
facet normal 0.000000 1.000000 0.000000
outer loop
vertex 0.000135 0.005000 -0.003377
vertex 0.000116 0.005000 -0.003383
vertex 0.000097 0.005000 -0.003388
endloop
endfacet
facet normal 0.000000 1.000000 0.000751
outer loop
vertex 0.000097 0.005000 -0.003388
vertex 0.000078 0.005000 -0.003392
vertex 0.000059 0.005000 -0.003396
endloop
endfacet
facet normal 0.000000 1.000000 0.000751
outer loop
vertex 0.000059 0.005000 -0.003396
vertex 0.000039 0.005000 -0.003398
vertex 0.000020 0.005000 -0.003400
endloop
endfacet
facet normal 0.000000 1.000000 0.000000
outer loop
vertex 0.000020 0.005000 -0.003400
vertex 0.000000 0.005000 -0.003400
vertex -0.000020 0.005000 -0.003400
endloop
endfacet
facet normal 0.000000 1.000000 -0.000751
outer loop
vertex -0.000020 0.005000 -0.003400
vertex -0.000039 0.005000 -0.003398
vertex -0.000059 0.005000 -0.003396
endloop
endfacet
facet normal 0.000000 1.000000 -0.000751
outer loop
vertex -0.000059 0.005000 -0.003396
vertex -0.000078 0.005000 -0.003392
vertex -0.000097 0.005000 -0.003388
endloop
endfacet
facet normal 0.000000 1.000000 -0.000751
outer loop
vertex -0.000097 0.005000 -0.003388
vertex -0.000116 0.005000 -0.003383
vertex -0.000135 0.005000 -0.003377
endloop
endfacet
facet normal 0.000000 1.000000 -0.000751
outer loop
vertex -0.000135 0.005000 -0.003377
vertex -0.000153 0.005000 -0.003370
vertex -0.000171 0.005000 -0.003362
endloop
endfacet
facet normal 0.000000 1.000000 -0.000752
outer loop
vertex -0.000171 0.005000 -0.003362
vertex -0.000189 0.005000 -0.003353
vertex -0.000206 0.005000 -0.003343
endloop
endfacet
facet normal 0.000000 1.000000 0.000751
outer loop
vertex -0.000206 0.005000 -0.003343
vertex -0.000222 0.005000 -0.003333
vertex -0.000238 0.005000 -0.003321
endloop
endfacet
facet normal 0.000000 1.000000 -0.000751
outer loop
vertex -0.000238 0.005000 -0.003321
vertex -0.000254 0.005000 -0.003309
vertex -0.000269 0.005000 -0.003296
endloop
endfacet
facet normal 0.000000 1.000000 0.000751
outer loop
vertex -0.000269 0.005000 -0.003296
vertex -0.000283 0.005000 -0.003283
vertex -0.000296 0.005000 -0.003269
endloop
endfacet
facet normal 0.000000 1.000000 0.000000
outer loop
vertex -0.000296 0.005000 -0.003269
vertex -0.000309 0.005000 -0.003254
vertex -0.000321 0.005000 -0.003238
endloop
endfacet
facet normal 0.000000 1.000000 -0.000376
outer loop
vertex -0.000321 0.005000 -0.003238
vertex -0.000333 0.005000 -0.003222
vertex -0.000343 0.005000 -0.003206
endloop
endfacet
facet normal 0.000000 1.000000 0.000000
outer loop
vertex -0.000343 0.005000 -0.003206
vertex -0.000353 0.005000 -0.003189
vertex -0.000362 0.005000 -0.003171
endloop
endfacet
facet normal 0.000000 1.000000 -0.000376
outer loop
vertex -0.000362 0.005000 -0.003171
vertex -0.000370 0.005000 -0.003153
vertex -0.000377 0.005000 -0.003135
endloop
endfacet
facet normal 0.000000 1.000000 -0.000188
outer loop
vertex -0.000377 0.005000 -0.003135
vertex -0.000383 0.005000 -0.003116
vertex -0.000388 0.005000 -0.003097
endloop
endfacet
facet normal 0.000476 1.000000 0.000188
outer loop
vertex -0.000388 0.005000 -0.003097
vertex -0.000392 0.005000 -0.003078
vertex -0.000396 0.005000 -0.003059
endloop
endfacet
facet normal 0.000000 1.000000 0.000000
outer loop
vertex -0.000396 0.005000 -0.003059
vertex -0.000398 0.005000 -0.003039
vertex -0.000400 0.005000 -0.003020
endloop
endfacet
facet normal 0.000000 1.000000 0.000000
outer loop
vertex -0.000400 0.005000 -0.003020
vertex -0.000400 0.005000 -0.003000
vertex -0.000400 0.005000 -0.002980
endloop
endfacet
facet normal 0.000000 1.000000 0.000000
outer loop
vertex -0.000400 0.005000 -0.002980
vertex -0.000398 0.005000 -0.002961
vertex -0.000396 0.005000 -0.002941
endloop
endfacet
facet normal 0.000000 1.000000 0.000188
outer loop
vertex -0.000396 0.005000 -0.002941
vertex -0.000392 0.005000 -0.002922
vertex -0.000388 0.005000 -0.002903
endloop
endfacet
facet normal 0.000000 1.000000 0.000000
outer loop
vertex -0.000388 0.005000 -0.002903
vertex -0.000383 0.005000 -0.002884
vertex -0.000377 0.005000 -0.002865
endloop
endfacet
facet normal 0.000000 1.000000 -0.000376
outer loop
vertex -0.000377 0.005000 -0.002865
vertex -0.000370 0.005000 -0.002847
vertex -0.000362 0.005000 -0.002829
endloop
endfacet
facet normal 0.000000 1.000000 -0.000376
outer loop
vertex -0.000362 0.005000 -0.002829
vertex -0.000353 0.005000 -0.002811
vertex -0.000343 0.005000 -0.002794
endloop
endfacet
facet normal 0.000000 1.000000 0.000000
outer loop
vertex -0.000343 0.005000 -0.002794
vertex -0.000333 0.005000 -0.002778
vertex -0.000321 0.005000 -0.002762
endloop
endfacet
facet normal 0.000000 1.000000 0.000751
outer loop
vertex -0.000321 0.005000 -0.002762
vertex -0.000309 0.005000 -0.002746
vertex -0.000296 0.005000 -0.002731
endloop
endfacet
facet normal 0.000000 1.000000 0.000000
outer loop
vertex -0.000296 0.005000 -0.002731
vertex -0.000283 0.005000 -0.002717
vertex -0.000269 0.005000 -0.002704
endloop
endfacet
facet normal 0.000000 1.000000 0.000000
outer loop
vertex -0.000269 0.005000 -0.002704
vertex -0.000254 0.005000 -0.002691
vertex -0.000238 0.005000 -0.002679
endloop
endfacet
facet normal 0.000000 1.000000 0.000000
outer loop
vertex -0.000238 0.005000 -0.002679
vertex -0.000222 0.005000 -0.002667
vertex -0.000206 0.005000 -0.002657
endloop
endfacet
facet normal 0.000000 1.000000 0.000000
outer loop
vertex -0.000206 0.005000 -0.002657
vertex -0.000189 0.005000 -0.002647
vertex -0.000171 0.005000 -0.002638
endloop
endfacet
facet normal 0.000000 1.000000 0.000000
outer loop
vertex -0.000171 0.005000 -0.002638
vertex -0.000153 0.005000 -0.002630
vertex -0.000135 0.005000 -0.002623
endloop
endfacet
facet normal 0.000000 1.000000 -0.000751
outer loop
vertex -0.000135 0.005000 -0.002623
vertex -0.000116 0.005000 -0.002617
vertex -0.000097 0.005000 -0.002612
endloop
endfacet
facet normal 0.000000 1.000000 0.000000
outer loop
vertex -0.000097 0.005000 -0.002612
vertex -0.000078 0.005000 -0.002608
vertex -0.000059 0.005000 -0.002604
endloop
endfacet
facet normal 0.000000 1.000000 0.000000
outer loop
vertex -0.000059 0.005000 -0.002604
vertex -0.000039 0.005000 -0.002602
vertex -0.000020 0.005000 -0.002600
endloop
endfacet
facet normal 0.000000 1.000000 0.000000
outer loop
vertex -0.000020 0.005000 -0.002600
vertex 0.000020 0.005000 -0.002600
vertex 0.000059 0.005000 -0.002604
endloop
endfacet
facet normal 0.000000 1.000000 0.000376
outer loop
vertex 0.000059 0.005000 -0.002604
vertex 0.000097 0.005000 -0.002612
vertex 0.000135 0.005000 -0.002623
endloop
endfacet
facet normal 0.000000 1.000000 0.000000
outer loop
vertex 0.000135 0.005000 -0.002623
vertex 0.000171 0.005000 -0.002638
vertex 0.000206 0.005000 -0.002657
endloop
endfacet
facet normal 0.000000 1.000000 0.000188
outer loop
vertex 0.000206 0.005000 -0.002657
vertex 0.000238 0.005000 -0.002679
vertex 0.000269 0.005000 -0.002704
endloop
endfacet
facet normal 0.000000 1.000000 0.000188
outer loop
vertex 0.000269 0.005000 -0.002704
vertex 0.000296 0.005000 -0.002731
vertex 0.000321 0.005000 -0.002762
endloop
endfacet
facet normal 0.000000 1.000000 0.000000
outer loop
vertex 0.000321 0.005000 -0.002762
vertex 0.000343 0.005000 -0.002794
vertex 0.000362 0.005000 -0.002829
endloop
endfacet
facet normal 0.000000 1.000000 -0.000094
outer loop
vertex 0.000362 0.005000 -0.002829
vertex 0.000377 0.005000 -0.002865
vertex 0.000388 0.005000 -0.002903
endloop
endfacet
facet normal 0.000000 1.000000 0.000024
outer loop
vertex 0.000388 0.005000 -0.002903
vertex 0.000396 0.005000 -0.002941
vertex 0.000400 0.005000 -0.002980
endloop
endfacet
facet normal 0.000000 1.000000 0.000000
outer loop
vertex 0.000400 0.005000 -0.002980
vertex 0.000400 0.005000 -0.003020
vertex 0.000396 0.005000 -0.003059
endloop
endfacet
facet normal 0.000116 1.000000 0.000000
outer loop
vertex 0.000396 0.005000 -0.003059
vertex 0.000388 0.005000 -0.003097
vertex 0.000377 0.005000 -0.003135
endloop
endfacet
facet normal 0.000000 1.000000 0.000000
outer loop
vertex 0.000377 0.005000 -0.003135
vertex 0.000362 0.005000 -0.003171
vertex 0.000343 0.005000 -0.003206
endloop
endfacet
facet normal 0.000000 1.000000 0.000000
outer loop
vertex 0.000343 0.005000 -0.003206
vertex 0.000321 0.005000 -0.003238
vertex 0.000296 0.005000 -0.003269
endloop
endfacet
facet normal 0.000000 1.000000 0.000000
outer loop
vertex 0.000296 0.005000 -0.003269
vertex 0.000269 0.005000 -0.003296
vertex 0.000238 0.005000 -0.003321
endloop
endfacet
facet normal 0.000000 1.000000 0.000000
outer loop
vertex 0.000238 0.005000 -0.003321
vertex 0.000206 0.005000 -0.003343
vertex 0.000171 0.005000 -0.003362
endloop
endfacet
facet normal 0.000000 1.000000 0.000000
outer loop
vertex 0.000171 0.005000 -0.003362
vertex 0.000135 0.005000 -0.003377
vertex 0.000097 0.005000 -0.003388
endloop
endfacet
facet normal 0.000000 1.000000 -0.000376
outer loop
vertex 0.000097 0.005000 -0.003388
vertex 0.000059 0.005000 -0.003396
vertex 0.000020 0.005000 -0.003400
endloop
endfacet
facet normal 0.000000 1.000000 0.000376
outer loop
vertex 0.000020 0.005000 -0.003400
vertex -0.000020 0.005000 -0.003400
vertex -0.000059 0.005000 -0.003396
endloop
endfacet
facet normal 0.000000 1.000000 0.000000
outer loop
vertex -0.000059 0.005000 -0.003396
vertex -0.000097 0.005000 -0.003388
vertex -0.000135 0.005000 -0.003377
endloop
endfacet
facet normal 0.000000 1.000000 0.000000
outer loop
vertex -0.000135 0.005000 -0.003377
vertex -0.000171 0.005000 -0.003362
vertex -0.000206 0.005000 -0.003343
endloop
endfacet
facet normal 0.000000 1.000000 -0.000188
outer loop
vertex -0.000206 0.005000 -0.003343
vertex -0.000238 0.005000 -0.003321
vertex -0.000269 0.005000 -0.003296
endloop
endfacet
facet normal 0.000000 1.000000 0.000188
outer loop
vertex -0.000269 0.005000 -0.003296
vertex -0.000296 0.005000 -0.003269
vertex -0.000321 0.005000 -0.003238
endloop
endfacet
facet normal 0.000000 1.000000 -0.000094
outer loop
vertex -0.000321 0.005000 -0.003238
vertex -0.000343 0.005000 -0.003206
vertex -0.000362 0.005000 -0.003171
endloop
endfacet
facet normal 0.000000 1.000000 -0.000047
outer loop
vertex -0.000362 0.005000 -0.003171
vertex -0.000377 0.005000 -0.003135
vertex -0.000388 0.005000 -0.003097
endloop
endfacet
facet normal 0.000120 1.000000 0.000000
outer loop
vertex -0.000388 0.005000 -0.003097
vertex -0.000396 0.005000 -0.003059
vertex -0.000400 0.005000 -0.003020
endloop
endfacet
facet normal 0.000000 1.000000 0.000000
outer loop
vertex -0.000400 0.005000 -0.003020
vertex -0.000400 0.005000 -0.002980
vertex -0.000396 0.005000 -0.002941
endloop
endfacet
facet normal 0.000000 1.000000 -0.000047
outer loop
vertex -0.000396 0.005000 -0.002941
vertex -0.000388 0.005000 -0.002903
vertex -0.000377 0.005000 -0.002865
endloop
endfacet
facet normal 0.000000 1.000000 0.000094
outer loop
vertex -0.000377 0.005000 -0.002865
vertex -0.000362 0.005000 -0.002829
vertex -0.000343 0.005000 -0.002794
endloop
endfacet
facet normal 0.000000 1.000000 0.000000
outer loop
vertex -0.000343 0.005000 -0.002794
vertex -0.000321 0.005000 -0.002762
vertex -0.000296 0.005000 -0.002731
endloop
endfacet
facet normal 0.000000 1.000000 0.000000
outer loop
vertex -0.000296 0.005000 -0.002731
vertex -0.000269 0.005000 -0.002704
vertex -0.000238 0.005000 -0.002679
endloop
endfacet
facet normal 0.000000 1.000000 -0.000188
outer loop
vertex -0.000238 0.005000 -0.002679
vertex -0.000206 0.005000 -0.002657
vertex -0.000171 0.005000 -0.002638
endloop
endfacet
facet normal 0.000000 1.000000 0.000188
outer loop
vertex -0.000171 0.005000 -0.002638
vertex -0.000135 0.005000 -0.002623
vertex -0.000097 0.005000 -0.002612
endloop
endfacet
facet normal 0.000000 1.000000 -0.000188
outer loop
vertex -0.000097 0.005000 -0.002612
vertex -0.000059 0.005000 -0.002604
vertex -0.000020 0.005000 -0.002600
endloop
endfacet
facet normal 0.000000 1.000000 -0.000047
outer loop
vertex -0.000020 0.005000 -0.002600
vertex 0.000059 0.005000 -0.002604
vertex 0.000135 0.005000 -0.002623
endloop
endfacet
facet normal 0.000000 1.000000 0.000000
outer loop
vertex 0.000135 0.005000 -0.002623
vertex 0.000206 0.005000 -0.002657
vertex 0.000269 0.005000 -0.002704
endloop
endfacet
facet normal 0.000000 1.000000 -0.000024
outer loop
vertex 0.000269 0.005000 -0.002704
vertex 0.000321 0.005000 -0.002762
vertex 0.000362 0.005000 -0.002829
endloop
endfacet
facet normal 0.000000 1.000000 0.000018
outer loop
vertex 0.000362 0.005000 -0.002829
vertex 0.000388 0.005000 -0.002903
vertex 0.000400 0.005000 -0.002980
endloop
endfacet
facet normal -0.000030 1.000000 0.000012
outer loop
vertex 0.000400 0.005000 -0.002980
vertex 0.000396 0.005000 -0.003059
vertex 0.000377 0.005000 -0.003135
endloop
endfacet
facet normal 0.000000 1.000000 0.000000
outer loop
vertex 0.000377 0.005000 -0.003135
vertex 0.000343 0.005000 -0.003206
vertex 0.000296 0.005000 -0.003269
endloop
endfacet
facet normal 0.000000 1.000000 0.000047
outer loop
vertex 0.000296 0.005000 -0.003269
vertex 0.000238 0.005000 -0.003321
vertex 0.000171 0.005000 -0.003362
endloop
endfacet
facet normal 0.000000 1.000000 0.000095
outer loop
vertex 0.000171 0.005000 -0.003362
vertex 0.000097 0.005000 -0.003388
vertex 0.000020 0.005000 -0.003400
endloop
endfacet
facet normal 0.000000 1.000000 -0.000047
outer loop
vertex 0.000020 0.005000 -0.003400
vertex -0.000059 0.005000 -0.003396
vertex -0.000135 0.005000 -0.003377
endloop
endfacet
facet normal 0.000000 1.000000 0.000047
outer loop
vertex -0.000135 0.005000 -0.003377
vertex -0.000206 0.005000 -0.003343
vertex -0.000269 0.005000 -0.003296
endloop
endfacet
facet normal 0.000000 1.000000 0.000000
outer loop
vertex -0.000269 0.005000 -0.003296
vertex -0.000321 0.005000 -0.003238
vertex -0.000362 0.005000 -0.003171
endloop
endfacet
facet normal -0.000029 1.000000 0.000012
outer loop
vertex -0.000362 0.005000 -0.003171
vertex -0.000388 0.005000 -0.003097
vertex -0.000400 0.005000 -0.003020
endloop
endfacet
facet normal 0.000000 1.000000 0.000000
outer loop
vertex -0.000400 0.005000 -0.003020
vertex -0.000396 0.005000 -0.002941
vertex -0.000377 0.005000 -0.002865
endloop
endfacet
facet normal 0.000000 1.000000 0.000000
outer loop
vertex -0.000377 0.005000 -0.002865
vertex -0.000343 0.005000 -0.002794
vertex -0.000296 0.005000 -0.002731
endloop
endfacet
facet normal 0.000000 1.000000 0.000000
outer loop
vertex -0.000296 0.005000 -0.002731
vertex -0.000238 0.005000 -0.002679
vertex -0.000171 0.005000 -0.002638
endloop
endfacet
facet normal 0.000000 1.000000 0.000000
outer loop
vertex -0.000171 0.005000 -0.002638
vertex -0.000097 0.005000 -0.002612
vertex -0.000020 0.005000 -0.002600
endloop
endfacet
facet normal 0.000000 1.000000 0.000012
outer loop
vertex -0.000020 0.005000 -0.002600
vertex 0.000135 0.005000 -0.002623
vertex 0.000269 0.005000 -0.002704
endloop
endfacet
facet normal 0.000000 1.000000 0.000000
outer loop
vertex 0.000269 0.005000 -0.002704
vertex 0.000362 0.005000 -0.002829
vertex 0.000400 0.005000 -0.002980
endloop
endfacet
facet normal 0.000007 1.000000 0.000000
outer loop
vertex 0.000400 0.005000 -0.002980
vertex 0.000377 0.005000 -0.003135
vertex 0.000296 0.005000 -0.003269
endloop
endfacet
facet normal 0.000000 1.000000 -0.000012
outer loop
vertex 0.000296 0.005000 -0.003269
vertex 0.000171 0.005000 -0.003362
vertex 0.000020 0.005000 -0.003400
endloop
endfacet
facet normal 0.000000 1.000000 0.000000
outer loop
vertex 0.000020 0.005000 -0.003400
vertex -0.000135 0.005000 -0.003377
vertex -0.000269 0.005000 -0.003296
endloop
endfacet
facet normal -0.000006 1.000000 -0.000003
outer loop
vertex -0.000269 0.005000 -0.003296
vertex -0.000362 0.005000 -0.003171
vertex -0.000400 0.005000 -0.003020
endloop
endfacet
facet normal 0.000000 1.000000 0.000000
outer loop
vertex -0.000400 0.005000 -0.003020
vertex -0.000377 0.005000 -0.002865
vertex -0.000296 0.005000 -0.002731
endloop
endfacet
facet normal 0.000000 1.000000 -0.000012
outer loop
vertex -0.000296 0.005000 -0.002731
vertex -0.000171 0.005000 -0.002638
vertex -0.000020 0.005000 -0.002600
endloop
endfacet
facet normal 0.000000 1.000000 -0.000003
outer loop
vertex -0.000020 0.005000 -0.002600
vertex 0.000269 0.005000 -0.002704
vertex 0.000400 0.005000 -0.002980
endloop
endfacet
facet normal 0.000001 1.000000 0.000000
outer loop
vertex 0.000400 0.005000 -0.002980
vertex 0.000296 0.005000 -0.003269
vertex 0.000020 0.005000 -0.003400
endloop
endfacet
facet normal -0.000001 1.000000 0.000000
outer loop
vertex 0.000020 0.005000 -0.003400
vertex -0.000269 0.005000 -0.003296
vertex -0.000400 0.005000 -0.003020
endloop
endfacet
facet normal 0.000000 1.000000 0.000007
outer loop
vertex -0.000400 0.005000 -0.003020
vertex -0.000296 0.005000 -0.002731
vertex -0.000020 0.005000 -0.002600
endloop
endfacet
facet normal -0.000001 1.000000 -0.000001
outer loop
vertex -0.000020 0.005000 -0.002600
vertex 0.000400 0.005000 -0.002980
vertex 0.000020 0.005000 -0.003400
endloop
endfacet
facet normal 0.000001 1.000000 -0.000001
outer loop
vertex 0.000020 0.005000 -0.003400
vertex -0.000400 0.005000 -0.003020
vertex -0.000020 0.005000 -0.002600
endloop
endfacet
endsolid particle_inlet_patch
