solid backgroundInletPatch
facet normal 0.499968 -0.000428 0.866044
outer loop
vertex -0.025000 0.000750 -0.043301
vertex -0.025064 0.000746 -0.043265
vertex -0.025127 0.000736 -0.043228
endloop
endfacet
facet normal 0.500438 -0.000214 0.865773
outer loop
vertex -0.025127 0.000736 -0.043228
vertex -0.025189 0.000718 -0.043192
vertex -0.025249 0.000693 -0.043158
endloop
endfacet
facet normal 0.499795 0.000642 0.866143
outer loop
vertex -0.025249 0.000693 -0.043158
vertex -0.025306 0.000661 -0.043124
vertex -0.025361 0.000624 -0.043093
endloop
endfacet
facet normal 0.498862 0.000429 0.866681
outer loop
vertex -0.025361 0.000624 -0.043093
vertex -0.025412 0.000580 -0.043063
vertex -0.025459 0.000530 -0.043036
endloop
endfacet
facet normal 0.500761 -0.000428 0.865585
outer loop
vertex -0.025459 0.000530 -0.043036
vertex -0.025502 0.000476 -0.043011
vertex -0.025540 0.000417 -0.042989
endloop
endfacet
facet normal 0.500092 -0.000107 0.865972
outer loop
vertex -0.025540 0.000417 -0.042989
vertex -0.025573 0.000354 -0.042971
vertex -0.025600 0.000287 -0.042955
endloop
endfacet
facet normal 0.499438 -0.000054 0.866350
outer loop
vertex -0.025600 0.000287 -0.042955
vertex -0.025622 0.000218 -0.042942
vertex -0.025637 0.000146 -0.042933
endloop
endfacet
facet normal 0.500769 -0.000094 0.865581
outer loop
vertex -0.025637 0.000146 -0.042933
vertex -0.025646 0.000074 -0.042928
vertex -0.025650 -0.000000 -0.042926
endloop
endfacet
facet normal 0.500769 0.000107 0.865581
outer loop
vertex -0.025650 -0.000000 -0.042926
vertex -0.025646 -0.000074 -0.042928
vertex -0.025637 -0.000146 -0.042933
endloop
endfacet
facet normal 0.499438 0.000107 0.866350
outer loop
vertex -0.025637 -0.000146 -0.042933
vertex -0.025622 -0.000218 -0.042942
vertex -0.025600 -0.000287 -0.042955
endloop
endfacet
facet normal 0.500092 0.000000 0.865972
outer loop
vertex -0.025600 -0.000287 -0.042955
vertex -0.025573 -0.000354 -0.042971
vertex -0.025540 -0.000417 -0.042989
endloop
endfacet
facet normal 0.500761 0.000428 0.865585
outer loop
vertex -0.025540 -0.000417 -0.042989
vertex -0.025502 -0.000476 -0.043011
vertex -0.025459 -0.000530 -0.043036
endloop
endfacet
facet normal 0.499181 -0.000428 0.866497
outer loop
vertex -0.025459 -0.000530 -0.043036
vertex -0.025412 -0.000580 -0.043063
vertex -0.025361 -0.000624 -0.043093
endloop
endfacet
facet normal 0.499795 -0.000642 0.866143
outer loop
vertex -0.025361 -0.000624 -0.043093
vertex -0.025306 -0.000661 -0.043124
vertex -0.025249 -0.000693 -0.043158
endloop
endfacet
facet normal 0.500277 0.000214 0.865865
outer loop
vertex -0.025249 -0.000693 -0.043158
vertex -0.025189 -0.000718 -0.043192
vertex -0.025127 -0.000736 -0.043228
endloop
endfacet
facet normal 0.499927 0.000428 0.866067
outer loop
vertex -0.025127 -0.000736 -0.043228
vertex -0.025064 -0.000746 -0.043265
vertex -0.025000 -0.000750 -0.043301
endloop
endfacet
facet normal 0.500048 -0.000428 0.865998
outer loop
vertex -0.025000 -0.000750 -0.043301
vertex -0.024936 -0.000746 -0.043338
vertex -0.024873 -0.000736 -0.043374
endloop
endfacet
facet normal 0.500438 -0.000428 0.865772
outer loop
vertex -0.024873 -0.000736 -0.043374
vertex -0.024811 -0.000718 -0.043410
vertex -0.024751 -0.000693 -0.043445
endloop
endfacet
facet normal 0.500117 0.000642 0.865958
outer loop
vertex -0.024751 -0.000693 -0.043445
vertex -0.024694 -0.000661 -0.043478
vertex -0.024639 -0.000624 -0.043510
endloop
endfacet
facet normal 0.499506 0.000428 0.866310
outer loop
vertex -0.024639 -0.000624 -0.043510
vertex -0.024588 -0.000580 -0.043539
vertex -0.024541 -0.000530 -0.043566
endloop
endfacet
facet normal 0.499477 -0.000428 0.866327
outer loop
vertex -0.024541 -0.000530 -0.043566
vertex -0.024498 -0.000476 -0.043591
vertex -0.024460 -0.000417 -0.043613
endloop
endfacet
facet normal 0.498806 -0.000107 0.866714
outer loop
vertex -0.024460 -0.000417 -0.043613
vertex -0.024427 -0.000354 -0.043632
vertex -0.024400 -0.000287 -0.043648
endloop
endfacet
facet normal 0.500080 -0.000054 0.865979
outer loop
vertex -0.024400 -0.000287 -0.043648
vertex -0.024378 -0.000218 -0.043660
vertex -0.024363 -0.000146 -0.043669
endloop
endfacet
facet normal 0.500128 -0.000067 0.865952
outer loop
vertex -0.024363 -0.000146 -0.043669
vertex -0.024354 -0.000074 -0.043674
vertex -0.024350 0.000000 -0.043676
endloop
endfacet
facet normal 0.500127 0.000054 0.865952
outer loop
vertex -0.024350 0.000000 -0.043676
vertex -0.024354 0.000074 -0.043674
vertex -0.024363 0.000146 -0.043669
endloop
endfacet
facet normal 0.500080 0.000000 0.865979
outer loop
vertex -0.024363 0.000146 -0.043669
vertex -0.024378 0.000218 -0.043660
vertex -0.024400 0.000287 -0.043648
endloop
endfacet
facet normal 0.498806 0.000107 0.866714
outer loop
vertex -0.024400 0.000287 -0.043648
vertex -0.024427 0.000354 -0.043632
vertex -0.024460 0.000417 -0.043613
endloop
endfacet
facet normal 0.499477 0.000428 0.866327
outer loop
vertex -0.024460 0.000417 -0.043613
vertex -0.024498 0.000476 -0.043591
vertex -0.024541 0.000530 -0.043566
endloop
endfacet
facet normal 0.499503 -0.000428 0.866312
outer loop
vertex -0.024541 0.000530 -0.043566
vertex -0.024588 0.000580 -0.043539
vertex -0.024639 0.000624 -0.043510
endloop
endfacet
facet normal 0.500117 -0.000642 0.865958
outer loop
vertex -0.024639 0.000624 -0.043510
vertex -0.024694 0.000661 -0.043478
vertex -0.024751 0.000693 -0.043445
endloop
endfacet
facet normal 0.500438 0.000428 0.865772
outer loop
vertex -0.024751 0.000693 -0.043445
vertex -0.024811 0.000718 -0.043410
vertex -0.024873 0.000736 -0.043374
endloop
endfacet
facet normal 0.500008 0.000428 0.866021
outer loop
vertex -0.024873 0.000736 -0.043374
vertex -0.024936 0.000746 -0.043338
vertex -0.025000 0.000750 -0.043301
endloop
endfacet
facet normal 0.499968 0.000108 0.866044
outer loop
vertex -0.025000 0.000750 -0.043301
vertex -0.025127 0.000736 -0.043228
vertex -0.025249 0.000693 -0.043158
endloop
endfacet
facet normal 0.500096 -0.000162 0.865970
outer loop
vertex -0.025249 0.000693 -0.043158
vertex -0.025361 0.000624 -0.043093
vertex -0.025459 0.000530 -0.043036
endloop
endfacet
facet normal 0.499938 0.000135 0.866061
outer loop
vertex -0.025459 0.000530 -0.043036
vertex -0.025540 0.000417 -0.042989
vertex -0.025600 0.000287 -0.042955
endloop
endfacet
facet normal 0.499909 0.000000 0.866078
outer loop
vertex -0.025600 0.000287 -0.042955
vertex -0.025637 0.000146 -0.042933
vertex -0.025650 -0.000000 -0.042926
endloop
endfacet
facet normal 0.499909 0.000000 0.866078
outer loop
vertex -0.025650 -0.000000 -0.042926
vertex -0.025637 -0.000146 -0.042933
vertex -0.025600 -0.000287 -0.042955
endloop
endfacet
facet normal 0.499938 -0.000108 0.866061
outer loop
vertex -0.025600 -0.000287 -0.042955
vertex -0.025540 -0.000417 -0.042989
vertex -0.025459 -0.000530 -0.043036
endloop
endfacet
facet normal 0.500096 0.000162 0.865970
outer loop
vertex -0.025459 -0.000530 -0.043036
vertex -0.025361 -0.000624 -0.043093
vertex -0.025249 -0.000693 -0.043158
endloop
endfacet
facet normal 0.499988 -0.000108 0.866032
outer loop
vertex -0.025249 -0.000693 -0.043158
vertex -0.025127 -0.000736 -0.043228
vertex -0.025000 -0.000750 -0.043301
endloop
endfacet
facet normal 0.499968 0.000216 0.866044
outer loop
vertex -0.025000 -0.000750 -0.043301
vertex -0.024873 -0.000736 -0.043374
vertex -0.024751 -0.000693 -0.043445
endloop
endfacet
facet normal 0.500096 -0.000162 0.865970
outer loop
vertex -0.024751 -0.000693 -0.043445
vertex -0.024639 -0.000624 -0.043510
vertex -0.024541 -0.000530 -0.043566
endloop
endfacet
facet normal 0.500261 0.000135 0.865874
outer loop
vertex -0.024541 -0.000530 -0.043566
vertex -0.024460 -0.000417 -0.043613
vertex -0.024400 -0.000287 -0.043648
endloop
endfacet
facet normal 0.500071 0.000000 0.865985
outer loop
vertex -0.024400 -0.000287 -0.043648
vertex -0.024363 -0.000146 -0.043669
vertex -0.024350 0.000000 -0.043676
endloop
endfacet
facet normal 0.500071 0.000000 0.865985
outer loop
vertex -0.024350 0.000000 -0.043676
vertex -0.024363 0.000146 -0.043669
vertex -0.024400 0.000287 -0.043648
endloop
endfacet
facet normal 0.500261 -0.000108 0.865875
outer loop
vertex -0.024400 0.000287 -0.043648
vertex -0.024460 0.000417 -0.043613
vertex -0.024541 0.000530 -0.043566
endloop
endfacet
facet normal 0.500015 0.000162 0.866016
outer loop
vertex -0.024541 0.000530 -0.043566
vertex -0.024639 0.000624 -0.043510
vertex -0.024751 0.000693 -0.043445
endloop
endfacet
facet normal 0.499968 -0.000216 0.866044
outer loop
vertex -0.024751 0.000693 -0.043445
vertex -0.024873 0.000736 -0.043374
vertex -0.025000 0.000750 -0.043301
endloop
endfacet
facet normal 0.499994 0.000014 0.866029
outer loop
vertex -0.025000 0.000750 -0.043301
vertex -0.025249 0.000693 -0.043158
vertex -0.025459 0.000530 -0.043036
endloop
endfacet
facet normal 0.499958 -0.000007 0.866050
outer loop
vertex -0.025459 0.000530 -0.043036
vertex -0.025600 0.000287 -0.042955
vertex -0.025650 -0.000000 -0.042926
endloop
endfacet
facet normal 0.499958 0.000014 0.866050
outer loop
vertex -0.025650 -0.000000 -0.042926
vertex -0.025600 -0.000287 -0.042955
vertex -0.025459 -0.000530 -0.043036
endloop
endfacet
facet normal 0.500005 -0.000014 0.866023
outer loop
vertex -0.025459 -0.000530 -0.043036
vertex -0.025249 -0.000693 -0.043158
vertex -0.025000 -0.000750 -0.043301
endloop
endfacet
facet normal 0.500015 0.000028 0.866017
outer loop
vertex -0.025000 -0.000750 -0.043301
vertex -0.024751 -0.000693 -0.043445
vertex -0.024541 -0.000530 -0.043566
endloop
endfacet
facet normal 0.499916 -0.000007 0.866074
outer loop
vertex -0.024541 -0.000530 -0.043566
vertex -0.024400 -0.000287 -0.043648
vertex -0.024350 0.000000 -0.043676
endloop
endfacet
facet normal 0.499916 0.000014 0.866074
outer loop
vertex -0.024350 0.000000 -0.043676
vertex -0.024400 0.000287 -0.043648
vertex -0.024541 0.000530 -0.043566
endloop
endfacet
facet normal 0.500005 -0.000028 0.866023
outer loop
vertex -0.024541 0.000530 -0.043566
vertex -0.024751 0.000693 -0.043445
vertex -0.025000 0.000750 -0.043301
endloop
endfacet
facet normal 0.500004 -0.000004 0.866023
outer loop
vertex -0.025000 0.000750 -0.043301
vertex -0.025459 0.000530 -0.043036
vertex -0.025650 -0.000000 -0.042926
endloop
endfacet
facet normal 0.499998 0.000004 0.866027
outer loop
vertex -0.025650 -0.000000 -0.042926
vertex -0.025459 -0.000530 -0.043036
vertex -0.025000 -0.000750 -0.043301
endloop
endfacet
facet normal 0.500004 -0.000008 0.866023
outer loop
vertex -0.025000 -0.000750 -0.043301
vertex -0.024541 -0.000530 -0.043566
vertex -0.024350 0.000000 -0.043676
endloop
endfacet
facet normal 0.500004 0.000008 0.866023
outer loop
vertex -0.024350 0.000000 -0.043676
vertex -0.024541 0.000530 -0.043566
vertex -0.025000 0.000750 -0.043301
endloop
endfacet
facet normal 0.500003 0.000000 0.866024
outer loop
vertex -0.025000 0.000750 -0.043301
vertex -0.025650 -0.000000 -0.042926
vertex -0.025000 -0.000750 -0.043301
endloop
endfacet
facet normal 0.500003 0.000000 0.866024
outer loop
vertex -0.025000 -0.000750 -0.043301
vertex -0.024350 0.000000 -0.043676
vertex -0.025000 0.000750 -0.043301
endloop
endfacet
endsolid backgroundInletPatch
